<?xml version="1.0" standalone="no"?> 
<!DOCTYPE svg PUBLIC "-//W3C//DTD SVG 1.1//EN" "http://www.w3.org/Graphics/SVG/1.1/DTD/svg11.dtd" >
<svg xmlns="http://www.w3.org/2000/svg">
<defs>
  <font id="p-icon-font" horiz-adv-x="511.999">
    <font-face font-family="p-icon-font"
      units-per-em="511.999" ascent="511.999"
      descent="0" />
    <missing-glyph horiz-adv-x="0" />
    <glyph glyph-name="aws-ec2"
      unicode="&#xF101;"
      horiz-adv-x="511.999" d=" M0 511.999H511.999V0H0V511.999z M412.9442601333334 235.51954H378.8109934666667V249.1728466666667H412.9442601333334V413.0125266666667H249.1045801333334V378.8792600000001H235.4512734666667V413.0125266666667A13.653306666666667 13.653306666666667 0 0 0 249.1045801333334 426.6658333333334H412.9442601333334A13.653306666666667 13.653306666666667 0 0 0 426.5975668000001 413.0125266666667V249.1728466666667A13.653306666666667 13.653306666666667 0 0 0 412.9442601333334 235.51954z M262.7578868000001 85.3331666666667H98.9182068A13.653306666666667 13.653306666666667 0 0 0 85.2649001333334 98.9864733333333V262.8261533333333A13.653306666666667 13.653306666666667 0 0 0 98.9182068 276.47946H133.0514734666667V262.8261533333333H98.9182068V98.9864733333333H262.7578868000001V133.11974H276.4111934666667V98.9864733333333A13.653306666666667 13.653306666666667 0 0 0 262.7578868000001 85.3331666666667z M365.2259533333334 317.4393800000001V331.0926866666667H344.7459933333334A14.882104266666667 14.882104266666667 0 0 1 331.0926866666667 344.7459933333334V365.2259533333334H317.4393800000001V344.7459933333334H296.95942V365.2259533333334H283.3061133333334V344.7459933333334H262.8261533333334V365.2259533333334H249.1728466666667V344.7459933333334H228.6928866666667V365.2259533333334H215.03958V344.7459933333334H194.55962V365.2259533333334H180.9063133333334V344.7459933333334A14.882104266666667 14.882104266666667 0 0 1 167.2530066666667 331.0926866666667H146.7730466666667V317.4393800000001H167.2530066666667V296.95942H146.7730466666667V283.3061133333333H167.2530066666667V262.8261533333333H146.7730466666667V249.1728466666667H167.2530066666667V228.6928866666667H146.7730466666667V215.03958H167.2530066666667V194.55962H146.7730466666667V180.9063133333334H167.2530066666667A14.882104266666667 14.882104266666667 0 0 1 180.9063133333334 167.2530066666667V146.7730466666667H194.55962V167.2530066666667H215.03958V146.7730466666667H228.6928866666667V167.2530066666667H249.1728466666667V146.7730466666667H262.8261533333334V167.2530066666667H283.3061133333334V146.7730466666667H296.95942V167.2530066666667H317.4393800000001V146.7730466666667H331.0926866666667V167.2530066666667A14.882104266666667 14.882104266666667 0 0 1 344.7459933333334 180.9063133333334H365.2259533333334V194.55962H344.7459933333334V215.03958H365.2259533333334V228.6928866666667H344.7459933333334V249.1728466666667H365.2259533333334V262.8261533333333H344.7459933333334V283.3061133333333H365.2259533333334V296.95942H344.7459933333334V317.4393800000001zM331.0926866666667 182.1351109333334A1.2287976 1.2287976 0 0 0 329.8638890666667 180.9063133333334H182.1351109333334A1.2287976 1.2287976 0 0 0 180.9063133333334 182.1351109333334V329.8638890666667A1.2287976 1.2287976 0 0 0 182.1351109333334 331.0926866666667H329.8638890666667A1.2287976 1.2287976 0 0 0 331.0926866666667 329.8638890666667z" />
    <glyph glyph-name="aws-network"
      unicode="&#xF102;"
      horiz-adv-x="511.999" d=" M0 511.999H511.999V0H0V511.999z M248.7632474666667 194.4230869333333H153.1901008C115.7800405333333 194.4230869333333 87.1763630666667 219.4086381333334 85.2649001333333 253.7467044C85.2649001333333 255.1803016 85.2649001333333 256.8186984 85.2649001333333 258.4570952A63.01001026666667 63.01001026666667 0 0 0 131.6178762666667 321.8084381333333C131.6178762666667 323.6516345333333 131.6178762666667 325.4265644 131.6178762666667 327.2697608A93.11555146666669 93.11555146666669 0 0 0 291.4980973333334 390.4163041333333A104.31126293333335 104.31126293333335 0 0 0 312.9337888000001 359.7646306666667A42.12045106666667 42.12045106666667 0 0 0 339.3529372000001 369.0488792C359.1502318666667 369.0488792 380.3128572000001 354.9177068 383.7944504 323.4468349333333A75.09318666666667 75.09318666666667 0 0 0 426.8023664 297.983418L416.0845206666667 289.5866344A65.05800626666667 65.05800626666667 0 0 1 376.4216648 311.1588589333333A6.826653333333334 6.826653333333334 0 0 0 370.687276 317.5076465333333C369.1171457333333 343.6537288 353.8254422666667 355.3955725333333 339.3529372 355.3955725333333A29.422875866666665 29.422875866666665 0 0 1 316.0057828 343.5171957333333A6.826653333333334 6.826653333333334 0 0 0 309.5887286666667 340.8548009333333A6.826653333333334 6.826653333333334 0 0 0 304.1956725333333 345.2921256A94.41261560000001 94.41261560000001 0 0 1 282.0090492 380.5859233333333A79.53051133333335 79.53051133333335 0 0 1 145.4759825333333 327.2697608A92.50115266666667 92.50115266666667 0 0 1 146.0221148 317.5076465333333A6.826653333333334 6.826653333333334 0 0 0 140.9021248 310.2031274666666C125.4056217333333 306.3802016 99.2595394666666 294.5018248 99.2595394666666 258.4570952A33.24580173333334 33.24580173333334 0 0 1 99.2595394666666 254.7707024C100.7614032 227.4640890666667 123.6306918666666 208.0763936 153.8727661333333 208.0763936H249.4459128z M344.3363941333334 93.7982168C263.3722856 93.7982168 262.4165541333333 184.7975057333334 262.4165541333333 185.6849706666667V268.7653417333334A6.826653333333334 6.826653333333334 0 0 0 266.8538788 275.1823958666667L341.9470654666667 302.9668749333333A7.167986 7.167986 0 0 0 346.7257228000001 302.9668749333333L421.8189094666667 275.1823958666667A6.826653333333334 6.826653333333334 0 0 0 426.2562341333334 268.7653417333334V180.5649806666667C426.2562341333334 179.6775157333333 425.3005026666667 93.7982168 344.3363941333334 93.7982168zM276.0698608 263.9866844000001V185.6849706666667C276.0698608 182.4764436000001 277.0255922666667 107.4515234666667 344.3363941333334 107.4515234666667S412.6029274666667 177.5612532000001 412.6029274666667 180.5649806666667V263.9866844000001L344.3363941333334 289.3135682666667z M344.3363941333334 119.3299002666667C300.9188789333334 119.3299002666667 290.2692997333333 174.4209926666667 289.7231674666667 176.7420548A3.754659333333334 3.754659333333334 0 0 0 289.7231674666667 177.9708524V248.6949809333334A6.826653333333334 6.826653333333334 0 0 0 294.0239590666667 255.0437685333333L341.8105324 273.8853317333333A6.826653333333334 6.826653333333334 0 0 0 346.8622558666667 273.8853317333333L394.6488292 255.0437685333333A6.826653333333334 6.826653333333334 0 0 0 398.9496208000001 248.6949809333334V177.9708524A7.509318666666668 7.509318666666668 0 0 0 398.9496208000001 176.7420548C398.4034885333334 174.4209926666667 387.7539093333334 119.3299002666667 344.3363941333334 119.3299002666667zM303.3764741333333 178.6535177333333C304.4687386666667 173.4652612 314.2308529333334 132.9832069333333 344.3363941333334 132.9832069333333S384.2040496 173.3969946666667 385.2963141333334 178.6535177333333V244.0528566666667L344.3363941333334 260.1637585333334L303.3764741333333 244.0528566666667z" />
    <glyph glyph-name="btn_gnb_top-logo"
      unicode="&#xF103;"
      horiz-adv-x="511.999" d=" M0 511.999H511.999V0H0V511.999z M255.9995 438.8562857142857A182.85678571428573 182.85678571428573 0 1 0 73.1427142857143 255.9995A182.85678571428573 182.85678571428573 0 0 0 255.9995 438.8562857142857z" />
    <glyph glyph-name="checkbox--checked"
      unicode="&#xF104;"
      horiz-adv-x="511.999" d=" M0 511.999H511.999V0H0V511.999z M85.3331666666667 426.6658333333334H426.6658333333334V85.3331666666667H85.3331666666667z M212.3942518333331 228.7142199583335L161.5783510833333 277.951457125L127.99975 243.5408576666666L213.5249162916667 158.015691375L396.7992249999999 341.3326666666667L366.3139512083332 377.1085967916665z" />
    <glyph glyph-name="checkbox"
      unicode="&#xF105;"
      horiz-adv-x="511.999" d=" M0 511.999H511.999V0H0V511.999z M85.3331666666667 426.6658333333334H426.6658333333334V85.3331666666667H85.3331666666667V426.6658333333334z" />
    <glyph glyph-name="common-gear"
      unicode="&#xF106;"
      horiz-adv-x="511.999" d=" M503.83 215.54V296.4580000000001L453.164 301.524C448.066 323.7030000000001 439.318 344.4780000000001 427.597 363.2040000000001L459.853 402.6280000000001L402.629 459.852L363.205 427.596C344.479 439.3180000000001 323.705 448.0650000000001 301.525 453.163L296.459 503.829H215.541L210.475 453.163C188.296 448.0650000000001 167.521 439.317 148.795 427.596L109.371 459.852L52.147 402.6280000000001L84.403 363.2040000000001C72.681 344.4780000000001 63.934 323.7040000000001 58.836 301.524L8.17 296.4580000000001V215.54L58.836 210.4740000000001C63.934 188.2950000000001 72.682 167.5200000000001 84.403 148.7940000000001L52.147 109.3700000000001L109.371 52.1460000000001L148.795 84.402C167.521 72.6800000000001 188.295 63.9330000000001 210.475 58.835L215.541 8.169H296.459L301.525 58.835C323.704 63.9330000000001 344.479 72.681 363.205 84.402L402.629 52.1460000000001L459.853 109.3700000000001L427.597 148.7940000000001C439.319 167.5200000000001 448.066 188.2940000000001 453.164 210.4740000000001L503.83 215.54zM257.776 86.069C257.188 86.058 256.589 86.058 256 86.058C162.152 86.058 86.06 162.139 86.06 255.998S162.151 425.939 256 425.939C256.588 425.939 257.187 425.939 257.776 425.928C332.767 424.752 393.26 349.129 393.26 255.999S332.767 87.246 257.776 86.069z M257.806 425.927V345.8250000000001C306.605 344.86 345.874 305.028 345.874 255.9980000000001S306.605 167.1370000000001 257.806 166.1710000000001V86.0690000000001C350.834 87.035 425.94 162.739 425.94 255.999S350.834 424.963 257.806 425.927z M257.776 425.9290000000001C257.188 425.9400000000001 256.589 425.9400000000001 256 425.9400000000001C162.152 425.9400000000001 86.06 349.8590000000001 86.06 256S162.151 86.059 256 86.059C256.588 86.059 257.187 86.059 257.776 86.0700000000001C332.7680000000001 87.246 393.26 162.8700000000001 393.26 256.0000000000001S332.767 424.752 257.776 425.9290000000001zM256.002 166.127C206.367 166.127 166.13 206.365 166.13 255.999S206.368 345.8710000000001 256.002 345.8710000000001S345.874 305.6330000000001 345.874 255.999S305.637 166.127 256.002 166.127z M256 364.9350000000001L246.16 347.9410000000001L256.002 332.254C298.117 332.254 332.257 298.1130000000001 332.257 255.999S298.116 179.744 256.002 179.744L245.821 164.101L256 147.0630000000001C316.165 147.0630000000001 364.9360000000001 195.8340000000001 364.9360000000001 255.9990000000001S316.165 364.9350000000001 256 364.9350000000001z M179.747 255.999C179.747 298.1130000000001 213.887 332.2530000000001 256 332.254V364.935C195.835 364.935 147.064 316.164 147.064 255.999S195.835 147.0630000000001 256 147.0630000000001V179.744C213.886 179.745 179.747 213.8850000000001 179.747 255.999z M504.642 304.5900000000001L459.727 309.081C454.8579999999999 327.822 447.427 345.74 437.574 362.496L466.177 397.456C468.8339999999999 400.7030000000001 468.6 405.439 465.631 408.4070000000001L408.409 465.629C405.44 468.598 400.706 468.8320000000001 397.458 466.175L362.498 437.572C345.743 447.425 327.825 454.8560000000001 309.083 459.725L304.592 504.64C304.174 508.818 300.659 511.999 296.462 511.999H215.539C211.341 511.999 207.827 508.818 207.409 504.641L202.918 459.726C184.177 454.857 166.259 447.4260000000001 149.503 437.5730000000001L114.543 466.176C111.295 468.833 106.56 468.597 103.592 465.6300000000001L46.369 408.4070000000001C43.4 405.4380000000001 43.166 400.7040000000001 45.823 397.456L74.426 362.4960000000001C64.573 345.7410000000001 57.142 327.8230000000001 52.273 309.081L7.358 304.5900000000001C3.181 304.173 0 300.658 0 296.461V215.538C0 211.34 3.181 207.826 7.358 207.408L52.273 202.917C57.142 184.1760000000001 64.573 166.2580000000001 74.426 149.502L45.823 114.542C43.166 111.295 43.4 106.559 46.369 103.591L103.591 46.369C106.56 43.4 111.295 43.1660000000001 114.542 45.823L149.502 74.4260000000001C166.257 64.573 184.175 57.1420000000001 202.917 52.273L207.408 7.358C207.826 3.181 211.339 0 215.538 0H296.461C300.659 0 304.173 3.181 304.591 7.358L309.082 52.273C327.8229999999999 57.1420000000001 345.741 64.573 362.497 74.4260000000001L397.457 45.823C400.707 43.1660000000001 405.44 43.402 408.408 46.369L465.6299999999999 103.591C468.5989999999999 106.56 468.8329999999999 111.294 466.1759999999999 114.542L437.5729999999999 149.502C447.426 166.257 454.8569999999999 184.175 459.7259999999999 202.917L504.641 207.408C508.818 207.826 511.999 211.34 511.999 215.538V296.461C512 300.658 508.819 304.173 504.642 304.5900000000001zM495.66 222.9310000000001L452.352 218.6C448.865 218.251 445.9880000000001 215.718 445.2030000000001 212.3010000000001C440.386 191.3530000000001 432.1310000000001 171.446 420.6670000000001 153.1350000000001C418.807 150.1640000000001 419.05 146.34 421.269 143.626L448.848 109.918L402.082 63.152L368.374 90.731C365.663 92.951 361.836 93.191 358.865 91.333C340.553 79.87 320.647 71.6129999999999 299.699 66.797C296.283 66.011 293.749 63.135 293.4000000000001 59.648L289.0680000000001 16.3389999999999H222.9320000000001L218.6010000000001 59.6469999999999C218.2520000000001 63.134 215.7190000000001 66.0109999999999 212.3020000000001 66.7959999999999C191.3540000000001 71.6129999999999 171.4470000000001 79.8679999999999 153.1350000000001 91.3319999999999C150.1650000000001 93.1929999999999 146.3380000000001 92.9499999999999 143.626 90.73L109.918 63.151L63.152 109.917L90.731 143.625C92.95 146.337 93.193 150.163 91.333 153.134C79.8700000000001 171.446 71.613 191.352 66.797 212.3C66.01 215.716 63.135 218.25 59.648 218.599L16.34 222.931V289.067L59.648 293.398C63.135 293.747 66.012 296.28 66.797 299.697C71.614 320.645 79.869 340.552 91.333 358.864C93.193 361.835 92.9500000000001 365.659 90.731 368.373L63.152 402.081L109.918 448.847L143.626 421.268C146.3370000000001 419.048 150.165 418.808 153.1350000000001 420.666C171.4470000000001 432.129 191.3530000000001 440.386 212.3020000000001 445.202C215.7180000000001 445.989 218.2520000000001 448.864 218.6010000000001 452.351L222.9330000000001 495.659H289.0690000000001L293.4000000000001 452.351C293.7490000000001 448.864 296.2820000000001 445.987 299.6990000000001 445.202C320.6470000000001 440.385 340.5540000000001 432.13 358.8650000000001 420.666C361.8360000000001 418.806 365.6620000000001 419.048 368.3740000000001 421.268L402.0820000000001 448.847L448.8480000000002 402.081L421.2690000000001 368.373C419.0500000000002 365.66 418.8070000000002 361.835 420.6670000000002 358.864C432.1300000000002 340.552 440.3870000000002 320.646 445.2030000000002 299.697C445.9890000000002 296.281 448.8650000000001 293.747 452.3520000000001 293.398L495.6600000000001 289.066V222.9310000000001z M256.002 171.573C302.5540000000001 171.573 340.428 209.4470000000001 340.428 255.999S302.554 340.425 256.002 340.425S171.577 302.5510000000001 171.577 255.999S209.45 171.573 256.002 171.573zM256.002 324.0840000000001C293.545 324.0840000000001 324.087 293.5420000000001 324.087 255.999S293.545 187.9140000000001 256.002 187.9140000000001S187.917 218.456 187.917 255.999S218.46 324.0840000000001 256.002 324.0840000000001z M256.002 434.11C211.416 434.11 168.751 417.5540000000001 135.868 387.4910000000001C103.2 357.625 82.902 317.0070000000001 78.714 273.1190000000001C78.285 268.6260000000001 81.579 264.6380000000001 86.07 264.2090000000001C90.579 263.773 94.551 267.0740000000001 94.98 271.5650000000001C102.935 354.915 172.159 417.769 256.002 417.769C345.202 417.769 417.772 345.1990000000001 417.772 255.999S345.202 94.229 256.002 94.229C172.157 94.229 102.933 157.0840000000001 94.98 240.437C94.552 244.93 90.548 248.2340000000001 86.071 247.795C81.578 247.3660000000001 78.285 243.3780000000001 78.713 238.886C82.901 194.9960000000001 103.197 154.377 135.865 124.51C168.75 94.446 211.414 77.89 256.001 77.89C354.211 77.89 434.112 157.79 434.112 256.001S354.212 434.11 256.002 434.11z M147.078 247.7390000000001C142.616 247.0660000000001 139.545 242.903 140.218 238.4410000000001C143.97 213.5750000000001 155.374 191.0120000000001 173.194 173.192C196.025 150.363 226.013 138.948 256.002 138.948S315.979 150.363 338.81 173.192C384.468 218.852 384.468 293.146 338.8090000000001 338.807C293.149 384.464 218.857 384.464 173.196 338.807C155.376 320.986 143.973 298.424 140.22 273.5610000000001C139.547 269.0990000000001 142.618 264.937 147.0800000000001 264.2630000000001C151.5210000000001 263.5890000000001 155.704 266.6600000000001 156.3780000000001 271.1230000000001C159.6060000000001 292.509 169.418 311.9170000000001 184.7520000000001 327.2510000000001C224.04 366.54 287.968 366.5390000000001 327.2560000000001 327.2510000000001S366.5440000000001 224.035 327.2560000000001 184.7470000000001C287.9670000000001 145.4590000000001 224.0390000000001 145.4600000000001 184.7520000000001 184.7470000000001C169.417 200.0810000000001 159.6050000000001 219.4920000000001 156.3770000000001 240.8800000000001C155.702 245.343 151.526 248.413 147.078 247.7390000000001z" />
    <glyph glyph-name="ic_arrow_bottom"
      unicode="&#xF107;"
      horiz-adv-x="511.999" d=" M-229.413243384519 54.273602233178H-458.826486769038V283.6868456176971H-229.413243384519V54.273602233178z M255.9995 170.6663333333334L127.99975 306.1967352916667L161.1943518333333 341.3326666666667L255.9995 240.9381960833334L350.8046481666667 341.3326666666667L383.99925 306.1967352916667z" />
    <glyph glyph-name="ic_arrow_left"
      unicode="&#xF108;"
      horiz-adv-x="511.999" d=" M1688.1906444062815 4048.486618789052H1381.7796875087274V4354.897575686607H1688.1906444062815V4048.486618789052z M-3880.1733079199694 654.81015837315L-3701.656269906647 708.5139105139452L-3685.118489764329 663.0945633981332L-3817.350497076473 623.3231907186243L-3770.077860897729 493.58359109182L-3816.3628915989066 479.6512116305341z" />
    <glyph glyph-name="ic_arrow_right"
      unicode="&#xF109;"
      horiz-adv-x="511.999" d=" M0 511.999H511.999V0H0V511.999z M518.4801785518443 1058.216685565329L454.6697622307816 883.0577388227132L408.3847315296039 896.9901182839994L455.6573677083479 1026.7297179108036L323.4253603962037 1066.5010905903125L339.9631405385221 1111.9204377061242z" />
    <glyph glyph-name="ic_arrow_top"
      unicode="&#xF10A;"
      horiz-adv-x="511.999" d=" M-229.413243384519 54.273602233178H-458.826486769038V283.6868456176971H-229.413243384519V54.273602233178z M194.6286009825771 1434.9311975257042L162.6508014559815 1251.2743267245094L114.6359137204126 1256.8408175583247L138.3301129224887 1392.876293691515L1.1617226826849 1408.7476062280475L9.4453230072043 1456.369000896052z" />
    <glyph glyph-name="ic_back"
      unicode="&#xF10B;"
      horiz-adv-x="511.999" d=" M42.6665833333333 511.999H469.3324166666667ANaN NaN NaN 0 0 511.999 511.999V0ANaN NaN NaN 0 0 469.3324166666667 0H42.6665833333333ANaN NaN NaN 0 0 0 0V511.999ANaN NaN NaN 0 0 42.6665833333333 511.999z M234.6662083333334 383.99925L106.6664583333333 255.9995L234.6662083333334 127.99975 M112.2131141666668 255.9995L133.5464058333335 234.6662083333333L426.6658333333335 234.6662083333333L405.3325416666669 255.9995z" />
    <glyph glyph-name="ic_breadcrum_arrow"
      unicode="&#xF10C;"
      horiz-adv-x="511.999" d=" M0 511.999H511.999V0H0V511.999z M466.0439464015025 1020.0040843554553L418.181366187812 888.6324845772082L392.6040190307055 897.6714005642608L433.7170901842207 1003.8017740414238L323.0535707446321 1036.4384836539025L332.1513999186173 1060.2795087397667z" />
    <glyph glyph-name="ic_dashboard"
      unicode="&#xF10D;"
      horiz-adv-x="511.999" d=" M42.6665833333333 511.999H469.3324166666667A42.666583333333335 42.666583333333335 0 0 0 511.999 469.3324166666667V42.6665833333333A42.666583333333335 42.666583333333335 0 0 0 469.3324166666667 0H42.6665833333333A42.666583333333335 42.666583333333335 0 0 0 0 42.6665833333333V469.3324166666667A42.666583333333335 42.666583333333335 0 0 0 42.6665833333333 511.999z M362.6659583333334 85.3331666666667A20.159960625 20.159960625 0 0 0 341.3326666666667 106.6664583333334V298.6660833333334A20.159960625 20.159960625 0 0 0 362.6659583333334 319.999375H405.3325416666667A20.159960625 20.159960625 0 0 0 426.6658333333334 298.6660833333334V106.6664583333334A20.159960625 20.159960625 0 0 0 405.3325416666667 85.3331666666667zM234.6662083333334 85.3331666666667A20.13862733333334 20.13862733333334 0 0 0 213.3329166666667 106.6664583333334V405.3325416666667A20.159960625 20.159960625 0 0 0 234.6662083333334 426.6658333333334H277.3327916666667A20.159960625 20.159960625 0 0 0 298.6660833333334 405.3325416666667V106.6664583333334A20.13862733333334 20.13862733333334 0 0 0 277.3327916666667 85.3331666666667zM106.6664583333333 85.3331666666667A20.159960625 20.159960625 0 0 0 85.3331666666667 106.6664583333334V191.999625A20.159960625 20.159960625 0 0 0 106.6664583333333 213.3329166666667H149.3330416666667A20.181293916666668 20.181293916666668 0 0 0 170.6663333333334 191.999625V106.6664583333334A20.159960625 20.159960625 0 0 0 149.3330416666667 85.3331666666667z" />
    <glyph glyph-name="ic_delete"
      unicode="&#xF10E;"
      horiz-adv-x="511.999" d=" M0 511.999H511.999V0H0V511.999z M362.6659583333334 360.5326291666667L339.1993375 383.99925L245.3328541666667 290.1327666666667L151.4663708333334 383.99925L127.99975 360.5326291666667L221.8662333333334 266.6661458333334L127.99975 172.7996625L151.4663708333334 149.3330416666667L245.3328541666667 243.199525L339.1993375 149.3330416666667L362.6659583333334 172.7996625L268.7994750000001 266.6661458333334z" />
    <glyph glyph-name="ic_gnb_language"
      unicode="&#xF10F;"
      horiz-adv-x="511.999" d=" M31.9999375 511.999H479.9990625ANaN NaN NaN 0 0 511.999 511.999V0ANaN NaN NaN 0 0 479.9990625 0H31.9999375ANaN NaN NaN 0 0 0 0V511.999ANaN NaN NaN 0 0 31.9999375 511.999z M132.799740625 379.199259375A159.7756879375 159.7756879375 0 0 0 255.9995 431.9991562500001A159.7756879375 159.7756879375 0 0 0 379.199259375 379.199259375A159.7756879375 159.7756879375 0 0 0 431.99915625 255.9995A159.7756879375 159.7756879375 0 0 0 379.199259375 132.799740625A159.7756879375 159.7756879375 0 0 0 255.9995 79.99984375A159.7756879375 159.7756879375 0 0 0 132.799740625 132.799740625A175.64765693750005 175.64765693750005 0 0 0 79.99984375 255.9995A159.7756879375 159.7756879375 0 0 0 132.799740625 379.199259375zM279.47145415625 115.199775Q297.0714197812501 115.199775 323.47136821875 141.5997234375A128.11174978125 128.11174978125 0 0 1 343.9993281250001 203.199603125A48.575905125 48.575905125 0 0 1 329.32735678125 238.399534375A51.63189915625001 51.63189915625001 0 0 1 291.19943125 255.9995H261.87148853125A85.64783271875 85.64783271875 0 0 0 235.47154009375 261.8714885312501A26.623948000000002 26.623948000000002 0 0 0 226.67155728125 282.3994484375001A15.231970249999998 15.231970249999998 0 0 0 232.5435458125 294.1274255312501A22.2399565625 22.2399565625 0 0 0 244.27152290625 299.9994140625A20.015960906249997 20.015960906249997 0 0 0 258.94349425 291.19943125C264.8154827812501 288.27143696875 267.7434770625001 285.32744271875 270.6714713437501 285.32744271875A17.599965625000003 17.599965625000003 0 0 1 282.3994484375001 288.255437A17.599965625000003 17.599965625000003 0 0 1 285.3274427187501 299.98341409375A46.67190884375 46.67190884375 0 0 1 270.655471375 329.3113568125A121.32776303125002 121.32776303125002 0 0 1 285.3274427187501 385.0392479687501A6.303987687500002 6.303987687500002 0 0 1 279.4554541875001 390.9112365000001A90.67182290625 90.67182290625 0 0 1 255.9995 396.7992250000001A146.73571340625 146.73571340625 0 0 1 179.72764896875 373.3272708437501A73.85585575 73.85585575 0 0 1 153.32770053125 314.6553854375001A75.1038533125 75.1038533125 0 0 1 176.7996546875 258.92749428125A80.14384346875002 80.14384346875002 0 0 1 232.5275458437501 235.4555401250001H232.5275458437501V223.7275630312501A37.6639264375 37.6639264375 0 0 1 244.2555229375001 194.3996203125A42.7199165625 42.7199165625 0 0 1 270.655471375 176.7996546875001V123.9997578125C270.655471375 121.07176353125 270.655471375 121.07176353125 273.5834656562501 118.12776928125S276.5274599062501 115.199775 279.47145415625 115.199775z" />
    <glyph glyph-name="ic_gnb_profile"
      unicode="&#xF110;"
      horiz-adv-x="511.999" d=" M31.9999375 511.999H479.9990625ANaN NaN NaN 0 0 511.999 511.999V0ANaN NaN NaN 0 0 479.9990625 0H31.9999375ANaN NaN NaN 0 0 0 0V511.999ANaN NaN NaN 0 0 31.9999375 511.999z M95.9998125 79.99984375A135.03973625 135.03973625 0 0 0 233.13554465625 212.01558590625H278.86345534375A135.03973625 135.03973625 0 0 0 415.9991875 79.99984375zM164.5756785625 321.9993710937501V343.9993281250001A90.03182415625 90.03182415625 0 0 0 256.01549996875 431.9991562500001A90.03182415625 90.03182415625 0 0 0 347.43932140625 343.9993281250001V321.9993710937501A90.03182415625 90.03182415625 0 0 0 256.01549996875 233.99954296875A90.03182415625 90.03182415625 0 0 0 164.5756785625 321.9993710937501z" />
    <glyph glyph-name="ic_gnb_services"
      unicode="&#xF111;"
      horiz-adv-x="511.999" d=" M31.9999375 511.999H479.9990625ANaN NaN NaN 0 0 511.999 511.999V0ANaN NaN NaN 0 0 479.9990625 0H31.9999375ANaN NaN NaN 0 0 0 0V511.999ANaN NaN NaN 0 0 31.9999375 511.999z M95.9998125 335.99934375H175.99965625V415.9991875H95.9998125V335.99934375zM215.999578125 95.9998125H295.999421875V175.99965625H215.999578125V95.9998125zM95.9998125 95.9998125H175.99965625V175.99965625H95.9998125V95.9998125zM95.9998125 215.999578125H175.99965625V295.9994218750001H95.9998125V215.999578125zM215.999578125 215.999578125H295.999421875V295.9994218750001H215.999578125V215.999578125zM335.9993437500001 415.9991875V335.99934375H415.9991875V415.9991875zM215.999578125 335.99934375H295.999421875V415.9991875H215.999578125V335.99934375zM335.9993437500001 215.999578125H415.9991875V295.9994218750001H335.9993437500001V215.999578125zM335.9993437500001 95.9998125H415.9991875V175.99965625H335.9993437500001V95.9998125z" />
    <glyph glyph-name="ic_identity"
      unicode="&#xF112;"
      horiz-adv-x="511.999" d=" M42.6665833333333 511.999H469.3324166666667ANaN NaN NaN 0 0 511.999 511.999V0ANaN NaN NaN 0 0 469.3324166666667 0H42.6665833333333ANaN NaN NaN 0 0 0 0V511.999ANaN NaN NaN 0 0 42.6665833333333 511.999z M341.3326666666667 85.3331666666667V127.99975H298.6660833333334V170.6663333333334H341.3326666666667V213.3329166666667H383.99925V170.6663333333334H426.6658333333334V127.99975H383.99925V85.3331666666667zM85.3331666666667 85.3331666666667V106.6664583333334A105.62112704166667 105.62112704166667 0 0 0 191.999625 213.3329166666667H255.9995V170.6663333333334H191.999625A62.143878625 62.143878625 0 0 1 132.2664083333334 127.99975H255.9995V85.3331666666667zM149.3330416666667 319.999375V341.3326666666667A85.58916616666664 85.58916616666664 0 0 0 234.6662083333334 426.6658333333334A85.58916616666664 85.58916616666664 0 0 0 319.999375 341.3326666666667V319.999375A85.58916616666664 85.58916616666664 0 0 0 234.6662083333334 234.6662083333333A85.58916616666664 85.58916616666664 0 0 0 149.3330416666667 319.999375zM191.999625 341.3326666666667V319.999375A42.79458308333332 42.79458308333332 0 0 1 234.6662083333334 277.3327916666667A42.79458308333332 42.79458308333332 0 0 1 277.3327916666667 319.999375V341.3326666666667A42.79458308333332 42.79458308333332 0 0 1 234.6662083333334 383.99925A42.79458308333332 42.79458308333332 0 0 1 191.999625 341.3326666666667z" />
    <glyph glyph-name="ic_inventory"
      unicode="&#xF113;"
      horiz-adv-x="511.999" d=" M42.6665833333333 511.999H469.3324166666667ANaN NaN NaN 0 0 511.999 511.999V0ANaN NaN NaN 0 0 469.3324166666667 0H42.6665833333333ANaN NaN NaN 0 0 0 0V511.999ANaN NaN NaN 0 0 42.6665833333333 511.999z M383.99925 426.6658333333334H127.99975A20.159960625 20.159960625 0 0 1 106.6664583333333 405.3325416666667V85.3331666666667L170.6663333333334 127.99975L213.3329166666667 85.3331666666667L255.9995 127.99975L298.6660833333334 85.3331666666667L341.3326666666667 127.99975L405.3325416666667 85.3331666666667V405.3325416666667A20.159960625 20.159960625 0 0 1 383.99925 426.6658333333334zM341.3326666666667 213.3329166666667H170.6663333333334V255.9995H341.3326666666667zM341.3326666666667 298.6660833333334H170.6663333333334V341.3326666666667H341.3326666666667z" />
    <glyph glyph-name="ic_plus"
      unicode="&#xF114;"
      horiz-adv-x="511.999" d=" M0 511.999H511.999V0H0V511.999z M469.425028860085 546.3376028548079L437.1296665570976 538.697304405817L467.6908603530611 409.5158551938677L338.5094111411117 378.9546613979042L346.1497095901026 346.6592990949169L475.331158802052 377.2204928908804L505.8923525980154 248.0390436789309L538.1877149010027 255.6793421279218L507.6265211050392 384.8607913398712L636.8079703169886 415.4219851358347L629.1676718679978 447.717347438822L499.9862226560484 417.1561536428585z" />
    <glyph glyph-name="ic_refresh"
      unicode="&#xF115;"
      horiz-adv-x="511.999" d=" M6522.591643095346 -1884.4194525217504H6293.178399710828V-1655.0062091372313H6522.591643095346V-1884.4194525217504z M-116.4502935248648 7570.53913188666A149.33304166666667 149.33304166666667 0 0 1 -116.4502935248648 7271.873048553326A162.1330166666667 162.1330166666667 0 0 1 32.8827481418019 7383.872829803327H-6581.505435540851A129.66374675 129.66374675 0 0 0 -116.4502935248648 7309.206308969992A111.99978125000003 111.99978125000003 0 0 0 -116.4502935248648 7533.205871469992A87.12516316666665 87.12516316666665 0 0 0 -41.7837726915309 7495.872611053326L-97.7836633165309 7439.872720428327H-6660.815920229041V-5474.685357302092L-4.4505122748648 7533.205871469993A235.24220720833335 235.24220720833335 0 0 1 -116.4502935248648 7570.53913188666z" />
    <glyph glyph-name="ic_search"
      unicode="&#xF116;"
      horiz-adv-x="511.999" d=" M0 511.999H511.999V0H0V511.999z M329.1513571250001 212.1169190416668H313.5993875000001L307.7540655833334 217.9622409583335A122.09042820833331 122.09042820833331 0 0 1 338.9646712916667 299.8820809583335A126.783752375 126.783752375 0 1 1 212.1809189166668 173.0983285833335A122.09042820833331 122.09042820833331 0 0 1 294.1007589166668 204.3089342916668L299.9460808333334 198.4636123750001V182.8689761666668L397.4178904583335 85.3331666666667L426.6658333333334 114.5811095416669zM212.1169190416667 212.1169190416668A87.76516191666667 87.76516191666667 0 1 0 299.8820809583334 299.8820809583335A87.46649583333334 87.46649583333334 0 0 0 212.1169190416668 212.1169190416668z" />
    <glyph glyph-name="ic_setting"
      unicode="&#xF117;"
      horiz-adv-x="511.999" d=" M6522.591643095346 -1884.4194525217504H6293.178399710828V-1655.0062091372313H6522.591643095346V-1884.4194525217504z M-153.276052835449 7573.478201184446L-129.8094320021157 7618.278113684446L-159.6760403354486 7648.144722017781L-204.4759528354485 7624.678101184446A76.41585075000002 76.41585075000002 0 0 1 -227.9425736687818 7633.211417851114L-245.0092070021156 7684.411317851113H-6938.418205201613L-304.7424236687816 7635.344747017781A89.15182587500001 89.15182587500001 0 0 1 -326.0757153354482 7626.811430351116L-370.8756278354493 7650.278051184448L-402.8755653354494 7618.278113684448L-379.4089445021158 7573.478201184448A89.15182587500001 89.15182587500001 0 0 1 -387.9422611687824 7552.14490951778L-437.0088320021159 7535.078276184448V2189.3659991897057L-387.9422611687826 2172.2993658563723C-385.8089320021158 2163.7660491897054 -381.5422736687825 2157.3660616897055 -379.4089445021159 2148.832745023039L-402.8755653354487 7407.078526184448L-373.0089570021153 7377.211917851115L-328.2090445021153 7400.678538684448A76.41585075000002 76.41585075000002 0 0 1 -304.7424236687819 7392.1452220177825L-287.6757903354492 7343.078651184446H-6701.246275967014L-6684.179642633681 7392.145222017781C-6675.6463259670145 7394.278551184448 -6669.2463384670145 7398.545209517781 -6660.713021800348 7400.678538684447L-159.6760403354483 7377.211917851115L-129.8094320021158 7407.078526184448L-153.2760528354491 7451.87843868445A76.41585075000002 76.41585075000002 0 0 1 -144.7427361687824 7475.345059517783L-95.6761653354489 7492.411692851114V2426.5379284243036L-144.7427361687822 2443.6045617576374A89.15182587500001 89.15182587500001 0 0 1 -153.276052835449 7573.478201184446zM-266.3424986687822 7449.745109517782A62.84787725000001 62.84787725000001 0 0 0 -330.342373668782 7513.744984517781A62.84787725000001 62.84787725000001 0 0 0 -266.3424986687822 7577.744859517781A62.84787725000001 62.84787725000001 0 0 0 -202.3426236687823 7513.744984517781A62.84787725000001 62.84787725000001 0 0 0 -266.3424986687822 7449.745109517782z" />
    <glyph glyph-name="ic_table_sort"
      unicode="&#xF118;"
      horiz-adv-x="511.999" d=" M0 511.999H511.999V0H0V511.999z M170.6663333333334 213.3329166666667L255.9995 127.99975L341.3326666666667 213.3329166666667z M170.6663333333334 298.6660833333334L255.9995 383.99925L341.3326666666667 298.6660833333334z" />
    <glyph glyph-name="ic_table_sort_fromA"
      unicode="&#xF119;"
      horiz-adv-x="511.999" d=" M0 511.999H511.999V0H0V511.999z M170.6663333333334 319.999375L255.9995 191.999625L341.3326666666667 319.999375z" />
    <glyph glyph-name="ic_table_sort_fromZ"
      unicode="&#xF11A;"
      horiz-adv-x="511.999" d=" M0 511.999H511.999V0H0V511.999z M215.1791035450568 1471.5849975711237L266.6579478145691 1616.5526281860266L113.0421179125387 1608.3147803521522z" />
    <glyph glyph-name="radio--checked"
      unicode="&#xF11B;"
      horiz-adv-x="511.999" d=" M0 511.999H511.999V0H0V511.999z M42.6665833333333 255.9995C42.6665833333333 138.1789834880767 138.1789834880764 42.6665833333333 255.9995 42.6665833333333C373.8200165119237 42.6665833333333 469.3324166666667 138.1789834880767 469.3324166666667 255.9995C469.3324166666667 373.8200165119233 373.8200165119237 469.3324166666667 255.9995 469.3324166666667C138.1789834880764 469.3324166666667 42.6665833333333 373.8200165119233 42.6665833333333 255.9995z M63.999875 255.9995C63.999875 149.961035139269 149.961035139269 63.999875 255.9995 63.999875C362.0379648607311 63.999875 447.9991250000001 149.961035139269 447.9991250000001 255.9995C447.9991250000001 362.0379648607311 362.0379648607311 447.9991250000001 255.9995 447.9991250000001C149.961035139269 447.9991250000001 63.999875 362.0379648607311 63.999875 255.9995z M255.9995 362.6659583333334A106.66645833333332 106.66645833333332 0 1 0 149.3330416666667 255.9995A106.66645833333332 106.66645833333332 0 0 0 255.9995 362.6659583333334z" />
    <glyph glyph-name="radio"
      unicode="&#xF11C;"
      horiz-adv-x="511.999" d=" M0 511.999H511.999V0H0V511.999z M42.6665833333333 255.9995C42.6665833333333 138.1789834880767 138.1789834880764 42.6665833333333 255.9995 42.6665833333333C373.8200165119237 42.6665833333333 469.3324166666667 138.1789834880767 469.3324166666667 255.9995C469.3324166666667 373.8200165119233 373.8200165119237 469.3324166666667 255.9995 469.3324166666667C138.1789834880764 469.3324166666667 42.6665833333333 373.8200165119233 42.6665833333333 255.9995z M53.3332291666667 255.9995C53.3332291666667 144.0700093136728 144.0700093136725 53.3332291666667 255.9995 53.3332291666667C367.9289906863275 53.3332291666667 458.6657708333333 144.0700093136728 458.6657708333333 255.9995C458.6657708333333 367.9289906863272 367.9289906863275 458.6657708333333 255.9995 458.6657708333333C144.0700093136725 458.6657708333333 53.3332291666667 367.9289906863272 53.3332291666667 255.9995z" />
  </font>
</defs>
</svg>
