<svg width="32" height="32" viewBox="0 0 32 32" fill="none" xmlns="http://www.w3.org/2000/svg">
<rect width="32" height="32" rx="6" fill="#6638B6"/>
<circle cx="16" cy="16" r="15" fill="white"/>
<path d="M16.0214 1.00005C7.74257 0.978714 1.02139 7.67855 1.00005 15.9787C0.978714 24.2574 7.67856 30.9786 15.9787 31C24.2575 31.0213 30.9787 24.3215 31 16.0213C31 7.74256 24.3002 1.02139 16.0214 1.00005ZM21.1849 5.84356C21.4837 5.84356 21.7184 6.07827 21.7184 6.37699C21.7184 6.67571 21.4837 6.91041 21.1849 6.91041C20.8862 6.91041 20.6515 6.67571 20.6515 6.37699C20.6302 6.07827 20.8862 5.84356 21.1849 5.84356ZM19.6913 3.53916C19.8834 3.53916 20.0541 3.70986 20.0541 3.90189C20.0541 4.09392 19.8834 4.26462 19.6913 4.26462C19.4993 4.26462 19.3286 4.09392 19.3286 3.90189C19.3286 3.68852 19.4993 3.53916 19.6913 3.53916ZM14.3784 3.77387C14.7625 3.77387 15.0825 4.09392 15.0825 4.47799C15.0825 4.86206 14.7625 5.18211 14.3784 5.18211C13.9943 5.18211 13.6743 4.86206 13.6743 4.47799C13.6743 4.09392 13.9943 3.77387 14.3784 3.77387ZM5.52351 15.6159L4.77672 15.872C4.75538 15.872 4.75538 15.8933 4.75538 15.8933L4.54201 16.6614C4.54201 16.7041 4.478 16.7041 4.478 16.6614L4.20061 15.9147C4.20061 15.8933 4.17928 15.8933 4.17928 15.8933L3.41114 15.6799C3.36847 15.6799 3.36847 15.6159 3.41114 15.6159L4.15794 15.3599C4.17928 15.3599 4.17928 15.3385 4.17928 15.3385L4.39265 14.5704C4.39265 14.5277 4.45666 14.5277 4.45666 14.5704L4.7127 15.3172C4.7127 15.3385 4.73404 15.3385 4.73404 15.3385L5.50218 15.5519C5.54485 15.5519 5.54485 15.5946 5.52351 15.6159ZM5.97159 8.01994C5.97159 7.72122 6.2063 7.48652 6.50502 7.48652C6.80374 7.48652 7.03845 7.72122 7.03845 8.01994C7.03845 8.31866 6.80374 8.55337 6.50502 8.55337C6.2063 8.55337 5.97159 8.31866 5.97159 8.01994ZM6.91042 11.0925C6.69705 11.0925 6.52636 10.9218 6.52636 10.7084C6.52636 10.495 6.69705 10.3243 6.91042 10.3243C7.1238 10.3243 7.29449 10.495 7.29449 10.7084C7.29449 10.9218 7.1238 11.0925 6.91042 11.0925ZM15.9573 29.7837C12.8635 29.7624 10.047 28.7596 7.76391 27.0739C8.48937 26.1138 9.34285 25.3456 10.367 24.6842C10.4097 24.7269 10.4737 24.7482 10.5164 24.7909C12.1167 25.6657 13.9517 26.2631 15.9147 26.2631C17.899 26.2631 19.7767 25.687 21.3983 24.7909C21.441 24.7695 21.505 24.7269 21.5477 24.6842C22.5718 25.3456 23.4253 26.1138 24.1508 27.0739C21.8677 28.7596 19.0512 29.7837 15.9573 29.7837ZM16 24.5135C11.3059 24.5135 7.48653 20.6942 7.48653 16C7.48653 11.3058 11.3059 7.48652 16 7.48652C20.6942 7.48652 24.5135 11.3058 24.5135 16C24.5135 20.6942 20.6942 24.5135 16 24.5135ZM26.3272 20.3741C26.0498 20.3741 25.8364 20.1607 25.8364 19.8833C25.8364 19.606 26.0498 19.3926 26.3272 19.3926C26.6046 19.3926 26.8179 19.606 26.8179 19.8833C26.8179 20.1607 26.6046 20.3741 26.3272 20.3741ZM27.5861 10.8578L26.6686 11.1778C26.6472 11.1778 26.6472 11.1992 26.6472 11.2205L26.3912 12.1593C26.3699 12.202 26.3058 12.202 26.3058 12.1593L25.9858 11.2418C25.9858 11.2205 25.9644 11.2205 25.9431 11.2205L25.0043 10.9645C24.9616 10.9431 24.9616 10.8791 25.0043 10.8791L25.9218 10.5591C25.9431 10.5591 25.9431 10.5377 25.9431 10.5164L26.1992 9.57755C26.2205 9.53487 26.2845 9.53487 26.2845 9.57755L26.6046 10.495C26.6046 10.5164 26.6259 10.5164 26.6472 10.5164L27.5861 10.7724C27.6287 10.7724 27.6287 10.8364 27.5861 10.8578ZM29.293 13.9516L28.7169 14.165L28.6956 14.1863L28.5249 14.7838C28.5249 14.8051 28.4822 14.8051 28.4609 14.7838L28.2475 14.2077L28.2262 14.1863L27.6287 14.0157C27.6074 14.0157 27.6074 13.973 27.6287 13.9516L28.2048 13.7383L28.2262 13.7169L28.3969 13.1195C28.3969 13.0982 28.4395 13.0982 28.4609 13.1195L28.6743 13.6956L28.6956 13.7169L29.293 13.8876C29.3144 13.909 29.3144 13.9516 29.293 13.9516Z" fill="#6638B6"/>
<path d="M15.9998 10.7299C15.8718 10.7299 15.7438 10.7299 15.6157 10.7513C14.997 10.7939 14.5275 10.7086 14.3355 10.6232C13.8234 10.3885 13.5674 10.2818 13.354 10.1751C13.2046 10.1111 12.9273 10.0898 12.7779 10.1965C12.6285 10.3032 12.6499 10.5592 12.8206 10.8153C12.8846 10.9219 13.0126 11.114 12.9699 11.178C12.8846 11.2847 12.3725 10.9433 11.6684 10.8153C11.4337 10.7726 11.199 10.7939 11.0709 10.986C10.9643 11.1353 11.0923 11.3914 11.2416 11.6047C11.391 11.8394 11.7324 12.4155 11.4337 12.7569C10.3882 13.8665 9.74804 15.3814 9.74804 17.0243C9.74804 20.4809 12.5432 23.2974 16.0211 23.2974C19.4778 23.2974 22.2943 20.5023 22.2943 17.0243C22.2729 13.5251 19.4564 10.7299 15.9998 10.7299ZM13.1193 17.5151C13.0766 17.9632 12.6712 18.3046 12.2018 18.2619C11.7537 18.2192 11.4123 17.8138 11.455 17.3444C11.4977 16.8963 11.9031 16.5549 12.3725 16.5976C12.8419 16.6403 13.162 17.0457 13.1193 17.5151ZM19.5204 16.4056C18.9443 16.6616 18.2829 16.3842 18.0268 15.8081C17.7708 15.232 18.0482 14.5706 18.6243 14.3145C19.2004 14.0585 19.8618 14.3359 20.1179 14.912C20.3526 15.4881 20.0965 16.1495 19.5204 16.4056Z" fill="#6638B6"/>
</svg>
