<?xml version="1.0" encoding="iso-8859-1"?>
<!-- Generator: Adobe Illustrator 19.0.0, SVG Export Plug-In . SVG Version: 6.00 Build 0)  -->
<svg version="1.1" id="Capa_1" xmlns="http://www.w3.org/2000/svg" xmlns:xlink="http://www.w3.org/1999/xlink" x="0px" y="0px"
	 viewBox="0 0 480 480" style="enable-background:new 0 0 480 480;" xml:space="preserve">
<g>
	<g>
		<path d="M240,0c-26.51,0-48,21.49-48,48s21.49,48,48,48c26.499-0.026,47.974-21.501,48-48C288,21.49,266.51,0,240,0z M240,80
			c-17.673,0-32-14.327-32-32s14.327-32,32-32c17.673,0,32,14.327,32,32S257.673,80,240,80z"/>
	</g>
</g>
<g>
	<g>
		<path d="M288,104h-35.312L240,116.688L227.312,104H192c-13.255,0-24,10.745-24,24v64c0,13.255,10.745,24,24,24h96
			c13.255,0,24-10.745,24-24v-64C312,114.745,301.255,104,288,104z M296,192c0,4.418-3.582,8-8,8h-96c-4.418,0-8-3.582-8-8v-64
			c0-4.418,3.582-8,8-8h28.688L240,139.312L259.312,120H288c4.418,0,8,3.582,8,8V192z"/>
	</g>
</g>
<g>
	<g>
		<path d="M408,264c-26.51,0-48,21.49-48,48c0.026,26.499,21.501,47.974,48,48c26.51,0,48-21.49,48-48
			C456,285.49,434.51,264,408,264z M408,344c-17.673,0-32-14.327-32-32c0-17.673,14.327-32,32-32c17.673,0,32,14.327,32,32
			C440,329.673,425.673,344,408,344z"/>
	</g>
</g>
<g>
	<g>
		<path d="M456,368h-35.312L408,380.688L395.312,368H360c-13.255,0-24,10.745-24,24v64c0,13.255,10.745,24,24,24h96
			c13.255,0,24-10.745,24-24v-64C480,378.745,469.255,368,456,368z M464,456c0,4.418-3.582,8-8,8h-96c-4.418,0-8-3.582-8-8v-64
			c0-4.418,3.582-8,8-8h28.688L408,403.312L427.312,384H456c4.418,0,8,3.582,8,8V456z"/>
	</g>
</g>
<g>
	<g>
		<path d="M72,264c-26.499,0.026-47.974,21.501-48,48c0,26.51,21.49,48,48,48s48-21.49,48-48C120,285.49,98.51,264,72,264z M72,344
			c-17.673,0-32-14.327-32-32c0-17.673,14.327-32,32-32s32,14.327,32,32C104,329.673,89.673,344,72,344z"/>
	</g>
</g>
<g>
	<g>
		<path d="M120,368H84.688L72,380.688L59.312,368H24c-13.255,0-24,10.745-24,24v64c0,13.255,10.745,24,24,24h96
			c13.255,0,24-10.745,24-24v-64C144,378.745,133.255,368,120,368z M128,456c0,4.418-3.582,8-8,8H24c-4.418,0-8-3.582-8-8v-64
			c0-4.418,3.582-8,8-8h28.688L72,403.312L91.312,384H120c4.418,0,8,3.582,8,8V456z"/>
	</g>
</g>
<g>
	<g>
		<path d="M149.656,178.344c-3.124-3.123-8.188-3.123-11.312,0l-56,56c-3.178,3.069-3.266,8.134-0.196,11.312
			c3.069,3.178,8.134,3.266,11.312,0.196c0.067-0.064,0.132-0.13,0.196-0.196l56-56
			C152.779,186.532,152.779,181.468,149.656,178.344z"/>
	</g>
</g>
<g>
	<g>
		<path d="M397.656,234.344l-56-56c-3.178-3.07-8.242-2.982-11.312,0.196c-2.994,3.1-2.994,8.015,0,11.116l56,56
			c1.5,1.5,3.534,2.344,5.656,2.344c4.418-0.001,7.999-3.583,7.998-8.002C399.998,237.878,399.155,235.844,397.656,234.344z"/>
	</g>
</g>
<g>
	<g>
		<path d="M312,416H168c-4.418,0-8,3.582-8,8s3.582,8,8,8h144c4.418,0,8-3.582,8-8S316.418,416,312,416z"/>
	</g>
</g>
<g>
</g>
<g>
</g>
<g>
</g>
<g>
</g>
<g>
</g>
<g>
</g>
<g>
</g>
<g>
</g>
<g>
</g>
<g>
</g>
<g>
</g>
<g>
</g>
<g>
</g>
<g>
</g>
<g>
</g>
</svg>
