<svg width="14" height="14" viewBox="0 0 14 14" fill="none" xmlns="http://www.w3.org/2000/svg">
<path d="M7 0C3.13396 0 0 3.13396 0 7C0 10.866 3.13396 14 7 14C10.866 14 14 10.866 14 7C14 3.13396 10.866 0 7 0ZM9.47751 8.29324C9.47751 9.09241 8.82734 9.74258 8.02817 9.74258H7.5777V10.9799H6.52924V9.74258H4.94632V8.69412H8.02817C8.24921 8.69412 8.42905 8.51428 8.42905 8.29324V7.9327C8.42905 7.71166 8.24921 7.53182 8.02817 7.53182H6.07871C5.27954 7.53182 4.62937 6.88165 4.62937 6.08248V5.65285C4.62937 4.85368 5.27954 4.20352 6.07871 4.20352H6.52924V2.93149H7.5777V4.20352H9.16056V5.25197H6.07871C5.85767 5.25197 5.67783 5.43181 5.67783 5.65285V6.08248C5.67783 6.30352 5.85767 6.48336 6.07871 6.48336H8.02817C8.82734 6.48336 9.47751 7.13352 9.47751 7.9327V8.29324Z" fill="#A7A9B2"/>
</svg>
