<svg width="8" height="8" viewBox="0 0 8 8" fill="none" xmlns="http://www.w3.org/2000/svg">
<g clip-path="url(#clip0-514132)">
<path d="M6.16434 1.35097L3.36533 4.12873L6.16434 6.90649C6.23113 6.97278 6.2841 7.05146 6.32025 7.13806C6.3564 7.22466 6.375 7.31748 6.375 7.41121C6.375 7.50495 6.3564 7.59777 6.32025 7.68437C6.2841 7.77097 6.23113 7.84966 6.16434 7.91594C6.09755 7.98222 6.01826 8.0348 5.931 8.07067C5.84373 8.10654 5.75021 8.125 5.65575 8.125C5.5613 8.125 5.46777 8.10654 5.38051 8.07067C5.29325 8.0348 5.21396 7.98222 5.14717 7.91594L1.83597 4.62987C1.76909 4.56364 1.71604 4.48497 1.67983 4.39836C1.64363 4.31176 1.625 4.21891 1.625 4.12515C1.625 4.03139 1.64363 3.93855 1.67983 3.85194C1.71604 3.76533 1.76909 3.68666 1.83597 3.62043L5.14717 0.334366C5.21391 0.267998 5.29318 0.215344 5.38045 0.179418C5.46772 0.143492 5.56127 0.125 5.65575 0.125C5.75023 0.125 5.84379 0.143492 5.93106 0.179418C6.01833 0.215344 6.0976 0.267998 6.16434 0.334366C6.43847 0.613574 6.44568 1.07176 6.16434 1.35097Z" fill="#222532"/>
</g>
<defs>
<clipPath id="clip0-514132">
<rect width="8" height="8" fill="white"/>
</clipPath>
</defs>
</svg>
