<svg width="8" height="8" viewBox="0 0 8 8" fill="none" xmlns="http://www.w3.org/2000/svg">
<g clip-path="url(#clip0-226816)">
<path d="M1.83566 6.89903L4.63467 4.12127L1.83566 1.34351C1.76887 1.27722 1.7159 1.19854 1.67975 1.11194C1.6436 1.02534 1.625 0.93252 1.625 0.838785C1.625 0.745049 1.6436 0.652231 1.67975 0.565631C1.7159 0.47903 1.76887 0.400342 1.83566 0.334062C1.90245 0.26778 1.98174 0.215204 2.069 0.179333C2.15627 0.143462 2.24979 0.125 2.34425 0.125C2.4387 0.125 2.53223 0.143462 2.61949 0.179333C2.70675 0.215204 2.78604 0.26778 2.85283 0.334062L6.16403 3.62013C6.23091 3.68636 6.28396 3.76503 6.32017 3.85164C6.35637 3.93824 6.375 4.03109 6.375 4.12485C6.375 4.21861 6.35637 4.31145 6.32017 4.39806C6.28396 4.48467 6.23091 4.56334 6.16403 4.62957L2.85283 7.91563C2.78609 7.982 2.70682 8.03466 2.61955 8.07058C2.53228 8.10651 2.43873 8.125 2.34425 8.125C2.24977 8.125 2.15621 8.10651 2.06894 8.07058C1.98167 8.03466 1.9024 7.982 1.83566 7.91563C1.56153 7.63643 1.55432 7.17824 1.83566 6.89903Z" fill="#222532"/>
</g>
<defs>
<clipPath id="clip0-226816">
<rect width="8" height="8" fill="white"/>
</clipPath>
</defs>
</svg>
