<svg width="20" height="20" viewBox="0 0 20 20" fill="none" xmlns="http://www.w3.org/2000/svg">
<path d="M14.6667 3.33334H5.33337C4.2288 3.33334 3.33337 4.22877 3.33337 5.33334V14.6667C3.33337 15.7712 4.2288 16.6667 5.33337 16.6667H14.6667C15.7713 16.6667 16.6667 15.7712 16.6667 14.6667V5.33334C16.6667 4.22877 15.7713 3.33334 14.6667 3.33334Z" fill="#E5E5E8"/>
<path fill-rule="evenodd" clip-rule="evenodd" d="M2.83337 5.33334C2.83337 3.95263 3.95266 2.83334 5.33337 2.83334H14.6667C16.0474 2.83334 17.1667 3.95263 17.1667 5.33334V14.6667C17.1667 16.0474 16.0474 17.1667 14.6667 17.1667H5.33337C3.95266 17.1667 2.83337 16.0474 2.83337 14.6667V5.33334ZM5.33337 3.83334C4.50495 3.83334 3.83337 4.50491 3.83337 5.33334V14.6667C3.83337 15.4951 4.50495 16.1667 5.33337 16.1667H14.6667C15.4951 16.1667 16.1667 15.4951 16.1667 14.6667V5.33334C16.1667 4.50492 15.4951 3.83334 14.6667 3.83334H5.33337Z" fill="#CED0D6"/>
</svg>
