<svg width="24" height="24" viewBox="0 0 24 24" fill="none" xmlns="http://www.w3.org/2000/svg">
<path d="M14.5492 8.53246L11.0504 12.0047L14.5492 15.4769C14.6327 15.5597 14.6989 15.6581 14.7441 15.7663C14.7892 15.8746 14.8125 15.9906 14.8125 16.1078C14.8125 16.2249 14.7892 16.341 14.7441 16.4492C14.6989 16.5575 14.6327 16.6558 14.5492 16.7387C14.4657 16.8215 14.3666 16.8872 14.2575 16.9321C14.1484 16.9769 14.0315 17 13.9134 17C13.7954 17 13.6785 16.9769 13.5694 16.9321C13.4603 16.8872 13.3612 16.8215 13.2777 16.7387L9.13871 12.6311C9.05511 12.5483 8.98879 12.45 8.94354 12.3417C8.89829 12.2334 8.875 12.1174 8.875 12.0002C8.875 11.883 8.89829 11.7669 8.94354 11.6587C8.98879 11.5504 9.05511 11.4521 9.13871 11.3693L13.2777 7.26171C13.3611 7.17875 13.4602 7.11293 13.5693 7.06802C13.6784 7.02311 13.7953 7 13.9134 7C14.0315 7 14.1485 7.02311 14.2576 7.06802C14.3667 7.11293 14.4657 7.17875 14.5492 7.26171C14.8918 7.61072 14.9009 8.18345 14.5492 8.53246V8.53246Z" fill="#222532"/>
</svg>
