<?xml version="1.0" encoding="utf-8"?>
<!-- Generator: Adobe Illustrator 24.0.0, SVG Export Plug-In . SVG Version: 6.00 Build 0)  -->
<svg version="1.1" id="btn_ic_tree_hidden" xmlns="http://www.w3.org/2000/svg" xmlns:xlink="http://www.w3.org/1999/xlink" x="0px"
	 y="0px" viewBox="0 0 20 20" style="enable-background:new 0 0 20 20;" xml:space="preserve">
<style type="text/css">
	.st0{fill:#FFFFFF;}
	.st1{fill:#A7A9B2;}
</style>
<g id="패스_428">
	<path class="st0" d="M10,19.4c-5.1,0-9.4-4.2-9.4-9.4S4.9,0.6,10,0.6s9.4,4.2,9.4,9.4S15.1,19.4,10,19.4z"/>
	<path class="st1" d="M10,1.3c-4.9,0-8.8,3.9-8.8,8.8s3.9,8.8,8.8,8.8s8.8-3.9,8.8-8.8S14.9,1.3,10,1.3 M10,0c5.5,0,10,4.5,10,10
		s-4.5,10-10,10S0,15.5,0,10S4.5,0,10,0z"/>
</g>
<g id="icon_down-arrow-small" transform="translate(11 3) rotate(90)">
	<path id="패스_361" class="st1" d="M7,4.8l-5-5l1.2-1.2L7,2.1l3.7-3.6L12-0.2L7,4.8z"/>
</g>
</svg>
