<svg width="24" height="24" viewBox="0 0 24 24" fill="none" xmlns="http://www.w3.org/2000/svg">
<path fill-rule="evenodd" clip-rule="evenodd" d="M9.5 11.3C9.5 11.4105 9.41046 11.5 9.3 11.5H4.7C4.58954 11.5 4.5 11.4105 4.5 11.3V4.7C4.5 4.58954 4.58954 4.5 4.7 4.5H9.3C9.41046 4.5 9.5 4.58954 9.5 4.7V11.3ZM4.5 19.3C4.5 19.4105 4.58954 19.5 4.7 19.5H9.3C9.41046 19.5 9.5 19.4105 9.5 19.3V16.7C9.5 16.5895 9.41046 16.5 9.3 16.5H4.7C4.58954 16.5 4.5 16.5895 4.5 16.7V19.3ZM14.5 19.3C14.5 19.4105 14.5895 19.5 14.7 19.5H19.3C19.4105 19.5 19.5 19.4105 19.5 19.3V13.7C19.5 13.5895 19.4105 13.5 19.3 13.5H14.7C14.5895 13.5 14.5 13.5895 14.5 13.7V19.3ZM19.3 8.5C19.4105 8.5 19.5 8.41046 19.5 8.3V4.7C19.5 4.58954 19.4105 4.5 19.3 4.5H14.7C14.5895 4.5 14.5 4.58954 14.5 4.7V8.3C14.5 8.41046 14.5895 8.5 14.7 8.5H19.3ZM10 13H4C3.73478 13 3.48043 12.8946 3.29289 12.7071C3.10536 12.5196 3 12.2652 3 12V4C3 3.73478 3.10536 3.48043 3.29289 3.29289C3.48043 3.10536 3.73478 3 4 3H10C10.2652 3 10.5196 3.10536 10.7071 3.29289C10.8946 3.48043 11 3.73478 11 4V12C11 12.2652 10.8946 12.5196 10.7071 12.7071C10.5196 12.8946 10.2652 13 10 13ZM3.29289 20.7071C3.10536 20.5196 3 20.2652 3 20V16C3 15.7348 3.10536 15.4804 3.29289 15.2929C3.48043 15.1054 3.73478 15 4 15H10C10.2652 15 10.5196 15.1054 10.7071 15.2929C10.8946 15.4804 11 15.7348 11 16V20C11 20.2652 10.8946 20.5196 10.7071 20.7071C10.5196 20.8946 10.2652 21 10 21H4C3.73478 21 3.48043 20.8946 3.29289 20.7071ZM13.2929 20.7071C13.1054 20.5196 13 20.2652 13 20V13C13 12.7348 13.1054 12.4804 13.2929 12.2929C13.4804 12.1054 13.7348 12 14 12H20C20.2652 12 20.5196 12.1054 20.7071 12.2929C20.8946 12.4804 21 12.7348 21 13V20C21 20.2652 20.8946 20.5196 20.7071 20.7071C20.5196 20.8946 20.2652 21 20 21H14C13.7348 21 13.4804 20.8946 13.2929 20.7071ZM20 10H14C13.7348 10 13.4804 9.89464 13.2929 9.70711C13.1054 9.51957 13 9.26522 13 9V4C13 3.73478 13.1054 3.48043 13.2929 3.29289C13.4804 3.10536 13.7348 3 14 3H20C20.2652 3 20.5196 3.10536 20.7071 3.29289C20.8946 3.48043 21 3.73478 21 4V9C21 9.26522 20.8946 9.51957 20.7071 9.70711C20.5196 9.89464 20.2652 10 20 10Z" fill="black"/>
</svg>
