<svg width="25" height="24" viewBox="0 0 25 24" fill="none" xmlns="http://www.w3.org/2000/svg">
<path d="M11.6237 10.8813H10.2435V12.9517H8.1731V14.3319H10.2435V16.4023H11.6237V14.3319H13.6941V12.9517H11.6237V10.8813Z" fill="#232533"/>
<path d="M6.23344 19.9086H15.6336C16.4976 19.9086 17.2003 19.2059 17.2003 18.3419V8.9417C17.2003 8.07766 16.4976 7.375 15.6336 7.375H6.23344C5.36941 7.375 4.66675 8.07766 4.66675 8.9417V18.3419C4.66675 19.2059 5.36941 19.9086 6.23344 19.9086ZM6.08858 8.8022H15.7715L15.7731 18.5672H6.08858V8.8022Z" fill="#232533"/>
<path d="M19.0089 4.09143H9.06151V5.53926H19.1622V15.6968H20.6668V5.74934C20.6668 4.835 19.9233 4.09143 19.0089 4.09143Z" fill="#232533"/>
</svg>
