<svg width="24" height="24" viewBox="0 0 24 24" fill="none" xmlns="http://www.w3.org/2000/svg">
<path d="M10.957 10.8814H9.57673V12.9518H7.50635V14.332H9.57673V16.4024H10.957V14.332H13.0273V12.9518H10.957V10.8814Z" fill="#232533"/>
<path d="M5.5667 19.9087H14.9669C15.8309 19.9087 16.5336 19.206 16.5336 18.342V8.94182C16.5336 8.07778 15.8309 7.37512 14.9669 7.37512H5.5667C4.70266 7.37512 4 8.07778 4 8.94182V18.342C4 19.206 4.70266 19.9087 5.5667 19.9087ZM5.42183 8.80232H15.1048L15.1064 18.5673H5.42183V8.80232Z" fill="#232533"/>
<path d="M18.3422 4.09155H8.39476V5.53938H18.4954V15.6969H20.0001V5.74946C20.0001 4.83512 19.2565 4.09155 18.3422 4.09155Z" fill="#232533"/>
</svg>
