<svg width="25" height="24" viewBox="0 0 25 24" fill="none" xmlns="http://www.w3.org/2000/svg">
<path fill-rule="evenodd" clip-rule="evenodd" d="M2.33337 2V9H9.33337V2H2.33337ZM1.33337 0C0.781089 0 0.333374 0.447715 0.333374 1V10C0.333374 10.5523 0.781089 11 1.33337 11H10.3334C10.8857 11 11.3334 10.5523 11.3334 10V1C11.3334 0.447715 10.8857 0 10.3334 0H1.33337Z" fill="#232533"/>
<path fill-rule="evenodd" clip-rule="evenodd" d="M2.33337 15V22H9.33337V15H2.33337ZM1.33337 13C0.781089 13 0.333374 13.4477 0.333374 14V23C0.333374 23.5523 0.781089 24 1.33337 24H10.3334C10.8857 24 11.3334 23.5523 11.3334 23V14C11.3334 13.4477 10.8857 13 10.3334 13H1.33337Z" fill="#232533"/>
<path fill-rule="evenodd" clip-rule="evenodd" d="M15.3334 2V9H22.3334V2H15.3334ZM14.3334 0C13.7811 0 13.3334 0.447715 13.3334 1V10C13.3334 10.5523 13.7811 11 14.3334 11H23.3334C23.8857 11 24.3334 10.5523 24.3334 10V1C24.3334 0.447715 23.8857 0 23.3334 0H14.3334Z" fill="#232533"/>
<path d="M17.8334 14C17.8334 13.4477 18.2811 13 18.8334 13C19.3857 13 19.8334 13.4477 19.8334 14V23C19.8334 23.5523 19.3857 24 18.8334 24C18.2811 24 17.8334 23.5523 17.8334 23V14Z" fill="#232533"/>
<path d="M23.3334 17.5C23.8857 17.5 24.3334 17.9477 24.3334 18.5C24.3334 19.0523 23.8857 19.5 23.3334 19.5H14.3334C13.7811 19.5 13.3334 19.0523 13.3334 18.5C13.3334 17.9477 13.7811 17.5 14.3334 17.5H23.3334Z" fill="#232533"/>
</svg>
