<svg width="24" height="24" viewBox="0 0 24 24" fill="none" xmlns="http://www.w3.org/2000/svg">
<path d="M6.66667 11.8333C6.66667 11.3731 6.29357 11 5.83333 11C5.3731 11 5 11.3731 5 11.8333C5 12.2936 5.3731 12.6667 5.83333 12.6667C6.29357 12.6667 6.66667 12.2936 6.66667 11.8333Z" fill="#858895"/>
<path d="M12.4997 11.8333C12.4997 11.3731 12.1266 11 11.6663 11C11.2061 11 10.833 11.3731 10.833 11.8333C10.833 12.2936 11.2061 12.6667 11.6663 12.6667C12.1266 12.6667 12.4997 12.2936 12.4997 11.8333Z" fill="#858895"/>
<path d="M17.5003 11C17.9606 11 18.3337 11.3731 18.3337 11.8333C18.3337 12.2936 17.9606 12.6667 17.5003 12.6667C17.0401 12.6667 16.667 12.2936 16.667 11.8333C16.667 11.3731 17.0401 11 17.5003 11Z" fill="#858895"/>
<path fill-rule="evenodd" clip-rule="evenodd" d="M4.5 11.8333C4.5 11.097 5.09695 10.5 5.83333 10.5C6.56971 10.5 7.16667 11.097 7.16667 11.8333C7.16667 12.5697 6.56971 13.1667 5.83333 13.1667C5.09695 13.1667 4.5 12.5697 4.5 11.8333ZM5.83333 11.5C5.64924 11.5 5.5 11.6492 5.5 11.8333C5.5 12.0174 5.64924 12.1667 5.83333 12.1667C6.01743 12.1667 6.16667 12.0174 6.16667 11.8333C6.16667 11.6492 6.01743 11.5 5.83333 11.5ZM10.333 11.8333C10.333 11.097 10.93 10.5 11.6663 10.5C12.4027 10.5 12.9997 11.097 12.9997 11.8333C12.9997 12.5697 12.4027 13.1667 11.6663 13.1667C10.93 13.1667 10.333 12.5697 10.333 11.8333ZM11.6663 11.5C11.4822 11.5 11.333 11.6492 11.333 11.8333C11.333 12.0174 11.4822 12.1667 11.6663 12.1667C11.8504 12.1667 11.9997 12.0174 11.9997 11.8333C11.9997 11.6492 11.8504 11.5 11.6663 11.5ZM17.5003 11.5C17.3162 11.5 17.167 11.6492 17.167 11.8333C17.167 12.0174 17.3162 12.1667 17.5003 12.1667C17.6844 12.1667 17.8337 12.0174 17.8337 11.8333C17.8337 11.6492 17.6844 11.5 17.5003 11.5ZM16.167 11.8333C16.167 11.097 16.7639 10.5 17.5003 10.5C18.2367 10.5 18.8337 11.097 18.8337 11.8333C18.8337 12.5697 18.2367 13.1667 17.5003 13.1667C16.7639 13.1667 16.167 12.5697 16.167 11.8333Z" fill="#858895"/>
</svg>
