<svg width="20" height="20" viewBox="0 0 20 20" fill="none" xmlns="http://www.w3.org/2000/svg">
<path d="M18.9757 6.69889L13.514 5.86696L11.0729 0.695722C10.6355 -0.226039 9.36823 -0.237757 8.9271 0.695722L6.48599 5.86696L1.02432 6.69889C0.0448775 6.8473 -0.347645 8.10887 0.362634 8.83144L4.31403 12.8544L3.37945 18.5373C3.21123 19.5645 4.24674 20.3339 5.11403 19.8535L10 17.1702L14.886 19.8535C15.7533 20.33 16.7888 19.5645 16.6206 18.5373L15.686 12.8544L19.6374 8.83144C20.3476 8.10887 19.9551 6.8473 18.9757 6.69889ZM13.7607 12.1982L14.6467 17.6038L10 15.0533L5.35328 17.6038L6.23926 12.1982L2.47852 8.37055L7.67477 7.58159L10 2.66032L12.3252 7.58159L17.5215 8.37055L13.7607 12.1982Z" fill="#CED0D6"/>
</svg>
