<svg width="34" height="34" viewBox="0 0 34 34" fill="none" xmlns="http://www.w3.org/2000/svg">
<path d="M16.0001 31.1885C16.8536 31.1895 17.6862 30.9313 18.3823 30.4496C19.0783 29.968 19.6734 29.0359 19.9541 28.25H12.1865C12.4672 29.0359 12.9218 29.968 13.6178 30.4496C14.3139 30.9313 15.1465 31.1895 16.0001 31.1885ZM25.6475 21.25L25.6475 15.3125C25.6475 10.9897 22.6361 7.34809 18.5566 6.25294C18.1528 5.26125 17.166 4.5625 16 4.5625C14.8341 4.5625 13.8473 5.26125 13.4435 6.25294C9.36399 7.34944 6.35261 10.9897 6.35261 15.3125L6.3526 21.25L4.00001 23.5438C3.87178 23.6684 3.77008 23.8164 3.70078 23.9795C3.63147 24.1425 3.59593 24.3173 3.59619 24.4938V25.8376C3.59619 26.1939 3.7414 26.5357 3.99986 26.7877C4.25832 27.0397 4.60888 27.1813 4.9744 27.1813H27.0257C27.3912 27.1813 27.7418 27.0397 28.0002 26.7877C28.2587 26.5357 28.4039 26.1939 28.4039 25.8376V24.4938C28.4041 24.3173 28.3686 24.1425 28.2993 23.9795C28.23 23.8164 28.1283 23.6684 28.0001 23.5438L25.6475 21.25Z" fill="#898995"/>
<path d="M33.3333 9.33342C33.3333 14.1199 29.4531 18.0001 24.6667 18.0001C19.8802 18.0001 16 14.1199 16 9.33342C16 4.54695 19.8802 0.666748 24.6667 0.666748C29.4531 0.666748 33.3333 4.54695 33.3333 9.33342Z" fill="#EA4646"/>
<path fill-rule="evenodd" clip-rule="evenodd" d="M24.6667 16.6667C28.7168 16.6667 32 13.3835 32 9.33342C32 5.28333 28.7168 2.00008 24.6667 2.00008C20.6166 2.00008 17.3333 5.28333 17.3333 9.33342C17.3333 13.3835 20.6166 16.6667 24.6667 16.6667ZM24.6667 18.0001C29.4531 18.0001 33.3333 14.1199 33.3333 9.33342C33.3333 4.54695 29.4531 0.666748 24.6667 0.666748C19.8802 0.666748 16 4.54695 16 9.33342C16 14.1199 19.8802 18.0001 24.6667 18.0001Z" fill="white"/>
</svg>
