<svg width="16" height="16" viewBox="0 0 16 16" fill="none" xmlns="http://www.w3.org/2000/svg">
<path d="M14.8185 8.22679L8.51925 1.22171C8.25398 0.926096 7.74443 0.926096 7.47916 1.22171L1.17987 8.22679C1.0892 8.32738 1.02968 8.45217 1.00856 8.58598C0.987435 8.7198 1.00561 8.85687 1.06088 8.98054C1.17287 9.23342 1.42344 9.39594 1.69991 9.39594H3.09975V14.2995C3.09975 14.4853 3.1735 14.6635 3.30476 14.7948C3.43602 14.9262 3.61404 15 3.79968 15H5.89944C6.08507 15 6.2631 14.9262 6.39436 14.7948C6.52562 14.6635 6.59936 14.4853 6.59936 14.2995V11.4975H9.39905V14.2995C9.39905 14.4853 9.47279 14.6635 9.60405 14.7948C9.73531 14.9262 9.91334 15 10.099 15H12.1987C12.3844 15 12.5624 14.9262 12.6937 14.7948C12.8249 14.6635 12.8987 14.4853 12.8987 14.2995V9.39594H14.2985C14.4341 9.39652 14.5668 9.35761 14.6807 9.28396C14.7945 9.21031 14.8845 9.1051 14.9396 8.98116C14.9948 8.85722 15.0127 8.71991 14.9912 8.58596C14.9697 8.45201 14.9097 8.32721 14.8185 8.22679Z" fill="#6638B6"/>
</svg>
