<?xml version="1.0" encoding="utf-8"?>
<!-- Generator: Adobe Illustrator 24.0.0, SVG Export Plug-In . SVG Version: 6.00 Build 0)  -->
<svg version="1.1" id="Layer_1" xmlns="http://www.w3.org/2000/svg" xmlns:xlink="http://www.w3.org/1999/xlink" x="0px" y="0px"
	 viewBox="0 0 16 16" style="enable-background:new 0 0 16 16;" xml:space="preserve">
<style type="text/css">
	.st0{fill-rule:evenodd;clip-rule:evenodd;fill:#F55A2F;}
</style>
<path class="st0" d="M2.1,15C2.1,15,2.1,15,2.1,15C2.1,15,2,15,2,15c-0.2,0-0.4,0-0.5-0.1c-0.2-0.1-0.3-0.2-0.4-0.4
	C1,14.4,1,14.2,1,14c0-0.2,0.1-0.3,0.3-0.5l1.9-1.8c-1-1.5-1.1-3.5-0.3-5.1l6.5,6.6c-1.6,0.9-3.5,0.8-5-0.3l-1.9,1.8
	C2.2,14.9,2.2,14.9,2.1,15z M4.6,4.6L3.3,3.3C3,3,2.5,3,2.2,3.3s-0.3,0.8,0,1.1l9.2,9.2c0.3,0.3,0.8,0.3,1.1,0
	c0.3-0.3,0.3-0.8,0-1.1l-1-1c0.3-0.3,0.7-0.7,1-1c0.4-0.4,0.4-1,0-1.4L12,8.7l2.8-2.8c0.1-0.1,0.1-0.2,0.2-0.3S15,5.4,15,5.3
	s0-0.2-0.1-0.3c0-0.1-0.1-0.2-0.2-0.3s-0.2-0.1-0.3-0.2c-0.1,0-0.2-0.1-0.3-0.1c-0.1,0-0.2,0-0.3,0.1c-0.1,0-0.2,0.1-0.3,0.2
	l-2.8,2.8L8.6,5.3l2.8-2.8c0.2-0.2,0.3-0.4,0.3-0.6c0-0.2-0.1-0.5-0.3-0.6S11,1,10.8,1c-0.2,0-0.4,0.1-0.6,0.3L7.4,4L7.1,3.7
	c-0.4-0.4-1-0.4-1.4,0L4.6,4.6z"/>
</svg>
