<svg width="24" height="24" viewBox="0 0 24 24" fill="none" xmlns="http://www.w3.org/2000/svg">
<path fill-rule="evenodd" clip-rule="evenodd" d="M6.54958 17.5047C7.98993 18.945 9.94346 19.7542 11.9804 19.7542L11.9836 19.7541C13.6994 19.7025 15.3575 19.1219 16.7308 18.092C18.1041 17.062 19.1257 15.6328 19.6557 14L19.7 13.8634H17.596L17.5679 13.9236C17.0663 14.9973 16.2796 15.9127 15.2936 16.57C14.3082 17.227 13.1614 17.601 11.9782 17.6514C10.4997 17.6508 9.08194 17.0633 8.03645 16.0178C6.99044 14.9718 6.4028 13.5531 6.4028 12.0738C6.4028 10.5945 6.99044 9.17584 8.03645 8.12983C9.08246 7.08382 10.5011 6.49625 11.9804 6.49625L11.9842 6.49611C12.7062 6.47014 13.4232 6.62584 14.0694 6.94894C14.6896 7.25904 15.2255 7.71382 15.6323 8.27435L12.6754 11.2312H19.6608V4.24582L17.6481 6.25848C15.9478 5.17251 14.0013 4.53104 11.9875 4.39367L11.9804 4.4978V4.39343C9.94346 4.39343 7.98993 5.20261 6.54958 6.64296C5.10923 8.08331 4.30005 10.0368 4.30005 12.0738C4.30005 14.1108 5.10923 16.0643 6.54958 17.5047ZM17.6624 13.9678H19.556C19.0326 15.5802 18.0239 16.9914 16.6678 18.0085C17.9945 17.0134 18.9892 15.641 19.5218 14.0722C19.5335 14.0375 19.5447 14.0027 19.556 13.9678H17.6624C17.6624 13.9679 17.6624 13.9678 17.6624 13.9678Z" fill="#222532"/>
</svg>