<svg width="24" height="24" viewBox="0 0 24 24" fill="none" xmlns="http://www.w3.org/2000/svg">
<path fill-rule="evenodd" clip-rule="evenodd" d="M19.4385 16.0843V13.9436C19.4385 13.8531 19.4787 13.7828 19.549 13.7325L21.5078 12.4461C21.8091 12.2451 22 11.9034 22 11.5215C22 11.1496 21.8292 10.7978 21.5178 10.5968L19.5188 9.23C19.4485 9.17975 19.4083 9.1094 19.4083 9.01894C19.4083 8.93854 19.4485 8.85814 19.5188 8.80789L21.5178 7.44106C21.8192 7.23 22 6.88829 22 6.51643C22 6.14457 21.8091 5.79281 21.5078 5.59181L16.445 2.26518C15.9026 1.90337 15.2094 1.91342 14.667 2.28528L12.1356 4.01392C12.0552 4.06417 11.9448 4.06417 11.8644 4.01392L9.333 2.28528C9.06178 2.09432 8.75038 2.00387 8.42893 2.00387C8.12758 2.00387 7.81617 2.09432 7.555 2.26518L2.49222 5.59181C2.19086 5.79281 2 6.13452 2 6.51643C2 6.88829 2.17077 7.24005 2.48217 7.44106L4.48117 8.80789C4.55148 8.85814 4.59166 8.92849 4.59166 9.01894C4.59166 9.09935 4.55148 9.17975 4.48117 9.23L2.48217 10.5968C2.18081 10.8079 2 11.1496 2 11.5215C2 11.8933 2.19086 12.2451 2.49222 12.4461L4.45103 13.7325C4.52135 13.7828 4.56153 13.8531 4.56153 13.9436V16.0843C4.56153 16.637 4.8227 17.1596 5.25465 17.4712L11.0407 21.6923C11.6032 22.1044 12.3566 22.1044 12.9292 21.6923L18.7152 17.4712C19.1773 17.1496 19.4385 16.637 19.4385 16.0843ZM20.1115 11.3004C20.1818 11.3506 20.222 11.431 20.222 11.5114C20.222 11.5918 20.1818 11.6722 20.1115 11.7225L15.7418 14.5868C15.6916 14.6169 15.6414 14.637 15.5811 14.637C15.5208 14.637 15.4706 14.6169 15.4204 14.5868L13.552 13.3104C13.4817 13.2602 13.4415 13.1898 13.4415 13.0993C13.4415 13.0089 13.4817 12.9385 13.552 12.8883L17.8614 9.94357C17.9417 9.88327 18.0522 9.88327 18.1326 9.94357L20.1115 11.3004ZM13.552 4.72749L15.4204 3.45111C15.5208 3.3908 15.6414 3.38075 15.7418 3.45111L20.1115 6.31543C20.1818 6.36568 20.222 6.43603 20.222 6.52648C20.222 6.61694 20.1818 6.68729 20.1115 6.73754L18.1326 8.08427C18.0924 8.11442 18.0422 8.13452 17.992 8.13452C17.9417 8.13452 17.9016 8.12447 17.8614 8.09432L13.552 5.1496C13.4817 5.09935 13.4415 5.029 13.4415 4.93854C13.4415 4.85814 13.4817 4.77774 13.552 4.72749ZM3.91863 6.73754C3.84832 6.68729 3.80814 6.61694 3.80814 6.52648C3.80814 6.43603 3.84832 6.36568 3.91863 6.31543L8.2883 3.45111C8.38875 3.3908 8.50929 3.3908 8.60975 3.45111L10.4782 4.72749C10.5485 4.77774 10.5887 4.84809 10.5887 4.93854C10.5887 5.01894 10.5485 5.09935 10.4782 5.1496L6.16876 8.08427C6.12858 8.11442 6.07835 8.12447 6.03817 8.12447C5.99799 8.12447 5.94776 8.11442 5.90758 8.08427L3.91863 6.73754ZM3.92868 11.7124C3.85836 11.6622 3.81818 11.5918 3.81818 11.5014C3.81818 11.421 3.85836 11.3406 3.92868 11.2903L5.90758 9.94357C5.98795 9.88327 6.09844 9.88327 6.1788 9.94357L10.4882 12.8883C10.5585 12.9385 10.5987 13.0089 10.5987 13.0993C10.5987 13.1898 10.5585 13.2602 10.4882 13.3104L8.61979 14.5868C8.56956 14.6169 8.51934 14.637 8.45907 14.637C8.40884 14.637 8.34857 14.6169 8.29834 14.5868L3.92868 11.7124ZM11.342 19.6923C11.342 19.7928 11.2918 19.8732 11.2115 19.9134C11.1813 19.9335 11.1411 19.9436 11.101 19.9436C11.0507 19.9436 11.0005 19.9235 10.9603 19.8933L6.05826 16.3154C5.9779 16.2551 5.93772 16.1647 5.93772 16.0742V15.1395C5.93772 15.0491 5.98795 14.9586 6.06831 14.9184C6.14867 14.8782 6.23908 14.8782 6.30939 14.9285L7.57509 15.7627C8.11753 16.1144 8.81065 16.1144 9.35309 15.7426L10.9704 14.637C11.0407 14.5868 11.1411 14.5767 11.2115 14.627C11.2918 14.6672 11.342 14.7576 11.342 14.8481V19.6923ZM12.0151 12.2149C11.9648 12.2149 11.9247 12.2049 11.8845 12.1747L7.57509 9.23C7.50477 9.17975 7.46459 9.1094 7.46459 9.01894C7.46459 8.93854 7.50477 8.85814 7.57509 8.80789L11.8845 5.86317C11.9648 5.81291 12.0753 5.81291 12.1557 5.86317L16.4651 8.80789C16.5354 8.85814 16.5756 8.92849 16.5756 9.01894C16.5756 9.09935 16.5354 9.17975 16.4651 9.23L12.1557 12.1747C12.1055 12.1948 12.0653 12.2149 12.0151 12.2149ZM18.0924 16.0843C18.0924 16.1848 18.0422 16.2752 17.9719 16.3255L13.0698 19.9034C13.0296 19.9335 12.9794 19.9536 12.9292 19.9536C12.889 19.9536 12.8589 19.9436 12.8187 19.9235C12.7383 19.8833 12.6881 19.7928 12.6881 19.7024V14.8682C12.6881 14.7777 12.7383 14.6873 12.8187 14.6471C12.899 14.6069 12.9895 14.6069 13.0598 14.6571L14.677 15.7627C15.2094 16.1245 15.9126 16.1345 16.455 15.7828L17.7207 14.9486C17.8011 14.8983 17.8915 14.8983 17.9618 14.9385C18.0422 14.9787 18.0924 15.0692 18.0924 15.1596V16.0843Z" fill="#222532"/>
</svg>
