<svg width="33" height="32" viewBox="0 0 33 32" fill="none" xmlns="http://www.w3.org/2000/svg">
<g clip-path="url(#clip0_20658_273327)">
<path d="M17.0335 31.7138C16.4612 31.7138 15.8888 31.5837 15.3685 31.3496C14.8482 31.1155 14.3799 30.7772 13.9896 30.361L12.5067 28.748C12.3506 28.5659 12.1425 28.4358 11.9344 28.3317C11.7262 28.2276 11.4661 28.2016 11.2319 28.2016L9.04655 28.3057C8.47419 28.3317 7.90183 28.2276 7.35549 28.0195C6.80915 27.8114 6.34086 27.4992 5.92459 27.0829C5.50833 26.6667 5.19614 26.1984 4.98801 25.652C4.77988 25.1057 4.67582 24.5333 4.70183 23.961L4.8059 21.7756C4.8059 21.5415 4.77988 21.3073 4.67581 21.0732C4.57175 20.865 4.44167 20.6569 4.25955 20.5008L2.64655 19.0179C2.23029 18.6276 1.89208 18.1594 1.65793 17.639C1.42378 17.1187 1.2937 16.5463 1.2937 15.974C1.2937 15.4016 1.42378 14.8293 1.65793 14.3089C1.89208 13.7886 2.23029 13.3203 2.64655 12.9301L4.25955 11.4472C4.44167 11.2911 4.57175 11.0829 4.67581 10.8748C4.77988 10.6407 4.8059 10.4065 4.8059 10.1724L4.70183 7.987C4.67582 7.41464 4.77988 6.84228 4.98801 6.29594C5.19614 5.7496 5.50833 5.28131 5.92459 4.86505C6.34086 4.44879 6.80915 4.13659 7.35549 3.92846C7.90183 3.72033 8.47419 3.61627 9.04655 3.64228L11.2319 3.74635C11.4661 3.74635 11.7262 3.72033 11.9344 3.61627C12.1425 3.5122 12.3506 3.38212 12.5067 3.20001L13.9896 1.587C14.3799 1.17074 14.8482 0.832528 15.3685 0.598381C16.4352 0.130089 17.6579 0.130089 18.6986 0.598381C19.2189 0.832528 19.6872 1.17074 20.0774 1.587L21.5604 3.20001C21.7165 3.38212 21.9246 3.5122 22.1327 3.61627C22.3669 3.72033 22.601 3.74635 22.8352 3.74635L25.0205 3.64228C25.5929 3.61627 26.1652 3.69432 26.7116 3.92846C27.2579 4.13659 27.7262 4.44879 28.1425 4.86505C28.5587 5.28131 28.8709 5.7496 29.0791 6.29594C29.2872 6.84228 29.3913 7.41464 29.3652 7.987L29.2612 10.1724C29.2612 10.4065 29.2872 10.6407 29.3913 10.8748C29.4693 11.0829 29.6254 11.2911 29.8075 11.4472L31.4205 12.9301C31.8368 13.3203 32.175 13.7886 32.4091 14.3089C32.6433 14.8293 32.7734 15.4016 32.7734 15.974C32.7734 16.5463 32.6433 17.1187 32.4091 17.639C32.175 18.1594 31.8368 18.6276 31.4205 19.0179L29.8075 20.5008C29.6254 20.6569 29.4953 20.865 29.3913 21.0732C29.2872 21.2813 29.2612 21.5415 29.2612 21.7756L29.3652 23.961C29.3913 24.5333 29.2872 25.1057 29.0791 25.652C28.8709 26.1984 28.5587 26.6667 28.1425 27.0829C27.7262 27.4992 27.2579 27.8114 26.7116 28.0195C26.1652 28.2276 25.5929 28.3317 25.0205 28.3057L22.8352 28.2016C22.601 28.1756 22.3409 28.2276 22.1327 28.3317C21.9246 28.4098 21.7165 28.5659 21.5604 28.748L20.1035 30.361C19.7132 30.7772 19.2449 31.1155 18.7246 31.3496C18.1783 31.5837 17.6059 31.7138 17.0335 31.7138ZM11.2839 25.7041C11.8303 25.7041 12.3766 25.8081 12.8709 26.0163C13.4173 26.2504 13.9376 26.6146 14.3539 27.0569L15.8368 28.6699C15.9929 28.852 16.175 28.9821 16.3831 29.0602C16.7994 29.2423 17.2937 29.2423 17.71 29.0602C17.9181 28.9561 18.1002 28.826 18.2563 28.6699L19.7132 27.0569C20.1295 26.6146 20.6238 26.2504 21.1961 26.0163C21.7685 25.7821 22.3669 25.6781 22.9652 25.7041L25.1506 25.8081C25.3848 25.8342 25.5929 25.7821 25.827 25.7041C26.0352 25.626 26.2173 25.4959 26.3994 25.3398C26.5555 25.1837 26.6856 24.9756 26.7636 24.7675C26.8417 24.5594 26.8937 24.3252 26.8677 24.0911L26.7636 21.9057C26.7376 21.3073 26.8417 20.6829 27.0758 20.1366C27.31 19.5903 27.6742 19.0699 28.1165 18.6537L29.7295 17.1707C29.9116 17.0146 30.0417 16.8325 30.1197 16.6244C30.2238 16.4163 30.2498 16.1821 30.2498 15.974C30.2498 15.7398 30.1978 15.5317 30.1197 15.3236C30.0157 15.1155 29.8856 14.9333 29.7295 14.7772L28.1165 13.2943C27.6742 12.8781 27.31 12.3837 27.0758 11.8114C26.8417 11.265 26.7376 10.6407 26.7636 10.0423L26.8677 7.85692C26.8677 7.62277 26.8417 7.41464 26.7636 7.18049C26.6856 6.97236 26.5555 6.79025 26.3994 6.60814C26.2433 6.45204 26.0352 6.32196 25.827 6.24391C25.6189 6.16586 25.3848 6.11383 25.1506 6.13984L22.9652 6.26993C22.3669 6.29594 21.7425 6.19188 21.1961 5.95773C20.6238 5.72358 20.1035 5.38537 19.7132 4.9431L18.2303 3.33009C18.0742 3.17399 17.8921 3.01789 17.6839 2.93984C17.2677 2.75773 16.7734 2.75773 16.3571 2.93984C16.149 3.04391 15.9669 3.17399 15.8108 3.33009L14.3539 4.9431C13.9376 5.38537 13.4433 5.7496 12.8709 5.98375C12.2986 6.21789 11.7002 6.32196 11.1018 6.29594L8.91646 6.16586C8.68232 6.16586 8.47419 6.19188 8.24004 6.26993C8.03191 6.34797 7.82378 6.47806 7.66768 6.63415C7.51159 6.79025 7.38151 6.99838 7.30346 7.20651C7.22541 7.41464 7.17338 7.64879 7.19939 7.88293L7.30346 10.0683C7.32947 10.6667 7.22541 11.2911 6.99126 11.8374C6.75712 12.3837 6.39289 12.9041 5.95061 13.3203L4.3376 14.8033C4.15549 14.9594 4.02541 15.1415 3.94736 15.3496C3.84329 15.5577 3.81728 15.7919 3.81728 16C3.81728 16.2342 3.86931 16.4423 3.94736 16.6504C4.05142 16.8585 4.18151 17.0407 4.3376 17.1968L5.95061 18.6797C6.39289 19.0959 6.75712 19.5903 6.99126 20.1626C7.22541 20.709 7.32947 21.3333 7.30346 21.9317L7.19939 24.1171C7.19939 24.3512 7.22541 24.5594 7.30346 24.7935C7.38151 25.0016 7.51159 25.2098 7.66768 25.3659C7.82378 25.522 8.0059 25.652 8.24004 25.7301C8.44817 25.8081 8.68232 25.8602 8.91646 25.8342L11.1018 25.7301L11.2839 25.7041Z" fill="#232533"/>
<path d="M15.2904 20.3447C14.9783 20.3447 14.6921 20.2407 14.4579 20.0325L11.0238 16.9366C10.5035 16.4683 10.4774 15.6878 10.9197 15.1675C11.388 14.6472 12.1685 14.6211 12.6888 15.0634L15.2904 17.4049L21.3522 11.9675C21.8726 11.4992 22.653 11.5512 23.1213 12.0716C23.5896 12.5919 23.5376 13.3724 23.0173 13.8407L16.149 20.0325C15.8888 20.2407 15.6026 20.3447 15.2904 20.3447Z" fill="#232533"/>
</g>
<defs>
<clipPath id="clip0_20658_273327">
<rect width="32" height="32" fill="white" transform="translate(0.666748)"/>
</clipPath>
</defs>
</svg>
