<?xml version="1.0" encoding="utf-8"?>
<!-- Generator: Adobe Illustrator 24.0.0, SVG Export Plug-In . SVG Version: 6.00 Build 0)  -->
<svg version="1.1" id="Layer_1" xmlns="http://www.w3.org/2000/svg" xmlns:xlink="http://www.w3.org/1999/xlink" x="0px" y="0px"
	 viewBox="0 0 32 32" style="enable-background:new 0 0 32 32;" xml:space="preserve">
<style type="text/css">
	.st0{fill:url(#SVGID_1_);}
	.st1{opacity:0.18;fill:none;stroke:#000000;stroke-width:0.3;stroke-miterlimit:10;}
	.st2{opacity:0.18;}
	.st3{opacity:0.35;fill:#FFFFFF;}
	.st4{opacity:0.4;}
	.st5{fill:#FFFFFF;}
	.st6{opacity:0.6;}
	.st7{opacity:0.6;fill:#FFFFFF;}
	.st8{opacity:0.4;fill:url(#SVGID_2_);}
	.st9{opacity:0.7;fill:url(#SVGID_3_);}
	.st10{opacity:0.88;fill:#FFFFFF;}
	.st11{opacity:0.4;fill:#FFFFFF;}
	.st12{opacity:0.2;fill:#FFFFFF;}
</style>
<linearGradient id="SVGID_1_" gradientUnits="userSpaceOnUse" x1="-9.094947e-13" y1="31.9999" x2="31.9999" y2="1.964651e-12">
	<stop  offset="0" style="stop-color:#4C29BF"/>
	<stop  offset="1" style="stop-color:#4C51BF"/>
</linearGradient>
<rect class="st0" width="32" height="32"/>
<path class="st1" d="M23.8,21l-6.5,3.9c-0.6,0.4-1.4,0.4-2,0L8.6,21c-0.4-0.2-0.4-0.7,0-0.9l6.5-3.9c0.7-0.4,1.6-0.4,2.3,0l6.5,3.8
	C24.2,20.3,24.2,20.8,23.8,21z"/>
<path class="st2" d="M25.2,25.5l-7.7,4.6c-0.7,0.4-1.6,0.4-2.3,0l-8-4.6c-0.4-0.2-0.4-0.8,0-1.1l7.7-4.6c0.8-0.5,1.9-0.5,2.7,0
	l7.8,4.6C25.6,24.6,25.6,25.2,25.2,25.5z"/>
<path class="st3" d="M25.7,21.3l-8.1,4.9c-0.8,0.5-1.7,0.5-2.5,0l-8.5-4.8c-0.4-0.3-0.5-0.9,0-1.2l8.1-4.8c0.9-0.5,1.9-0.5,2.8,0
	l8.2,4.8C26.1,20.4,26.1,21,25.7,21.3z"/>
<g class="st4">
	<path class="st5" d="M16.1,15.3L16.1,15.3c0.4,0,0.8,0.1,1.2,0.3l8.2,4.8c0.1,0.1,0.1,0.2,0.1,0.2s0,0.2-0.1,0.2l-8.1,4.9
		c-0.3,0.2-0.7,0.3-1,0.3c-0.4,0-0.7-0.1-1-0.3L6.8,21c-0.1-0.1-0.1-0.2-0.1-0.2c0,0,0-0.2,0.1-0.2l8.1-4.8
		C15.3,15.4,15.7,15.3,16.1,15.3 M16.1,14.9c-0.5,0-1,0.1-1.4,0.4l-8.1,4.8c-0.4,0.3-0.4,0.9,0,1.2l8.5,4.8c0.4,0.2,0.8,0.3,1.2,0.3
		c0.4,0,0.9-0.1,1.3-0.3l8.1-4.9c0.4-0.3,0.4-0.9,0-1.2l-8.2-4.8C17.1,15,16.6,14.9,16.1,14.9L16.1,14.9z"/>
</g>
<path class="st3" d="M25.7,16.6l-8.1,4.9c-0.8,0.5-1.7,0.5-2.5,0l-8.5-4.8c-0.4-0.3-0.5-0.9,0-1.2l8.1-4.8c0.9-0.5,1.9-0.5,2.8,0
	l8.2,4.8C26.1,15.7,26.1,16.4,25.7,16.6z"/>
<g class="st6">
	<path class="st5" d="M16.1,10.7L16.1,10.7c0.4,0,0.8,0.1,1.2,0.3l8.2,4.8c0.1,0.1,0.1,0.2,0.1,0.2s0,0.2-0.1,0.2l-8.1,4.9
		c-0.3,0.2-0.7,0.3-1,0.3c-0.4,0-0.7-0.1-1-0.3l-8.5-4.8c-0.1-0.1-0.1-0.2-0.1-0.2c0,0,0-0.2,0.1-0.2l8.1-4.8
		C15.3,10.8,15.7,10.7,16.1,10.7 M16.1,10.3c-0.5,0-1,0.1-1.4,0.4l-8.1,4.8c-0.4,0.3-0.4,0.9,0,1.2l8.5,4.8c0.4,0.2,0.8,0.3,1.2,0.3
		c0.4,0,0.9-0.1,1.3-0.3l8.1-4.9c0.4-0.3,0.4-0.9,0-1.2l-8.2-4.8C17.1,10.4,16.6,10.3,16.1,10.3L16.1,10.3z"/>
</g>
<path class="st7" d="M25.7,11.8l-8.1,4.9c-0.8,0.5-1.7,0.5-2.5,0l-8.5-4.8c-0.4-0.3-0.5-0.9,0-1.2l8.1-4.8c0.9-0.5,1.9-0.5,2.8,0
	l8.2,4.8C26.1,10.9,26.1,11.6,25.7,11.8z"/>
<linearGradient id="SVGID_2_" gradientUnits="userSpaceOnUse" x1="16.1488" y1="11.2074" x2="16.1488" y2="26.4131">
	<stop  offset="0" style="stop-color:#FFFFFF"/>
	<stop  offset="0.7275" style="stop-color:#FFFFFF;stop-opacity:0"/>
</linearGradient>
<path class="st8" d="M6.3,20.5c0,0.3,0.2,0.6,0.4,0.7l8.4,4.8c0.8,0.4,1.7,0.4,2.5,0l8-4.8c0.2-0.1,0.4-0.4,0.4-0.7l0-9.4
	c0,0,0,0.3-0.1,0.4c-0.1,0.1-0.3,0.2-0.3,0.2l-8.1,4.9c-0.8,0.5-1.7,0.5-2.5,0l-8.5-4.9c0,0-0.2-0.1-0.2-0.3
	c-0.1-0.2-0.1-0.3-0.1-0.3L6.3,20.5z"/>
<linearGradient id="SVGID_3_" gradientUnits="userSpaceOnUse" x1="21.0924" y1="11.2071" x2="21.0924" y2="26.413">
	<stop  offset="0" style="stop-color:#FFFFFF"/>
	<stop  offset="0.9274" style="stop-color:#FFFFFF;stop-opacity:0"/>
</linearGradient>
<path class="st9" d="M26,11.2c0,0.1-0.1,0.3-0.1,0.4c-0.1,0.1-0.3,0.2-0.3,0.2l-8.1,4.9c-0.4,0.3-0.9,0.4-1.4,0.3v9.4
	c0.5,0,1-0.1,1.4-0.3l8-4.8c0.2-0.1,0.4-0.4,0.4-0.7L26,11.2z"/>
<path class="st5" d="M16.1,5.9L16.1,5.9c0.4,0,0.8,0.1,1.2,0.3l8.2,4.8c0.1,0.1,0.1,0.2,0.1,0.2s0,0.2-0.1,0.2l-8.1,4.9
	c-0.3,0.2-0.7,0.3-1,0.3c-0.4,0-0.7-0.1-1-0.3l-8.5-4.8c-0.1-0.1-0.1-0.2-0.1-0.2c0,0,0-0.2,0.1-0.2l8.1-4.8
	C15.3,6,15.7,5.9,16.1,5.9 M16.1,5.5c-0.5,0-1,0.1-1.4,0.4l-8.1,4.8c-0.4,0.3-0.4,0.9,0,1.2l8.5,4.8c0.4,0.2,0.8,0.3,1.2,0.3
	c0.4,0,0.9-0.1,1.3-0.3l8.1-4.9c0.4-0.3,0.4-0.9,0-1.2l-8.2-4.8C17.1,5.6,16.6,5.5,16.1,5.5L16.1,5.5z"/>
<ellipse class="st10" cx="22.1" cy="11.2" rx="1.2" ry="0.8"/>
<ellipse class="st11" cx="22.1" cy="16.1" rx="1.2" ry="0.8"/>
<ellipse class="st12" cx="22.1" cy="20.8" rx="1.2" ry="0.8"/>
</svg>
