<?xml version="1.0" encoding="utf-8"?>
<!-- Generator: Adobe Illustrator 24.0.0, SVG Export Plug-In . SVG Version: 6.00 Build 0)  -->
<svg version="1.1" id="Layer_1" xmlns="http://www.w3.org/2000/svg" xmlns:xlink="http://www.w3.org/1999/xlink" x="0px" y="0px"
	 viewBox="0 0 224 206" style="enable-background:new 0 0 224 206;" xml:space="preserve">
<style type="text/css">
	.st0{opacity:0.4;}
	.st1{fill-rule:evenodd;clip-rule:evenodd;fill:#A8A5CE;}
	.st2{fill:#DCDBEC;fill-opacity:0.17;}
	.st3{fill-rule:evenodd;clip-rule:evenodd;fill:#D6D4E8;}
	.st4{fill-rule:evenodd;clip-rule:evenodd;fill:url(#SVGID_1_);fill-opacity:0.4;}
	.st5{fill:#A8A5CE;fill-opacity:0.6;}
	.st6{fill:#FFFFFF;}
	.st7{fill:#A8A5CE;}
	.st8{opacity:0.5;}
</style>
<g class="st0">
	<path class="st1" d="M189.1,84.9c0,42.6-34.5,77.1-77.1,77.1C69.5,162,35,127.5,35,84.9c0-42.6,34.5-77.1,77.1-77.1
		C154.6,7.9,189.1,42.4,189.1,84.9z M112.1,160c41.5,0,75.1-33.6,75.1-75.1c0-41.5-33.6-75.1-75.1-75.1C70.6,9.9,37,43.5,37,84.9
		C37,126.4,70.6,160,112.1,160z"/>
	<path class="st2" d="M187.1,84.9c0,41.5-33.6,75.1-75.1,75.1C70.6,160,37,126.4,37,84.9c0-41.5,33.6-75.1,75.1-75.1
		C153.5,9.9,187.1,43.5,187.1,84.9z"/>
	<path class="st3" d="M169.5,133.3c-13.8,16.3-34.4,26.7-57.4,26.7c-22.8,0-43.3-10.2-57.1-26.3c16.7-10.1,36.4-15.9,57.6-15.9
		C133.5,117.8,153,123.5,169.5,133.3z"/>
	
		<linearGradient id="SVGID_1_" gradientUnits="userSpaceOnUse" x1="112.2412" y1="89.4993" x2="112.2412" y2="34.7953" gradientTransform="matrix(1 0 0 -1 0 207.2813)">
		<stop  offset="0" style="stop-color:#FFFFFF"/>
		<stop  offset="1" style="stop-color:#FFFFFF;stop-opacity:0"/>
	</linearGradient>
	<path class="st4" d="M169.5,133.3c-13.8,16.3-34.4,26.7-57.4,26.7c-22.8,0-43.3-10.2-57.1-26.3c16.7-10.1,36.4-15.9,57.6-15.9
		C133.5,117.8,153,123.5,169.5,133.3z"/>
	<path class="st5" d="M131.5,119.6c9.8,0.9,12.1,0.6,15.6,4.8c2.4,3-4.8,8.6-7.9,11.6c-11.1,11-30.2,9.8-49.1,3.5
		c-2.5-0.8-6.7-0.4-8.1-3.7c-2.3-5.6,5.3-8.1,9.1-9.6c4.6-1.9,9.6-3,14.6-3.2C105.6,123,121.6,118.7,131.5,119.6z"/>
	<path class="st6" d="M136,72.6c0,0,6.2,6.9,8.1,16.2c0,0,4.8,15.1,2.3,26.5c0,0-1.3,15.4-19.8,15.7c0,0,2.3,6.7-6.3,8.6
		c0,0-15.4,2.5-19.3-3.9c0,0-11.8,2-15.6-0.8c0,0-3.3-2.5-0.7-4.4l4-0.9c0,0-4.6-17.2-0.6-23.9c0,0-9.9-2.7-7.3-15.5
		c0,0,2.1-7.5,4.9-10.8L136,72.6z"/>
	<path class="st7" d="M136.7,71.7c3.8,3.7,6.8,8,8.9,12.9c1.4,4.5,2.7,9.2,3.4,13.9c0.6,3.8,0.9,7.6,0.6,11.4
		c-0.1,2-0.5,3.9-0.8,5.9c-0.5,3-1.8,6-3.8,8.5c-4.1,5.2-10.7,7.4-17.4,7.6c0.3-0.4,0.7-0.8,1-1.2c0.4,1.3,0.4,2.8,0.1,4.1
		c-0.7,2.9-3.3,4.7-6.1,5.5c-1.6,0.5-3.4,0.6-5,0.7c-2.9,0.2-5.8,0.2-8.7-0.3c-3.2-0.5-6.5-1.7-8.2-4.5c0.4,0.1,0.8,0.3,1.2,0.4
		c-3.7,0.6-7.6,1-11.3,0.7c-2-0.2-4.2-0.5-5.7-1.7c-1.6-1.3-2.7-3.4-1.3-5.1c1.1-1.4,3.5-1.5,5.2-1.8c-0.2,0.4-0.5,0.8-0.7,1.2
		c-0.9-3.3-1.5-6.6-1.9-10c-0.6-4.8-1.2-10.6,1.4-15c0.2,0.5,0.4,0.9,0.6,1.4c-5.4-1.5-8.4-6.8-8.7-11.8c-0.2-3.8,1-7.3,2.5-10.8
		c0.4-1.1,0.9-2.1,1.5-3.1c0.4-0.8,1.1-2.3,2-2.8c0.3-0.2,0.6-0.1,0.9-0.2c12.4-1.7,24.9-3.3,37.3-5c4.5-0.6,9-1.2,13.5-1.8
		c1.3-0.2,1.9,1.7,0.6,1.9c-10.4,1.4-20.9,2.8-31.3,4.2c-5.8,0.8-11.6,1.6-17.4,2.3c-0.7,0.1-1.4,0.2-2,0.3c-0.2,0-0.4,0-0.6,0.1
		c-0.4,0.1,0.1-0.1,0.1,0c-2.2,2.9-3.6,6.7-4.5,10.2c-1,3.9-0.5,8.7,2.3,11.8c1.2,1.3,3,2.5,4.4,2.9c0.6,0.2,0.9,0.9,0.6,1.4
		c-1.1,1.9-1.4,4.2-1.5,6.4c-0.1,2.6,0.1,5.3,0.4,7.9c0.4,3.1,1,6.2,1.8,9.2c0.1,0.5-0.2,1.1-0.7,1.2c-0.8,0.2-1.6,0.4-2.4,0.6
		c-1.1,0.2-1.8,0.1-1.9,1.1c-0.1,0.8,0.8,1.7,1.4,2.1c0.7,0.5,1.8,0.8,2.7,0.9c4,0.7,8.3,0.3,12.3-0.4c0.5-0.1,0.9,0,1.2,0.4
		c2.6,4.1,9.6,4.1,14.1,3.9c3.5-0.2,8.6-0.4,10.1-4.2c0.5-1.2,0.5-2.6,0.1-3.7c-0.2-0.6,0.3-1.2,1-1.2c5.8-0.1,11.4-1.8,15.2-6.1
		c2-2.3,3.4-5.2,3.9-8.1c0-0.2,0.1-0.3,0.1-0.5c0-0.2,0,0.2,0-0.1c0.2-1.1,0.4-2.2,0.5-3.3c0.4-3.6,0.3-7.3-0.2-10.9
		c-0.5-4.3-1.6-8.4-2.6-12.5c-2.2-7.4-5.2-10.6-9.4-15.2C134.4,72.2,135.8,70.8,136.7,71.7z"/>
	<path class="st6" d="M109.2,84.8c-23.4,0.1-42.4-18.6-42.5-41.7C66.6,20,85.5,1.2,108.9,1.1c23.4-0.1,42.4,18.6,42.5,41.7
		C151.4,65.9,132.6,84.7,109.2,84.8z"/>
	<path class="st7" d="M109.2,85.7c-18.5,0-34.7-11.7-40.9-28.1C62.1,41,67.2,21.6,81.3,10c6.8-5.5,15.2-9,24.1-9.7
		c9-0.8,18.1,1.3,25.8,5.9c15.9,9.4,23.8,27.8,20.3,45.2c-3.4,16.9-17.6,31-35.6,33.8C113.7,85.5,111.4,85.7,109.2,85.7
		c-1.3,0-1.3-1.9,0-1.9c17.5-0.1,33-11.3,38.7-26.9c5.8-16,0.9-34.4-12.6-45.5C122,0.5,102.4-0.9,87.6,8c-15,9-22.5,26.7-19,43.2
		c3.4,16.1,16.9,29.5,34.1,32.2c2.2,0.3,4.4,0.5,6.5,0.5C110.5,83.8,110.5,85.7,109.2,85.7z"/>
	<path class="st7" d="M137.5,55.2c-4,15.9-20.2,25.9-36.3,22.3c-16.1-3.6-25.9-19.4-22-35.4c1.9-7.6,6.6-13.8,12.7-17.9l0,0
		c1.8-1.2,0.9-4.3,0.5-5.5c-0.4-1.1-0.7-2.4-0.1-3c0.8-0.7,1.9-0.6,2.9-0.1c3,1.4,5.1,3.4,5.6,3c0.4-0.2,0-1.3-0.2-1.8
		c-0.5-1.3-0.3-2.5,0.6-2.9c0.8-0.3,2.1,0.1,2.7,0.5c0.9,0.7,2,1.4,4.1,3c0.8,0.6,2.9,1.4,5.8,1.9c0,0,0,0,0,0
		c0.6,0.1,1.2,0.2,1.8,0.3C131.6,23.5,141.5,39.3,137.5,55.2z M92,43.1c-2.1-0.7-4.4,0.4-5.1,2.5c-0.7,2.1,0.3,4.3,2.4,5
		c2.1,0.7,4.4-0.4,5.1-2.5C95.1,46,94,43.8,92,43.1z M129.9,43.4c-0.5-2.9-3.3-4.8-6.2-4.3c-3,0.5-4.9,3.3-4.4,6.2
		c0.5,2.9,3.3,4.8,6.2,4.3C128.4,49.1,130.4,46.3,129.9,43.4z"/>
	<path class="st7" d="M86.5,79.4c-2.5,3.5-4.2,8-4.8,12.3c-0.4,2.9-0.2,6.1,1.5,8.6c0.8,1.2,1.8,2.1,3.1,2.8c0.1,0,0.2,0.1,0.3,0.1
		c-0.6-0.3,0.4,0.2,0.4,0.3c0.4,0.2,0.9,0.4,1.3,0.6c1.8,0.7,3.7,1,5.7,1c5.6-0.1,11.6-2.4,16.2-5.4c2.5-1.6,4.7-4.6,3.7-7.6
		c-0.4-1.1-1.1-2.1-2-3c-0.3-0.3-0.6-0.5-0.9-0.8c-0.1,0-0.4-0.3-0.3-0.2c0.1,0.1-0.1,0-0.1,0c-1.8-0.9-4.1-1.2-6.1-1.3
		c-2.2-0.1-4.4-0.1-6.5,0.1c-2.5,0.2-4.9,0.5-7.3,1.1c-1.3,0.3-1.9-1.6-0.6-1.9c2.3-0.5,4.7-0.9,7.1-1.1c4.2-0.4,8.7-0.5,12.7,0.8
		c2.2,0.7,3.9,2.2,5,4.1c2,3.4,1.1,7-1.6,9.7c-1.6,1.6-3.6,2.7-5.7,3.7c-3.3,1.6-6.9,2.9-10.6,3.5c-4.1,0.6-7.7,0.1-11.3-1.7
		c-1.2-0.6-2.3-1.3-3.2-2.3c-2.3-2.5-3.2-5.9-3-9.3c0.2-5.1,2.3-10.8,5.3-15C85.4,77.3,87.2,78.3,86.5,79.4z"/>
	<path class="st7" d="M126.7,114.8c0.2,3.4,0.3,6.9,0.5,10.4c0.1,2.1,0.2,4.2,0.3,6.3c0.1,1.3,0.2,2.7-0.2,4
		c-1.4,4.1-6.3,5.1-10.3,5.4c-4.8,0.4-11,0.4-15.1-2.5c-1.1-0.8-2-1.8-1.8-3.2c0.2-2,2.7-3.1,4.5-3.5c-0.2,0.4-0.5,0.8-0.7,1.2
		c-1-5.1-1.4-10.4-1.3-15.6c0.1-2.3,0.1-4.8,0.9-7.1c0.5-1.4,1.5-2.6,2.6-3.6c2.3-2.2,5.3-3.4,8.6-3c1.3,0.1,1.3,2.1,0,1.9
		c-3.3-0.4-5.9,0.9-7.9,3.2c-1.3,1.5-1.8,3.3-2,5.2c-0.6,6.1-0.1,12.5,1.1,18.5c0.1,0.5-0.1,1.1-0.7,1.2c-1,0.2-3.2,0.9-3.1,2.1
		c0,0.2,0.2,0.5,0.3,0.7c-0.1-0.1-0.1-0.2,0,0c0.3,0.3,0.5,0.5,0.7,0.6c3.9,2.6,9.7,2.4,14.3,2c3-0.2,7.7-1.1,8.1-4.9
		c0.1-1,0-2-0.1-2.9c-0.1-1.9-0.2-3.9-0.3-5.8c-0.2-3.5-0.3-7-0.5-10.5C124.6,113.5,126.6,113.5,126.7,114.8z"/>
	<path class="st7" d="M101,136.6c-4.7,0.4-10.2,1.4-14.7-0.3c-2.3-0.8-4.4-3-3.3-5.4c0.9-1.9,3.7-2.4,5.7-2.4
		c-0.3,0.4-0.6,0.8-1,1.2c-1.2-5.2-2.1-10.4-2.1-15.7c0-3,0.2-6.1,1.6-8.8c0.5-1.1,2.3-0.2,1.7,1c-1.2,2.5-1.3,5.5-1.3,8.2
		c0,5,0.9,10,2,14.9c0.1,0.6-0.3,1.2-1,1.2c-1.1,0-3.4,0.1-3.9,1.3c-0.1,0.2-0.1,1.1-0.1,0.5c0,0.1,0,0.1,0,0.2
		c0-0.1,0.1,0.4,0.1,0.4c0.4,0.9,1.6,1.5,2.7,1.8c2.6,0.7,5.4,0.6,8,0.4c1.8-0.1,3.7-0.3,5.5-0.4C102.3,134.6,102.3,136.5,101,136.6
		z"/>
	<path class="st6" d="M123.8,91.4c0,0-2.2-2.4,0.6-15.2c0,0,1-7.9-5.9-9.8c0,0-8.5-3.1-12.8,8.4c0,0-5.2,17.5,0.4,24.5
		c0,0,3.4,7.1,16.6,7c3.4,0,6.7-0.7,9.7-2.2c1.7-0.9,3.5-2,4.3-3.5"/>
	<path class="st7" d="M123.1,92.1c-0.8-0.9-1-2.4-1.1-3.5c-0.2-1.8,0-3.6,0.2-5.4c0.3-2.4,0.9-4.7,1.2-7c0.3-2.5-0.4-5.5-2.3-7.3
		c-1.5-1.4-3.7-1.9-5.7-1.8c-6.9,0.5-8.9,8.2-9.9,13.5c-0.7,4-1.2,8.2-0.7,12.3c0.3,2.5,1.3,4.8,2.8,6.9c1.9,2.6,5.2,4.2,8.4,5
		c3.2,0.8,6.7,0.9,10,0.4c3.5-0.5,8-1.9,9.9-5c0.7-1.1,2.4-0.1,1.7,1c-1.7,2.7-5.1,4.3-8.2,5.2c-3.2,0.9-6.6,1.2-10,0.9
		c-4.3-0.4-8.7-1.7-11.9-4.6c-5.1-4.6-5.4-11.8-4.8-18c0.7-6.4,1.9-15.2,8.6-18.5c2.2-1.1,4.8-1.3,7.1-0.7c3.6,1,6,3.7,6.6,7.2
		c0.2,1.1,0.3,2.4,0.2,3.5c-0.3,3-1.2,5.9-1.4,9c-0.1,1.5-0.2,3.1,0.2,4.7c0.1,0.2,0.1,0.4,0.2,0.6c0.1,0.3,0,0.1,0.1,0.2
		c0.1,0.1,0.3,0.4,0,0.1C125.3,91.7,123.9,93,123.1,92.1z"/>
	<path class="st7" d="M173.6,83.5l-3.9,1.3c-0.1,0-0.1,0.1-0.1,0.1l-1.1,3.9c0,0.2-0.3,0.2-0.4,0l-1.4-3.8c0-0.1-0.1-0.1-0.1-0.1
		l-4-1.1c-0.2,0-0.2-0.3,0-0.4l3.9-1.3c0.1,0,0.1-0.1,0.1-0.1l1.1-3.8c0-0.2,0.3-0.2,0.4,0l1.4,3.8c0,0.1,0.1,0.1,0.1,0.1l4,1.1
		C173.8,83.2,173.8,83.5,173.6,83.5z"/>
	<path class="st7" d="M66.7,79l-3.5,1.2c-0.1,0-0.1,0.1-0.1,0.1l-1,3.4c0,0.2-0.3,0.2-0.3,0l-1.2-3.4c0,0-0.1-0.1-0.1-0.1l-3.5-1
		c-0.2,0-0.2-0.3,0-0.3l3.5-1.2c0.1,0,0.1-0.1,0.1-0.1l1-3.4c0-0.2,0.3-0.2,0.3,0l1.2,3.4c0,0,0.1,0.1,0.1,0.1l3.5,1
		C66.8,78.7,66.8,78.9,66.7,79z"/>
	<path class="st7" d="M163.9,63.9l-2.6,0.9c0,0-0.1,0-0.1,0.1l-0.8,2.6c0,0.1-0.2,0.1-0.3,0l-0.9-2.5c0,0,0-0.1-0.1-0.1l-2.6-0.7
		c-0.1,0-0.1-0.2,0-0.3l2.6-0.9c0,0,0.1,0,0.1-0.1l0.8-2.6c0-0.1,0.2-0.1,0.3,0l0.9,2.5c0,0,0,0.1,0.1,0.1l2.6,0.7
		C164.1,63.7,164.1,63.9,163.9,63.9z"/>
</g>
<g class="st8">
	<path class="st7" d="M71.1,200h-2.3l-8.6-13.1V200H58v-17.1h2.3l8.6,13.2v-13.2h2.2V200z M74.2,193.5c0-1.2,0.2-2.4,0.7-3.4
		c0.5-1,1.2-1.8,2-2.3c0.9-0.5,1.9-0.8,3-0.8c1.7,0,3.1,0.6,4.2,1.8c1.1,1.2,1.6,2.8,1.6,4.8v0.2c0,1.2-0.2,2.3-0.7,3.3
		c-0.5,1-1.1,1.7-2,2.3c-0.9,0.5-1.9,0.8-3,0.8c-1.7,0-3.1-0.6-4.2-1.8c-1.1-1.2-1.6-2.8-1.6-4.7V193.5z M76.4,193.8
		c0,1.4,0.3,2.5,1,3.4c0.7,0.9,1.5,1.3,2.6,1.3c1.1,0,2-0.4,2.6-1.3c0.6-0.9,1-2.1,1-3.6c0-1.4-0.3-2.5-1-3.4
		c-0.7-0.9-1.5-1.3-2.6-1.3c-1.1,0-1.9,0.4-2.6,1.3C76.7,191,76.4,192.2,76.4,193.8z M106.8,182.9v11.6c0,1.6-0.5,2.9-1.5,3.9
		c-1,1-2.4,1.6-4.1,1.7l-0.6,0c-1.9,0-3.4-0.5-4.5-1.5c-1.1-1-1.7-2.4-1.7-4.2v-11.6h2.2v11.6c0,1.2,0.3,2.2,1,2.9
		c0.7,0.7,1.6,1,2.9,1c1.3,0,2.2-0.3,2.9-1c0.7-0.7,1-1.6,1-2.9v-11.6H106.8z M120.7,193.8c0,1.9-0.4,3.5-1.3,4.7
		c-0.9,1.2-2.1,1.8-3.6,1.8c-1.5,0-2.8-0.5-3.6-1.5v6.1H110v-17.6h2l0.1,1.4c0.9-1.1,2.1-1.6,3.7-1.6c1.5,0,2.7,0.6,3.6,1.7
		c0.9,1.1,1.3,2.7,1.3,4.8V193.8z M118.5,193.6c0-1.4-0.3-2.6-0.9-3.4c-0.6-0.8-1.4-1.2-2.5-1.2c-1.3,0-2.3,0.6-3,1.7v6.1
		c0.6,1.2,1.6,1.7,3,1.7c1,0,1.9-0.4,2.5-1.2C118.2,196.4,118.5,195.2,118.5,193.6z M122.9,193.6c0-1.9,0.5-3.5,1.4-4.7
		c0.9-1.2,2.1-1.8,3.6-1.8c1.5,0,2.7,0.5,3.5,1.5V182h2.2v18h-2l-0.1-1.4c-0.9,1.1-2.1,1.6-3.6,1.6c-1.5,0-2.7-0.6-3.6-1.8
		c-0.9-1.2-1.4-2.8-1.4-4.7V193.6z M125.1,193.8c0,1.4,0.3,2.6,0.9,3.4c0.6,0.8,1.4,1.2,2.5,1.2c1.4,0,2.4-0.6,3-1.9v-5.8
		c-0.6-1.2-1.6-1.8-3-1.8c-1.1,0-1.9,0.4-2.5,1.2C125.4,191,125.1,192.2,125.1,193.8z M144.8,200c-0.1-0.2-0.2-0.7-0.3-1.3
		c-1,1-2.2,1.6-3.6,1.6c-1.2,0-2.3-0.4-3.1-1.1c-0.8-0.7-1.2-1.6-1.2-2.7c0-1.3,0.5-2.3,1.5-3.1c1-0.7,2.4-1.1,4.2-1.1h2.1v-1
		c0-0.8-0.2-1.4-0.7-1.8c-0.5-0.5-1.1-0.7-2-0.7c-0.8,0-1.4,0.2-1.9,0.6c-0.5,0.4-0.8,0.9-0.8,1.4h-2.2c0-0.6,0.2-1.2,0.7-1.8
		c0.5-0.6,1.1-1.1,1.8-1.4c0.8-0.3,1.6-0.5,2.5-0.5c1.5,0,2.6,0.4,3.4,1.1c0.8,0.7,1.3,1.7,1.3,3v5.8c0,1.2,0.1,2.1,0.4,2.8v0.2
		H144.8z M141.2,198.3c0.7,0,1.3-0.2,1.9-0.5c0.6-0.4,1.1-0.8,1.3-1.4v-2.6h-1.7c-2.7,0-4,0.8-4,2.3c0,0.7,0.2,1.2,0.7,1.6
		C139.9,198.2,140.5,198.3,141.2,198.3z M153,184.3v3.1h2.4v1.7H153v7.9c0,0.5,0.1,0.9,0.3,1.1c0.2,0.2,0.6,0.4,1.1,0.4
		c0.2,0,0.6,0,1-0.1v1.8c-0.6,0.2-1.1,0.2-1.7,0.2c-1,0-1.7-0.3-2.2-0.9c-0.5-0.6-0.7-1.4-0.7-2.5V189h-2.3v-1.7h2.3v-3.1H153z
		 M163.2,200.2c-1.7,0-3.1-0.6-4.2-1.7c-1.1-1.1-1.6-2.6-1.6-4.5v-0.4c0-1.3,0.2-2.4,0.7-3.4c0.5-1,1.2-1.8,2-2.3
		c0.9-0.6,1.8-0.8,2.8-0.8c1.6,0,2.9,0.5,3.8,1.6c0.9,1.1,1.4,2.6,1.4,4.7v0.9h-8.6c0,1.2,0.4,2.3,1.1,3c0.7,0.8,1.6,1.1,2.7,1.1
		c0.8,0,1.4-0.2,1.9-0.5c0.5-0.3,1-0.7,1.4-1.2l1.3,1C166.9,199.4,165.3,200.2,163.2,200.2z M162.9,188.9c-0.9,0-1.6,0.3-2.2,1
		c-0.6,0.6-1,1.5-1.1,2.7h6.4v-0.2c-0.1-1.1-0.4-2-0.9-2.6C164.5,189.2,163.8,188.9,162.9,188.9z"/>
</g>
</svg>
