<svg width="24" height="24" viewBox="0 0 24 24" fill="none" xmlns="http://www.w3.org/2000/svg">
<path fill-rule="evenodd" clip-rule="evenodd" d="M20.1 12C20.1 16.4735 16.4735 20.1 12 20.1C7.52649 20.1 3.9 16.4735 3.9 12C3.9 7.52649 7.52649 3.9 12 3.9C16.4735 3.9 20.1 7.52649 20.1 12ZM12 19.25C16.0041 19.25 19.25 16.0041 19.25 12C19.25 11.8658 19.2464 11.7324 19.2392 11.6H16.4325L14.8074 16.4753C14.5479 17.2535 13.4248 17.1836 13.264 16.3792L11.9349 9.73411L10.7261 14.5696C10.5402 15.3129 9.51648 15.3949 9.21465 14.6907L8.10436 12.1H4.75068C4.80418 16.058 8.02932 19.25 12 19.25ZM4.83291 10.9C5.36291 7.41795 8.36989 4.75 12 4.75C15.4543 4.75 18.3444 7.16577 19.0729 10.4H16.1442C15.7998 10.4 15.4941 10.6203 15.3852 10.947L14.1453 14.6669L12.7628 7.75448C12.5954 6.91761 11.4092 6.88937 11.2022 7.71734L9.84989 13.1266L9.10344 11.3849C8.97737 11.0907 8.68814 10.9 8.36812 10.9H4.83291Z" fill="#232533"/>
<path fill-rule="evenodd" clip-rule="evenodd" d="M12 22C17.5228 22 22 17.5228 22 12C22 6.47715 17.5228 2 12 2C6.47715 2 2 6.47715 2 12C2 17.5228 6.47715 22 12 22ZM12 20.7C16.8049 20.7 20.7 16.8049 20.7 12C20.7 7.19512 16.8049 3.3 12 3.3C7.19512 3.3 3.3 7.19512 3.3 12C3.3 16.8049 7.19512 20.7 12 20.7Z" fill="#232533"/>
</svg>
