<svg width="40" height="40" viewBox="0 0 40 40" fill="none" xmlns="http://www.w3.org/2000/svg">
<path d="M28.6085 23.8828L29.1931 25.6819C29.3744 26.2292 29.6812 26.7264 30.089 27.1339C30.4967 27.5414 30.9942 27.8478 31.5415 28.0287L33.3423 28.6133L33.3793 28.6234C33.5181 28.6722 33.6382 28.7629 33.7233 28.883C33.8083 29.003 33.8539 29.1465 33.8539 29.2936C33.8539 29.4408 33.8083 29.5842 33.7233 29.7043C33.6382 29.8243 33.5181 29.9151 33.3793 29.9639L31.5785 30.5485C31.0308 30.7292 30.5331 31.0355 30.125 31.443C29.7169 31.8505 29.4098 32.3478 29.2284 32.8953L28.6455 34.6927C28.5966 34.8315 28.5059 34.9516 28.3859 35.0367C28.2658 35.1217 28.1223 35.1673 27.9752 35.1673C27.8281 35.1673 27.6846 35.1217 27.5646 35.0367C27.4445 34.9516 27.3538 34.8315 27.3049 34.6927L26.7204 32.8953C26.5402 32.346 26.2338 31.8466 25.8256 31.4373C25.4175 31.028 24.919 30.7201 24.3702 30.5384L22.5694 29.9538C22.4307 29.905 22.3105 29.8143 22.2255 29.6942C22.1405 29.5742 22.0948 29.4307 22.0948 29.2836C22.0948 29.1365 22.1405 28.993 22.2255 28.8729C22.3105 28.7529 22.4307 28.6621 22.5694 28.6133L24.3702 28.0287C24.9111 27.8431 25.4015 27.5346 25.8028 27.1274C26.2042 26.7202 26.5056 26.2254 26.6834 25.6819L27.268 23.8845C27.3165 23.7452 27.4071 23.6244 27.5274 23.5389C27.6477 23.4534 27.7915 23.4075 27.9391 23.4075C28.0866 23.4075 28.2305 23.4534 28.3508 23.5389C28.471 23.6244 28.5617 23.7452 28.6102 23.8845M33.4377 7.48715C33.7718 7.48715 34.0923 7.61989 34.3286 7.85616C34.5648 8.09244 34.6976 8.4129 34.6976 8.74704V16.3064C34.6976 16.6405 34.5648 16.961 34.3286 17.1973C34.0923 17.4336 33.7718 17.5663 33.4377 17.5663C33.1035 17.5663 32.7831 17.4336 32.5468 17.1973C32.3105 16.961 32.1778 16.6405 32.1778 16.3064V11.7876L22.0948 22.2734C21.8586 22.5094 21.5383 22.6419 21.2045 22.6419C20.8706 22.6419 20.5504 22.5094 20.3141 22.2734L17.1937 19.179L7.47499 28.6757C7.23616 28.8982 6.92027 29.0194 6.59387 29.0136C6.26747 29.0079 5.95605 28.8757 5.72522 28.6448C5.49438 28.414 5.36216 28.1026 5.3564 27.7762C5.35064 27.4498 5.4718 27.1339 5.69434 26.8951L16.3034 16.5081C16.5396 16.2721 16.8598 16.1396 17.1937 16.1396C17.5276 16.1396 17.8478 16.2721 18.084 16.5081L21.2045 19.6025L30.3972 10.0069H25.8784C25.5442 10.0069 25.2238 9.8742 24.9875 9.63792C24.7512 9.40165 24.6185 9.08119 24.6185 8.74704C24.6185 8.4129 24.7512 8.09244 24.9875 7.85616C25.2238 7.61989 25.5442 7.48715 25.8784 7.48715H33.4377ZM15.5876 9.72126L16.8744 10.1379L16.8996 10.1446C16.9737 10.1707 17.0407 10.2137 17.0954 10.2701C17.1502 10.3265 17.1911 10.3948 17.215 10.4696C17.2389 10.5445 17.2452 10.6238 17.2333 10.7015C17.2214 10.7792 17.1917 10.853 17.1465 10.9173C17.0856 11.0032 16.9992 11.0678 16.8996 11.1021L15.6145 11.5187C15.2234 11.6488 14.868 11.8682 14.5765 12.1595C14.2849 12.4508 14.0651 12.8059 13.9347 13.1969L13.5181 14.4803C13.4833 14.5795 13.4185 14.6655 13.3328 14.7263C13.247 14.7871 13.1444 14.8198 13.0393 14.8198C12.9341 14.8198 12.8316 14.7871 12.7458 14.7263C12.6601 14.6655 12.5953 14.5795 12.5605 14.4803L12.1422 13.1969C12.0126 12.8052 11.7934 12.4491 11.5021 12.1569C11.2108 11.8647 10.8554 11.6445 10.4641 11.5137L9.17898 11.0954C9.10503 11.069 9.03817 11.026 8.98363 10.9695C8.9291 10.913 8.88836 10.8447 8.86461 10.7699C8.84086 10.695 8.83474 10.6157 8.84673 10.5382C8.85872 10.4606 8.8885 10.3868 8.93372 10.3226C8.99426 10.237 9.08 10.1724 9.17898 10.1379L10.4641 9.72126C10.85 9.5878 11.1999 9.3671 11.4866 9.07632C11.7733 8.78554 11.9891 8.43253 12.1171 8.04476L12.5353 6.75967C12.5701 6.66044 12.6349 6.57448 12.7206 6.51365C12.8064 6.45283 12.9089 6.42016 13.0141 6.42016C13.1192 6.42016 13.2218 6.45283 13.3076 6.51365C13.3933 6.57448 13.4581 6.66044 13.4929 6.75967L13.9111 8.04476C14.0415 8.43504 14.2608 8.78966 14.5518 9.08061C14.8427 9.37157 15.1974 9.59089 15.5876 9.72126Z" fill="#232533"/>
</svg>
