<svg width="32" height="32" viewBox="0 0 32 32" fill="none" xmlns="http://www.w3.org/2000/svg">
<rect width="32" height="32" rx="16" fill="url(#paint0_linear_5641_85458)"/>
<path fill-rule="evenodd" clip-rule="evenodd" d="M20.0138 9.60662L20.8288 8.80616C20.9706 8.66688 20.9706 8.44103 20.8288 8.30175L19.6565 7.15035C19.5147 7.01107 19.2847 7.01107 19.1429 7.15035L18.3277 7.95102C18.15 7.8494 17.9655 7.75931 17.7752 7.68182C17.5864 7.60495 17.3917 7.53998 17.1921 7.48788V6.3567C17.1921 6.15971 17.0295 6 16.829 6H15.1711C14.9705 6 14.8079 6.15971 14.8079 6.3567V7.4879C14.6083 7.53998 14.4136 7.60495 14.2247 7.68182C14.0345 7.75929 13.85 7.84934 13.6723 7.95098L12.8571 7.15035C12.7153 7.01107 12.4853 7.01107 12.3435 7.15035L11.1712 8.30175C11.0294 8.44103 11.0294 8.66688 11.1712 8.80616L11.9863 9.60674C11.8829 9.78127 11.7912 9.96248 11.7123 10.1493C11.634 10.3348 11.5679 10.5261 11.5148 10.7222H10.3632C10.1626 10.7222 10 10.8819 10 11.0789V12.7072C10 12.9042 10.1626 13.0639 10.3632 13.0639H11.5147C11.5678 13.2601 11.6339 13.4514 11.7122 13.6369C11.7911 13.8238 11.8828 14.0049 11.9862 14.1794L11.1712 14.9799C11.0294 15.1192 11.0294 15.345 11.1712 15.4843L12.3435 16.6357C12.4853 16.775 12.7153 16.775 12.8571 16.6357L13.6723 15.835C13.85 15.9367 14.0345 16.0268 14.2248 16.1042C14.4136 16.1811 14.6083 16.2461 14.8079 16.2982V17.4294C14.8079 17.6264 14.9705 17.7861 15.1711 17.7861H16.829C17.0295 17.7861 17.1921 17.6264 17.1921 17.4294V16.2984C17.3918 16.2462 17.5867 16.1813 17.7756 16.1043C17.9658 16.0269 18.1502 15.9369 18.3279 15.8352L19.1429 16.6357C19.2847 16.775 19.5147 16.775 19.6565 16.6357L20.8288 15.4843C20.9706 15.345 20.9706 15.1192 20.8288 14.9799L20.0136 14.1792C20.117 14.0047 20.2088 13.8235 20.2877 13.6366C20.3659 13.4512 20.4321 13.2599 20.4851 13.0639H21.6368C21.8374 13.0639 22 12.9042 22 12.7072V11.0789C22 10.8819 21.8374 10.7222 21.6368 10.7222H20.4853C20.4322 10.526 20.3661 10.3347 20.2878 10.1491C20.2089 9.9623 20.1172 9.78113 20.0138 9.60662ZM16 9.98281C16.5371 9.98281 17.0233 10.1966 17.3752 10.5423C17.7272 10.888 17.9449 11.3656 17.9449 11.893C17.9449 12.4205 17.7272 12.8981 17.3752 13.2437C17.0233 13.5894 16.5371 13.8033 16 13.8033C15.463 13.8033 14.9767 13.5894 14.6248 13.2437C14.2728 12.8981 14.0551 12.4205 14.0551 11.893C14.0551 11.3656 14.2728 10.888 14.6248 10.5423C14.9767 10.1966 15.463 9.98281 16 9.98281Z" fill="#2C0F66"/>
<path d="M8.0783 23.1487C8.38358 21.8913 8.83066 21.0434 8.84926 21.0083C9.17386 20.2741 9.75983 19.6755 10.5175 19.2079C11.333 18.7047 12.3478 18.3525 13.4458 18.1466C13.5056 18.1354 13.5694 18.1474 13.6245 18.1845C13.9898 18.4311 14.3901 18.625 14.8156 18.7558C15.2257 18.882 15.6614 18.9497 16.1139 18.9497C16.5486 18.9497 16.968 18.8871 17.3646 18.77C17.7699 18.6503 18.1527 18.4738 18.5045 18.2493C18.5586 18.2093 18.6276 18.1917 18.6976 18.2063C19.7702 18.4312 20.7555 18.7907 21.5421 19.281C22.2794 19.7406 22.8448 20.3171 23.1508 21.0083C23.1694 21.0434 23.6164 21.8913 23.9217 23.1487C23.9247 23.1609 23.9263 23.1736 23.9276 23.1865C23.9278 23.1886 24 23.8931 24 24.1055C24 24.3502 23.8516 24.606 23.8079 24.676C23.7822 24.7217 23.7432 24.7597 23.6934 24.7827C21.9425 25.5942 18.9676 26 16 26C13.0324 26 10.0575 25.5942 8.30664 24.7827C8.2668 24.7643 8.23115 24.7345 8.2041 24.6946C8.20352 24.6938 8 24.392 8 24.1055C8 23.9122 8.05984 23.3111 8.07073 23.2033C8.07141 23.1852 8.07388 23.1669 8.0783 23.1487Z" fill="url(#paint1_linear_5641_85458)"/>
<defs>
<linearGradient id="paint0_linear_5641_85458" x1="3.5" y1="4" x2="28.5" y2="29" gradientUnits="userSpaceOnUse">
<stop stop-color="#E1E0FA"/>
<stop offset="0.685" stop-color="#B7AFED"/>
<stop offset="1" stop-color="#897CD6"/>
</linearGradient>
<linearGradient id="paint1_linear_5641_85458" x1="16" y1="18.1426" x2="16" y2="26" gradientUnits="userSpaceOnUse">
<stop stop-color="#2C0F66"/>
<stop offset="1" stop-color="#2C0F66" stop-opacity="0.8"/>
</linearGradient>
</defs>
</svg>
