<svg width="20" height="20" viewBox="0 0 20 20" fill="none" xmlns="http://www.w3.org/2000/svg">
<path fill-rule="evenodd" clip-rule="evenodd" d="M11.3603 11.7267L11.7515 12.9649C11.7834 13.0614 11.8713 13.1257 11.9751 13.1257H12.9666C13.1263 13.1257 13.246 12.9649 13.1901 12.8121L10.9465 6.88645C10.9146 6.79801 10.8268 6.73369 10.723 6.73369H9.46221C9.3664 6.73369 9.27857 6.79801 9.23865 6.88645L7.00304 12.8121C6.94715 12.9649 7.05893 13.1257 7.2266 13.1257H8.16654C8.27034 13.1257 8.35816 13.0614 8.3901 12.9649L8.78133 11.7267C8.81326 11.6302 8.90109 11.5659 9.00489 11.5659H11.1447C11.2405 11.5659 11.3283 11.6302 11.3603 11.7267ZM10.6417 10.5163H9.38358C9.22389 10.5163 9.11211 10.3636 9.16002 10.2108C9.16002 10.2108 9.93907 8.06033 9.93907 8.05229C9.971 7.93972 10.1546 7.93972 10.1866 8.05229C10.2345 8.22113 10.8573 10.2108 10.8573 10.2108C10.9131 10.3636 10.8014 10.5163 10.6417 10.5163Z" fill="#186F6E"/>
<path fill-rule="evenodd" clip-rule="evenodd" d="M8.52516 4.43175C8.61299 4.40992 8.70009 4.46794 8.71626 4.55698L8.87085 5.4082C8.89488 5.54396 9.08707 5.53597 9.14312 5.45612L9.78375 4.59366L10.4324 3.71522C10.5205 3.59544 10.4805 3.33191 10.3523 3.25205L9.43941 2.64513L8.51049 2.03023C8.4224 1.97433 8.27026 2.03822 8.3023 2.17397L8.45948 3.06C8.47453 3.14483 8.41927 3.2262 8.33541 3.24593C5.21836 3.97902 2.96899 6.72253 2.96899 9.99202C2.96899 11.134 3.25726 12.2759 3.8018 13.2822C3.90591 13.4818 4.11412 13.5936 4.33033 13.5936C4.42643 13.5936 4.52253 13.5696 4.61062 13.5217C4.8989 13.362 5.011 13.0026 4.85084 12.7152C4.4024 11.8846 4.16217 10.9423 4.16217 9.99202C4.16217 7.3172 5.98261 5.06367 8.52516 4.43175Z" fill="#186F6E"/>
<path fill-rule="evenodd" clip-rule="evenodd" d="M17.0314 10.0042C17.0314 8.86283 16.7431 7.72147 16.1985 6.71579C16.0944 6.51625 15.8862 6.40451 15.67 6.40451C15.5739 6.40451 15.4778 6.42845 15.3898 6.47634C15.1015 6.63597 14.9893 6.99514 15.1495 7.28248C15.5979 8.11256 15.8382 9.05439 15.8382 10.0042C15.8382 12.6854 14.0177 14.938 11.4752 15.5695C11.3874 15.5914 11.3003 15.5333 11.2841 15.4443L11.1295 14.5936C11.1055 14.4579 10.9133 14.4659 10.8573 14.5457L10.2166 15.4077L9.56797 16.2857C9.47988 16.4054 9.51993 16.6688 9.64805 16.7486L10.561 17.3552L11.4899 17.9698C11.578 18.0257 11.7301 17.9618 11.6981 17.8261L11.5408 16.9403C11.5258 16.8556 11.5809 16.7743 11.6645 16.7545C14.7818 16.0143 17.0314 13.2721 17.0314 10.0042Z" fill="#186F6E"/>
</svg>
