<svg width="32" height="32" viewBox="0 0 32 32" fill="none" xmlns="http://www.w3.org/2000/svg">
<path d="M14.846 6.97208L10 6.97208L15.984 13L22 6.97208L17.1543 6.97208L17.1542 2H14.8459L14.846 6.97208Z" fill="#232533"/>
<path d="M14.846 25.0279L10 25.0279L15.984 19L22 25.0279L17.1543 25.0279L17.1542 30H14.8459L14.846 25.0279Z" fill="#232533"/>
<path d="M4 15H7.42857V17H4V15Z" fill="#232533"/>
<path d="M9.14286 15H12.5714V17H9.14286V15Z" fill="#232533"/>
<path d="M14.2857 15H17.7143V17H14.2857V15Z" fill="#232533"/>
<path d="M19.4286 15H22.8571V17H19.4286V15Z" fill="#232533"/>
<path d="M24.5714 15H28V17H24.5714V15Z" fill="#232533"/>
</svg>
