<svg width="16" height="16" viewBox="0 0 16 16" fill="none" xmlns="http://www.w3.org/2000/svg">
<path d="M12.7341 3.44585C12.4054 3.12097 11.9733 2.92152 11.5128 2.88215C11.0524 2.84279 10.5927 2.96601 10.2136 3.2304C11.432 3.73769 12.4274 4.66627 13.0179 5.8466C13.2459 5.47232 13.3418 5.03243 13.2903 4.59724C13.2389 4.16204 13.043 3.75665 12.7341 3.44585V3.44585Z" fill="#222532"/>
<path d="M5.87746 3.30531C5.49999 3.00552 5.02584 2.85426 4.54449 2.8801C4.06314 2.90593 3.6079 3.10706 3.26468 3.44553C2.9243 3.78817 2.7227 4.24462 2.69871 4.727C2.67471 5.20938 2.83002 5.68358 3.13473 6.0583C3.68346 4.83742 4.65864 3.85859 5.87746 3.30531V3.30531Z" fill="#222532"/>
<path fill-rule="evenodd" clip-rule="evenodd" d="M10.4695 4.00161C9.58462 3.51694 8.57147 3.31797 7.56903 3.43198C6.6575 3.53847 5.79405 3.89946 5.07808 4.47359C4.36211 5.04771 3.82224 5.81181 3.52025 6.67844C3.21826 7.54506 3.16636 8.4792 3.37048 9.37394C3.56719 10.2362 3.99401 11.0283 4.60467 11.6664L3.80249 12.4686L3.80175 12.4693C3.7609 12.511 3.72867 12.5604 3.70689 12.6146C3.68512 12.6687 3.67423 12.7267 3.67484 12.7851C3.67545 12.8434 3.68756 12.9011 3.71047 12.9548C3.73338 13.0085 3.76665 13.0572 3.80837 13.0981C3.85009 13.1389 3.89944 13.1711 3.95362 13.1929C4.00779 13.2147 4.06572 13.2256 4.12411 13.225C4.18249 13.2243 4.24019 13.2122 4.29389 13.1893C4.34741 13.1665 4.39635 13.133 4.43711 13.0914L5.28502 12.2435C6.12108 12.8529 7.13074 13.1796 8.16682 13.1747C9.20261 13.1698 10.2089 12.8337 11.039 12.2168L11.9142 13.0924L11.9201 13.0974C12.0046 13.1698 12.1134 13.2077 12.2246 13.2034C12.3359 13.1991 12.4414 13.153 12.5201 13.0742C12.5988 12.9955 12.6449 12.89 12.6492 12.7788C12.6535 12.6675 12.616 12.5585 12.5436 12.474L11.6878 11.6309C12.3539 10.9201 12.7931 10.0258 12.9476 9.06244C13.1073 8.06628 12.9549 7.04508 12.5112 6.13898C12.0675 5.23288 11.3543 4.48628 10.4695 4.00161ZM7.48204 4.33868C8.3072 4.2023 9.15434 4.32775 9.90456 4.6974C10.6548 5.06706 11.2704 5.66237 11.665 6.39977C12.0597 7.13716 12.2135 7.97962 12.1048 8.80889C11.9903 9.68371 11.5899 10.4962 10.966 11.1201C10.3422 11.7439 9.52969 12.1443 8.65487 12.2589C7.8256 12.3675 6.98314 12.2137 6.24574 11.8191C5.50835 11.4244 4.91304 10.8088 4.54338 10.0586C4.17372 9.30836 4.04828 8.46122 4.18465 7.63606C4.32103 6.81091 4.71238 6.04917 5.30376 5.45779C5.89515 4.8664 6.65689 4.47505 7.48204 4.33868Z" fill="#222532"/>
<path d="M10.4942 9.08862L8.42173 8.06266V5.38149C8.42173 5.29986 8.3893 5.22157 8.33158 5.16385C8.27386 5.10613 8.19557 5.0737 8.11394 5.0737C8.03231 5.0737 7.95402 5.10613 7.8963 5.16385C7.83858 5.22157 7.80615 5.29986 7.80615 5.38149V8.45937L10.2206 9.65632C10.294 9.69215 10.3787 9.69732 10.456 9.67071C10.5333 9.64409 10.5968 9.58786 10.6327 9.5144C10.6685 9.44093 10.6737 9.35624 10.6471 9.27896C10.6204 9.20167 10.5642 9.13813 10.4907 9.1023L10.4942 9.08862Z" fill="#222532"/>
</svg>
