<svg width="24" height="24" viewBox="0 0 24 24" fill="none" xmlns="http://www.w3.org/2000/svg">
<path fill-rule="evenodd" clip-rule="evenodd" d="M8.11111 7.13889C8.11111 6.10749 8.52083 5.11834 9.25014 4.38903C9.97945 3.65972 10.9686 3.25 12 3.25C13.0314 3.25 14.0206 3.65972 14.7499 4.38903C15.4792 5.11834 15.8889 6.10749 15.8889 7.13889C15.8889 8.17029 15.4792 9.15944 14.7499 9.88875C14.0206 10.6181 13.0314 11.0278 12 11.0278C10.9686 11.0278 9.97945 10.6181 9.25014 9.88875C8.52083 9.15944 8.11111 8.17029 8.11111 7.13889ZM8.11111 12.9722C6.82186 12.9722 5.58542 13.4844 4.67379 14.396C3.76215 15.3076 3.25 16.5441 3.25 17.8333C3.25 18.6069 3.55729 19.3487 4.10427 19.8957C4.65125 20.4427 5.39312 20.75 6.16667 20.75H17.8333C18.6069 20.75 19.3487 20.4427 19.8957 19.8957C20.4427 19.3487 20.75 18.6069 20.75 17.8333C20.75 16.5441 20.2378 15.3076 19.3262 14.396C18.4146 13.4844 17.1781 12.9722 15.8889 12.9722H8.11111Z" fill="#232533"/>
</svg>
