<svg width="32" height="32" viewBox="0 0 32 32" fill="none" xmlns="http://www.w3.org/2000/svg">
<path d="M12 10H24.185L20.598 6.414L22 5L28 11L22 17L20.598 15.585L24.182 12H12C10.4087 12 8.88258 12.6321 7.75736 13.7574C6.63214 14.8826 6 16.4087 6 18C6 19.5913 6.63214 21.1174 7.75736 22.2426C8.88258 23.3679 10.4087 24 12 24H20V26H12C9.87827 26 7.84344 25.1571 6.34315 23.6569C4.84285 22.1566 4 20.1217 4 18C4 15.8783 4.84285 13.8434 6.34315 12.3431C7.84344 10.8429 9.87827 10 12 10Z" fill="#232533"/>
</svg>
