<svg width="12" height="12" viewBox="0 0 12 12" fill="none" xmlns="http://www.w3.org/2000/svg">
<g clip-path="url(#clip0-024050)">
<path fill-rule="evenodd" clip-rule="evenodd" d="M6.38625 0.76425C6.25772 0.754761 6.12888 0.750007 6 0.75V0C6.1474 7.18707e-05 6.29475 0.00557561 6.44175 0.0165L6.38625 0.76425ZM7.88925 1.10175C7.64883 1.00898 7.40192 0.934026 7.1505 0.8775L7.31475 0.1455C7.602 0.21 7.88475 0.2955 8.15925 0.402L7.88925 1.10175ZM8.91675 1.63425C8.80952 1.56274 8.69969 1.49519 8.5875 1.43175L8.95725 0.77925C9.21368 0.924552 9.45909 1.08849 9.6915 1.26975L9.23025 1.8615C9.12857 1.78217 9.024 1.70662 8.91675 1.635V1.63425ZM10.2922 2.97675C10.1439 2.76598 9.9802 2.56644 9.8025 2.37975L10.3455 1.86225C10.548 2.076 10.7355 2.30475 10.9057 2.54475L10.2922 2.97675ZM10.8502 3.99075C10.801 3.87184 10.7475 3.75477 10.6897 3.63975L11.3595 3.30225C11.4919 3.56556 11.6048 3.83831 11.697 4.11825L10.9845 4.353C10.9442 4.23065 10.8994 4.10982 10.8502 3.99075ZM11.2477 5.871C11.2417 5.61326 11.2166 5.35631 11.1727 5.10225L11.9115 4.97475C11.9617 5.26425 11.991 5.55825 11.9985 5.85225L11.2485 5.871H11.2477ZM11.1495 7.0245C11.1742 6.897 11.1945 6.77025 11.2102 6.642L11.955 6.73425C11.919 7.02687 11.8613 7.31641 11.7825 7.6005L11.0595 7.40025C11.094 7.2765 11.124 7.15125 11.1495 7.0245ZM10.4355 8.80875C10.5735 8.59125 10.695 8.36325 10.8 8.12775L11.4855 8.4315C11.3655 8.7015 11.2267 8.961 11.0692 9.21L10.4355 8.80875ZM9.7125 9.7125C9.804 9.621 9.89175 9.5265 9.975 9.429L10.5435 9.91875C10.4472 10.0304 10.3469 10.1384 10.2427 10.2428L9.7125 9.7125Z" fill="#A7A9B2"/>
<path fill-rule="evenodd" clip-rule="evenodd" d="M5.99941 0.75C5.13607 0.750062 4.28607 0.963035 3.5247 1.37005C2.76332 1.77707 2.11407 2.36558 1.63446 3.08344C1.15484 3.8013 0.859659 4.62636 0.775059 5.48555C0.690459 6.34473 0.819051 7.21152 1.14945 8.00914C1.47984 8.80676 2.00184 9.51059 2.66921 10.0583C3.33658 10.606 4.12872 10.9807 4.97546 11.1491C5.82221 11.3175 6.69743 11.2746 7.52361 11.024C8.34978 10.7734 9.10141 10.3229 9.71191 9.7125L10.2422 10.2428C9.54446 10.9408 8.68535 11.456 7.74094 11.7427C6.79654 12.0294 5.79599 12.0788 4.82796 11.8864C3.85993 11.6939 2.95431 11.2657 2.19132 10.6397C1.42834 10.0136 0.831565 9.209 0.453864 8.29717C0.0761633 7.38533 -0.0707971 6.39441 0.0260037 5.4122C0.122805 4.42999 0.460378 3.48683 1.00881 2.66626C1.55725 1.8457 2.29961 1.17308 3.17013 0.708002C4.04065 0.242921 5.01245 -0.000261549 5.99941 2.11094e-07V0.75Z" fill="#A7A9B2"/>
<path fill-rule="evenodd" clip-rule="evenodd" d="M5.06445 3.32837C5.16391 3.32837 5.25929 3.36788 5.32962 3.4382C5.39994 3.50853 5.40674 3.57788 5.43945 3.70337L6.0005 6.53248L8.39116 8.41676C8.475 8.46734 8.53573 8.54871 8.56038 8.64347C8.58502 8.73824 8.57162 8.83889 8.52304 8.92391C8.47446 9.00892 8.39455 9.07157 8.30039 9.09845C8.20624 9.12533 8.1053 9.11431 8.01916 9.06776L5.4395 7.07548C5.3821 7.04269 5.33439 6.99532 5.3012 6.93816C5.26801 6.881 5.24658 6.80835 5.22705 6.71069L4.68945 3.70337C4.68945 3.60391 4.72896 3.50853 4.79929 3.4382C4.86961 3.36788 4.965 3.32837 5.06445 3.32837Z" fill="#A7A9B2"/>
</g>
<defs>
<clipPath id="clip0-024050">
<rect width="12" height="12" fill="white"/>
</clipPath>
</defs>
</svg>
