<svg width="24" height="24" viewBox="0 0 24 24" fill="none" xmlns="http://www.w3.org/2000/svg">
<path d="M18.1917 11.2817H16.551C15.8929 11.2832 15.2592 10.9987 14.7792 10.4864L10.0607 5.45299C9.35579 4.69782 8.4236 4.2783 7.45544 4.28052H5.81482C5.8705 4.50781 5.89811 4.74282 5.89685 4.97877C5.89812 5.21596 5.87051 5.4522 5.81482 5.68076H7.45544C8.11153 5.67965 8.74313 5.96421 9.22075 6.47609L13.9392 11.5095C14.6448 12.2634 15.5766 12.6827 16.5445 12.6819H18.1851C18.1327 12.4529 18.1084 12.2166 18.1129 11.98C18.1122 11.7443 18.1387 11.5095 18.1917 11.2817Z" fill="#232533"/>
<path d="M13.0204 11.2929L12.0886 10.3034L12.0525 10.3856L10.9795 12.667L11.9114 13.6602L12.0525 13.3615L13.0204 11.2929Z" fill="#232533"/>
<path d="M8.96478 16.969C8.77941 17.3661 8.50247 17.6983 8.16371 17.9299C7.82495 18.1615 7.43715 18.2837 7.04197 18.2833H5.80823C5.86391 18.5106 5.89152 18.7456 5.89026 18.9816C5.89152 19.2188 5.86392 19.455 5.80823 19.6836H7.04197C7.66013 19.6846 8.26685 19.4939 8.79697 19.1321C9.32708 18.7703 9.76057 18.2509 10.0509 17.6299L10.8318 15.9645L9.90322 14.9676L8.96478 16.969Z" fill="#232533"/>
<path d="M18.1917 4.28051H16.9579C16.3399 4.28033 15.7335 4.47133 15.2035 4.83306C14.6735 5.1948 14.2399 5.71368 13.949 6.3342L13.1681 7.99954L14.1 8.99278L15.0351 6.99511C15.2205 6.59795 15.4974 6.26575 15.8362 6.03418C16.1749 5.80262 16.5627 5.68043 16.9579 5.68075H18.195C18.1393 5.45219 18.1117 5.21595 18.1129 4.97877C18.1122 4.7431 18.1387 4.50834 18.1917 4.28051Z" fill="#232533"/>
<path d="M18.1916 18.2832H16.551C15.8952 18.2828 15.264 17.9984 14.7857 17.4879L12.0524 14.594L10.0607 12.4694C9.35576 11.7142 8.42357 11.2947 7.45541 11.2969H5.81479C5.86706 11.5198 5.89245 11.7496 5.89026 11.9803C5.89152 12.2174 5.86392 12.4537 5.80823 12.6822H7.44885C8.10675 12.6782 8.74095 12.9615 9.22072 13.4738L13.9391 18.5072C14.6448 19.2611 15.5765 19.6804 16.5444 19.6797H18.1851C18.1294 19.4511 18.1018 19.2149 18.103 18.9777C18.1058 18.7428 18.1356 18.5093 18.1916 18.2832Z" fill="#232533"/>
<path d="M22.5 5.00514C22.5 6.11254 21.6186 7.01027 20.5312 7.01027C19.4439 7.01027 18.5625 6.11254 18.5625 5.00514C18.5625 3.89773 19.4439 3 20.5312 3C21.6186 3 22.5 3.89773 22.5 5.00514Z" fill="#232533"/>
<path d="M5.4375 5.01024C5.4375 6.12046 4.55606 7.02047 3.46875 7.02047C2.38144 7.02047 1.5 6.12046 1.5 5.01024C1.5 3.90001 2.38144 3 3.46875 3C4.55606 3 5.4375 3.90001 5.4375 5.01024Z" fill="#232533"/>
<path d="M22.5 11.9489C22.5 13.0592 21.6186 13.9592 20.5312 13.9592C19.4439 13.9592 18.5625 13.0592 18.5625 11.9489C18.5625 10.8387 19.4439 9.93869 20.5312 9.93869C21.6186 9.93869 22.5 10.8387 22.5 11.9489Z" fill="#232533"/>
<path d="M5.4375 11.9489C5.4375 13.0592 4.55606 13.9592 3.46875 13.9592C2.38144 13.9592 1.5 13.0592 1.5 11.9489C1.5 10.8387 2.38144 9.93869 3.46875 9.93869C4.55606 9.93869 5.4375 10.8387 5.4375 11.9489Z" fill="#232533"/>
<path d="M22.5 18.9898C22.5 20.1 21.6186 21 20.5312 21C19.4439 21 18.5625 20.1 18.5625 18.9898C18.5625 17.8795 19.4439 16.9795 20.5312 16.9795C21.6186 16.9795 22.5 17.8795 22.5 18.9898Z" fill="#232533"/>
<path d="M5.4375 18.9898C5.4375 20.1 4.55606 21 3.46875 21C2.38144 21 1.5 20.1 1.5 18.9898C1.5 17.8795 2.38144 16.9795 3.46875 16.9795C4.55606 16.9795 5.4375 17.8795 5.4375 18.9898Z" fill="#232533"/>
</svg>
