<svg width="24" height="24" viewBox="0 0 24 24" fill="none" xmlns="http://www.w3.org/2000/svg">
<path d="M8.73096 3L19.2176 3.00003C20.2581 3.00003 21.1043 3.84622 21.1043 4.88674L21.1045 15.3665C21.1045 15.8216 20.8263 16.1906 20.3712 16.1906C19.9161 16.1906 19.6095 15.7988 19.6095 15.3438L19.612 4.47722L8.73096 4.50037C8.27586 4.50037 7.87743 4.24961 7.87743 3.79452C7.87743 3.33942 8.27586 3 8.73096 3Z" fill="#232533"/>
<path d="M10.25 10.1484C10.6513 10.1484 10.9766 10.4737 10.9766 10.875V12.9922H13C13.4013 12.9922 13.7266 13.3175 13.7266 13.7188C13.7266 14.12 13.4013 14.4453 13 14.4453H10.9766V16.6875C10.9766 17.0888 10.6513 17.4141 10.25 17.4141C9.84873 17.4141 9.52344 17.0888 9.52344 16.6875V14.4453L7.375 14.4453C6.97373 14.4453 6.64844 14.12 6.64844 13.7187C6.64844 13.3175 6.97373 12.9922 7.375 12.9922L9.52344 12.9922V10.875C9.52344 10.4737 9.84873 10.1484 10.25 10.1484Z" fill="#232533"/>
<path fill-rule="evenodd" clip-rule="evenodd" d="M4.67898 21H15.7015C16.6848 21 17.4845 20.2004 17.4845 19.2171L17.4844 8.53143C17.4844 7.54816 16.6847 6.74852 15.7015 6.74852H4.6789C3.69563 6.74852 2.896 7.54816 2.896 8.53143L2.89607 19.2171C2.89607 20.2004 3.69571 21 4.67898 21ZM4.39241 8.25H15.9883L15.9884 19.5H4.3907L4.39241 8.25Z" fill="#232533"/>
</svg>
