<svg width="24" height="24" viewBox="0 0 24 24" fill="none" xmlns="http://www.w3.org/2000/svg">
<path d="M6.75 14.25H13.5V15.75H6.75V14.25Z" fill="#232533"/>
<path fill-rule="evenodd" clip-rule="evenodd" d="M18 18H6C5.6023 17.9996 5.22101 17.8414 4.9398 17.5602C4.65859 17.279 4.50042 16.8977 4.5 16.5V13.5C4.50042 13.1023 4.65859 12.721 4.9398 12.4398C5.22101 12.1586 5.6023 12.0004 6 12H18C18.3977 12.0004 18.779 12.1586 19.0602 12.4398C19.3414 12.721 19.4996 13.1023 19.5 13.5V16.5C19.4996 16.8977 19.3414 17.279 19.0602 17.5602C18.779 17.8414 18.3977 17.9996 18 18ZM6 13.5V16.5H18V13.5H6Z" fill="#232533"/>
<path fill-rule="evenodd" clip-rule="evenodd" d="M21 21H3C2.6023 20.9996 2.22101 20.8414 1.9398 20.5602C1.65859 20.279 1.50042 19.8977 1.5 19.5V4.5C1.50042 4.1023 1.65859 3.72101 1.9398 3.4398C2.22101 3.15859 2.6023 3.00042 3 3H21C21.3977 3.00042 21.779 3.15859 22.0602 3.4398C22.3414 3.72101 22.4996 4.1023 22.5 4.5V19.5C22.4996 19.8977 22.3414 20.279 22.0602 20.5602C21.779 20.8414 21.3977 20.9996 21 21ZM3 4.5V19.5H21V4.5H3Z" fill="#232533"/>
</svg>
