<svg width="20" height="20" viewBox="0 0 20 20" fill="none" xmlns="http://www.w3.org/2000/svg">
<path fill-rule="evenodd" clip-rule="evenodd" d="M5.33301 3.33301C4.22844 3.33301 3.33301 4.22844 3.33301 5.33301V14.6663C3.33301 15.7709 4.22844 16.6663 5.33301 16.6663H14.6663C15.7709 16.6663 16.6663 15.7709 16.6663 14.6663V5.33301C16.6663 4.22844 15.7709 3.33301 14.6663 3.33301H5.33301ZM2.33301 5.33301C2.33301 3.67615 3.67616 2.33301 5.33301 2.33301H14.6663C16.3232 2.33301 17.6663 3.67616 17.6663 5.33301V14.6663C17.6663 16.3232 16.3232 17.6663 14.6663 17.6663H5.33301C3.67615 17.6663 2.33301 16.3232 2.33301 14.6663V5.33301Z" fill="#007EE5"/>
<path d="M5.32825 9.0553H14.6717V11.0553H5.32825V9.0553Z" fill="#007EE5"/>
</svg>
