<svg width="24" height="24" viewBox="0 0 24 24" fill="none" xmlns="http://www.w3.org/2000/svg">
<path d="M9.45083 15.4675L12.9496 11.9953L9.45083 8.52313C9.36734 8.44028 9.30112 8.34192 9.25594 8.23367C9.21076 8.12542 9.1875 8.0094 9.1875 7.89223C9.1875 7.77506 9.21076 7.65904 9.25594 7.55079C9.30112 7.44254 9.36734 7.34418 9.45083 7.26133C9.53431 7.17848 9.63342 7.11276 9.7425 7.06792C9.85158 7.02308 9.96849 7 10.0866 7C10.2046 7 10.3215 7.02308 10.4306 7.06792C10.5397 7.11276 10.6388 7.17848 10.7223 7.26133L14.8613 11.3689C14.9449 11.4517 15.0112 11.55 15.0565 11.6583C15.1017 11.7666 15.125 11.8826 15.125 11.9998C15.125 12.117 15.1017 12.2331 15.0565 12.3413C15.0112 12.4496 14.9449 12.5479 14.8613 12.6307L10.7223 16.7383C10.6389 16.8213 10.5398 16.8871 10.4307 16.932C10.3216 16.9769 10.2047 17 10.0866 17C9.96846 17 9.85152 16.9769 9.74243 16.932C9.63334 16.8871 9.53425 16.8213 9.45083 16.7383C9.10817 16.3893 9.09915 15.8165 9.45083 15.4675V15.4675Z" fill="#222532"/>
</svg>
