<svg width="24" height="24" viewBox="0 0 24 24" fill="none" xmlns="http://www.w3.org/2000/svg">
<path d="M15.357 6.01125L10.0852 3.15825C9.83289 3.03312 9.55051 2.9812 9.27015 3.00837C8.98978 3.03555 8.72263 3.14073 8.499 3.312L3 7.50075V1.5H1.5V21C1.5 21.3978 1.65804 21.7794 1.93934 22.0607C2.22064 22.342 2.60218 22.5 3 22.5H22.5V4.30125L15.357 6.01125ZM21 15.1575L15.285 16.509L10.0133 14.346C9.75916 14.2499 9.48364 14.2249 9.2164 14.2738C8.94916 14.3227 8.70033 14.4436 8.49675 14.6235L3 19.377V16.035L9.28125 8.985L14.5455 13.2C14.7636 13.3615 15.0211 13.4615 15.291 13.4894C15.5609 13.5174 15.8334 13.4724 16.08 13.359L21 10.9515V15.1575ZM9.393 4.48875L14.6655 7.34175C14.9765 7.49698 15.3317 7.53939 15.6705 7.46175L21 6.19875V9.2835L15.4642 12.015L10.2 7.8C9.90066 7.57339 9.52691 7.46792 9.15327 7.50461C8.77962 7.54131 8.43353 7.71748 8.184 7.998L3 13.788V9.3855L9.393 4.48875ZM3.4125 21L9.46425 15.7418L14.736 17.9047C15.0109 18.0078 15.31 18.0279 15.5963 17.9625L21 16.695V21H3.4125Z" fill="#232533"/>
</svg>
