<svg width="16" height="16" viewBox="0 0 16 16" fill="none" xmlns="http://www.w3.org/2000/svg">
<path d="M14 1H2C1.73486 1.00026 1.48066 1.10571 1.29319 1.29319C1.10571 1.48066 1.00026 1.73486 1 2V14C1.00026 14.2651 1.10571 14.5193 1.29319 14.7068C1.48066 14.8943 1.73486 14.9997 2 15H14C14.2651 14.9997 14.5193 14.8943 14.7068 14.7068C14.8943 14.5193 14.9997 14.2651 15 14V2C14.9997 1.73486 14.8943 1.48066 14.7068 1.29319C14.5193 1.10571 14.2651 1.00026 14 1ZM14 7H11.5V2H14V7ZM8 2H10.5V7H8V2ZM7 2V10H2V2H7ZM2 11H7V14H2V11ZM8 14V8H14V14H8Z" fill="#515364"/>
</svg>
