<svg width="24" height="24" viewBox="0 0 24 24" fill="none" xmlns="http://www.w3.org/2000/svg">
<path d="M21.932 3.02249L15.932 1.52249C15.779 1.48449 15.6179 1.49537 15.4713 1.55362L8.1963 4.46362L2.43203 3.02249C2.32145 2.99483 2.20603 2.99273 2.09453 3.01636C1.98302 3.03999 1.87837 3.08872 1.78852 3.15885C1.69867 3.22898 1.62599 3.31867 1.576 3.4211C1.526 3.52353 1.50001 3.63601 1.5 3.74999V20.25C1.50002 20.4172 1.55592 20.5796 1.65883 20.7115C1.76174 20.8433 1.90575 20.9369 2.06797 20.9775L8.06798 22.4775C8.12753 22.4922 8.18864 22.4998 8.25 22.5C8.34549 22.5 8.4401 22.4818 8.5287 22.4461L15.8037 19.5361L21.5682 20.9776C21.6788 21.0052 21.7942 21.0073 21.9056 20.9836C22.0171 20.96 22.1218 20.9112 22.2116 20.8411C22.3014 20.7709 22.3741 20.6813 22.424 20.5788C22.474 20.4764 22.5 20.364 22.5 20.25V3.74999C22.5 3.58277 22.4441 3.42034 22.3412 3.28853C22.2383 3.15672 22.0943 3.06308 21.932 3.02249ZM21 8.24999H16.5V3.21044L21 4.33544V8.24999ZM7.5 14.25H3V9.74999H7.5V14.25ZM9 8.24999V5.75782L15 3.35782V8.24999H9ZM15 9.74999V14.25H9V9.74999H15ZM9 15.75H15V18.242L9 20.642V15.75ZM16.5 9.74999H21V14.25H16.5V9.74999ZM7.5 5.83544V8.24999H3V4.71044L7.5 5.83544ZM3 15.75H7.5V20.7894L3 19.6644V15.75ZM16.5 18.164V15.75H21V19.2894L16.5 18.164Z" fill="#232533"/>
</svg>
