<svg width="8" height="8" viewBox="0 0 8 8" fill="none" xmlns="http://www.w3.org/2000/svg">
<path d="M6.77403 6.03934L3.99627 3.24032L1.21851 6.03934C1.15222 6.10613 1.07354 6.1591 0.986938 6.19525C0.900338 6.2314 0.807521 6.25 0.713785 6.25C0.620049 6.25 0.527231 6.2314 0.440631 6.19525C0.35403 6.1591 0.275343 6.10613 0.209062 6.03934C0.14278 5.97255 0.0902044 5.89326 0.0543334 5.806C0.0184623 5.71873 -5.93866e-08 5.62521 -5.04309e-08 5.53075C-4.14752e-08 5.4363 0.0184624 5.34277 0.0543334 5.25551C0.0902045 5.16825 0.142781 5.08896 0.209062 5.02217L3.49513 1.71097C3.56136 1.64409 3.64003 1.59103 3.72664 1.55483C3.81324 1.51863 3.90609 1.5 3.99985 1.5C4.09361 1.5 4.18645 1.51863 4.27306 1.55483C4.35967 1.59103 4.43834 1.64409 4.50457 1.71097L7.79063 5.02217C7.857 5.08891 7.90966 5.16818 7.94558 5.25545C7.98151 5.34272 8 5.43627 8 5.53075C8 5.62523 7.98151 5.71879 7.94558 5.80606C7.90966 5.89333 7.857 5.9726 7.79063 6.03934C7.51143 6.31347 7.05324 6.32068 6.77403 6.03934V6.03934Z" fill="#222532"/>
</svg>
