<svg width="16" height="16" viewBox="0 0 16 16" fill="none" xmlns="http://www.w3.org/2000/svg">
<path d="M8 1C6.61553 1 5.26216 1.41054 4.11101 2.17971C2.95987 2.94888 2.06266 4.04213 1.53285 5.32122C1.00303 6.6003 0.86441 8.00776 1.13451 9.36563C1.4046 10.7235 2.07129 11.9708 3.05026 12.9497C4.02922 13.9287 5.2765 14.5954 6.63437 14.8655C7.99224 15.1356 9.3997 14.997 10.6788 14.4672C11.9579 13.9373 13.0511 13.0401 13.8203 11.889C14.5895 10.7378 15 9.38447 15 8C14.9979 6.14413 14.2597 4.36489 12.9474 3.05259C11.6351 1.7403 9.85587 1.00212 8 1ZM13.975 7.5005H10.955C10.8716 6.99958 10.662 6.52815 10.346 6.13061C10.03 5.73307 9.61804 5.42251 9.14887 5.22819C8.6797 5.03387 8.16879 4.96218 7.66426 5.01988C7.15973 5.07758 6.67819 5.26277 6.265 5.558L4.13 3.423C4.96964 2.7102 5.98957 2.24274 7.07765 2.07202C8.16574 1.9013 9.27982 2.03393 10.2974 2.45533C11.315 2.87674 12.1967 3.57059 12.8455 4.46059C13.4943 5.35059 13.8851 6.40228 13.975 7.5V7.5005ZM8 10C7.60444 10 7.21776 9.8827 6.88886 9.66294C6.55996 9.44318 6.30362 9.13082 6.15224 8.76537C6.00087 8.39991 5.96126 7.99778 6.03843 7.60982C6.1156 7.22186 6.30608 6.86549 6.58579 6.58579C6.86549 6.30608 7.22186 6.1156 7.60982 6.03843C7.99778 5.96126 8.39992 6.00087 8.76537 6.15224C9.13082 6.30362 9.44318 6.55996 9.66294 6.88886C9.8827 7.21776 10 7.60444 10 8C9.99934 8.53023 9.78841 9.03855 9.41349 9.41348C9.03856 9.78841 8.53023 9.99934 8 10ZM2 8C1.99953 6.58191 2.50399 5.20999 3.423 4.13L5.558 6.265C5.26292 6.67819 5.07784 7.15967 5.02019 7.66413C4.96253 8.16858 5.0342 8.67941 5.22845 9.14852C5.4227 9.61764 5.73313 10.0296 6.13052 10.3456C6.52792 10.6617 6.9992 10.8714 7.5 10.955V13.975C6.00163 13.8485 4.60523 13.1645 3.58684 12.0582C2.56845 10.9519 2.00219 9.5037 2 8ZM8.5 13.975V10.955C9.11302 10.8503 9.67842 10.5579 10.1182 10.1182C10.5579 9.67842 10.8503 9.11302 10.955 8.5H13.975C13.8552 9.91193 13.2399 11.236 12.238 12.238C11.236 13.2399 9.91193 13.8552 8.5 13.975Z" fill="#515364"/>
</svg>
