<svg width="24" height="24" viewBox="0 0 24 24" fill="none" xmlns="http://www.w3.org/2000/svg">
<path d="M2 3.11429C2 2.49888 2.49888 2 3.11429 2H5.9C6.2077 2 6.45714 2.24944 6.45714 2.55714V5.9C6.45714 6.2077 6.2077 6.45714 5.9 6.45714H2.55714C2.24944 6.45714 2 6.2077 2 5.9V3.11429Z" fill="#232533"/>
<path d="M7.01429 2.55714C7.01429 2.24944 7.26373 2 7.57143 2H10.9143C11.222 2 11.4714 2.24944 11.4714 2.55714V5.9C11.4714 6.2077 11.222 6.45714 10.9143 6.45714H7.57143C7.26373 6.45714 7.01429 6.2077 7.01429 5.9V2.55714Z" fill="#232533"/>
<path d="M12.0286 2.55714C12.0286 2.24944 12.278 2 12.5857 2H15.9286C16.2363 2 16.4857 2.24944 16.4857 2.55714V5.9C16.4857 6.2077 16.2363 6.45714 15.9286 6.45714H12.5857C12.278 6.45714 12.0286 6.2077 12.0286 5.9V2.55714Z" fill="#232533"/>
<path d="M2 7.57143C2 7.26373 2.24944 7.01429 2.55714 7.01429H5.9C6.2077 7.01429 6.45714 7.26373 6.45714 7.57143V10.9143C6.45714 11.222 6.2077 11.4714 5.9 11.4714H2.55714C2.24944 11.4714 2 11.222 2 10.9143V7.57143Z" fill="#232533"/>
<path d="M7.01429 7.57143C7.01429 7.26373 7.26373 7.01429 7.57143 7.01429H10.9143C11.222 7.01429 11.4714 7.26373 11.4714 7.57143V10.9143C11.4714 11.222 11.222 11.4714 10.9143 11.4714H7.57143C7.26373 11.4714 7.01429 11.222 7.01429 10.9143V7.57143Z" fill="#232533"/>
<path d="M12.0286 7.57143C12.0286 7.26373 12.278 7.01429 12.5857 7.01429H15.9286C16.2363 7.01429 16.4857 7.26373 16.4857 7.57143V10.9143C16.4857 11.222 16.2363 11.4714 15.9286 11.4714H12.5857C12.278 11.4714 12.0286 11.222 12.0286 10.9143V7.57143Z" fill="#232533"/>
<path d="M17.0429 2.55714C17.0429 2.24944 17.2923 2 17.6 2H20.3857C21.0011 2 21.5 2.49888 21.5 3.11429V5.9C21.5 6.2077 21.2506 6.45714 20.9429 6.45714H17.6C17.2923 6.45714 17.0429 6.2077 17.0429 5.9V2.55714Z" fill="#232533"/>
<path d="M17.0429 7.57143C17.0429 7.26373 17.2923 7.01429 17.6 7.01429H20.9429C21.2506 7.01429 21.5 7.26373 21.5 7.57143V10.9143C21.5 11.222 21.2506 11.4714 20.9429 11.4714H17.6C17.2923 11.4714 17.0429 11.222 17.0429 10.9143V7.57143Z" fill="#232533"/>
<path d="M2 12.5857C2 12.278 2.24944 12.0286 2.55714 12.0286H5.9C6.2077 12.0286 6.45714 12.278 6.45714 12.5857V15.9286C6.45714 16.2363 6.2077 16.4857 5.9 16.4857H2.55714C2.24944 16.4857 2 16.2363 2 15.9286V12.5857Z" fill="#232533"/>
<path d="M7.01429 12.5857C7.01429 12.278 7.26373 12.0286 7.57143 12.0286H10.9143C11.222 12.0286 11.4714 12.278 11.4714 12.5857V15.9286C11.4714 16.2363 11.222 16.4857 10.9143 16.4857H7.57143C7.26373 16.4857 7.01429 16.2363 7.01429 15.9286V12.5857Z" fill="#232533"/>
<path d="M12.0286 12.5857C12.0286 12.278 12.278 12.0286 12.5857 12.0286H15.9286C16.2363 12.0286 16.4857 12.278 16.4857 12.5857V15.9286C16.4857 16.2363 16.2363 16.4857 15.9286 16.4857H12.5857C12.278 16.4857 12.0286 16.2363 12.0286 15.9286V12.5857Z" fill="#232533"/>
<path d="M17.0429 12.5857C17.0429 12.278 17.2923 12.0286 17.6 12.0286H20.9429C21.2506 12.0286 21.5 12.278 21.5 12.5857V15.9286C21.5 16.2363 21.2506 16.4857 20.9429 16.4857H17.6C17.2923 16.4857 17.0429 16.2363 17.0429 15.9286V12.5857Z" fill="#232533"/>
<path d="M2 17.6C2 17.2923 2.24944 17.0429 2.55714 17.0429H5.9C6.2077 17.0429 6.45714 17.2923 6.45714 17.6V20.9429C6.45714 21.2506 6.2077 21.5 5.9 21.5H3.11429C2.49888 21.5 2 21.0011 2 20.3857V17.6Z" fill="#232533"/>
<path d="M7.01429 17.6C7.01429 17.2923 7.26373 17.0429 7.57143 17.0429H10.9143C11.222 17.0429 11.4714 17.2923 11.4714 17.6V20.9429C11.4714 21.2506 11.222 21.5 10.9143 21.5H7.57143C7.26373 21.5 7.01429 21.2506 7.01429 20.9429V17.6Z" fill="#232533"/>
<path d="M12.0286 17.6C12.0286 17.2923 12.278 17.0429 12.5857 17.0429H15.9286C16.2363 17.0429 16.4857 17.2923 16.4857 17.6V20.9429C16.4857 21.2506 16.2363 21.5 15.9286 21.5H12.5857C12.278 21.5 12.0286 21.2506 12.0286 20.9429V17.6Z" fill="#232533"/>
<path d="M17.0429 17.6C17.0429 17.2923 17.2923 17.0429 17.6 17.0429H20.9429C21.2506 17.0429 21.5 17.2923 21.5 17.6V20.3857C21.5 21.0011 21.0011 21.5 20.3857 21.5H17.6C17.2923 21.5 17.0429 21.2506 17.0429 20.9429V17.6Z" fill="#232533"/>
</svg>
