<svg width="32" height="33" viewBox="0 0 32 33" fill="none" xmlns="http://www.w3.org/2000/svg">
<path d="M25.5294 15.0938C25.5294 14.5781 25.7059 14.0625 25.7059 13.375C25.7059 9.59375 22.5294 6.5 18.6471 6.5C15.8235 6.5 13.5294 8.04687 12.2941 10.2812C11.9412 10.1094 11.2353 9.9375 10.7059 9.9375C8.23529 9.9375 6.29412 11.8281 6.29412 14.2344C6.29412 14.5781 6.29412 14.9219 6.47059 15.0938C3.29412 15.6094 1 18.0156 1 21.1094C1 24.375 3.82353 27.125 7.17647 27.125H24.8235C28.1765 27.125 31 24.375 31 21.1094C31 18.0156 28.7059 15.4375 25.5294 15.0938Z" fill="#B4DFFF"/>
</svg>
