<svg width="24" height="24" viewBox="0 0 24 24" fill="none" xmlns="http://www.w3.org/2000/svg">
<path d="M21 1.5H3C2.6023 1.5004 2.221 1.65856 1.93978 1.93978C1.65856 2.221 1.5004 2.6023 1.5 3V21C1.5004 21.3977 1.65856 21.779 1.93978 22.0602C2.221 22.3414 2.6023 22.4996 3 22.5H21C21.3977 22.4996 21.779 22.3414 22.0602 22.0602C22.3414 21.779 22.4996 21.3977 22.5 21V3C22.4996 2.6023 22.3414 2.221 22.0602 1.93978C21.779 1.65856 21.3977 1.5004 21 1.5ZM21 10.5H17.25V3H21V10.5ZM12 3H15.75V10.5H12V3ZM10.5 3V15H3V3H10.5ZM3 16.5H10.5V21H3V16.5ZM12 21V12H21V21H12Z" fill="#232533"/>
</svg>
