<svg width="24" height="24" viewBox="0 0 24 24" fill="none" xmlns="http://www.w3.org/2000/svg">
<path d="M14.3296 3.30682C12.6102 2.84611 10.7928 2.90561 9.10724 3.47778C7.42167 4.04995 5.94363 5.10911 4.86002 6.5213C3.7764 7.93349 3.13588 9.6353 3.01946 11.4115C2.90305 13.1877 3.31595 14.9586 4.20597 16.5002C5.09598 18.0417 6.42314 19.2847 8.0196 20.072C9.61606 20.8593 11.4101 21.1555 13.1749 20.9232C14.9397 20.6908 16.596 19.9404 17.9343 18.7667C19.2726 17.5931 20.2328 16.0489 20.6935 14.3295C21.3113 12.0239 20.9879 9.56731 19.7944 7.50015C18.6009 5.43299 16.6352 3.92461 14.3296 3.30682ZM19.4388 13.2169L12.9188 11.4698L14.6561 4.98605C16.2827 5.59251 17.6485 6.74444 18.5206 8.2454C19.3928 9.74636 19.7173 11.5034 19.4388 13.2169ZM9.63887 19.132C7.82699 18.5551 6.3019 17.3114 5.37215 15.6527C4.4424 13.994 4.17741 12.044 4.6308 10.1973C5.08418 8.35066 6.22208 6.74513 7.81429 5.70558C9.40649 4.66603 11.3341 4.27007 13.2072 4.59782L11.4602 11.1178C11.3572 11.5021 11.4111 11.9115 11.61 12.256C11.8089 12.6006 12.1366 12.852 12.5208 12.9549L19.0408 14.702C18.3493 16.5118 16.9842 17.9838 15.2316 18.8096C13.479 19.6354 11.4748 19.7509 9.63887 19.132Z" fill="#232533"/>
</svg>
