<svg width="24" height="24" viewBox="0 0 24 24" fill="none" xmlns="http://www.w3.org/2000/svg">
<path d="M12 1.5C9.9233 1.5 7.89323 2.11581 6.16652 3.26957C4.4398 4.42332 3.09399 6.0632 2.29927 7.98182C1.50455 9.90045 1.29661 12.0116 1.70176 14.0484C2.1069 16.0852 3.10693 17.9562 4.57538 19.4246C6.04383 20.8931 7.91476 21.8931 9.95156 22.2982C11.9884 22.7034 14.0996 22.4955 16.0182 21.7007C17.9368 20.906 19.5767 19.5602 20.7304 17.8335C21.8842 16.1068 22.5 14.0767 22.5 12C22.4968 9.2162 21.3896 6.54733 19.4211 4.57889C17.4527 2.61044 14.7838 1.50318 12 1.5ZM20.9625 11.2508H16.4325C16.3074 10.4994 15.993 9.79222 15.519 9.19591C15.045 8.59961 14.4271 8.13377 13.7233 7.84229C13.0196 7.55081 12.2532 7.44328 11.4964 7.52983C10.7396 7.61638 10.0173 7.89416 9.3975 8.337L6.195 5.1345C7.45445 4.0653 8.98435 3.36411 10.6165 3.10803C12.2486 2.85194 13.9197 3.05089 15.4461 3.683C16.9725 4.3151 18.295 5.35588 19.2682 6.69089C20.2415 8.02589 20.8277 9.60342 20.9625 11.25V11.2508ZM12 15C11.4067 15 10.8266 14.8241 10.3333 14.4944C9.83995 14.1648 9.45543 13.6962 9.22837 13.1481C9.0013 12.5999 8.94189 11.9967 9.05765 11.4147C9.1734 10.8328 9.45913 10.2982 9.87868 9.87868C10.2982 9.45912 10.8328 9.1734 11.4147 9.05764C11.9967 8.94189 12.5999 9.0013 13.1481 9.22836C13.6962 9.45542 14.1648 9.83994 14.4944 10.3333C14.8241 10.8266 15 11.4067 15 12C14.999 12.7953 14.6826 13.5578 14.1202 14.1202C13.5578 14.6826 12.7954 14.999 12 15ZM3 12C2.99929 9.87287 3.75598 7.81498 5.1345 6.195L8.33701 9.3975C7.89438 10.0173 7.61676 10.7395 7.53028 11.4962C7.4438 12.2529 7.5513 13.0191 7.84267 13.7228C8.13404 14.4265 8.59969 15.0444 9.19578 15.5184C9.79188 15.9925 10.4988 16.3071 11.25 16.4325V20.9625C9.00245 20.7728 6.90784 19.7468 5.38025 18.0873C3.85267 16.4278 3.00328 14.2555 3 12ZM12.75 20.9625V16.4325C13.6695 16.2755 14.5176 15.8369 15.1772 15.1772C15.8369 14.5176 16.2755 13.6695 16.4325 12.75H20.9625C20.7828 14.8679 19.8599 16.854 18.3569 18.3569C16.854 19.8599 14.8679 20.7828 12.75 20.9625Z" fill="#232533"/>
</svg>
