<svg width="13" height="13" viewBox="0 0 13 13" fill="none" xmlns="http://www.w3.org/2000/svg">
<g clip-path="url(#clip0-613700)">
<path d="M10.5195 0.371015L12.4506 2.39304C12.6345 2.5971 12.8 3.02377 12.8 3.30203V9.29391C12.8 9.57217 12.5793 9.83188 12.2851 9.83188H8.84598V8.9229H11.7333C11.8253 8.9229 11.8989 8.8487 11.8989 8.75594V3.71015C11.8989 3.61739 11.8253 3.54319 11.7333 3.54319H9.6C9.50805 3.54319 9.41609 3.46899 9.41609 3.37623V1.07594C9.41609 0.983188 9.34253 0.908986 9.25058 0.908986H5.75632C5.66437 0.908986 5.57241 0.983188 5.57241 1.07594V2.35594C5.38851 2.28174 5.14943 2.24464 4.96552 2.24464H4.68966V0.51942C4.68966 0.222609 4.92874 0 5.2046 0H9.65517C9.93103 0 10.3356 0.166957 10.5195 0.371015ZM10.4828 2.6342H11.2552C11.3471 2.6342 11.3655 2.57855 11.3103 2.50435L10.4276 1.59536C10.3724 1.52116 10.3172 1.53971 10.3172 1.63246V2.46725C10.3172 2.56 10.3908 2.6342 10.4828 2.6342ZM5.84828 3.33913L7.76092 5.37971C7.96322 5.58377 8.11034 5.99188 8.11034 6.27015V12.262C8.11034 12.5588 7.88966 12.8 7.61379 12.8H0.533333C0.23908 12.8 0 12.5588 0 12.262V3.48754C0 3.20928 0.23908 2.94957 0.533333 2.94957H4.96552C5.24138 2.94957 5.64598 3.13507 5.84828 3.33913ZM1.06667 11.891H7.04368C7.13563 11.891 7.22759 11.8168 7.22759 11.7241V6.67826C7.22759 6.58551 7.13563 6.5113 7.04368 6.5113H4.91034C4.81839 6.5113 4.74483 6.4371 4.74483 6.34435V4.04406C4.74483 3.9513 4.67126 3.8771 4.57931 3.8771H1.06667C0.974713 3.8771 0.901149 3.9513 0.901149 4.04406V11.7241C0.901149 11.8168 0.974713 11.891 1.06667 11.891ZM6.62069 5.49101L5.75632 4.54493C5.68276 4.47073 5.62759 4.52638 5.62759 4.61913V5.43536C5.62759 5.52812 5.71954 5.60232 5.81149 5.60232H6.56552C6.65747 5.60232 6.69425 5.54667 6.62069 5.49101Z" fill="#858895"/>
</g>
<defs>
<clipPath id="clip0-613700">
<rect width="12.8" height="12.8" fill="white"/>
</clipPath>
</defs>
</svg>
