<svg width="8" height="8" viewBox="0 0 8 8" fill="none" xmlns="http://www.w3.org/2000/svg">
<path d="M1.22597 1.96066L4.00373 4.75967L6.78149 1.96066C6.84778 1.89387 6.92646 1.8409 7.01306 1.80475C7.09966 1.7686 7.19248 1.75 7.28621 1.75C7.37995 1.75 7.47277 1.7686 7.55937 1.80475C7.64597 1.8409 7.72466 1.89387 7.79094 1.96066C7.85722 2.02745 7.9098 2.10674 7.94567 2.194C7.98154 2.28127 8 2.37479 8 2.46925C8 2.5637 7.98154 2.65723 7.94567 2.74449C7.9098 2.83175 7.85722 2.91104 7.79094 2.97783L4.50487 6.28903C4.43864 6.35591 4.35997 6.40896 4.27336 6.44517C4.18676 6.48137 4.09391 6.5 4.00015 6.5C3.90639 6.5 3.81355 6.48137 3.72694 6.44517C3.64033 6.40896 3.56166 6.35591 3.49543 6.28903L0.209366 2.97783C0.142998 2.91109 0.0903436 2.83182 0.0544178 2.74455C0.018492 2.65728 0 2.56373 0 2.46925C0 2.37477 0.018492 2.28121 0.0544178 2.19394C0.0903436 2.10667 0.142998 2.0274 0.209366 1.96066C0.488574 1.68653 0.946761 1.67932 1.22597 1.96066V1.96066Z" fill="#222532"/>
</svg>
