<svg width="24" height="24" viewBox="0 0 24 24" fill="none" xmlns="http://www.w3.org/2000/svg">
<path fill-rule="evenodd" clip-rule="evenodd" d="M3.75 3.75V6.75H20.25V3.75H3.75ZM20.25 8.25H15.75V11.25H20.25V8.25ZM20.25 12.75H15.75V15.75H20.25V12.75ZM20.25 17.25H15.75V20.25H20.25V17.25ZM14.25 20.25V17.25H9.75V20.25H14.25ZM8.25 20.25L8.25 17.25H3.75V20.25H8.25ZM3.75 15.75H8.25V12.75H3.75V15.75ZM3.75 11.25H8.25V8.25H3.75V11.25ZM9.75 8.25V11.25H14.25V8.25H9.75ZM14.25 12.75H9.75L9.75 15.75H14.25V12.75ZM2.25 3.6C2.25 2.85442 2.85442 2.25 3.6 2.25H20.4C21.1456 2.25 21.75 2.85444 21.75 3.6V20.4C21.75 21.1456 21.1456 21.75 20.4 21.75H3.6C2.85444 21.75 2.25 21.1456 2.25 20.4V3.6Z" fill="#232533"/>
</svg>
