<svg width="16" height="16" viewBox="0 0 16 16" fill="none" xmlns="http://www.w3.org/2000/svg">
<path d="M5.9834 2.22943H4.01611C2.91154 2.22943 2.01611 3.12486 2.01611 4.22943V12.2134C2.01611 13.318 2.91154 14.2134 4.01611 14.2134H12.0001C13.1047 14.2134 14.0001 13.318 14.0001 12.2134V10.0259H12.6001V12.2134C12.6001 12.5448 12.3315 12.8134 12.0001 12.8134H4.01611C3.68474 12.8134 3.41611 12.5448 3.41611 12.2134V4.22943C3.41611 3.89806 3.68474 3.62943 4.01611 3.62943H5.9834V2.22943Z" fill="#232533"/>
<path d="M13.6631 3.22058L14.3182 3.09665L14.0703 1.78656L13.4153 1.91049C11.8991 2.19734 10.949 3.24614 10.2274 4.40606C9.86618 4.98655 9.54402 5.62474 9.23312 6.24643L9.18165 6.34939C9.05732 6.59814 8.93423 6.8444 8.80947 7.08692L7.93068 4.45056L6.66577 4.8722L8.04402 9.00694C8.16045 9.35624 8.538 9.54501 8.88729 9.42858L13.022 8.05033L12.6004 6.78542L10.0218 7.64496C10.1408 7.41271 10.2562 7.18187 10.3691 6.95597L10.4256 6.84281C10.7397 6.21474 11.0359 5.63052 11.3595 5.11043C12.0073 4.06919 12.6926 3.40419 13.6631 3.22058Z" fill="#232533"/>
</svg>
