<svg width="16" height="16" viewBox="0 0 16 16" fill="none" xmlns="http://www.w3.org/2000/svg">
<path fill-rule="evenodd" clip-rule="evenodd" d="M9.79227 4.16246C8.92491 3.77599 7.95587 3.68025 7.02966 3.88952C6.10344 4.09878 5.26969 4.60184 4.65274 5.32367C4.03579 6.0455 3.6687 6.94742 3.60623 7.89493C3.54375 8.84243 3.78923 9.78474 4.30605 10.5813C4.82288 11.3779 5.58335 11.9861 6.47407 12.3152C7.36479 12.6443 8.33801 12.6766 9.2486 12.4073C10.1592 12.1381 10.9584 11.5817 11.5269 10.8212C12.0955 10.0607 12.4029 9.13673 12.4035 8.18717V7.73635C12.4035 7.4602 12.6273 7.23635 12.9035 7.23635C13.1796 7.23635 13.4035 7.4602 13.4035 7.73635V8.18746C13.4028 9.35266 13.0255 10.4867 12.3278 11.42C11.6302 12.3532 10.6495 13.0359 9.53214 13.3663C8.41476 13.6967 7.22051 13.657 6.12752 13.2532C5.03452 12.8494 4.10134 12.1031 3.46715 11.1256C2.83295 10.1481 2.53173 8.99181 2.60839 7.82913C2.68506 6.66645 3.13551 5.55971 3.89257 4.67395C4.64962 3.7882 5.67272 3.17089 6.80927 2.9141C7.94583 2.65731 9.13494 2.7748 10.1993 3.24904C10.4515 3.36143 10.5649 3.65701 10.4525 3.90925C10.3401 4.16149 10.0445 4.27485 9.79227 4.16246Z" fill="#232533"/>
<path fill-rule="evenodd" clip-rule="evenodd" d="M12.6443 4.90578C12.8344 5.10609 12.8261 5.42256 12.6257 5.61264L8.3445 9.67514C8.1595 9.85068 7.87204 9.85887 7.67736 9.69414L5.64611 7.97539C5.43531 7.79701 5.40902 7.48153 5.58739 7.27072C5.76576 7.05992 6.08125 7.03363 6.29205 7.212L7.98122 8.6413L11.9374 4.88725C12.1377 4.69717 12.4542 4.70546 12.6443 4.90578Z" fill="#232533"/>
</svg>
