<svg width="16" height="17" viewBox="0 0 16 17" fill="none" xmlns="http://www.w3.org/2000/svg">
<g clip-path="url(#clip0)">
<g opacity="0.75">
<path fill-rule="evenodd" clip-rule="evenodd" d="M9.79203 4.66246C8.92467 4.27599 7.95563 4.18025 7.02941 4.38952C6.1032 4.59878 5.26944 5.10184 4.6525 5.82367C4.03555 6.5455 3.66846 7.44742 3.60598 8.39493C3.5435 9.34243 3.78898 10.2847 4.30581 11.0813C4.82263 11.8779 5.58311 12.4861 6.47383 12.8152C7.36454 13.1443 8.33777 13.1766 9.24836 12.9073C10.159 12.6381 10.9581 12.0817 11.5267 11.3212C12.0952 10.5607 12.4027 9.63673 12.4032 8.68717V8.23635C12.4032 7.9602 12.6271 7.73635 12.9032 7.73635C13.1794 7.73635 13.4032 7.9602 13.4032 8.23635V8.68746C13.4026 9.85266 13.0253 10.9867 12.3276 11.92C11.6299 12.8532 10.6493 13.5359 9.5319 13.8663C8.41451 14.1967 7.22027 14.157 6.12727 13.7532C5.03428 13.3494 4.1011 12.6031 3.4669 11.6256C2.83271 10.6481 2.53148 9.49181 2.60815 8.32913C2.68481 7.16645 3.13527 6.05971 3.89232 5.17395C4.64938 4.2882 5.67248 3.67089 6.80903 3.4141C7.94558 3.15731 9.1347 3.2748 10.199 3.74904C10.4513 3.86143 10.5646 4.15701 10.4522 4.40925C10.3398 4.66149 10.0443 4.77485 9.79203 4.66246Z" fill="#A8A5CE"/>
<path fill-rule="evenodd" clip-rule="evenodd" d="M12.644 5.40584C12.834 5.60615 12.8257 5.92262 12.6254 6.1127L8.34418 10.1752C8.15918 10.3507 7.87172 10.3589 7.67704 10.1942L5.64579 8.47544C5.43499 8.29707 5.4087 7.98158 5.58707 7.77078C5.76544 7.55998 6.08093 7.53369 6.29173 7.71206L7.9809 9.14136L11.9371 5.3873C12.1374 5.19723 12.4539 5.20552 12.644 5.40584Z" fill="#A8A5CE"/>
</g>
</g>
<defs>
<clipPath id="clip0">
<rect width="12.2" height="12.2" fill="white" transform="translate(1.8999 2.40002)"/>
</clipPath>
</defs>
</svg>
