<svg width="16" height="16" viewBox="0 0 16 16" fill="none" xmlns="http://www.w3.org/2000/svg">
<path d="M12.1205 3.29327H10.4723V2.4375H9.64826V3.29327H6.35196V2.4375H5.52789V3.29327H3.87974C3.66125 3.2935 3.45177 3.38373 3.29727 3.54417C3.14277 3.70461 3.05588 3.92214 3.05566 4.14904V12.7067C3.05588 12.9336 3.14277 13.1512 3.29727 13.3116C3.45177 13.472 3.66125 13.5623 3.87974 13.5625H12.1205C12.339 13.5623 12.5485 13.472 12.7029 13.3116C12.8574 13.1512 12.9443 12.9336 12.9446 12.7067V4.14904C12.9443 3.92214 12.8574 3.70461 12.7029 3.54417C12.5485 3.38373 12.339 3.2935 12.1205 3.29327V3.29327ZM3.87974 4.14904H5.52789V5.00481H6.35196V4.14904H9.64826V5.00481H10.4723V4.14904H12.1205V5.86058H3.87974V4.14904ZM3.87974 6.71635H5.93992V9.28365H3.87974V6.71635ZM9.23622 12.7067H6.764V10.1394H9.23622V12.7067ZM9.23622 9.28365H6.764V6.71635H9.23622V9.28365ZM10.0603 12.7067V10.1394H12.1205L12.1209 12.7067H10.0603Z" fill="#222532"/>
</svg>
