<svg width="24" height="24" viewBox="0 0 24 24" fill="none" xmlns="http://www.w3.org/2000/svg">
<path d="M9.75 15.75H14.25V14.25H11.25V12.75H12.75C13.1478 12.75 13.5294 12.592 13.8107 12.3107C14.092 12.0294 14.25 11.6478 14.25 11.25V9.75C14.25 9.35218 14.092 8.97064 13.8107 8.68934C13.5294 8.40804 13.1478 8.25 12.75 8.25H9.75V9.75H12.75V11.25H11.25C10.8522 11.25 10.4706 11.408 10.1893 11.6893C9.90804 11.9706 9.75 12.3522 9.75 12.75V15.75Z" fill="#232533"/>
<path d="M18 8.25H15V9.75H18V11.25H15.75V12.75H18V14.25H15V15.75H18C18.3978 15.75 18.7794 15.592 19.0607 15.3107C19.342 15.0294 19.5 14.6478 19.5 14.25V9.75C19.5 9.35218 19.342 8.97064 19.0607 8.68934C18.7794 8.40804 18.3978 8.25 18 8.25Z" fill="#232533"/>
<path d="M7.5 8.25V14.25H9V15.75H4.5V14.25H6V10.5H4.5V9H6V8.25H7.5Z" fill="#232533"/>
<path fill-rule="evenodd" clip-rule="evenodd" d="M3 21H21C21.3977 20.9996 21.779 20.8414 22.0602 20.5602C22.3414 20.279 22.4996 19.8977 22.5 19.5V4.5C22.4996 4.1023 22.3414 3.72101 22.0602 3.4398C21.779 3.15859 21.3977 3.00042 21 3H3C2.6023 3.00042 2.22101 3.15859 1.9398 3.4398C1.65859 3.72101 1.50042 4.1023 1.5 4.5V19.5C1.50042 19.8977 1.65859 20.279 1.9398 20.5602C2.22101 20.8414 2.6023 20.9996 3 21ZM3 19.5V4.5H21V19.5H3Z" fill="#232533"/>
</svg>
