<svg width="32" height="32" viewBox="0 0 32 32" fill="none" xmlns="http://www.w3.org/2000/svg">
<path fill-rule="evenodd" clip-rule="evenodd" d="M15.2929 4.29289C15.6834 3.90237 16.3166 3.90237 16.7071 4.29289L22.7071 10.2929C23.0976 10.6834 23.0976 11.3166 22.7071 11.7071C22.3166 12.0976 21.6834 12.0976 21.2929 11.7071L16 6.41421L10.7071 11.7071C10.3166 12.0976 9.68342 12.0976 9.29289 11.7071C8.90237 11.3166 8.90237 10.6834 9.29289 10.2929L15.2929 4.29289Z" fill="#232533"/>
<path fill-rule="evenodd" clip-rule="evenodd" d="M16.7071 27.7071C16.3166 28.0976 15.6834 28.0976 15.2929 27.7071L9.29289 21.7071C8.90237 21.3166 8.90237 20.6834 9.29289 20.2929C9.68342 19.9024 10.3166 19.9024 10.7071 20.2929L16 25.5858L21.2929 20.2929C21.6834 19.9024 22.3166 19.9024 22.7071 20.2929C23.0976 20.6834 23.0976 21.3166 22.7071 21.7071L16.7071 27.7071Z" fill="#232533"/>
</svg>
