<svg width="24" height="24" viewBox="0 0 24 24" fill="none" xmlns="http://www.w3.org/2000/svg">
<path d="M15.4675 14.5492L11.9953 11.0504L8.52313 14.5492C8.44028 14.6327 8.34192 14.6989 8.23367 14.7441C8.12542 14.7892 8.0094 14.8125 7.89223 14.8125C7.77506 14.8125 7.65904 14.7892 7.55079 14.7441C7.44254 14.6989 7.34418 14.6327 7.26133 14.5492C7.17848 14.4657 7.11276 14.3666 7.06792 14.2575C7.02308 14.1484 7 14.0315 7 13.9134C7 13.7954 7.02308 13.6785 7.06792 13.5694C7.11276 13.4603 7.17848 13.3612 7.26133 13.2777L11.3689 9.13871C11.4517 9.05511 11.55 8.98879 11.6583 8.94354C11.7666 8.89829 11.8826 8.875 11.9998 8.875C12.117 8.875 12.2331 8.89829 12.3413 8.94354C12.4496 8.98879 12.5479 9.05511 12.6307 9.13871L16.7383 13.2777C16.8213 13.3611 16.8871 13.4602 16.932 13.5693C16.9769 13.6784 17 13.7953 17 13.9134C17 14.0315 16.9769 14.1485 16.932 14.2576C16.8871 14.3667 16.8213 14.4657 16.7383 14.5492C16.3893 14.8918 15.8165 14.9009 15.4675 14.5492V14.5492Z" fill="#222532"/>
</svg>
