<svg width="24" height="24" viewBox="0 0 24 24" fill="none" xmlns="http://www.w3.org/2000/svg">
<path d="M3.5025 21L8.295 12L13.77 16.8675C13.9414 17.0198 14.1455 17.1308 14.3665 17.1919C14.5876 17.253 14.8197 17.2626 15.045 17.22C15.2724 17.1774 15.4868 17.0828 15.6716 16.9436C15.8563 16.8044 16.0064 16.6243 16.11 16.4175L20.25 8.175L18.885 7.5L14.7675 15.75L9.2925 10.8825C9.12541 10.7271 8.92506 10.6119 8.70672 10.5456C8.48837 10.4793 8.25778 10.4637 8.0325 10.5C7.81002 10.5369 7.59873 10.6235 7.41434 10.7534C7.22995 10.8832 7.07722 11.053 6.9675 11.25L3 18.75V1.5H1.5V21C1.5 21.3978 1.65804 21.7794 1.93934 22.0607C2.22064 22.342 2.60218 22.5 3 22.5H22.5V21H3.5025Z" fill="#232533"/>
</svg>
