<svg width="16" height="16" viewBox="0 0 16 16" fill="none" xmlns="http://www.w3.org/2000/svg">
<g clip-path="url(#clip0-502783)">
<path fill-rule="evenodd" clip-rule="evenodd" d="M13.1494 0.508815L15.5632 3.02905C15.7931 3.28338 16 3.81517 16 4.16199V11.6302C16 11.977 15.7241 12.3007 15.3563 12.3007H11.0575V11.7877L11.0485 11.7881V8.05134C11.0704 7.82089 11.0451 6.98136 10.571 6.4546C10.4982 6.37371 10.4025 6.26589 10.2894 6.13849L10.2893 6.13839L10.2893 6.13839C9.66606 5.43607 8.51464 4.13866 7.7561 3.4751C7.59282 3.33227 7.34107 3.11355 6.96552 2.96788V2.9828C6.73563 2.89032 6.43678 2.84407 6.2069 2.84407H5.86207V0.693786C5.86207 0.323843 6.16092 0.0463867 6.50575 0.0463867H12.069C12.4138 0.0463867 12.9195 0.254479 13.1494 0.508815ZM7.31034 4.20824L9.70115 6.75159C9.95402 7.00592 10.1379 7.5146 10.1379 7.86142V15.3296C10.1379 15.6996 9.86207 16.0001 9.51724 16.0001H0.666667C0.298851 16.0001 0 15.6996 0 15.3296V4.39321C0 4.04639 0.298851 3.72269 0.666667 3.72269H6.2069C6.55172 3.72269 7.05747 3.9539 7.31034 4.20824ZM6.33483 8.03626H9.10727C9.1959 8.03626 9.24072 7.92951 9.17866 7.86624L6.25622 4.8866C6.19351 4.82266 6.08483 4.86706 6.08483 4.95662V7.78626C6.08483 7.92433 6.19676 8.03626 6.33483 8.03626ZM14.9345 4.38259H12.0456C11.9075 4.38259 11.7956 4.27066 11.7956 4.13259V1.18422C11.7956 1.09466 11.9042 1.05026 11.967 1.1142L15.0058 4.21257C15.0679 4.27584 15.0231 4.38259 14.9345 4.38259Z" fill="#007EE5"/>
</g>
<defs>
<clipPath id="clip0-502783">
<rect width="16" height="16" fill="white"/>
</clipPath>
</defs>
</svg>
