<svg width="24" height="24" viewBox="0 0 24 24" fill="none" xmlns="http://www.w3.org/2000/svg">
<path d="M8.53246 9.45083L12.0047 12.9496L15.4769 9.45083C15.5597 9.36734 15.6581 9.30112 15.7663 9.25594C15.8746 9.21076 15.9906 9.1875 16.1078 9.1875C16.2249 9.1875 16.341 9.21076 16.4492 9.25594C16.5575 9.30112 16.6558 9.36734 16.7387 9.45083C16.8215 9.53431 16.8872 9.63342 16.9321 9.7425C16.9769 9.85158 17 9.96849 17 10.0866C17 10.2046 16.9769 10.3215 16.9321 10.4306C16.8872 10.5397 16.8215 10.6388 16.7387 10.7223L12.6311 14.8613C12.5483 14.9449 12.45 15.0112 12.3417 15.0565C12.2334 15.1017 12.1174 15.125 12.0002 15.125C11.883 15.125 11.7669 15.1017 11.6587 15.0565C11.5504 15.0112 11.4521 14.9449 11.3693 14.8613L7.26171 10.7223C7.17875 10.6389 7.11293 10.5398 7.06802 10.4307C7.02311 10.3216 7 10.2047 7 10.0866C7 9.96846 7.02311 9.85152 7.06802 9.74243C7.11293 9.63334 7.17875 9.53425 7.26171 9.45083C7.61072 9.10817 8.18345 9.09915 8.53246 9.45083V9.45083Z" fill="#222532"/>
</svg>
