<svg width="24" height="24" viewBox="0 0 24 24" fill="none" xmlns="http://www.w3.org/2000/svg">
<path d="M16.5625 7.25574C15.1822 6.43457 13.6061 6.00077 12 6.00002C9.6139 6.00274 7.32629 6.95182 5.63906 8.63906C3.95182 10.3263 3.00273 12.6139 3.00001 15H1.50001C1.49695 13.1159 2.00174 11.2658 2.96128 9.64426C3.92082 8.02277 5.29964 6.68986 6.95268 5.78575C8.60573 4.88164 10.4719 4.43976 12.3548 4.5066C14.2378 4.57343 16.0679 5.14651 17.6527 6.16554L16.5625 7.25574Z" fill="#232533"/>
<path fill-rule="evenodd" clip-rule="evenodd" d="M21 7.0605L19.9394 6L13.5143 12.4252C13.057 12.1497 12.5338 12.0028 12 12C11.4067 12 10.8266 12.1759 10.3333 12.5056C9.83994 12.8352 9.45543 13.3038 9.22836 13.8519C9.0013 14.4001 8.94189 15.0033 9.05765 15.5853C9.1734 16.1672 9.45912 16.7018 9.87868 17.1213C10.2982 17.5409 10.8328 17.8266 11.4147 17.9424C11.9967 18.0581 12.5999 17.9987 13.1481 17.7716C13.6962 17.5446 14.1648 17.1601 14.4944 16.6667C14.8241 16.1734 15 15.5933 15 15C14.9972 14.4662 14.8503 13.943 14.5748 13.4857L21 7.0605ZM12 16.5C11.7033 16.5 11.4133 16.412 11.1666 16.2472C10.92 16.0824 10.7277 15.8481 10.6142 15.574C10.5007 15.2999 10.4709 14.9983 10.5288 14.7074C10.5867 14.4164 10.7296 14.1491 10.9393 13.9393C11.1491 13.7296 11.4164 13.5867 11.7074 13.5288C11.9983 13.4709 12.2999 13.5006 12.574 13.6142C12.8481 13.7277 13.0824 13.92 13.2472 14.1666C13.412 14.4133 13.5 14.7033 13.5 15C13.4995 15.3977 13.3414 15.779 13.0602 16.0602C12.779 16.3414 12.3977 16.4995 12 16.5Z" fill="#232533"/>
<path d="M22.5 15C22.4989 12.996 21.9183 11.035 20.8282 9.35339L19.7443 10.4374C20.566 11.8174 20.9999 13.3938 21 15H22.5Z" fill="#232533"/>
</svg>
