<svg width="24" height="24" viewBox="0 0 24 24" fill="none" xmlns="http://www.w3.org/2000/svg">
<path d="M12 0C9.62663 0 7.30655 0.703788 5.33316 2.02236C3.35977 3.34094 1.8217 5.21508 0.913451 7.4078C0.0051994 9.60051 -0.232441 12.0133 0.230582 14.3411C0.693605 16.6689 1.83649 18.807 3.51472 20.4853C5.19295 22.1635 7.33115 23.3064 9.65892 23.7694C11.9867 24.2324 14.3995 23.9948 16.5922 23.0865C18.7849 22.1783 20.6591 20.6402 21.9776 18.6668C23.2962 16.6934 24 14.3734 24 12C23.9966 8.81845 22.7312 5.76818 20.4815 3.51848C18.2318 1.26878 15.1816 0.00340334 12 0ZM12 22.2857C9.96568 22.2857 7.97704 21.6825 6.28557 20.5523C4.59409 19.422 3.27575 17.8156 2.49724 15.9362C1.71874 14.0567 1.51505 11.9886 1.91193 9.99335C2.3088 7.99812 3.28842 6.16538 4.72691 4.7269C6.16539 3.28842 7.99813 2.3088 9.99336 1.91192C11.9886 1.51505 14.0567 1.71874 15.9362 2.49724C17.8156 3.27574 19.4221 4.59409 20.5523 6.28556C21.6825 7.97704 22.2857 9.96568 22.2857 12C22.2828 14.727 21.1981 17.3415 19.2698 19.2698C17.3415 21.1981 14.727 22.2828 12 22.2857ZM17.7489 7.96543C17.9095 8.12617 17.9998 8.34414 17.9998 8.57143C17.9998 8.79871 17.9095 9.01669 17.7489 9.17743L10.8917 16.0346C10.731 16.1953 10.513 16.2855 10.2857 16.2855C10.0584 16.2855 9.84046 16.1953 9.67972 16.0346L6.25115 12.606C6.09501 12.4443 6.00862 12.2278 6.01057 12.0031C6.01252 11.7783 6.10267 11.5634 6.26159 11.4044C6.42051 11.2455 6.63549 11.1554 6.86023 11.1534C7.08497 11.1515 7.30149 11.2379 7.46315 11.394L10.2857 14.2166L16.5369 7.96543C16.6976 7.80474 16.9156 7.71447 17.1429 7.71447C17.3701 7.71447 17.5881 7.80474 17.7489 7.96543Z" fill="#60B731"/>
</svg>
