<svg width="24" height="24" viewBox="0 0 24 24" fill="none" xmlns="http://www.w3.org/2000/svg">
<path d="M16.6742 15.4675L13.1754 11.9953L16.6742 8.52313C16.7577 8.44028 16.8239 8.34192 16.8691 8.23367C16.9142 8.12542 16.9375 8.0094 16.9375 7.89223C16.9375 7.77506 16.9142 7.65904 16.8691 7.55079C16.8239 7.44254 16.7577 7.34418 16.6742 7.26133C16.5907 7.17848 16.4916 7.11276 16.3825 7.06792C16.2734 7.02308 16.1565 7 16.0384 7C15.9204 7 15.8035 7.02308 15.6944 7.06792C15.5853 7.11276 15.4862 7.17848 15.4027 7.26133L11.2637 11.3689C11.1801 11.4517 11.1138 11.55 11.0685 11.6583C11.0233 11.7666 11 11.8826 11 11.9998C11 12.117 11.0233 12.2331 11.0685 12.3413C11.1138 12.4496 11.1801 12.5479 11.2637 12.6307L15.4027 16.7383C15.4861 16.8213 15.5852 16.8871 15.6943 16.932C15.8034 16.9769 15.9203 17 16.0384 17C16.1565 17 16.2735 16.9769 16.3826 16.932C16.4917 16.8871 16.5907 16.8213 16.6742 16.7383C17.0168 16.3893 17.0259 15.8165 16.6742 15.4675Z" fill="#515364"/>
<path d="M10.6742 15.4675L7.17541 11.9953L10.6742 8.52313C10.7577 8.44028 10.8239 8.34192 10.8691 8.23367C10.9142 8.12542 10.9375 8.0094 10.9375 7.89223C10.9375 7.77506 10.9142 7.65904 10.8691 7.55079C10.8239 7.44254 10.7577 7.34418 10.6742 7.26133C10.5907 7.17848 10.4916 7.11276 10.3825 7.06792C10.2734 7.02308 10.1565 7 10.0384 7C9.92038 7 9.80347 7.02308 9.69439 7.06792C9.58531 7.11276 9.4862 7.17848 9.40271 7.26133L5.26371 11.3689C5.18011 11.4517 5.11379 11.55 5.06854 11.6583C5.02329 11.7666 5 11.8826 5 11.9998C5 12.117 5.02329 12.2331 5.06854 12.3413C5.11379 12.4496 5.18011 12.5479 5.26371 12.6307L9.40271 16.7383C9.48614 16.8213 9.58523 16.8871 9.69431 16.932C9.8034 16.9769 9.92034 17 10.0384 17C10.1565 17 10.2735 16.9769 10.3826 16.932C10.4917 16.8871 10.5907 16.8213 10.6742 16.7383C11.0168 16.3893 11.0259 15.8165 10.6742 15.4675Z" fill="#515364"/>
</svg>
