<svg width="20" height="20" viewBox="0 0 20 20" fill="none" xmlns="http://www.w3.org/2000/svg">
<path fill-rule="evenodd" clip-rule="evenodd" d="M3.32848 4.2287C3.16345 4.40211 3.125 4.53494 3.125 4.62497C3.125 4.71501 3.16345 4.84784 3.32848 5.02124C3.49657 5.19787 3.76934 5.38537 4.15422 5.55643C4.92239 5.89784 6.02742 6.12495 7.28119 6.12495C7.62637 6.12495 7.90619 6.40477 7.90619 6.74995C7.90619 7.09513 7.62637 7.37495 7.28119 7.37495C5.89439 7.37495 4.60882 7.12637 3.64654 6.69869C3.16619 6.4852 2.73877 6.2148 2.42298 5.88298C2.10413 5.54793 1.875 5.12174 1.875 4.62497C1.875 4.12821 2.10413 3.70202 2.42298 3.36697C2.73877 3.03514 3.16619 2.76475 3.64654 2.55126C4.60882 2.12358 5.89439 1.875 7.28119 1.875C8.43709 1.875 9.51798 2.04758 10.3995 2.34947C10.726 2.46131 10.9001 2.8167 10.7883 3.14325C10.6764 3.46981 10.321 3.64388 9.99446 3.53204C9.26196 3.28117 8.32046 3.125 7.28119 3.125C6.02742 3.125 4.92239 3.35211 4.15422 3.69352C3.76934 3.86458 3.49657 4.05208 3.32848 4.2287Z" fill="#4651C8"/>
<path fill-rule="evenodd" clip-rule="evenodd" d="M2.5 4.00004C2.84518 4.00004 3.125 4.2798 3.125 4.62497V11C3.125 11.1697 3.29337 11.5159 4.02358 11.8714C4.33394 12.0225 4.46304 12.3966 4.31194 12.707C4.16084 13.0173 3.78677 13.1464 3.47642 12.9953C2.65131 12.5936 1.875 11.9322 1.875 11V4.62497C1.875 4.2798 2.15482 4.00004 2.5 4.00004Z" fill="#4651C8"/>
<path fill-rule="evenodd" clip-rule="evenodd" d="M2.5 7.18731C2.84518 7.18731 3.125 7.46713 3.125 7.81231C3.125 7.93261 3.20066 8.14577 3.55963 8.40911C3.91025 8.66632 4.45056 8.90535 5.14669 9.07343C5.48223 9.15445 5.68856 9.49213 5.60754 9.82767C5.52653 10.1632 5.18884 10.3695 4.85331 10.2885C4.05595 10.096 3.34626 9.80287 2.82025 9.41699C2.3026 9.03723 1.875 8.49636 1.875 7.81231C1.875 7.46713 2.15482 7.18731 2.5 7.18731Z" fill="#4651C8"/>
<path fill-rule="evenodd" clip-rule="evenodd" d="M12.0102 14.1689C12.3554 14.1689 12.6352 14.4487 12.6352 14.7939V15.7635C12.6352 16.1087 12.3554 16.3885 12.0102 16.3885C11.6651 16.3885 11.3852 16.1087 11.3852 15.7635V14.7939C11.3852 14.4487 11.6651 14.1689 12.0102 14.1689Z" fill="#4651C8"/>
<path fill-rule="evenodd" clip-rule="evenodd" d="M12.0102 9.35952C12.3554 9.35952 12.6352 9.63934 12.6352 9.98452V10.887C12.6352 11.2322 12.3554 11.512 12.0102 11.512C11.6651 11.512 11.3852 11.2322 11.3852 10.887V9.98452C11.3852 9.63934 11.6651 9.35952 12.0102 9.35952Z" fill="#4651C8"/>
<path fill-rule="evenodd" clip-rule="evenodd" d="M9.97504 5H14.0511C14.273 5.00191 14.4904 5.06247 14.6814 5.1755C14.8723 5.28852 15.03 5.45003 15.1384 5.64364C15.2469 5.83725 15.3022 6.05609 15.2987 6.27796C15.2953 6.49983 15.2333 6.71687 15.119 6.90705C15.1062 6.92829 15.0922 6.94875 15.077 6.96832L14.3986 7.8422C15.5814 8.51692 16.5262 9.3077 17.2013 10.2641C18.0052 11.403 18.3957 12.733 18.3957 14.2848C18.3957 15.8371 17.6741 16.9936 16.4786 17.7306C15.3203 18.4447 13.7486 18.75 12.0104 18.75C10.2721 18.75 8.70095 18.4446 7.54303 17.7335C6.34838 16.9999 5.625 15.8486 5.625 14.304C5.625 12.7521 6.0156 11.4222 6.81926 10.2824C7.49495 9.32404 8.44086 8.5307 9.62526 7.85204L8.9425 6.96676C8.92777 6.94766 8.91416 6.92772 8.90173 6.90705C8.78741 6.71687 8.7254 6.49984 8.72199 6.27796C8.71858 6.05608 8.77389 5.83725 8.88231 5.64364C8.99073 5.45003 9.14841 5.28853 9.33937 5.1755C9.53033 5.06247 9.74777 5.00193 9.96967 5.00002L9.97504 5ZM9.97985 6.25C9.97852 6.2501 9.97723 6.2505 9.97608 6.25118C9.97477 6.25196 9.97369 6.25307 9.97294 6.2544L9.97246 6.25542L11.0652 7.67226C11.1791 7.81995 11.2211 8.01079 11.1797 8.19264C11.1383 8.3745 11.0179 8.52837 10.8513 8.61223C9.46947 9.30773 8.48341 10.0913 7.84087 11.0027C7.20445 11.9053 6.875 12.9756 6.875 14.304C6.875 15.3899 7.3517 16.1491 8.19718 16.6684C9.07939 17.2101 10.3885 17.5 12.0104 17.5C13.6324 17.5 14.9409 17.2101 15.8227 16.6665C16.6673 16.1458 17.1457 15.3822 17.1457 14.2848C17.1457 12.9564 16.8163 11.8862 16.1801 10.9849C15.5378 10.0751 14.5522 9.294 13.171 8.60337C13.0036 8.51968 12.8825 8.36538 12.841 8.18289C12.7995 8.0004 12.842 7.80892 12.9568 7.66109L14.0482 6.25519L14.0478 6.2544C14.0471 6.25307 14.046 6.25196 14.0447 6.25118C14.0435 6.2505 14.0422 6.2501 14.0409 6.25H9.97985Z" fill="#4651C8"/>
<path fill-rule="evenodd" clip-rule="evenodd" d="M11.962 11.557C11.8469 11.5482 11.733 11.5848 11.6447 11.659C11.5727 11.7195 11.5223 11.8011 11.5002 11.8914C11.5232 11.9825 11.5743 12.0647 11.6471 12.1259C11.7363 12.2009 11.8511 12.2383 11.9674 12.2304C12.4064 12.2005 12.84 12.342 13.1769 12.6251C13.5138 12.9082 13.7278 13.3109 13.7739 13.7485C13.7785 13.7921 13.7785 13.836 13.7739 13.8796C13.7278 14.3172 13.5138 14.7199 13.1769 15.003C12.8488 15.2787 12.4291 15.4201 12.002 15.3997C11.7364 15.4057 11.4725 15.3535 11.2291 15.2464C10.9753 15.1347 10.7505 14.9664 10.5719 14.7544C10.3495 14.4904 10.3832 14.0961 10.6472 13.8737C10.9111 13.6513 11.3054 13.685 11.5278 13.949C11.5835 14.015 11.6535 14.0675 11.7326 14.1022C11.8116 14.137 11.8976 14.1532 11.9839 14.1496C12.0067 14.1487 12.0296 14.149 12.0524 14.1505C12.1687 14.1585 12.2835 14.121 12.3727 14.046C12.4448 13.9854 12.4957 13.9042 12.519 13.814C12.4957 13.7239 12.4448 13.6426 12.3727 13.582C12.2835 13.5071 12.1687 13.4696 12.0524 13.4775C11.6134 13.5075 11.1798 13.366 10.8429 13.0829C10.506 12.7998 10.292 12.3971 10.2459 11.9594C10.2415 11.9177 10.2413 11.8756 10.2453 11.8338C10.2879 11.3932 10.5016 10.9868 10.8405 10.702C11.1682 10.4266 11.5878 10.2861 12.0143 10.3079C12.2708 10.2982 12.5266 10.3424 12.7652 10.4378C13.0169 10.5385 13.2432 10.6938 13.4278 10.8925C13.6628 11.1453 13.6483 11.5408 13.3954 11.7757C13.1425 12.0107 12.747 11.9962 12.5121 11.7433C12.4533 11.68 12.3811 11.6305 12.3009 11.5984C12.2207 11.5663 12.1343 11.5524 12.0481 11.5577C12.0194 11.5594 11.9906 11.5592 11.962 11.557Z" fill="#4651C8"/>
</svg>
