<svg width="32" height="32" viewBox="0 0 32 32" fill="none" xmlns="http://www.w3.org/2000/svg">
<path fill-rule="evenodd" clip-rule="evenodd" d="M8.33333 5.33333C8.33333 4.04467 9.378 3 10.6667 3H26.6667C27.9553 3 29 4.04467 29 5.33333V26.6667C29 27.9553 27.9553 29 26.6667 29H10.6667C9.378 29 8.33333 27.9553 8.33333 26.6667V24C8.33333 23.4477 8.78105 23 9.33333 23C9.88562 23 10.3333 23.4477 10.3333 24V26.6667C10.3333 26.8508 10.4826 27 10.6667 27H26.6667C26.8508 27 27 26.8508 27 26.6667V5.33333C27 5.14924 26.8508 5 26.6667 5H10.6667C10.4826 5 10.3333 5.14924 10.3333 5.33333V8C10.3333 8.55229 9.88562 9 9.33333 9C8.78105 9 8.33333 8.55229 8.33333 8V5.33333Z" fill="#232533"/>
<path fill-rule="evenodd" clip-rule="evenodd" d="M18.6667 3C19.219 3 19.6667 3.44772 19.6667 4V28C19.6667 28.5523 19.219 29 18.6667 29C18.1144 29 17.6667 28.5523 17.6667 28V4C17.6667 3.44772 18.1144 3 18.6667 3Z" fill="#232533"/>
<path fill-rule="evenodd" clip-rule="evenodd" d="M9.33333 12.3333C9.88562 12.3333 10.3333 12.781 10.3333 13.3333V18.6667C10.3333 19.219 9.88562 19.6667 9.33333 19.6667C8.78105 19.6667 8.33333 19.219 8.33333 18.6667V13.3333C8.33333 12.781 8.78105 12.3333 9.33333 12.3333Z" fill="#232533"/>
<path fill-rule="evenodd" clip-rule="evenodd" d="M5.66667 16C5.66667 15.4477 6.11438 15 6.66667 15H12C12.5523 15 13 15.4477 13 16C13 16.5523 12.5523 17 12 17H6.66667C6.11438 17 5.66667 16.5523 5.66667 16Z" fill="#232533"/>
<path fill-rule="evenodd" clip-rule="evenodd" d="M9.33333 11.6667C6.9401 11.6667 5 13.6068 5 16C5 18.3932 6.9401 20.3333 9.33333 20.3333C11.7266 20.3333 13.6667 18.3932 13.6667 16C13.6667 13.6068 11.7266 11.6667 9.33333 11.6667ZM3 16C3 12.5022 5.83553 9.66667 9.33333 9.66667C12.8311 9.66667 15.6667 12.5022 15.6667 16C15.6667 19.4978 12.8311 22.3333 9.33333 22.3333C5.83553 22.3333 3 19.4978 3 16Z" fill="#232533"/>
</svg>
