<svg width="20" height="20" viewBox="0 0 20 20" fill="none" xmlns="http://www.w3.org/2000/svg">
<path d="M10 8.74994C7.86206 8.74994 6.25 9.6905 6.25 10.9374V15.9374C6.25 17.1844 7.86206 18.1249 10 18.1249C12.1379 18.1249 13.75 17.1844 13.75 15.9374V10.9374C13.75 9.6905 12.1379 8.74994 10 8.74994ZM10 9.99994C11.5509 9.99994 12.5 10.6069 12.5 10.9374C12.5 11.2679 11.5509 11.8749 10 11.8749C8.44912 11.8749 7.5 11.2679 7.5 10.9374C7.5 10.6069 8.44912 9.99994 10 9.99994ZM10 16.8749C8.44912 16.8749 7.5 16.2679 7.5 15.9374V15.0921C8.15431 15.426 9.02069 15.6249 10 15.6249C10.9793 15.6249 11.8457 15.4259 12.5 15.0921V15.9374C12.5 16.2679 11.5509 16.8749 10 16.8749ZM10 14.3749C8.44912 14.3749 7.5 13.7679 7.5 13.4374V12.5921C8.15431 12.926 9.02069 13.1249 10 13.1249C10.9793 13.1249 11.8457 12.9259 12.5 12.5921V13.4374C12.5 13.7679 11.5509 14.3749 10 14.3749Z" fill="#4651C8"/>
<path d="M18.75 10.3124C18.75 12.2374 17.4125 13.8437 15.6188 14.2624V12.9687C16.7126 12.5812 17.5 11.5437 17.5 10.3124C17.5 8.85619 16.3562 7.63119 14.9062 7.51238L14.4 7.47494L14.3375 6.96875C14.0687 4.78125 12.2 3.125 10 3.125C7.79375 3.125 5.925 4.78125 5.65625 6.96875L5.59375 7.47494L5.0875 7.51238C3.6375 7.63119 2.5 8.85619 2.5 10.3124C2.5 11.5374 3.28125 12.5749 4.36881 12.9624V14.2624C2.58131 13.8375 1.25 12.2312 1.25 10.3125C1.25 8.375 2.6375 6.71875 4.5 6.3375C5.0375 3.76244 7.325 1.875 10 1.875C12.6687 1.875 14.9563 3.76244 15.5 6.3375C17.3562 6.71875 18.75 8.37494 18.75 10.3124Z" fill="#4651C8"/>
</svg>
