<svg width="48" height="48" viewBox="0 0 48 48" fill="none" xmlns="http://www.w3.org/2000/svg">
<path fill-rule="evenodd" clip-rule="evenodd" d="M5.19995 10C5.19995 7.34905 7.34898 5.20001 9.99995 5.20001H29.516V6.80001H9.99995C8.23264 6.80001 6.79995 8.2327 6.79995 10V39C6.79995 40.7673 8.23264 42.2 9.99995 42.2H38C39.7673 42.2 41.2 40.7673 41.2 39V23.354H42.7999V39C42.7999 41.651 40.6509 43.8 38 43.8H9.99995C7.34898 43.8 5.19995 41.651 5.19995 39V10Z" fill="#898995"/>
<path fill-rule="evenodd" clip-rule="evenodd" d="M24 19.9H5.99995V18.1H24V19.9Z" fill="#898995"/>
<path fill-rule="evenodd" clip-rule="evenodd" d="M42 31.9H5.99995V30.1H42V31.9Z" fill="#898995"/>
<path fill-rule="evenodd" clip-rule="evenodd" d="M32 37.9L16 37.9V36.1L32 36.1V37.9Z" fill="#898995"/>
<path fill-rule="evenodd" clip-rule="evenodd" d="M13 37.9H8.99995V36.1H13V37.9Z" fill="#898995"/>
<path fill-rule="evenodd" clip-rule="evenodd" d="M32 25.9L16 25.9V24.1L32 24.1V25.9Z" fill="#898995"/>
<path fill-rule="evenodd" clip-rule="evenodd" d="M27 13.9L16 13.9V12.1L27 12.1V13.9Z" fill="#898995"/>
<path fill-rule="evenodd" clip-rule="evenodd" d="M39.2833 4.17443C38.5166 2.8254 36.5724 2.8254 35.8057 4.17443L28.1624 17.6228C27.4047 18.9561 28.3676 20.6111 29.9012 20.6111H45.1877C46.7213 20.6111 47.6843 18.9561 46.9265 17.6228L39.2833 4.17443ZM36.7849 14.7539H38.3301L38.5973 9.65556C38.6286 9.05989 38.154 8.55979 37.5575 8.55979C36.961 8.55979 36.4864 9.05989 36.5177 9.65556L36.7849 14.7539ZM36.7589 16.0914C36.5425 16.2472 36.4343 16.5242 36.4343 16.9224C36.4343 17.3034 36.5425 17.5804 36.7589 17.7535C36.9753 17.918 37.2394 18.0002 37.551 18.0002C37.854 18.0002 38.1137 17.918 38.3301 17.7535C38.5466 17.5804 38.6548 17.3034 38.6548 16.9224C38.6548 16.5242 38.5466 16.2472 38.3301 16.0914C38.1137 15.9269 37.854 15.8446 37.551 15.8446C37.2394 15.8446 36.9753 15.9269 36.7589 16.0914Z" fill="#898995"/>
</svg>
