<svg width="16" height="16" viewBox="0 0 16 16" fill="none" xmlns="http://www.w3.org/2000/svg">
<path d="M14.556 3.63597L12.0841 1.16403C11.979 1.05901 11.8366 1 11.6881 1H1.84003C1.69151 1 1.54907 1.059 1.44405 1.16402C1.33903 1.26904 1.28003 1.41148 1.28003 1.56V14.44C1.28003 14.5885 1.33903 14.731 1.44405 14.836C1.54907 14.941 1.69151 15 1.84003 15H14.16C14.3085 15 14.451 14.941 14.556 14.836C14.661 14.731 14.72 14.5885 14.72 14.44V4.03194C14.72 3.88342 14.661 3.74099 14.556 3.63597ZM3.52003 2.12H8.56003V4.36C8.56003 4.50852 8.50103 4.65096 8.39601 4.75598C8.29099 4.861 8.14855 4.92 8.00003 4.92H4.08003C3.93151 4.92 3.78907 4.861 3.68405 4.75598C3.57903 4.65096 3.52003 4.50852 3.52003 4.36V2.12ZM12.48 13.88H3.52003V10.52C3.52003 10.3715 3.57903 10.229 3.68405 10.124C3.78907 10.019 3.93151 9.96 4.08003 9.96H11.92C12.0685 9.96 12.211 10.019 12.316 10.124C12.421 10.229 12.48 10.3715 12.48 10.52V13.88Z" fill="#232533"/>
</svg>
