<svg width="48" height="48" viewBox="0 0 48 48" fill="none" xmlns="http://www.w3.org/2000/svg">
<path d="M17.3338 9.52841C18.184 9.52841 18.8733 8.8392 18.8733 7.989C18.8733 7.13881 18.184 6.44959 17.3338 6.44959C16.4837 6.44959 15.7944 7.13881 15.7944 7.989C15.7944 8.8392 16.4837 9.52841 17.3338 9.52841Z" fill="#898995"/>
<path d="M14.2547 15.6861C15.1049 15.6861 15.7942 14.9969 15.7942 14.1467C15.7942 13.2965 15.1049 12.6073 14.2547 12.6073C13.4046 12.6073 12.7153 13.2965 12.7153 14.1467C12.7153 14.9969 13.4046 15.6861 14.2547 15.6861Z" fill="#898995"/>
<path d="M11.1761 6.44968C12.0263 6.44968 12.7155 5.76046 12.7155 4.91027C12.7155 4.06007 12.0263 3.37086 11.1761 3.37086C10.3259 3.37086 9.63672 4.06007 9.63672 4.91027C9.63672 5.76046 10.3259 6.44968 11.1761 6.44968Z" fill="#898995"/>
<path d="M8.09703 12.6073C8.94722 12.6073 9.63644 11.9181 9.63644 11.0679C9.63644 10.2177 8.94722 9.52845 8.09703 9.52845C7.24683 9.52845 6.55762 10.2177 6.55762 11.0679C6.55762 11.9181 7.24683 12.6073 8.09703 12.6073Z" fill="#898995"/>
<path d="M5.01841 18.765C5.86861 18.765 6.55783 18.0758 6.55783 17.2256C6.55783 16.3754 5.86861 15.6862 5.01841 15.6862C4.16822 15.6862 3.479 16.3754 3.479 17.2256C3.479 18.0758 4.16822 18.765 5.01841 18.765Z" fill="#898995"/>
<path fill-rule="evenodd" clip-rule="evenodd" d="M26.524 1.63943V21.6279C26.524 22.2354 27.0165 22.7279 27.624 22.7279H46.3629V24.5279H27.624C26.0224 24.5279 24.724 23.2296 24.724 21.6279V1.63943H26.524Z" fill="#898995"/>
<path fill-rule="evenodd" clip-rule="evenodd" d="M39.0363 6.42649C39.2019 6.169 39.4871 6.01337 39.7932 6.01337H46.3629V7.81337H40.2844L33.6208 18.1731C33.4551 18.4306 33.17 18.5862 32.8638 18.5862H25.349V16.7862H32.3726L39.0363 6.42649Z" fill="#898995"/>
<path fill-rule="evenodd" clip-rule="evenodd" d="M13.0846 42.85C18.1902 42.85 22.3292 38.7111 22.3292 33.6055C22.3292 28.4998 18.1902 24.3609 13.0846 24.3609C7.97897 24.3609 3.84004 28.4998 3.84004 33.6055C3.84004 38.7111 7.97897 42.85 13.0846 42.85ZM13.0846 44.65C19.1843 44.65 24.1292 39.7052 24.1292 33.6055C24.1292 27.5057 19.1843 22.5609 13.0846 22.5609C6.98486 22.5609 2.04004 27.5057 2.04004 33.6055C2.04004 39.7052 6.98486 44.65 13.0846 44.65Z" fill="#898995"/>
<path d="M13.377 31.6255V23.628C16.2408 23.5239 22.2185 25.3777 23.2183 33.6255H15.377C14.2724 33.6255 13.377 32.7301 13.377 31.6255Z" fill="#898995"/>
<path fill-rule="evenodd" clip-rule="evenodd" d="M14.277 24.5599V31.6255C14.277 32.2331 14.7694 32.7255 15.377 32.7255H22.1709C21.5598 29.4322 20.0657 27.4202 18.457 26.215C17.0344 25.1493 15.4816 24.6845 14.277 24.5599ZM19.5363 24.7745C21.7244 26.4137 23.5845 29.1678 24.1117 33.5172C24.1427 33.7729 24.0627 34.0296 23.8919 34.2224C23.721 34.4152 23.4758 34.5255 23.2183 34.5255H15.377C13.7753 34.5255 12.477 33.2272 12.477 31.6255V23.628C12.477 23.1436 12.8602 22.7462 13.3443 22.7286C14.9595 22.6699 17.3772 23.1569 19.5363 24.7745Z" fill="#898995"/>
<path fill-rule="evenodd" clip-rule="evenodd" d="M31.4855 36.4373V43.6229H29.6855L29.6855 36.4373H31.4855Z" fill="#898995"/>
<path fill-rule="evenodd" clip-rule="evenodd" d="M37.5778 28.3923V43.6229H35.7778V28.3923H37.5778Z" fill="#898995"/>
<path fill-rule="evenodd" clip-rule="evenodd" d="M43.5139 33.6055V43.6229H41.7139V33.6055H43.5139Z" fill="#898995"/>
</svg>
