<svg width="16" height="16" viewBox="0 0 16 16" fill="none" xmlns="http://www.w3.org/2000/svg">
<path opacity="0.2" d="M2.53857 1.53845H7.92319V5.48717H12.5899V14.4615H2.53857V1.53845Z" fill="#515364"/>
<path d="M4.87158 8.71791C4.87158 8.42052 5.11266 8.17944 5.41004 8.17944H8.28184C8.57922 8.17944 8.8203 8.42052 8.8203 8.71791C8.8203 9.01529 8.57922 9.25637 8.28184 9.25637H5.41004C5.11266 9.25637 4.87158 9.01529 4.87158 8.71791Z" fill="#515364"/>
<path d="M5.41004 10.3333C5.11266 10.3333 4.87158 10.5744 4.87158 10.8718C4.87158 11.1692 5.11266 11.4102 5.41004 11.4102H9.71774C10.0151 11.4102 10.2562 11.1692 10.2562 10.8718C10.2562 10.5744 10.0151 10.3333 9.71774 10.3333H5.41004Z" fill="#515364"/>
<path fill-rule="evenodd" clip-rule="evenodd" d="M2.53846 1C2.24108 1 2 1.24108 2 1.53846V14.4615C2 14.7589 2.24108 15 2.53846 15H12.5897C12.8871 15 13.1282 14.7589 13.1282 14.4615V5.84615C13.1282 5.70335 13.0715 5.56639 12.9705 5.4654L8.6628 1.15771C8.56182 1.05673 8.42486 1 8.28205 1H2.53846ZM8 2.07692V5.7C8 5.86569 8.11579 6 8.25862 6H11.9821L12.0513 6.06919V13.9231H3.07692V2.07692H8Z" fill="#515364"/>
</svg>
