<svg width="24" height="24" viewBox="0 0 24 24" fill="none" xmlns="http://www.w3.org/2000/svg">
<path d="M7.26333 15.4675L10.7621 11.9953L7.26333 8.52313C7.17984 8.44028 7.11362 8.34192 7.06844 8.23367C7.02326 8.12542 7 8.0094 7 7.89223C7 7.77506 7.02326 7.65904 7.06844 7.55079C7.11362 7.44254 7.17984 7.34418 7.26333 7.26133C7.34681 7.17848 7.44592 7.11276 7.555 7.06792C7.66408 7.02308 7.78099 7 7.89906 7C8.01712 7 8.13403 7.02308 8.24311 7.06792C8.35219 7.11276 8.4513 7.17848 8.53479 7.26133L12.6738 11.3689C12.7574 11.4517 12.8237 11.55 12.869 11.6583C12.9142 11.7666 12.9375 11.8826 12.9375 11.9998C12.9375 12.117 12.9142 12.2331 12.869 12.3413C12.8237 12.4496 12.7574 12.5479 12.6738 12.6307L8.53479 16.7383C8.45136 16.8213 8.35227 16.8871 8.24319 16.932C8.1341 16.9769 8.01716 17 7.89906 17C7.78096 17 7.66402 16.9769 7.55493 16.932C7.44584 16.8871 7.34675 16.8213 7.26333 16.7383C6.92067 16.3893 6.91165 15.8165 7.26333 15.4675Z" fill="#515364"/>
<path d="M13.2633 15.4675L16.7621 11.9953L13.2633 8.52313C13.1798 8.44028 13.1136 8.34192 13.0684 8.23367C13.0233 8.12542 13 8.0094 13 7.89223C13 7.77506 13.0233 7.65904 13.0684 7.55079C13.1136 7.44254 13.1798 7.34418 13.2633 7.26133C13.3468 7.17848 13.4459 7.11276 13.555 7.06792C13.6641 7.02308 13.781 7 13.8991 7C14.0171 7 14.134 7.02308 14.2431 7.06792C14.3522 7.11276 14.4513 7.17848 14.5348 7.26133L18.6738 11.3689C18.7574 11.4517 18.8237 11.55 18.869 11.6583C18.9142 11.7666 18.9375 11.8826 18.9375 11.9998C18.9375 12.117 18.9142 12.2331 18.869 12.3413C18.8237 12.4496 18.7574 12.5479 18.6738 12.6307L14.5348 16.7383C14.4514 16.8213 14.3523 16.8871 14.2432 16.932C14.1341 16.9769 14.0172 17 13.8991 17C13.781 17 13.664 16.9769 13.5549 16.932C13.4458 16.8871 13.3468 16.8213 13.2633 16.7383C12.9207 16.3893 12.9116 15.8165 13.2633 15.4675Z" fill="#515364"/>
</svg>
