<svg width="29" height="30" viewBox="0 0 29 30" fill="none" xmlns="http://www.w3.org/2000/svg">
<path fill-rule="evenodd" clip-rule="evenodd" d="M1.50818 4.03262C2.2495 3.36544 3.24261 2.99992 4.26659 2.99992H8.19992V4.19992H4.26659C3.52245 4.19992 2.81987 4.46654 2.31094 4.92457C1.8041 5.38073 1.53325 5.98502 1.53325 6.59992V24.5999C1.53325 25.2148 1.8041 25.8191 2.31094 26.2753C2.81987 26.7333 3.52245 26.9999 4.26659 26.9999H14.5333V28.1999H4.26659C3.24261 28.1999 2.2495 27.8344 1.50818 27.1672C0.76478 26.4982 0.333252 25.5763 0.333252 24.5999V6.59992C0.333252 5.62352 0.764781 4.70168 1.50818 4.03262ZM17.6666 2.99992H20.9333C21.9572 2.99992 22.9503 3.36544 23.6917 4.03262C24.4351 4.70168 24.8666 5.62352 24.8666 6.59992V7.26658H23.6666V6.59992C23.6666 5.98502 23.3957 5.38073 22.8889 4.92457C22.38 4.46654 21.6774 4.19992 20.9333 4.19992H17.6666V2.99992Z" fill="#898995"/>
<path fill-rule="evenodd" clip-rule="evenodd" d="M8.97051 2.1183C8.43303 2.47102 8.19992 2.88973 8.19992 3.26659C8.19992 3.64344 8.43303 4.06215 8.97051 4.41487C9.5029 4.76425 10.2737 4.99992 11.1555 4.99992H14.711C15.5928 4.99992 16.3636 4.76425 16.896 4.41487C17.4335 4.06215 17.6666 3.64344 17.6666 3.26659C17.6666 2.88973 17.4335 2.47102 16.896 2.1183C16.3636 1.76892 15.5928 1.53325 14.711 1.53325H11.1555C10.2737 1.53325 9.5029 1.76892 8.97051 2.1183ZM8.31212 1.11504C9.0666 0.619918 10.0736 0.333252 11.1555 0.333252H14.711C15.7929 0.333252 16.7999 0.619918 17.5544 1.11504C18.3038 1.60682 18.8666 2.35477 18.8666 3.26659C18.8666 4.1784 18.3038 4.92635 17.5544 5.41813C16.7999 5.91325 15.7929 6.19992 14.711 6.19992H11.1555C10.0736 6.19992 9.0666 5.91325 8.31212 5.41813C7.56275 4.92635 6.99992 4.1784 6.99992 3.26659C6.99992 2.35477 7.56275 1.60682 8.31212 1.11504Z" fill="#898995"/>
<path fill-rule="evenodd" clip-rule="evenodd" d="M6.65519 24.1883V15.7885H7.79993V24.1883H6.65519Z" fill="#898995"/>
<path fill-rule="evenodd" clip-rule="evenodd" d="M9.32186 24.1883V17.7885H10.4666V24.1883H9.32186Z" fill="#898995"/>
<path fill-rule="evenodd" clip-rule="evenodd" d="M11.9885 24.1883V19.1218H13.1333V24.1883H11.9885Z" fill="#898995"/>
<path fill-rule="evenodd" clip-rule="evenodd" d="M3.98853 24.1883V19.7885H5.13327V24.1883H3.98853Z" fill="#898995"/>
<path fill-rule="evenodd" clip-rule="evenodd" d="M7.26652 12.4199C8.63934 12.4199 9.41992 11.6394 9.41992 10.2666C9.41992 8.89378 8.63934 8.11325 7.26652 8.11325C5.8937 8.11325 5.11325 8.89378 5.11325 10.2666C5.11325 11.6394 5.8937 12.4199 7.26652 12.4199ZM7.26652 13.2666C8.92338 13.2666 10.2665 11.9235 10.2665 10.2666C10.2665 8.60975 8.92338 7.2666 7.26652 7.2666C5.60967 7.2666 4.26652 8.60975 4.26652 10.2666C4.26652 11.9235 5.60967 13.2666 7.26652 13.2666Z" fill="#898995"/>
<path d="M7.40938 9.83803V7.55348C8.15768 7.52374 9.71958 8.0533 9.98081 10.4095H7.98081C7.66522 10.4095 7.40938 10.1536 7.40938 9.83803Z" fill="#898995"/>
<path fill-rule="evenodd" clip-rule="evenodd" d="M7.66652 7.8227V9.83803C7.66652 10.0116 7.80723 10.1523 7.9808 10.1523H9.6855C9.52531 9.20383 9.13242 8.62775 8.71481 8.28569C8.35723 7.99281 7.96993 7.86181 7.66652 7.8227ZM9.04069 7.88783C9.61606 8.35911 10.0994 9.14543 10.2364 10.3811C10.2444 10.4538 10.2212 10.5265 10.1724 10.581C10.1236 10.6355 10.0539 10.6666 9.9808 10.6666H7.9808C7.5232 10.6666 7.15223 10.2956 7.15223 9.83803V7.55348C7.15223 7.41544 7.26123 7.30202 7.39917 7.29654C7.83172 7.27935 8.47199 7.42202 9.04069 7.88783Z" fill="#898995"/>
<path fill-rule="evenodd" clip-rule="evenodd" d="M28.3333 13.6666C28.3333 10.469 24.6666 8.66659 22.3333 8.66659C17.9999 8.66659 16.3333 12.1396 16.3333 14.3333V24.3333C16.3333 26.3333 18.3333 29.3333 22.3333 29.3333C26.0666 29.3333 28.3333 26.3333 28.3333 23.9999V13.6666ZM24.7057 11.9999L24.2252 12.4861C23.6019 13.1181 23.0627 13.6899 22.5267 14.2585C22.1525 14.6554 21.7797 15.0507 21.3811 15.4637L20.3954 14.62L19.876 14.1768L18.9999 15.2242L19.5193 15.6675L20.989 16.9258L21.4659 17.3333L21.9076 16.8865C22.521 16.2643 23.0452 15.7057 23.5663 15.1504C24.0815 14.6014 24.5936 14.0556 25.1861 13.4548L25.6666 12.9686L24.7057 11.9999ZM20.6094 20.6666L19.6666 21.6094L21.5272 23.47L19.6664 25.3308L20.6092 26.2736L22.47 24.4129L24.3308 26.2736L25.2736 25.3308L23.4129 23.47L25.2735 21.6094L24.3307 20.6666L22.47 22.5272L20.6094 20.6666Z" fill="#898995"/>
</svg>
