<svg width="48" height="48" viewBox="0 0 48 48" fill="none" xmlns="http://www.w3.org/2000/svg">
<g clip-path="url(#clip0_19652_288285)">
<path fill-rule="evenodd" clip-rule="evenodd" d="M6.8625 7.64906C7.97447 6.64828 9.46414 6.10001 11.0001 6.10001H16.9001V7.90001H11.0001C9.88389 7.90001 8.83002 8.29994 8.06663 8.98699C7.30637 9.67122 6.9001 10.5777 6.9001 11.5V38.5C6.9001 39.4223 7.30637 40.3288 8.06663 41.013C8.83002 41.7001 9.88389 42.1 11.0001 42.1H26.4001V43.9H11.0001C9.46414 43.9 7.97447 43.3517 6.8625 42.351C5.74739 41.3474 5.1001 39.9646 5.1001 38.5V11.5C5.1001 10.0354 5.74739 8.65266 6.8625 7.64906ZM31.1001 6.10001H36.0001C37.5361 6.10001 39.0257 6.64828 40.1377 7.64906C41.2528 8.65266 41.9001 10.0354 41.9001 11.5V22.35H40.1001V11.5C40.1001 10.5777 39.6938 9.67122 38.9336 8.98699C38.1702 8.29994 37.1163 7.90001 36.0001 7.90001H31.1001V6.10001Z" fill="#898995"/>
<path fill-rule="evenodd" clip-rule="evenodd" d="M18.056 4.77758C17.2498 5.30666 16.9001 5.93473 16.9001 6.50001C16.9001 7.06529 17.2498 7.69335 18.056 8.22244C18.8546 8.7465 20.0107 9.10001 21.3334 9.10001H26.6668C27.9894 9.10001 29.1456 8.7465 29.9442 8.22244C30.7504 7.69335 31.1001 7.06529 31.1001 6.50001C31.1001 5.93473 30.7504 5.30666 29.9442 4.77758C29.1456 4.25351 27.9894 3.90001 26.6668 3.90001H21.3334C20.0107 3.90001 18.8546 4.25351 18.056 4.77758ZM17.0684 3.27269C18.2001 2.53 19.7106 2.10001 21.3334 2.10001H26.6668C28.2896 2.10001 29.8001 2.53 30.9318 3.27269C32.0559 4.01035 32.9001 5.13229 32.9001 6.50001C32.9001 7.86772 32.0559 8.98966 30.9318 9.72732C29.8001 10.47 28.2896 10.9 26.6668 10.9H21.3334C19.7106 10.9 18.2001 10.47 17.0684 9.72732C15.9443 8.98966 15.1001 7.86772 15.1001 6.50001C15.1001 5.13229 15.9443 4.01035 17.0684 3.27269Z" fill="#898995"/>
<path fill-rule="evenodd" clip-rule="evenodd" d="M15.9458 37.8826V23.9844H17.7458V37.8826H15.9458Z" fill="#898995"/>
<path fill-rule="evenodd" clip-rule="evenodd" d="M20.583 37.8826V28.2828H22.383L22.383 37.8826H20.583Z" fill="#898995"/>
<path fill-rule="evenodd" clip-rule="evenodd" d="M11.3086 37.8826L11.3086 31.3532H13.1086V37.8826H11.3086Z" fill="#898995"/>
<path fill-rule="evenodd" clip-rule="evenodd" d="M12.2743 18.5091C12.0228 19.0425 11.9001 19.5872 11.9001 20V20.9H10.1001V20C10.1001 19.2765 10.3025 18.4704 10.6461 17.7415C10.9901 17.012 11.5088 16.2897 12.2025 15.7871C12.9142 15.2715 13.8159 14.9884 14.8295 15.1993C15.8168 15.4047 16.7859 16.053 17.7233 17.1394L17.7652 17.188L17.7998 17.242C17.8644 17.3429 17.9573 17.4654 18.0654 17.5777C18.1761 17.6928 18.2787 17.7722 18.3584 17.8154C18.3664 17.8196 18.3736 17.8233 18.3801 17.8265C18.6845 17.3609 19.2272 16.7844 19.9779 16.4847C20.8411 16.1401 21.8669 16.2101 22.8722 16.9797C22.9281 16.9978 23.0214 17.0217 23.1602 17.0482C23.4362 17.101 23.8192 17.1508 24.292 17.196C25.2333 17.286 26.4566 17.3511 27.7348 17.3968C30.2888 17.4882 33.0031 17.5002 33.9883 17.4873L34.8882 17.4754L34.9119 19.2753L34.0119 19.2871C32.9971 19.3004 30.2535 19.2881 27.6705 19.1957C26.3802 19.1495 25.1151 19.0829 24.1206 18.9878C23.6255 18.9405 23.1787 18.8844 22.8222 18.8162C22.6448 18.7823 22.4711 18.7419 22.3167 18.6919C22.1923 18.6515 21.9836 18.5757 21.8021 18.4277C21.2716 18.0108 20.9042 18.053 20.6454 18.1564C20.3094 18.2905 20.014 18.5994 19.8603 18.8532L19.8245 18.9123L19.7802 18.9653C19.4775 19.3264 19.0868 19.5716 18.6261 19.6304C18.1849 19.6868 17.7956 19.5572 17.5026 19.3989C16.9708 19.1115 16.5587 18.625 16.3226 18.2717C15.5564 17.3964 14.9233 17.0574 14.4627 16.9615C14.0209 16.8696 13.6271 16.9777 13.2585 17.2448C12.872 17.5248 12.5255 17.9763 12.2743 18.5091Z" fill="#898995"/>
<path d="M40.0724 38.7323C39.766 38.9706 39.2781 39.1237 38.6087 39.1918V36.1963C39.1079 36.3211 39.4937 36.4516 39.766 36.5878C40.0497 36.7239 40.2482 36.8885 40.3617 37.0814C40.4752 37.2629 40.5319 37.4955 40.5319 37.7792C40.5319 38.1649 40.3787 38.4827 40.0724 38.7323Z" fill="#898995"/>
<path d="M36.5153 31.5329C36.7762 31.4081 37.1109 31.3344 37.5194 31.3117V34.3242C37.0656 34.2107 36.7081 34.0859 36.4472 33.9497C36.1862 33.8022 35.999 33.6264 35.8855 33.4221C35.7834 33.2065 35.7323 32.9512 35.7323 32.6562C35.7323 32.4066 35.7948 32.1854 35.9196 31.9925C36.0557 31.7996 36.2543 31.6464 36.5153 31.5329Z" fill="#898995"/>
<path fill-rule="evenodd" clip-rule="evenodd" d="M37.9365 45.5198C43.4946 45.5198 48.0003 41.014 48.0003 35.4559C48.0003 29.8978 43.4946 25.3921 37.9365 25.3921C32.3784 25.3921 27.8727 29.8978 27.8727 35.4559C27.8727 41.014 32.3784 45.5198 37.9365 45.5198ZM35.6983 40.4342C36.2883 40.525 36.8954 40.5761 37.5194 40.5874V42.4085H38.6087V40.5193C39.6866 40.4059 40.5206 40.1052 41.1106 39.6173C41.7006 39.1181 41.9956 38.4713 41.9956 37.6771C41.9956 37.1097 41.8651 36.6502 41.6041 36.2985C41.3545 35.9354 40.9801 35.6347 40.4809 35.3964C39.9816 35.1468 39.3575 34.9142 38.6087 34.6986V31.2776C39.0625 31.3117 39.5051 31.3854 39.9362 31.4989C40.3787 31.601 40.7815 31.7258 41.1446 31.8733L41.6041 30.6139C41.1957 30.4437 40.7418 30.3018 40.2426 30.1884C39.7547 30.0636 39.21 29.9955 38.6087 29.9841V28.5034H37.5194V30.0012C36.8613 30.0352 36.2883 30.1714 35.8004 30.4096C35.3125 30.6366 34.9324 30.9486 34.6601 31.3457C34.3991 31.7428 34.2687 32.2194 34.2687 32.7754C34.2687 33.1838 34.3311 33.5469 34.4559 33.8646C34.592 34.171 34.7906 34.4433 35.0516 34.6816C35.3125 34.9199 35.6472 35.1354 36.0557 35.3283C36.4755 35.5099 36.9634 35.6801 37.5194 35.8389V39.2769C36.9407 39.2656 36.3507 39.1918 35.7494 39.0556C35.148 38.9195 34.6544 38.7606 34.2687 38.5791V40.0258C34.6317 40.196 35.1083 40.3321 35.6983 40.4342Z" fill="#898995"/>
</g>
<defs>
<clipPath id="clip0_19652_288285">
<rect width="48" height="48" fill="white"/>
</clipPath>
</defs>
</svg>
