<svg width="32" height="32" viewBox="0 0 32 32" fill="none" xmlns="http://www.w3.org/2000/svg">
<path fill-rule="evenodd" clip-rule="evenodd" d="M27 3H5C4.46981 3.00079 3.96156 3.21176 3.58666 3.58666C3.21176 3.96156 3.00079 4.46981 3 5V27C3.00079 27.5302 3.21176 28.0384 3.58666 28.4133C3.96156 28.7882 4.46981 28.9992 5 29H14.5V27H5V10H27V14H29V5C28.9992 4.46981 28.7882 3.96156 28.4133 3.58666C28.0384 3.21176 27.5302 3.00079 27 3ZM27 5V8H5V5H27Z" fill="#232533"/>
<path d="M11 17H8V19H11V17Z" fill="#232533"/>
<path d="M11 13H8V15H11V13Z" fill="#232533"/>
<path d="M11 21H8V23H11V21Z" fill="#232533"/>
<path fill-rule="evenodd" clip-rule="evenodd" d="M25.6064 24.1922C26.4816 23.0236 27 21.5723 27 20C27 16.134 23.866 13 20 13C16.134 13 13 16.134 13 20C13 23.866 16.134 27 20 27C21.5723 27 23.0236 26.4816 24.1922 25.6064L27.2929 28.7071C27.6834 29.0976 28.3166 29.0976 28.7071 28.7071C29.0976 28.3166 29.0976 27.6834 28.7071 27.2929L25.6064 24.1922ZM15 20C15 17.2386 17.2386 15 20 15C22.7614 15 25 17.2386 25 20C25 22.7614 22.7614 25 20 25C17.2386 25 15 22.7614 15 20Z" fill="#232533"/>
</svg>
