<svg width="32" height="32" viewBox="0 0 32 32" fill="none" xmlns="http://www.w3.org/2000/svg">
<path fill-rule="evenodd" clip-rule="evenodd" d="M10.2564 4.15385C10.0582 4.15385 9.89744 4.31456 9.89744 4.51282V10.6154H13.1282C14.516 10.6154 15.641 11.7404 15.641 13.1282V18.8718C15.641 20.2596 14.516 21.3846 13.1282 21.3846H9.89744V27.4872C9.89744 27.6854 10.0582 27.8462 10.2564 27.8462H14.5641C15.1589 27.8462 15.641 28.3283 15.641 28.9231C15.641 29.5178 15.1589 30 14.5641 30H10.2564C8.86862 30 7.74359 28.875 7.74359 27.4872V21.3846H4.51282C3.12503 21.3846 2 20.2596 2 18.8718V13.1282C2 11.7404 3.12503 10.6154 4.51282 10.6154H7.74359V4.51282C7.74359 3.12503 8.86862 2 10.2564 2H14.5641C15.1589 2 15.641 2.48215 15.641 3.07692C15.641 3.67169 15.1589 4.15385 14.5641 4.15385H10.2564ZM4.51282 12.7692C4.31456 12.7692 4.15385 12.9299 4.15385 13.1282V18.8718C4.15385 19.0701 4.31456 19.2308 4.51282 19.2308H13.1282C13.3265 19.2308 13.4872 19.0701 13.4872 18.8718V13.1282C13.4872 12.9299 13.3265 12.7692 13.1282 12.7692H4.51282ZM16.359 4.51282C16.359 3.12503 17.484 2 18.8718 2H27.4872C28.875 2 30 3.12503 30 4.51282V27.4872C30 28.875 28.875 30 27.4872 30H18.8718C17.484 30 16.359 28.875 16.359 27.4872V4.51282ZM18.5128 10.6154V14.9231H27.8462V10.6154H18.5128ZM27.8462 8.46154H18.5128V4.51282C18.5128 4.31456 18.6735 4.15385 18.8718 4.15385H27.4872C27.6854 4.15385 27.8462 4.31456 27.8462 4.51282V8.46154ZM27.8462 17.0769H18.5128V21.3846H27.8462V17.0769ZM27.8462 23.5385H18.5128V27.4872C18.5128 27.6854 18.6735 27.8462 18.8718 27.8462H27.4872C27.6854 27.8462 27.8462 27.6854 27.8462 27.4872V23.5385ZM9.04099 13.2309C9.63576 13.2309 10.1179 13.7131 10.1179 14.3078V14.8874H10.6974C11.2922 14.8874 11.7743 15.3696 11.7743 15.9643C11.7743 16.5591 11.2922 17.0412 10.6974 17.0412H10.1179V17.6206C10.1179 18.2154 9.63576 18.6975 9.04099 18.6975C8.44622 18.6975 7.96407 18.2154 7.96407 17.6206V17.0412H7.38462C6.78985 17.0412 6.30769 16.5591 6.30769 15.9643C6.30769 15.3696 6.78985 14.8874 7.38462 14.8874H7.96407V14.3078C7.96407 13.7131 8.44622 13.2309 9.04099 13.2309Z" fill="#232533"/>
</svg>
