<svg width="48" height="48" viewBox="0 0 48 48" fill="none" xmlns="http://www.w3.org/2000/svg">
<path fill-rule="evenodd" clip-rule="evenodd" d="M24.08 5.67306C20.8711 5.67306 17.8464 6.45131 15.1819 7.82866L14.4713 8.19603L13.7365 6.7747L14.4472 6.40734C17.3334 4.91534 20.6095 4.07306 24.08 4.07306C35.6808 4.07306 45.0851 13.4774 45.0851 25.0781V25.8781H43.4851V25.0781C43.4851 14.361 34.7972 5.67306 24.08 5.67306ZM7.61038 14.7799L7.21387 15.4748C5.59832 18.3058 4.67495 21.5829 4.67495 25.0781C4.67495 35.7953 13.3629 44.4832 24.08 44.4832C26.5854 44.4832 28.9781 44.0088 31.1745 43.1457L31.9191 42.8531L32.5043 44.3422L31.7597 44.6348C29.3799 45.57 26.789 46.0832 24.08 46.0832C12.4792 46.0832 3.07495 36.6789 3.07495 25.0781C3.07495 21.2975 4.07447 17.7479 5.82423 14.6817L6.22074 13.9869L7.61038 14.7799Z" fill="#898995"/>
<path fill-rule="evenodd" clip-rule="evenodd" d="M24.2877 5.25233L23.7637 5.98407C21.2381 9.5111 18.1471 16.2612 17.851 24.257H29.9783C30.2109 21.2535 29.6789 17.8697 28.7323 14.6663C27.7235 11.2526 26.2651 8.1154 24.8472 5.95372L24.3536 5.20117L25.8587 4.21392L26.3523 4.96647C27.8801 7.29569 29.4071 10.5983 30.4585 14.1562C31.4283 17.438 32.0116 20.9981 31.7832 24.257H45.0806V26.057H17.8327C17.929 31.786 19.5223 38.0554 23.7716 44.1833L24.2844 44.9229L22.8053 45.9486L22.2924 45.209C17.7984 38.7281 16.1215 32.1047 16.029 26.057H3.17319V24.257H16.0476C16.3511 15.8023 19.6291 8.66639 22.3003 4.93612L22.8242 4.20437L24.2877 5.25233Z" fill="#898995"/>
<path d="M45.3854 40.5342C45.3854 43.5969 42.9026 46.0797 39.8399 46.0797C36.7772 46.0797 34.2944 43.5969 34.2944 40.5342C34.2944 37.4715 36.7772 34.9887 39.8399 34.9887C42.9026 34.9887 45.3854 37.4715 45.3854 40.5342Z" fill="#898995"/>
<path d="M33.1762 32.9685C33.1762 34.0842 32.2718 34.9887 31.1561 34.9887C30.0404 34.9887 29.1359 34.0842 29.1359 32.9685C29.1359 31.8528 30.0404 30.9484 31.1561 30.9484C32.2718 30.9484 33.1762 31.8528 33.1762 32.9685Z" fill="#898995"/>
<path d="M13.3086 10.6939C13.3086 12.3329 11.98 13.6615 10.341 13.6615C8.70198 13.6615 7.37332 12.3329 7.37332 10.6939C7.37332 9.0549 8.70198 7.72624 10.341 7.72624C11.98 7.72624 13.3086 9.0549 13.3086 10.6939Z" fill="#898995"/>
</svg>
