<svg width="32" height="32" viewBox="0 0 32 32" fill="none" xmlns="http://www.w3.org/2000/svg">
<path fill-rule="evenodd" clip-rule="evenodd" d="M27.2866 12.7828H21.9456V13.8914C21.9456 14.3923 21.5395 14.7983 21.0386 14.7983H19.0231C18.5222 14.7983 18.1162 14.3923 18.1162 13.8914V12.7828H13.8836V13.8914C13.8836 14.3923 13.4776 14.7983 12.9767 14.7983H10.9612C10.4603 14.7983 10.0542 14.3923 10.0542 13.8914V12.7828H4.71317C3.76704 12.7828 3 12.0159 3 11.0697V3.70554C3 2.75938 3.76701 1.99237 4.71317 1.99237H27.2866C28.2329 1.99237 28.9998 2.75941 28.9998 3.70554V11.0697C28.9998 12.0159 28.2328 12.7828 27.2866 12.7828ZM27.1859 3.80632H20.9379V6.5H27.1859V3.80632ZM27.1859 8.31394H20.9379V10.9689H27.1859V8.31394ZM19.1239 10.9689V8.31394H12.8759V10.9689H19.1239ZM11.062 10.9689L11.062 8.31394H4.81394V10.9689H11.062ZM4.81394 6.5H11.062V3.80632H4.81394V6.5ZM19.1239 3.80632H12.8759V6.5H19.1239V3.80632Z" fill="#232533"/>
<path fill-rule="evenodd" clip-rule="evenodd" d="M4.71317 19.2171H6.02323V18.1086C6.02323 17.6077 6.4293 17.2016 6.9302 17.2016H8.94569C9.4466 17.2016 9.85266 17.6077 9.85266 18.1086V19.2171H14.0852V18.1086C14.0852 17.6077 14.4913 17.2016 14.9922 17.2016H17.0076C17.5086 17.2016 17.9146 17.6077 17.9146 18.1086V19.2171H22.1471V18.1086C22.1471 17.6077 22.5532 17.2016 23.0541 17.2016H25.0696C25.5705 17.2016 25.9766 17.6077 25.9766 18.1086V19.2171H27.2866C28.2329 19.2171 28.9998 19.9841 28.9998 20.9303V28.2945C28.9998 29.2407 28.2328 30.0077 27.2866 30.0077H4.71317C3.76704 30.0077 3 29.2407 3 28.2945V20.9303C3 19.9841 3.76701 19.2171 4.71317 19.2171ZM27.1859 21.0311H20.9379V23.6861H27.1859V21.0311ZM27.1859 25.5H20.9379V28.1937H27.1859V25.5ZM19.1239 28.1937V25.5H12.8759V28.1937H19.1239ZM11.062 28.1937L11.062 25.5H4.81394V28.1937H11.062ZM4.81394 23.6861H11.062V21.0311H4.81394V23.6861ZM19.1239 21.0311H12.8759V23.6861H19.1239V21.0311Z" fill="#232533"/>
</svg>
