<svg width="48" height="48" viewBox="0 0 48 48" fill="none" xmlns="http://www.w3.org/2000/svg">
<path fill-rule="evenodd" clip-rule="evenodd" d="M12.1001 23.1H24.9001V24.9H12.1001V23.1Z" fill="#898995"/>
<path d="M42.582 39H39.582V29H42.582V39ZM37.582 39H34.582V26H37.582V39ZM32.582 39H29.582V23H32.582V39ZM27.582 39H24.582V31H27.582V39Z" fill="#898995"/>
<path fill-rule="evenodd" clip-rule="evenodd" d="M12.1001 30.1H20.6257V31.9H12.1001V30.1Z" fill="#898995"/>
<path fill-rule="evenodd" clip-rule="evenodd" d="M12.1001 16.1H36.3444V17.9H12.1001V16.1Z" fill="#898995"/>
<path fill-rule="evenodd" clip-rule="evenodd" d="M6.8625 7.64906C7.97447 6.64828 9.46414 6.10001 11.0001 6.10001H16.9001V7.90001H11.0001C9.88389 7.90001 8.83002 8.29994 8.06663 8.98699C7.30637 9.67122 6.9001 10.5777 6.9001 11.5V38.5C6.9001 39.4223 7.30637 40.3288 8.06663 41.013C8.83002 41.7001 9.88389 42.1 11.0001 42.1H26.4001V43.9H11.0001C9.46414 43.9 7.97447 43.3517 6.8625 42.351C5.74739 41.3474 5.1001 39.9646 5.1001 38.5V11.5C5.1001 10.0354 5.74739 8.65266 6.8625 7.64906ZM31.1001 6.10001H36.0001C37.5361 6.10001 39.0257 6.64828 40.1377 7.64906C41.2528 8.65266 41.9001 10.0354 41.9001 11.5V19.9H40.1001V11.5C40.1001 10.5777 39.6938 9.67122 38.9336 8.98699C38.1702 8.29994 37.1163 7.90001 36.0001 7.90001H31.1001V6.10001Z" fill="#898995"/>
<path fill-rule="evenodd" clip-rule="evenodd" d="M18.056 4.77758C17.2498 5.30666 16.9001 5.93473 16.9001 6.50001C16.9001 7.06529 17.2498 7.69335 18.056 8.22244C18.8546 8.7465 20.0108 9.10001 21.3334 9.10001H26.6668C27.9894 9.10001 29.1456 8.7465 29.9442 8.22244C30.7504 7.69335 31.1001 7.06529 31.1001 6.50001C31.1001 5.93473 30.7504 5.30666 29.9442 4.77758C29.1456 4.25351 27.9894 3.90001 26.6668 3.90001H21.3334C20.0108 3.90001 18.8546 4.25351 18.056 4.77758ZM17.0684 3.27269C18.2001 2.53 19.7106 2.10001 21.3334 2.10001H26.6668C28.2896 2.10001 29.8001 2.53 30.9318 3.27269C32.0559 4.01035 32.9001 5.13229 32.9001 6.50001C32.9001 7.86772 32.0559 8.98966 30.9318 9.72732C29.8001 10.47 28.2896 10.9 26.6668 10.9H21.3334C19.7106 10.9 18.2001 10.47 17.0684 9.72732C15.9443 8.98966 15.1001 7.86772 15.1001 6.50001C15.1001 5.13229 15.9443 4.01035 17.0684 3.27269Z" fill="#898995"/>
</svg>
