<svg width="48" height="48" viewBox="0 0 48 48" fill="none" xmlns="http://www.w3.org/2000/svg">
<g clip-path="url(#clip0_19652_288282)">
<path fill-rule="evenodd" clip-rule="evenodd" d="M3.21935 47.9239L3.41342 46.9429C3.60233 46.9802 3.79836 47 4 47H5V48H4C3.73286 48 3.47183 47.9738 3.21935 47.9239ZM43 48V47H44C44.2016 47 44.3977 46.9802 44.5866 46.9429L44.7806 47.9239C44.5282 47.9738 44.2671 48 44 48H43ZM46.2225 47.3263L45.6661 46.4953C45.9937 46.276 46.276 45.9937 46.4953 45.6661L47.3263 46.2225C47.0342 46.6587 46.6587 47.0342 46.2225 47.3263ZM48 5H47V4C47 3.79836 46.9802 3.60233 46.9429 3.41342L47.9239 3.21935C47.9738 3.47183 48 3.73286 48 4V5ZM47.3263 1.77754L46.4953 2.33386C46.276 2.00627 45.9937 1.72402 45.6661 1.50471L46.2225 0.673738C46.6587 0.965771 47.0342 1.34133 47.3263 1.77754ZM5 0H4C3.73286 0 3.47183 0.0261877 3.21935 0.0761361L3.41342 1.05712C3.60233 1.01975 3.79836 1 4 1H5V0ZM1.77754 0.673738L2.33386 1.50471C2.00627 1.72402 1.72402 2.00627 1.50471 2.33386L0.673738 1.77754C0.965771 1.34133 1.34133 0.96577 1.77754 0.673738ZM0 43H1V44C1 44.2016 1.01975 44.3977 1.05712 44.5866L0.0761361 44.7806C0.0261877 44.5282 0 44.2671 0 44V43ZM1.77754 47.3263L2.33386 46.4953C2.00627 46.276 1.72402 45.9937 1.50471 45.6661L0.673738 46.2225C0.96577 46.6587 1.34133 47.0342 1.77754 47.3263ZM0 41H1V39H0V41ZM0 37H1V35H0V37ZM0 33H1V31H0V33ZM0 29H1V27H0V29ZM0 25H1V23H0V25ZM0 21H1V19H0V21ZM0 17H1V15H0V17ZM0 13H1V11H0V13ZM0 9H1V7H0V9ZM0 5H1V4C1 3.79836 1.01975 3.60233 1.05712 3.41342L0.0761362 3.21935C0.0261878 3.47183 0 3.73286 0 4V5ZM7 0V1H9V0H7ZM11 0V1H13V0H11ZM15 0V1H17V0H15ZM19 0V1H21V0H19ZM23 0V1H25V0H23ZM27 0V1H29V0H27ZM31 0V1H33V0H31ZM35 0V1H37V0H35ZM39 0V1H41V0H39ZM43 0V1H44C44.2016 1 44.3977 1.01975 44.5866 1.05712L44.7806 0.076136C44.5282 0.0261877 44.2671 0 44 0H43ZM48 7H47V9H48V7ZM48 11H47V13H48V11ZM48 15H47V17H48V15ZM48 19H47V21H48V19ZM48 23H47V25H48V23ZM48 27H47V29H48V27ZM48 31H47V33H48V31ZM48 35H47V37H48V35ZM48 39H47V41H48V39ZM48 43H47V44C47 44.2016 46.9802 44.3977 46.9429 44.5866L47.9239 44.7806C47.9738 44.5282 48 44.2671 48 44V43ZM41 48V47H39V48H41ZM37 48V47H35V48H37ZM33 48V47H31V48H33ZM29 48V47H27V48H29ZM25 48V47H23V48H25ZM21 48V47H19V48H21ZM17 48V47H15V48H17ZM13 48V47H11V48H13ZM9 48V47H7V48H9Z" fill="#898995"/>
<path fill-rule="evenodd" clip-rule="evenodd" d="M24 17.75C24.4931 17.75 24.8929 18.1497 24.8929 18.6429V23.1071H29.3571C29.8503 23.1071 30.25 23.5069 30.25 24C30.25 24.4931 29.8503 24.8929 29.3571 24.8929H24.8929V29.3571C24.8929 29.8503 24.4931 30.25 24 30.25C23.5069 30.25 23.1071 29.8503 23.1071 29.3571V24.8929H18.6429C18.1497 24.8929 17.75 24.4931 17.75 24C17.75 23.5069 18.1497 23.1071 18.6429 23.1071H23.1071V18.6429C23.1071 18.1497 23.5069 17.75 24 17.75Z" fill="#898995"/>
</g>
<defs>
<clipPath id="clip0_19652_288282">
<rect width="48" height="48" rx="4" fill="white"/>
</clipPath>
</defs>
</svg>
