<svg width="16" height="16" viewBox="0 0 16 16" fill="none" xmlns="http://www.w3.org/2000/svg">
<path fill-rule="evenodd" clip-rule="evenodd" d="M1.74023 6.59424C1.74023 6.3181 1.96409 6.09424 2.24023 6.09424H13.7615C14.0376 6.09424 14.2615 6.3181 14.2615 6.59424C14.2615 6.87038 14.0376 7.09424 13.7615 7.09424H2.24023C1.96409 7.09424 1.74023 6.87038 1.74023 6.59424Z" fill="#CED0D6"/>
<path fill-rule="evenodd" clip-rule="evenodd" d="M1.73926 9.3125C1.73926 9.03636 1.96312 8.8125 2.23926 8.8125H13.7605C14.0366 8.8125 14.2605 9.03636 14.2605 9.3125C14.2605 9.58864 14.0366 9.8125 13.7605 9.8125H2.23926C1.96312 9.8125 1.73926 9.58864 1.73926 9.3125Z" fill="#CED0D6"/>
<path fill-rule="evenodd" clip-rule="evenodd" d="M7.65338 0.686776C7.84467 0.509714 8.13989 0.509309 8.33167 0.685845L11.0565 3.19413C11.2596 3.38115 11.2727 3.69747 11.0857 3.90063C10.8987 4.1038 10.5824 4.11689 10.3792 3.92986L7.99396 1.73417L5.62285 3.92893C5.4202 4.11651 5.10385 4.10429 4.91627 3.90164C4.72869 3.69899 4.74091 3.38264 4.94356 3.19506L7.65338 0.686776Z" fill="#CED0D6"/>
<path fill-rule="evenodd" clip-rule="evenodd" d="M8.30169 15.3452C8.11041 15.5223 7.81519 15.5227 7.62341 15.3461L4.89862 12.8379C4.69545 12.6508 4.68236 12.3345 4.86939 12.1313C5.05641 11.9282 5.37272 11.9151 5.57589 12.1021L7.96111 14.2978L10.3322 12.1031C10.5349 11.9155 10.8512 11.9277 11.0388 12.1303C11.2264 12.333 11.2142 12.6493 11.0115 12.8369L8.30169 15.3452Z" fill="#CED0D6"/>
</svg>
