<svg width="32" height="32" viewBox="0 0 32 32" fill="none" xmlns="http://www.w3.org/2000/svg">
<path fill-rule="evenodd" clip-rule="evenodd" d="M20.3333 2.66667C21.0406 2.66667 21.7189 2.94762 22.219 3.44772C22.719 3.94781 23 4.62609 23 5.33333C23 6.04058 22.719 6.71886 22.219 7.21895C21.7189 7.71905 21.0406 8 20.3333 8C19.6261 8 18.9478 7.71905 18.4477 7.21895C17.9476 6.71886 17.6667 6.04058 17.6667 5.33333C17.6667 4.62609 17.9476 3.94781 18.4477 3.44772C18.9478 2.94762 19.6261 2.66667 20.3333 2.66667ZM20.3333 13.3333C21.0406 13.3333 21.7189 13.6143 22.219 14.1144C22.719 14.6145 23 15.2928 23 16C23 16.7072 22.719 17.3855 22.219 17.8856C21.7189 18.3857 21.0406 18.6667 20.3333 18.6667C19.6261 18.6667 18.9478 18.3857 18.4477 17.8856C17.9476 17.3855 17.6667 16.7072 17.6667 16C17.6667 15.2928 17.9476 14.6145 18.4477 14.1144C18.9478 13.6143 19.6261 13.3333 20.3333 13.3333ZM11.6667 24C12.3739 24 13.0522 24.281 13.5523 24.7811C14.0524 25.2811 14.3333 25.9594 14.3333 26.6667C14.3333 27.3739 14.0524 28.0522 13.5523 28.5523C13.0522 29.0524 12.3739 29.3333 11.6667 29.3333C10.9594 29.3333 10.2811 29.0524 9.78105 28.5523C9.28095 28.0522 9 27.3739 9 26.6667C9 25.9594 9.28095 25.2811 9.78105 24.7811C10.2811 24.281 10.9594 24 11.6667 24ZM20.3333 24C21.0406 24 21.7189 24.281 22.219 24.7811C22.719 25.2811 23 25.9594 23 26.6667C23 27.3739 22.719 28.0522 22.219 28.5523C21.7189 29.0524 21.0406 29.3333 20.3333 29.3333C19.6261 29.3333 18.9478 29.0524 18.4477 28.5523C17.9476 28.0522 17.6667 27.3739 17.6667 26.6667C17.6667 25.9594 17.9476 25.2811 18.4477 24.7811C18.9478 24.281 19.6261 24 20.3333 24ZM11.6667 2.66667C12.3739 2.66667 13.0522 2.94762 13.5523 3.44772C14.0524 3.94781 14.3333 4.62609 14.3333 5.33333C14.3333 6.04058 14.0524 6.71886 13.5523 7.21895C13.0522 7.71905 12.3739 8 11.6667 8C10.9594 8 10.2811 7.71905 9.78105 7.21895C9.28095 6.71886 9 6.04058 9 5.33333C9 4.62609 9.28095 3.94781 9.78105 3.44772C10.2811 2.94762 10.9594 2.66667 11.6667 2.66667ZM11.6667 13.3333C12.3739 13.3333 13.0522 13.6143 13.5523 14.1144C14.0524 14.6145 14.3333 15.2928 14.3333 16C14.3333 16.7072 14.0524 17.3855 13.5523 17.8856C13.0522 18.3857 12.3739 18.6667 11.6667 18.6667C10.9594 18.6667 10.2811 18.3857 9.78105 17.8856C9.28095 17.3855 9 16.7072 9 16C9 15.2928 9.28095 14.6145 9.78105 14.1144C10.2811 13.6143 10.9594 13.3333 11.6667 13.3333Z" fill="#C2C2C6"/>
</svg>
