<svg width="32" height="32" viewBox="0 0 32 32" fill="none" xmlns="http://www.w3.org/2000/svg">
<path fill-rule="evenodd" clip-rule="evenodd" d="M3 5.33333C3 4.04467 4.04467 3 5.33333 3H26.6667C27.9553 3 29 4.04467 29 5.33333V26.6667C29 27.9553 27.9553 29 26.6667 29H5.33333C4.04467 29 3 27.9553 3 26.6667V5.33333ZM5 10.6667V26.6667C5 26.8508 5.14924 27 5.33333 27H9.33333L9.33333 10.6667H5ZM9.33333 8.66667H5V5.33333C5 5.14924 5.14924 5 5.33333 5H9.33333V8.66667ZM11.3333 10.6667L11.3333 27H26.6667C26.8508 27 27 26.8508 27 26.6667V10.6667H11.3333ZM27 8.66667H11.3333V5H26.6667C26.8508 5 27 5.14924 27 5.33333V8.66667ZM21.5151 12.6262C21.9056 12.2357 22.5388 12.2357 22.9293 12.6262L24.7071 14.404C25.0976 14.7945 25.0976 15.4277 24.7071 15.8182C24.3166 16.2087 23.6834 16.2087 23.2929 15.8182L23.2222 15.7475V19.5556C23.2222 21.5806 21.5806 23.2222 19.5556 23.2222L15.7476 23.2221L15.8182 23.2926C16.2087 23.6832 16.2087 24.3163 15.8182 24.7069C15.4277 25.0974 14.7945 25.0974 14.404 24.7069L12.6262 22.9291C12.2357 22.5386 12.2357 21.9054 12.6262 21.5149L14.404 19.7371C14.7945 19.3466 15.4277 19.3466 15.8182 19.7371C16.2087 20.1276 16.2087 20.7608 15.8182 21.1513L15.7474 21.2221L19.5556 21.2222C20.476 21.2222 21.2222 20.476 21.2222 19.5556V15.7475L21.1516 15.8182C20.761 16.2087 20.1279 16.2087 19.7373 15.8182C19.3468 15.4277 19.3468 14.7945 19.7373 14.404L21.5151 12.6262Z" fill="#232533"/>
</svg>
