<svg width="42" height="44" viewBox="0 0 42 44" fill="none" xmlns="http://www.w3.org/2000/svg">
<path fill-rule="evenodd" clip-rule="evenodd" d="M1.7624 5.54905C2.87437 4.54828 4.36404 4 5.9 4H11.8V5.8H5.9C4.7838 5.8 3.72992 6.19994 2.96653 6.88698C2.20628 7.57122 1.8 8.47765 1.8 9.4V36.4C1.8 37.3223 2.20628 38.2288 2.96653 38.913C3.72992 39.6001 4.7838 40 5.9 40H21.3V41.8H5.9C4.36404 41.8 2.87437 41.2517 1.7624 40.2509C0.647293 39.2474 0 37.8646 0 36.4V9.4C0 7.9354 0.647293 6.55265 1.7624 5.54905ZM26 4H30.9C32.436 4 33.9256 4.54828 35.0376 5.54905C36.1527 6.55265 36.8 7.9354 36.8 9.4V10.4H35V9.4C35 8.47765 34.5937 7.57122 33.8335 6.88698C33.0701 6.19993 32.0162 5.8 30.9 5.8H26V4Z" fill="#232533"/>
<path fill-rule="evenodd" clip-rule="evenodd" d="M12.9559 2.67757C12.1497 3.20666 11.8 3.83472 11.8 4.4C11.8 4.96528 12.1497 5.59334 12.9559 6.12243C13.7545 6.6465 14.9107 7 16.2333 7H21.5667C22.8893 7 24.0455 6.6465 24.8441 6.12243C25.6503 5.59334 26 4.96528 26 4.4C26 3.83472 25.6503 3.20666 24.8441 2.67757C24.0455 2.1535 22.8893 1.8 21.5667 1.8H16.2333C14.9107 1.8 13.7545 2.1535 12.9559 2.67757ZM11.9683 1.17268C13.1 0.429998 14.6105 0 16.2333 0H21.5667C23.1895 0 24.7 0.429999 25.8317 1.17268C26.9558 1.91035 27.8 3.03228 27.8 4.4C27.8 5.76772 26.9558 6.88965 25.8317 7.62732C24.7 8.37 23.1895 8.8 21.5667 8.8H16.2333C14.6105 8.8 13.1 8.37 11.9683 7.62732C10.8442 6.88965 10 5.76772 10 4.4C10 3.03228 10.8442 1.91035 11.9683 1.17268Z" fill="#232533"/>
<path fill-rule="evenodd" clip-rule="evenodd" d="M9.48291 35.7825V23.1828H11.2V35.7825H9.48291Z" fill="#232533"/>
<path fill-rule="evenodd" clip-rule="evenodd" d="M13.4829 35.7825V26.1828H15.2V35.7825H13.4829Z" fill="#232533"/>
<path fill-rule="evenodd" clip-rule="evenodd" d="M17.4829 35.7825V28.1828H19.2V35.7825H17.4829Z" fill="#232533"/>
<path fill-rule="evenodd" clip-rule="evenodd" d="M5.48291 35.7825V29.1828H7.20002V35.7825H5.48291Z" fill="#232533"/>
<path fill-rule="evenodd" clip-rule="evenodd" d="M10.3999 18.13C12.4591 18.13 13.63 16.9593 13.63 14.9C13.63 12.8408 12.4591 11.67 10.3999 11.67C8.34067 11.67 7.17 12.8408 7.17 14.9C7.17 16.9593 8.34067 18.13 10.3999 18.13ZM10.3999 19.4C12.8852 19.4 14.8999 17.3853 14.8999 14.9C14.8999 12.4147 12.8852 10.4 10.3999 10.4C7.91462 10.4 5.8999 12.4147 5.8999 14.9C5.8999 17.3853 7.91462 19.4 10.3999 19.4Z" fill="#232533"/>
<path d="M10.6142 14.2572V10.8303C11.7366 10.7857 14.0795 11.5801 14.4713 15.1143H11.4713C10.9979 15.1143 10.6142 14.7306 10.6142 14.2572Z" fill="#232533"/>
<path fill-rule="evenodd" clip-rule="evenodd" d="M10.9999 11.2342V14.2572C10.9999 14.5175 11.211 14.7286 11.4713 14.7286H14.0284C13.7881 13.3059 13.1987 12.4417 12.5723 11.9287C12.036 11.4893 11.455 11.2928 10.9999 11.2342ZM13.0611 11.3319C13.9242 12.0388 14.6492 13.2183 14.8547 15.0718C14.8668 15.1808 14.8319 15.2899 14.7587 15.3716C14.6855 15.4533 14.581 15.5 14.4713 15.5H11.4713C10.7849 15.5 10.2285 14.9436 10.2285 14.2572V10.8303C10.2285 10.6233 10.392 10.4532 10.5989 10.4449C11.2477 10.4191 12.2081 10.6332 13.0611 11.3319Z" fill="#232533"/>
<path fill-rule="evenodd" clip-rule="evenodd" d="M42 20C42 15.2036 36.5 12.5 33 12.5C26.5 12.5 24 17.7095 24 21V36C24 39 27 43.5 33 43.5C38.6 43.5 42 39 42 35.5V20ZM36.5586 17.5L35.8379 18.2293C34.903 19.1772 34.0942 20.035 33.2902 20.8878C32.7288 21.4832 32.1697 22.0762 31.5717 22.6956L30.0932 21.4302L29.3142 20.7653L28 22.3364L28.7791 23.0013L30.9836 24.8888L31.699 25.5L32.3615 24.8298C33.2817 23.8966 34.0679 23.0587 34.8496 22.2257C35.6223 21.4022 36.3905 20.5835 37.2793 19.6823L38 18.953L36.5586 17.5ZM30.4142 30.5L29 31.9142L31.791 34.7051L28.9998 37.4963L30.414 38.9105L33.2052 36.1194L35.9963 38.9105L37.4105 37.4963L34.6194 34.7051L37.4103 31.9142L35.9961 30.5L33.2052 33.2909L30.4142 30.5Z" fill="#232533"/>
</svg>
