<svg width="32" height="32" viewBox="0 0 32 32" fill="none" xmlns="http://www.w3.org/2000/svg">
<path d="M28.8571 12.5V7.14286C28.8565 6.57474 28.6305 6.03007 28.2288 5.62835C27.8271 5.22663 27.2824 5.00065 26.7143 5H23.5V7.14286H26.7143V12.5C26.7163 13.1106 26.8496 13.7137 27.1052 14.2682C27.3607 14.8228 27.7325 15.316 28.1953 15.7143C27.7325 16.1126 27.3607 16.6058 27.1052 17.1603C26.8496 17.7149 26.7163 18.318 26.7143 18.9286V24.2857H23.5V26.4286H26.7143C27.2824 26.4279 27.8271 26.2019 28.2288 25.8002C28.6305 25.3985 28.8565 24.8538 28.8571 24.2857V18.9286C28.8578 18.3604 29.0838 17.8158 29.4855 17.4141C29.8872 17.0123 30.4319 16.7864 31 16.7857V14.6429C30.4319 14.6422 29.8872 14.4162 29.4855 14.0145C29.0838 13.6128 28.8578 13.0681 28.8571 12.5Z" fill="#232533"/>
<path d="M5.28571 12.5V7.14286H8.5V5H5.28571C4.71759 5.00065 4.17293 5.22663 3.77121 5.62835C3.36948 6.03007 3.14351 6.57474 3.14286 7.14286V12.5C3.1422 13.0681 2.91623 13.6128 2.51451 14.0145C2.11279 14.4162 1.56812 14.6422 1 14.6429V16.7857C1.56812 16.7864 2.11279 17.0123 2.51451 17.4141C2.91623 17.8158 3.1422 18.3604 3.14286 18.9286V24.2857C3.14351 24.8538 3.36948 25.3985 3.77121 25.8002C4.17293 26.2019 4.71759 26.4279 5.28571 26.4286H8.5V24.2857H5.28571V18.9286C5.28366 18.318 5.15035 17.7149 4.89482 17.1603C4.63929 16.6058 4.26751 16.1126 3.80468 15.7143C4.26751 15.316 4.63929 14.8228 4.89482 14.2682C5.15035 13.7137 5.28366 13.1106 5.28571 12.5Z" fill="#232533"/>
<path d="M9.57143 20.1785V22.1429H15.1598V20.1785H13.9092L16.0195 17.7624L18.0908 20.1785H16.8402V22.1429H22.4286V20.1785H20.6896L17.3191 16.2697L20.6896 12.3215H22.4286V10.3571H16.8402V12.3215H18.0908L16.0588 14.7865L13.9289 12.3215H15.1598V10.3571H9.62038V12.3215H11.33L14.7202 16.2697L11.33 20.1785H9.57143Z" fill="#232533"/>
</svg>
