<svg width="16" height="16" viewBox="0 0 16 16" fill="none" xmlns="http://www.w3.org/2000/svg">
<path fill-rule="evenodd" clip-rule="evenodd" d="M11.3121 1.15231L13.6075 3.44769C13.705 3.5452 13.7598 3.67746 13.7598 3.81537V6.90119C13.1617 6.74485 12.4988 6.90103 12.0301 7.36974L10.0798 9.32H3.87978C3.74187 9.32 3.60961 9.37478 3.51209 9.4723C3.41457 9.56982 3.35978 9.70209 3.35978 9.84V12.96H7V14H1.79979C1.66187 14 1.52961 13.9452 1.43209 13.8477C1.33457 13.7502 1.27979 13.6179 1.27979 13.48V1.52C1.27979 1.38209 1.33457 1.24982 1.43209 1.1523C1.52961 1.05479 1.66187 1 1.79979 1H10.9444C11.0823 1 11.2146 1.05479 11.3121 1.15231ZM12.7537 14H13.2398C13.3777 14 13.51 13.9452 13.6075 13.8477C13.705 13.7502 13.7598 13.6179 13.7598 13.48V12.9939L12.7537 14ZM8.03978 2.04H3.35978V4.12C3.35978 4.25791 3.41457 4.39018 3.51209 4.4877C3.60961 4.58521 3.74187 4.64 3.87978 4.64H7.51978C7.6577 4.64 7.78996 4.58521 7.88748 4.4877C7.985 4.39018 8.03978 4.25791 8.03978 4.12V2.04ZM14.7064 10.4797C14.7995 10.3867 14.8733 10.2764 14.9237 10.1549C14.9741 10.0333 15 9.9031 15 9.77156C15 9.64003 14.9741 9.50978 14.9237 9.38828C14.8733 9.26677 14.7995 9.15638 14.7064 9.06343L13.9357 8.2923C13.7477 8.10495 13.493 7.99976 13.2276 7.99976C12.9621 7.99976 12.7075 8.10495 12.5194 8.2923L12.0254 8.78635L14.2128 10.9733L14.7064 10.4797ZM8 14.5863V12.9807C8.00078 12.8725 8.04412 12.769 8.12063 12.6925L11.4406 9.37003L13.6289 11.557L10.3084 14.8774C10.2312 14.9546 10.1265 14.998 10.0174 14.9981H8.41171C8.30252 14.9981 8.1978 14.9547 8.12059 14.8775C8.04338 14.8003 8 14.6955 8 14.5863Z" fill="#232533"/>
</svg>
