<svg width="24" height="24" viewBox="0 0 24 24" fill="none" xmlns="http://www.w3.org/2000/svg">
<path d="M13.6328 17.625H14.3047C14.4166 17.625 14.5239 17.5806 14.603 17.5014C14.6821 17.4223 14.7266 17.315 14.7266 17.2031V9.60938C14.7266 9.49749 14.6821 9.39018 14.603 9.31106C14.5239 9.23195 14.4166 9.1875 14.3047 9.1875H13.6328C13.5209 9.1875 13.4136 9.23195 13.3345 9.31106C13.2554 9.39018 13.2109 9.49749 13.2109 9.60938V17.2031C13.2109 17.315 13.2554 17.4223 13.3345 17.5014C13.4136 17.5806 13.5209 17.625 13.6328 17.625ZM19.3125 5.8125H16.4153L15.22 3.81914C15.07 3.56919 14.8578 3.36235 14.604 3.2188C14.3503 3.07524 14.0637 2.99986 13.7722 3H10.2278C9.93638 2.99998 9.64995 3.07542 9.39636 3.21897C9.14278 3.36252 8.93069 3.56929 8.78074 3.81914L7.58473 5.8125H4.6875C4.53832 5.8125 4.39524 5.87176 4.28975 5.97725C4.18426 6.08274 4.125 6.22582 4.125 6.375V6.76563C4.125 6.91481 4.18426 7.05788 4.28975 7.16337C4.39524 7.26886 4.53832 7.32812 4.6875 7.32812H5.25V19.3125C5.25 19.7601 5.42779 20.1893 5.74426 20.5057C6.06072 20.8222 6.48995 21 6.9375 21H17.0625C17.5101 21 17.9393 20.8222 18.2557 20.5057C18.5722 20.1893 18.75 19.7601 18.75 19.3125V7.32812H19.3125C19.4617 7.32812 19.6048 7.26886 19.7102 7.16337C19.8157 7.05788 19.875 6.91481 19.875 6.76563V6.375C19.875 6.22582 19.8157 6.08274 19.7102 5.97725C19.6048 5.87176 19.4617 5.8125 19.3125 5.8125ZM9.83203 4.6023C9.85083 4.57101 9.87743 4.54514 9.90923 4.5272C9.94103 4.50927 9.97693 4.4999 10.0134 4.5H13.9361C13.9726 4.49996 14.0084 4.50936 14.0401 4.52729C14.0719 4.54522 14.0984 4.57106 14.1172 4.6023L14.8594 5.8125H9.17188L9.83203 4.6023ZM17.2656 19.5H6.75V7.32812H17.2656V19.5ZM9.70312 17.625H10.3594C10.4713 17.625 10.5786 17.5806 10.6577 17.5014C10.7368 17.4223 10.7812 17.315 10.7812 17.2031V9.60938C10.7812 9.49749 10.7368 9.39018 10.6577 9.31106C10.5786 9.23195 10.4713 9.1875 10.3594 9.1875H9.70312C9.59124 9.1875 9.48393 9.23195 9.40481 9.31106C9.3257 9.39018 9.28125 9.49749 9.28125 9.60938V17.2031C9.28125 17.315 9.3257 17.4223 9.40481 17.5014C9.48393 17.5806 9.59124 17.625 9.70312 17.625Z" fill="#232533"/>
</svg>
