<?xml version="1.0" encoding="utf-8"?>
<!-- Generator: Adobe Illustrator 24.0.0, SVG Export Plug-In . SVG Version: 6.00 Build 0)  -->
<svg version="1.1" id="Layer_1" xmlns="http://www.w3.org/2000/svg" xmlns:xlink="http://www.w3.org/1999/xlink" x="0px" y="0px"
	 viewBox="0 0 16 16" style="enable-background:new 0 0 16 16;" xml:space="preserve">
<style type="text/css">
	.st0{fill-rule:evenodd;clip-rule:evenodd;}
</style>
<g>
	<path class="st0" d="M3.3,4.5c-0.2,0-0.4,0.1-0.6,0.2S2.5,5.1,2.5,5.3v7.3c0,0.2,0.1,0.4,0.2,0.6c0.2,0.2,0.4,0.2,0.6,0.2h7.3
		c0.2,0,0.4-0.1,0.6-0.2c0.2-0.2,0.2-0.4,0.2-0.6v-4c0-0.3,0.2-0.5,0.5-0.5s0.5,0.2,0.5,0.5v4c0,0.5-0.2,1-0.5,1.3s-0.8,0.5-1.3,0.5
		H3.3c-0.5,0-1-0.2-1.3-0.5s-0.5-0.8-0.5-1.3V5.3c0-0.5,0.2-1,0.5-1.3s0.8-0.5,1.3-0.5h4c0.3,0,0.5,0.2,0.5,0.5S7.6,4.5,7.3,4.5H3.3
		z"/>
	<path class="st0" d="M14,1.5h-4C9.7,1.5,9.5,1.7,9.5,2S9.7,2.5,10,2.5h2.8L6.3,9c-0.2,0.2-0.2,0.5,0,0.7s0.5,0.2,0.7,0l6.5-6.5V6
		c0,0.3,0.2,0.5,0.5,0.5s0.5-0.2,0.5-0.5V2C14.5,1.7,14.3,1.5,14,1.5z"/>
</g>
</svg>
