<svg width="16" height="16" viewBox="0 0 16 16" fill="none" xmlns="http://www.w3.org/2000/svg">
<path d="M9.1485 9.00945C9.13606 9.21452 8.95012 9.375 8.72491 9.375H7.25801C7.03242 9.375 6.8463 9.21399 6.83437 9.00854L6.45061 2.39963C6.43775 2.17821 6.63112 1.99225 6.87425 1.99225H9.12575C9.36928 1.99225 9.56279 2.17879 9.54934 2.40054L9.1485 9.00945Z" fill="#232533"/>
<path d="M9.54995 12.3313C9.54995 13.1873 8.85599 13.8813 7.99995 13.8813C7.14391 13.8813 6.44995 13.1873 6.44995 12.3313C6.44995 11.4752 7.14391 10.7812 7.99995 10.7812C8.85599 10.7812 9.54995 11.4752 9.54995 12.3313Z" fill="#232533"/>
</svg>
