<svg width="24" height="24" viewBox="0 0 24 24" fill="none" xmlns="http://www.w3.org/2000/svg">
<path fill-rule="evenodd" clip-rule="evenodd" d="M20.2336 7.29C20.2436 7.67 20.1036 8.04 19.8436 8.32H19.8336L13.2636 14.91C13.0236 15.15 12.7036 15.31 12.3636 15.34L9.48361 15.6H9.42361C9.31361 15.6 9.21361 15.58 9.11361 15.54C9.01361 15.5 8.92361 15.44 8.85361 15.37C8.76361 15.29 8.70361 15.19 8.66361 15.08C8.62361 14.97 8.61361 14.85 8.62361 14.73L8.92361 11.85C8.96361 11.51 9.11361 11.19 9.35361 10.95L15.9236 4.35C16.2036 4.12 16.5536 4 16.9236 4C17.2936 4 17.6336 4.15 17.9036 4.4L19.8136 6.31C20.0736 6.57 20.2336 6.92 20.2336 7.29ZM10.1736 14.08L12.2136 13.85L16.2236 9.82L14.4536 8.01L10.4236 12L10.1736 14.08ZM16.8036 5.69L15.6836 6.79L17.4636 8.58L18.5736 7.45L16.8036 5.69Z" fill="#232533"/>
<path d="M8.17857 5.5L7.12109 5.5C6.72573 5.49999 6.38466 5.49998 6.10373 5.52293C5.80722 5.54715 5.51231 5.60064 5.22852 5.74524C4.80516 5.96095 4.46095 6.30516 4.24524 6.72852C4.10064 7.01231 4.04715 7.30722 4.02293 7.60373C3.99998 7.88465 3.99999 8.22571 4 8.62106V16.8789C3.99999 17.2743 3.99998 17.6154 4.02293 17.8963C4.04715 18.1928 4.10064 18.4877 4.24524 18.7715C4.46095 19.1948 4.80516 19.5391 5.22852 19.7548C5.51231 19.8994 5.80722 19.9528 6.10373 19.9771C6.38466 20 6.72572 20 7.12108 20H15.3789C15.7743 20 16.1153 20 16.3963 19.9771C16.6928 19.9528 16.9877 19.8994 17.2715 19.7548C17.6948 19.5391 18.0391 19.1948 18.2548 18.7715C18.3994 18.4877 18.4528 18.1928 18.4771 17.8963C18.5 17.6153 18.5 17.2743 18.5 16.8789V15.8214C18.5 15.4072 18.1642 15.0714 17.75 15.0714C17.3358 15.0714 17 15.4072 17 15.8214V16.85C17 17.2824 16.9994 17.5616 16.9821 17.7741C16.9654 17.9779 16.9372 18.0534 16.9183 18.0905C16.8464 18.2316 16.7316 18.3464 16.5905 18.4183C16.5534 18.4372 16.4779 18.4654 16.2741 18.4821C16.0616 18.4994 15.7824 18.5 15.35 18.5H7.15C6.71759 18.5 6.43838 18.4994 6.22588 18.4821C6.02213 18.4654 5.94659 18.4372 5.90951 18.4183C5.76839 18.3464 5.65365 18.2316 5.58175 18.0905C5.56285 18.0534 5.53459 17.9779 5.51795 17.7741C5.50059 17.5616 5.5 17.2824 5.5 16.85V8.65C5.5 8.21759 5.50059 7.93838 5.51795 7.72588C5.53459 7.52213 5.56285 7.44659 5.58175 7.40951C5.65365 7.26839 5.76839 7.15365 5.90951 7.08175C5.94659 7.06285 6.02213 7.03459 6.22588 7.01795C6.43838 7.00058 6.71759 7 7.15 7H8.17857C8.59279 7 8.92857 6.66421 8.92857 6.25C8.92857 5.83579 8.59279 5.5 8.17857 5.5Z" fill="#232533"/>
</svg>
