<svg width="16" height="16" viewBox="0 0 16 16" fill="none" xmlns="http://www.w3.org/2000/svg">
<path fill-rule="evenodd" clip-rule="evenodd" d="M15.1205 8.00044C15.1205 11.9332 11.9324 15.1214 7.99959 15.1214C4.06681 15.1214 0.878662 11.9332 0.878662 8.00044C0.878662 4.06766 4.06681 0.879517 7.99959 0.879517C11.9324 0.879517 15.1205 4.06766 15.1205 8.00044ZM8.52876 8.68404C8.73309 8.68404 8.90181 8.5244 8.91309 8.32038L9.27679 4.92414C9.28899 4.70353 9.1134 4.51795 8.89245 4.51795H7.10688C6.88629 4.51795 6.71083 4.70296 6.7225 4.92323L7.0707 8.31948C7.08152 8.52387 7.25041 8.68404 7.45508 8.68404H8.52876ZM8.00148 12.1152C8.66514 12.1152 9.20314 11.5772 9.20314 10.9136C9.20314 10.2499 8.66514 9.71192 8.00148 9.71192C7.33783 9.71192 6.79983 10.2499 6.79983 10.9136C6.79983 11.5772 7.33783 12.1152 8.00148 12.1152Z" fill="#232533"/>
</svg>
