<svg width="24" height="24" viewBox="0 0 24 24" fill="none" xmlns="http://www.w3.org/2000/svg">
<path fill-rule="evenodd" clip-rule="evenodd" d="M16.0522 3.75C15.7137 3.75 15.389 3.88428 15.1492 4.12335L4.74179 14.5341L3.78007 18.6919L3.77941 18.6949C3.73887 18.8807 3.74026 19.0732 3.78348 19.2583C3.82671 19.4435 3.91068 19.6167 4.0293 19.7652C4.14792 19.9137 4.29819 20.0339 4.46916 20.1168C4.63657 20.1981 4.81967 20.2416 5.0056 20.2445C5.08962 20.2522 5.17419 20.2518 5.25815 20.2433L5.2737 20.2418L9.48466 19.2749L19.8775 8.87375C20.1161 8.63349 20.25 8.30844 20.25 7.9697C20.25 7.63097 20.1161 7.30592 19.8775 7.06566L16.9562 4.12425L16.9553 4.12335C16.7154 3.88428 16.3908 3.75 16.0522 3.75ZM17.2744 9.3437L14.6442 6.7089L16.0204 5.33827L18.6088 7.97527L17.2744 9.3437ZM5.32616 18.6374L6.10232 15.29L13.6233 7.7848L16.256 10.4221L8.73696 17.9206L5.32616 18.6374Z" fill="#222532"/>
</svg>
