<svg width="24" height="24" viewBox="0 0 24 24" fill="none" xmlns="http://www.w3.org/2000/svg">
<path fill-rule="evenodd" clip-rule="evenodd" d="M21.2482 6.69828C21.2594 7.12544 21.1021 7.54136 20.8098 7.85611H20.7985L13.4132 15.2639C13.1434 15.5337 12.7837 15.7136 12.4015 15.7473L9.16412 16.0395H9.09668C8.97303 16.0395 8.86061 16.0171 8.74821 15.9721C8.6358 15.9271 8.53463 15.8597 8.45594 15.781C8.35477 15.6911 8.28732 15.5787 8.24236 15.455C8.1974 15.3314 8.18616 15.1965 8.1974 15.0616L8.53463 11.8242C8.57959 11.442 8.74821 11.0823 9.01799 10.8125L16.4033 3.39343C16.7181 3.13489 17.1115 3 17.5274 3C17.9433 3 18.3255 3.16861 18.629 3.44964L20.7761 5.59667C21.0683 5.88893 21.2482 6.28237 21.2482 6.69828ZM9.65625 14.6094L12.3493 14.1888L17.1875 9.32812L14.9444 7.04002L10.0837 11.8557L9.65625 14.6094ZM17.5069 4.50295L16.0073 5.98828L18.2617 8.25391L19.75 6.73485L17.5069 4.50295Z" fill="#232533"/>
<path d="M8.45594 4.68615L7.26723 4.68615C6.8228 4.68613 5.77434 4.68612 5.45855 4.71192C5.12525 4.73915 4.79373 4.79928 4.47473 4.96182C3.99883 5.2043 3.61191 5.59122 3.36942 6.06713C3.20688 6.38613 3.14676 6.71764 3.11952 7.05095C3.09372 7.36673 3.09374 7.75012 3.09375 8.19452V17.4772C3.09374 17.9216 3.09372 18.305 3.11952 18.6208C3.14676 18.9541 3.20688 19.2856 3.36942 19.6046C3.61191 20.0805 3.99883 20.4674 4.47473 20.7099C4.79373 20.8724 5.12525 20.9326 5.45855 20.9598C5.77434 20.9856 6.15773 20.9856 6.60215 20.9856H15.8848C16.3292 20.9856 16.7126 20.9856 17.0284 20.9598C17.3617 20.9326 17.6932 20.8724 18.0122 20.7099C18.4881 20.4674 18.875 20.0805 19.1175 19.6046C19.2801 19.2856 19.3402 18.9541 19.3674 18.6208C19.3932 18.305 19.3932 17.5082 19.3932 17.0638V15.875C19.3932 15.4094 19.0984 15.0475 18.6328 15.0475C18.1672 15.0475 17.8984 15.4094 17.8984 15.875V17.0312C17.8984 17.5173 17.8978 18.4061 17.8783 18.645C17.8596 18.874 17.8278 18.9589 17.8065 19.0006C17.7257 19.1592 17.5967 19.2882 17.4381 19.369C17.3964 19.3903 17.3115 19.4221 17.0825 19.4408C16.8436 19.4603 16.5298 19.4609 16.0437 19.4609L6.45178 19.4989C5.9657 19.4989 5.65185 19.4983 5.41297 19.4788C5.18394 19.4601 5.09903 19.4283 5.05734 19.4071C4.89871 19.3262 4.76973 19.1972 4.6889 19.0386C4.66767 18.9969 4.6359 18.912 4.61719 18.683C4.59767 18.4441 4.59702 18.1303 4.59702 17.6442V8.05683C4.59702 7.57075 4.59767 7.2569 4.61719 7.01802C4.6359 6.78899 4.66767 6.70408 4.6889 6.66239C4.76973 6.50376 4.89871 6.37478 5.05734 6.29396C5.09903 6.27272 5.18394 6.21793 5.41297 6.19922C5.65185 6.1797 6.81365 6.16406 7.29972 6.16406H8.45594C8.92156 6.16406 9.29901 5.89921 9.29901 5.43359C9.29901 4.96798 8.92156 4.68615 8.45594 4.68615Z" fill="#232533"/>
</svg>
