<svg width="14" height="14" viewBox="0 0 14 14" fill="none" xmlns="http://www.w3.org/2000/svg">
<path fill-rule="evenodd" clip-rule="evenodd" d="M13.2302 7.00034C13.2302 10.4415 10.4405 13.2312 6.99936 13.2312C3.55818 13.2312 0.768555 10.4415 0.768555 7.00034C0.768555 3.55916 3.55818 0.769531 6.99936 0.769531C10.4405 0.769531 13.2302 3.55916 13.2302 7.00034ZM6.02119 9.25732C6.02119 8.69291 6.45919 8.23535 6.99949 8.23535C7.53979 8.23535 7.97779 8.69291 7.97779 9.25732C7.97779 9.82174 7.53979 10.2793 6.99949 10.2793C6.45919 10.2793 6.02119 9.82174 6.02119 9.25732ZM6.22844 7.58338L6.07068 4.56189C6.0627 4.40917 6.17908 4.28076 6.32548 4.28076H7.67347C7.81988 4.28076 7.93627 4.40917 7.9283 4.56189L7.77054 7.58338C7.76316 7.72476 7.65125 7.83545 7.51571 7.83545H6.48327C6.34773 7.83545 6.23582 7.72476 6.22844 7.58338Z" fill="#FF6A6A"/>
</svg>
