<svg width="16" height="16" viewBox="0 0 16 16" fill="none" xmlns="http://www.w3.org/2000/svg">
<path d="M13.5159 7.61469C13.8454 7.61121 14.1117 7.34494 14.1151 7.01543L14.2365 2.19735C14.2391 1.95051 14.0383 1.74974 13.7915 1.75234L8.9595 1.92914C8.62999 1.93262 8.36372 2.19889 8.36024 2.5284C8.35666 2.86789 8.63279 3.14402 8.97228 3.14043L12.1602 2.98098L5.87433 9.38234C5.64039 9.61644 5.64045 9.99584 5.87447 10.2299C6.1086 10.464 6.48823 10.4639 6.72228 10.2297L13.0078 3.82864L12.9038 7.00265C12.9003 7.34214 13.1764 7.61827 13.5159 7.61469Z" fill="#232533"/>
<path fill-rule="evenodd" clip-rule="evenodd" d="M3.30604 5.18497C3.14825 5.18497 3.02033 5.31288 3.02033 5.47068V12.7049C3.02033 12.8627 3.14824 12.9906 3.30604 12.9906H10.5402C10.698 12.9906 10.826 12.8627 10.826 12.7049V9.51022C10.826 9.16307 11.1074 8.88165 11.4545 8.88165C11.8017 8.88165 12.0831 9.16307 12.0831 9.51022V12.7049C12.0831 13.557 11.3923 14.2477 10.5402 14.2477H3.30604C2.45394 14.2477 1.76318 13.557 1.76318 12.7049V5.47068C1.76318 4.61858 2.45394 3.92782 3.30604 3.92782H6.4662C6.81335 3.92782 7.09477 4.20924 7.09477 4.55639C7.09477 4.90354 6.81335 5.18497 6.4662 5.18497H3.30604Z" fill="#232533"/>
</svg>
