<svg width="24" height="24" viewBox="0 0 24 24" fill="none" xmlns="http://www.w3.org/2000/svg">
<path d="M20.3829 6.71778L17.2793 3.61419C16.8742 3.23372 16.3434 3.0154 15.7879 3.00078C15.2323 2.98617 14.6908 3.17626 14.2663 3.53491L4.07203 13.7292C3.7059 14.0984 3.47793 14.5823 3.42639 15.0997L2.93933 19.8231C2.92407 19.989 2.9456 20.1562 3.00238 20.3128C3.05916 20.4695 3.14979 20.6116 3.26781 20.7292C3.37365 20.8342 3.49917 20.9173 3.63718 20.9736C3.77518 21.03 3.92296 21.0586 4.07203 21.0577H4.17397L8.89731 20.6273C9.41472 20.5758 9.89866 20.3478 10.2679 19.9817L20.4621 9.78739C20.8578 9.36939 21.0716 8.81158 21.0568 8.2362C21.0419 7.66082 20.7996 7.1148 20.3829 6.71778ZM9.09464 19.0711L4.42188 19.7031L5.01126 14.8775L11.7129 8.2362L15.7879 12.3303L9.09464 19.0711ZM16.8707 11.2809L12.8014 7.1811L15.7461 4.28516L19.8248 8.3092L16.8707 11.2809Z" fill="#232533"/>
</svg>
