<svg width="25" height="24" viewBox="0 0 25 24" fill="none" xmlns="http://www.w3.org/2000/svg">
<path d="M15.9287 7.31689H18.9021V8.57835H15.9287V7.31689Z" fill="#222532"/>
<path d="M18.9021 9.38647H15.9287V10.738H18.9021V9.38647Z" fill="#222532"/>
<path d="M15.9287 11.6411H18.9021V12.9026H15.9287V11.6411Z" fill="#222532"/>
<path d="M18.9021 13.7104H15.9287V14.9719H18.9021V13.7104Z" fill="#222532"/>
<path d="M18.9021 15.875H15.9287V17.1365H18.9021V15.875Z" fill="#222532"/>
<path fill-rule="evenodd" clip-rule="evenodd" d="M13.7693 19.299V19.9277C13.7693 20.4683 13.2286 20.9188 12.688 20.8287L3.76771 19.2969C3.31719 19.2068 3.04688 18.8464 3.04688 18.3959V5.60109C3.04688 5.15057 3.31719 4.79015 3.76771 4.70005L12.688 3.16828C13.2286 3.07817 13.7693 3.52869 13.7693 4.06932V5.0625H20.1611C20.6116 5.0625 21.0621 5.42292 21.0621 5.96354V18.3979C21.0621 18.9385 20.7017 19.299 20.1611 19.299H13.7693ZM15.0307 8.57453V7.31307H13.7693V5.96354H20.1611V18.3979H13.7693V17.1344H15.0307V15.873H13.7693V14.9719H15.0307V13.7105H13.7693V12.8995H15.0307V11.6381H13.7693V10.737H15.0307V9.38546H13.7693V8.57453H15.0307ZM9.17396 15.7829L8.27292 13.6204L8.18281 13.4402V13.5303L8.09271 13.6204L7.28177 15.6928L5.75 15.6027L7.28177 12.2688L5.56979 8.84484L7.01146 8.75473L8.0026 10.9172L8.99375 8.57453L10.6156 8.48442L8.81354 12.1787L10.7057 15.873L9.17396 15.7829Z" fill="#222532"/>
</svg>
