<svg width="24" height="24" viewBox="0 0 24 24" fill="none" xmlns="http://www.w3.org/2000/svg">
<path fill-rule="evenodd" clip-rule="evenodd" d="M10.0027 5.38443C9.89062 5.29928 9.75281 5.25508 9.61216 5.25918C9.60522 5.25938 9.59828 5.25948 9.59134 5.25948H4.68098C4.51768 5.25948 4.36106 5.32435 4.24559 5.43982C4.13012 5.55529 4.06525 5.71191 4.06525 5.8752V18.5171C4.06525 18.6804 4.13012 18.837 4.24559 18.9524C4.36106 19.0679 4.51768 19.1328 4.68098 19.1328H19.3189C19.4822 19.1328 19.6388 19.0679 19.7543 18.9524C19.8698 18.837 19.9346 18.6804 19.9346 18.5171V8.53665C19.9346 8.37335 19.8698 8.21674 19.7543 8.10127C19.6388 7.9858 19.4822 7.92093 19.3189 7.92093H11.3346C11.0065 7.92093 10.7205 7.69763 10.6409 7.37934L10.2284 5.72924L10.2279 5.72713C10.1942 5.59052 10.1147 5.46957 10.0027 5.38443ZM9.58204 3.82948C10.0454 3.8186 10.4988 3.96536 10.8679 4.24591C11.2398 4.52854 11.5038 4.92991 11.6159 5.38331L11.6162 5.38453L11.8928 6.49093H19.3189C19.8615 6.49093 20.3818 6.70646 20.7655 7.0901C21.1491 7.47375 21.3646 7.99409 21.3646 8.53665V18.5171C21.3646 19.0596 21.1491 19.58 20.7655 19.9636C20.3818 20.3472 19.8615 20.5628 19.3189 20.5628H4.68098C4.13842 20.5628 3.61808 20.3472 3.23443 19.9636C2.85078 19.58 2.63525 19.0596 2.63525 18.5171V5.8752C2.63525 5.33265 2.85078 4.81231 3.23443 4.42866C3.61808 4.04501 4.13842 3.82948 4.68098 3.82948H9.58204Z" fill="#232533"/>
</svg>
