<svg width="16" height="16" viewBox="0 0 16 16" fill="none" xmlns="http://www.w3.org/2000/svg">
<path d="M8 1.6C11.528 1.6 14.4 4.472 14.4 8C14.4 11.528 11.528 14.4 8 14.4C4.472 14.4 1.6 11.528 1.6 8C1.6 4.472 4.472 1.6 8 1.6ZM8 0C3.5816 0 0 3.5816 0 8C0 12.4184 3.5816 16 8 16C12.4184 16 16 12.4184 16 8C16 3.5816 12.4184 0 8 0ZM4.44 8.8C4.424 8.9328 4.4 9.064 4.4 9.2C4.4 10.1548 4.77928 11.0705 5.45442 11.7456C6.12955 12.4207 7.04522 12.8 8 12.8C8.95478 12.8 9.87045 12.4207 10.5456 11.7456C11.2207 11.0705 11.6 10.1548 11.6 9.2C11.6 9.064 11.5744 8.9328 11.56 8.8H4.44ZM6.4 6.4V4.8C6.4 4.58783 6.31571 4.38434 6.16569 4.23431C6.01566 4.08429 5.81217 4 5.6 4C5.38783 4 5.18434 4.08429 5.03431 4.23431C4.88429 4.38434 4.8 4.58783 4.8 4.8V6.4C4.8 6.61217 4.88429 6.81566 5.03431 6.96569C5.18434 7.11571 5.38783 7.2 5.6 7.2C5.81217 7.2 6.01566 7.11571 6.16569 6.96569C6.31571 6.81566 6.4 6.61217 6.4 6.4ZM11.2 6.4V4.8C11.2 4.58783 11.1157 4.38434 10.9657 4.23431C10.8157 4.08429 10.6122 4 10.4 4C10.1878 4 9.98434 4.08429 9.83432 4.23431C9.68429 4.38434 9.6 4.58783 9.6 4.8V6.4C9.6 6.61217 9.68429 6.81566 9.83432 6.96569C9.98434 7.11571 10.1878 7.2 10.4 7.2C10.6122 7.2 10.8157 7.11571 10.9657 6.96569C11.1157 6.81566 11.2 6.61217 11.2 6.4Z" fill="#4FD1C5"/>
</svg>
