<svg width="16" height="16" viewBox="0 0 16 16" fill="none" xmlns="http://www.w3.org/2000/svg">
<path opacity="0.2" d="M2 4.14288H14V13.25H2V4.14288Z" fill="#515364"/>
<path fill-rule="evenodd" clip-rule="evenodd" d="M8 3.5L6.5986 2H2.39439C1.62362 2 1 2.675 1 3.5V4.5H1.00219C1.00074 4.52361 1 4.54743 1 4.57143V12.9286C1 13.5203 1.44772 14 2 14H14C14.5523 14 15 13.5203 15 12.9286V4.57143C15 3.9797 14.5523 3.5 14 3.5H8ZM2 3.5C1.97756 3.5 1.95529 3.50079 1.93322 3.50235V3.5H2ZM2 12.9286V4.57143H14V12.9286L2 12.9286Z" fill="#515364"/>
</svg>
