<svg width="19" height="18" viewBox="0 0 19 18" fill="none" xmlns="http://www.w3.org/2000/svg">
<path fill-rule="evenodd" clip-rule="evenodd" d="M9.33321 2.79956L7.48555 0.821899H1.94255C0.926337 0.821899 0.104126 1.71185 0.104126 2.79956V4.118H0.10701C0.105097 4.14913 0.104126 4.18053 0.104126 4.21218V15.7657C0.104126 16.5459 0.694412 17.1783 1.42257 17.1783H17.2439C17.972 17.1783 18.5623 16.5459 18.5623 15.7657V4.21218C18.5623 3.43201 17.972 2.79956 17.2439 2.79956H9.33321ZM1.94255 15.3571L1.94255 4.72815L16.8368 4.72815L16.8368 15.3571H1.94255Z" fill="#232533"/>
<path d="M9.33328 6.28467C8.87301 6.28467 8.49988 6.65779 8.49988 7.11807V9.13892H6.47903C6.01876 9.13892 5.64563 9.51204 5.64563 9.97232C5.64563 10.4326 6.01876 10.8057 6.47903 10.8057H8.49988V12.8266C8.49988 13.2868 8.87301 13.66 9.33328 13.66C9.79356 13.66 10.1667 13.2868 10.1667 12.8266V10.8057L12.1875 10.8057C12.6478 10.8057 13.0209 10.4326 13.0209 9.97232C13.0209 9.51204 12.6478 9.13892 12.1875 9.13892H10.1667V7.11807C10.1667 6.65779 9.79356 6.28467 9.33328 6.28467Z" fill="#232533"/>
</svg>
