<svg width="16" height="16" viewBox="0 0 16 16" fill="none" xmlns="http://www.w3.org/2000/svg">
<path d="M8 1.6C11.528 1.6 14.4 4.472 14.4 8C14.4 11.528 11.528 14.4 8 14.4C4.472 14.4 1.6 11.528 1.6 8C1.6 4.472 4.472 1.6 8 1.6ZM8 0C3.5816 0 0 3.5816 0 8C0 12.4184 3.5816 16 8 16C12.4184 16 16 12.4184 16 8C16 3.5816 12.4184 0 8 0ZM6.4 6.4V4.8C6.4 4.58783 6.31571 4.38434 6.16569 4.23432C6.01566 4.08429 5.81217 4 5.6 4C5.38783 4 5.18434 4.08429 5.03431 4.23432C4.88429 4.38434 4.8 4.58783 4.8 4.8V6.4C4.8 6.61217 4.88429 6.81566 5.03431 6.96569C5.18434 7.11571 5.38783 7.2 5.6 7.2C5.81217 7.2 6.01566 7.11571 6.16569 6.96569C6.31571 6.81566 6.4 6.61217 6.4 6.4ZM11.2 6.4V4.8C11.2 4.58783 11.1157 4.38434 10.9657 4.23432C10.8157 4.08429 10.6122 4 10.4 4C10.1878 4 9.98434 4.08429 9.83432 4.23432C9.68429 4.38434 9.6 4.58783 9.6 4.8V6.4C9.6 6.61217 9.68429 6.81566 9.83432 6.96569C9.98434 7.11571 10.1878 7.2 10.4 7.2C10.6122 7.2 10.8157 7.11571 10.9657 6.96569C11.1157 6.81566 11.2 6.61217 11.2 6.4Z" fill="#A8A5CE"/>
<path fill-rule="evenodd" clip-rule="evenodd" d="M6.35396 9.7596C6.06694 10.1376 5.98535 10.6074 6.00238 10.9079L4.67118 10.9833C4.64019 10.4364 4.77469 9.63475 5.292 8.95336C5.83402 8.23944 6.73689 7.73633 8.07389 7.73633V9.06966C7.10596 9.06966 6.61627 9.4141 6.35396 9.7596Z" fill="#A8A5CE"/>
<path fill-rule="evenodd" clip-rule="evenodd" d="M9.64604 9.7596C9.93306 10.1376 10.0146 10.6074 9.99762 10.9079L11.3288 10.9833C11.3598 10.4364 11.2253 9.63475 10.708 8.95336C10.166 8.23944 9.26311 7.73633 7.92611 7.73633V9.06966C8.89404 9.06966 9.38373 9.4141 9.64604 9.7596Z" fill="#A8A5CE"/>
</svg>
