<svg width="16" height="16" viewBox="0 0 16 16" fill="none" xmlns="http://www.w3.org/2000/svg">
<path fill-rule="evenodd" clip-rule="evenodd" d="M5 1C3.89543 1 3 1.89543 3 3C3 4.10457 3.89543 5 5 5C6.10457 5 7 4.10457 7 3C7 1.89543 6.10457 1 5 1ZM5.00005 3.69999C5.38665 3.69999 5.70005 3.38659 5.70005 2.99999C5.70005 2.61339 5.38665 2.29999 5.00005 2.29999C4.61345 2.29999 4.30005 2.61339 4.30005 2.99999C4.30005 3.38659 4.61345 3.69999 5.00005 3.69999Z" fill="#232533"/>
<path fill-rule="evenodd" clip-rule="evenodd" d="M14.5 3.75C14.7761 3.75 15 3.52614 15 3.25V2.75C15 2.47386 14.7761 2.25 14.5 2.25H1.5C1.22386 2.25 1 2.47386 1 2.75V3.25C1 3.52614 1.22386 3.75 1.5 3.75H14.5ZM5.00005 3.69999C5.38665 3.69999 5.70005 3.38659 5.70005 2.99999C5.70005 2.61339 5.38665 2.29999 5.00005 2.29999C4.61345 2.29999 4.30005 2.61339 4.30005 2.99999C4.30005 3.38659 4.61345 3.69999 5.00005 3.69999Z" fill="#232533"/>
<path fill-rule="evenodd" clip-rule="evenodd" d="M5 11C3.89543 11 3 11.8954 3 13C3 14.1046 3.89543 15 5 15C6.10457 15 7 14.1046 7 13C7 11.8954 6.10457 11 5 11ZM5.00005 13.7C5.38665 13.7 5.70005 13.3866 5.70005 13C5.70005 12.6134 5.38665 12.3 5.00005 12.3C4.61345 12.3 4.30005 12.6134 4.30005 13C4.30005 13.3866 4.61345 13.7 5.00005 13.7Z" fill="#232533"/>
<path fill-rule="evenodd" clip-rule="evenodd" d="M14.5 13.75C14.7761 13.75 15 13.5261 15 13.25V12.75C15 12.4739 14.7761 12.25 14.5 12.25H1.5C1.22386 12.25 1 12.4739 1 12.75V13.25C1 13.5261 1.22386 13.75 1.5 13.75H14.5ZM5.00005 13.7C5.38665 13.7 5.70005 13.3866 5.70005 13C5.70005 12.6134 5.38665 12.3 5.00005 12.3C4.61345 12.3 4.30005 12.6134 4.30005 13C4.30005 13.3866 4.61345 13.7 5.00005 13.7Z" fill="#232533"/>
<path fill-rule="evenodd" clip-rule="evenodd" d="M11 10C12.1046 10 13 9.10457 13 8C13 6.89543 12.1046 6 11 6C9.89543 6 9 6.89543 9 8C9 9.10457 9.89543 10 11 10ZM11 7.30001C10.6134 7.30001 10.3 7.61341 10.3 8.00001C10.3 8.38661 10.6134 8.70001 11 8.70001C11.3866 8.70001 11.7 8.38661 11.7 8.00001C11.7 7.61341 11.3866 7.30001 11 7.30001Z" fill="#232533"/>
<path fill-rule="evenodd" clip-rule="evenodd" d="M1.5 7.25C1.22386 7.25 1 7.47386 1 7.75V8.25C1 8.52614 1.22386 8.75 1.5 8.75H14.5C14.7761 8.75 15 8.52614 15 8.25V7.75C15 7.47386 14.7761 7.25 14.5 7.25H1.5ZM11 7.30001C10.6134 7.30001 10.3 7.61341 10.3 8.00001C10.3 8.38661 10.6134 8.70001 11 8.70001C11.3866 8.70001 11.7 8.38661 11.7 8.00001C11.7 7.61341 11.3866 7.30001 11 7.30001Z" fill="#232533"/>
</svg>
