<svg width="16" height="16" viewBox="0 0 16 16" fill="none" xmlns="http://www.w3.org/2000/svg">
<path d="M8 1.00098C6.61553 1.00098 5.26216 1.41152 4.11101 2.18069C2.95987 2.94986 2.06266 4.04311 1.53285 5.32219C1.00303 6.60127 0.86441 8.00874 1.13451 9.36661C1.4046 10.7245 2.07129 11.9718 3.05026 12.9507C4.02922 13.9297 5.2765 14.5964 6.63437 14.8665C7.99224 15.1366 9.3997 14.9979 10.6788 14.4681C11.9579 13.9383 13.0511 13.0411 13.8203 11.89C14.5895 10.7388 15 9.38545 15 8.00098C15 6.14446 14.2625 4.36398 12.9497 3.05123C11.637 1.73847 9.85652 1.00098 8 1.00098ZM7.68 7.78098C7.63984 7.84774 7.5831 7.90299 7.5153 7.94136C7.44749 7.97973 7.37091 7.99992 7.293 7.99998H7.284C7.16439 8.00004 7.04968 8.0475 6.965 8.13198L6.805 8.29198C6.76281 8.33433 6.73912 8.39169 6.73912 8.45148C6.73912 8.51127 6.76281 8.56862 6.805 8.61098L6.965 8.77098C7.04948 8.85566 7.09694 8.97037 7.097 9.08998V9.35398C7.09714 9.41337 7.08553 9.47221 7.06287 9.52711C7.0402 9.582 7.00691 9.63189 6.96491 9.67388C6.92291 9.71588 6.87303 9.74917 6.81813 9.77184C6.76323 9.79451 6.7044 9.80611 6.645 9.80598H6.473C6.38975 9.80529 6.30831 9.78156 6.23771 9.73744C6.16711 9.69331 6.11011 9.63051 6.073 9.55598L5.431 8.28098C5.41502 8.24892 5.39164 8.22112 5.36279 8.19987C5.33395 8.17863 5.30047 8.16454 5.26511 8.15878C5.22975 8.15302 5.19353 8.15574 5.15944 8.16673C5.12534 8.17772 5.09434 8.19665 5.069 8.22198L4.519 8.77098C4.43432 8.85545 4.31961 8.90292 4.2 8.90298H2.434C2.27717 7.94854 2.36869 6.9698 2.69975 6.061C3.03082 5.15219 3.59029 4.34391 4.32428 3.714C5.05828 3.08409 5.94208 2.65375 6.89061 2.46441C7.83913 2.27508 8.82042 2.33313 9.74 2.63298L8.324 3.71998C8.2911 3.74192 8.26453 3.77212 8.24695 3.80755C8.22937 3.84298 8.2214 3.8824 8.22382 3.92188C8.22625 3.96136 8.239 3.99951 8.26079 4.03251C8.28258 4.06552 8.31266 4.09223 8.348 4.10998L8.654 4.26298C8.72853 4.30008 8.79134 4.35709 8.83547 4.42769C8.87959 4.49829 8.90331 4.57972 8.904 4.66298V6.87098C8.904 6.93092 8.88019 6.9884 8.83781 7.03078C8.79543 7.07317 8.73794 7.09698 8.678 7.09698H8.591C8.54937 7.09669 8.50862 7.08485 8.47331 7.06278C8.438 7.04071 8.40951 7.00928 8.391 6.97198C8.38095 6.95196 8.3657 6.93502 8.34685 6.92291C8.32801 6.91081 8.30625 6.90399 8.28387 6.90318C8.26149 6.90236 8.2393 6.90757 8.21962 6.91827C8.19994 6.92896 8.18349 6.94475 8.172 6.96398L7.682 7.78098H7.68ZM12.516 10.891C12.5159 11.0106 12.4685 11.1253 12.384 11.21L12.114 11.48C12.0293 11.5645 11.9146 11.6119 11.795 11.612H11.367C11.2474 11.6119 11.1327 11.5645 11.048 11.48L10.681 11.113C10.5888 11.0205 10.4742 10.9534 10.3484 10.9183C10.2225 10.8833 10.0898 10.8814 9.963 10.913L9.363 11.063C9.32706 11.0722 9.29011 11.0769 9.253 11.077H8.961C8.84139 11.0769 8.72668 11.0295 8.642 10.945L8.306 10.609C8.28503 10.588 8.2684 10.563 8.25708 10.5355C8.24576 10.5081 8.23995 10.4787 8.24 10.449V10.163C8.23996 10.1178 8.25347 10.0736 8.27879 10.0362C8.3041 9.99876 8.34005 9.96977 8.382 9.95298L9.492 9.50898C9.5479 9.48669 9.60094 9.45782 9.65 9.42298L10.319 8.94598C10.3572 8.91864 10.403 8.90396 10.45 8.90398H10.791C10.8357 8.90389 10.8794 8.91705 10.9166 8.94179C10.9538 8.96653 10.9828 9.00174 11 9.04298L11.151 9.40598C11.1594 9.42581 11.1732 9.44284 11.1909 9.45506C11.2087 9.46728 11.2295 9.47419 11.251 9.47498H11.358C11.3823 9.4749 11.406 9.46697 11.4254 9.45238C11.4449 9.43778 11.4591 9.4173 11.466 9.39398L11.585 8.98598C11.5919 8.96265 11.6061 8.94217 11.6256 8.92758C11.645 8.91298 11.6687 8.90506 11.693 8.90498H11.864C11.894 8.90498 11.9227 8.91688 11.9439 8.93807C11.9651 8.95927 11.977 8.98801 11.977 9.01798V9.38298C11.977 9.41267 11.9828 9.44209 11.9941 9.46955C12.0054 9.497 12.022 9.52195 12.043 9.54298L12.379 9.87898C12.4635 9.96366 12.5109 10.0784 12.511 10.198V10.892L12.516 10.891Z" fill="#7F9CF5"/>
</svg>
