<svg width="32" height="32" viewBox="0 0 32 32" fill="none" xmlns="http://www.w3.org/2000/svg">
<path fill-rule="evenodd" clip-rule="evenodd" d="M14 3C7.92486 3 3 7.92486 3 14C3 20.0752 7.92487 25 14 25C16.6772 25 19.1322 24.0426 21.0392 22.4531L26.6265 28.0405C27.017 28.431 27.6502 28.431 28.0407 28.0405C28.4313 27.65 28.4313 27.0168 28.0407 26.6263L22.4534 21.0389C24.0427 19.132 25 16.677 25 14C25 7.92487 20.0752 3 14 3ZM5 14C5 9.02943 9.02943 5 14 5C18.9706 5 23 9.02943 23 14C23 16.4813 21.9972 18.7264 20.3725 20.3554C18.742 21.9903 16.4899 23 14 23C9.02943 23 5 18.9706 5 14Z" fill="#898995"/>
</svg>
