<svg width="32" height="32" viewBox="0 0 32 32" fill="none" xmlns="http://www.w3.org/2000/svg">
<path fill-rule="evenodd" clip-rule="evenodd" d="M10.114 6.39527C11.6781 4.85955 13.7958 4 16 4C18.2043 4 20.3219 4.85955 21.8861 6.39527C23.4508 7.93159 24.3334 10.0192 24.3334 12.2C24.3334 16.2496 25.2574 19.0147 26.0825 20.5C26.4966 21.2454 26.902 21.7383 27.1884 22.035C27.3318 22.1837 27.446 22.2838 27.5174 22.3422C27.5531 22.3713 27.578 22.3901 27.5906 22.3993C27.5946 22.4022 27.5988 22.4052 27.5988 22.4052C27.9622 22.6489 28.1253 23.1012 28 23.5214C27.8736 23.9452 27.4839 24.2356 27.0417 24.2356H5.04169C4.59947 24.2356 4.20975 23.9452 4.08339 23.5214C3.9581 23.1012 4.1212 22.6489 4.48463 22.4052C4.48463 22.4052 4.4888 22.4022 4.49278 22.3993C4.50535 22.3901 4.53033 22.3713 4.56601 22.3422C4.63734 22.2838 4.75156 22.1837 4.89499 22.035C5.18134 21.7383 5.58678 21.2454 6.00087 20.5C6.82602 19.0147 7.6667 16.2496 7.6667 12.2C7.6667 10.0192 8.54921 7.93159 10.114 6.39527ZM24.8005 22.2356C24.6466 22.0059 24.49 21.7517 24.3342 21.4713C23.326 19.6565 22.3334 16.5504 22.3334 12.2C22.3334 10.5616 21.6706 8.98659 20.4849 7.8224C19.2985 6.65759 17.6856 6 16 6C14.3145 6 12.7015 6.65759 11.5152 7.8224C10.3294 8.98659 9.6667 10.5616 9.6667 12.2C9.6667 16.5504 8.75737 19.6565 7.74918 21.4713C7.5934 21.7517 7.43678 22.0059 7.28287 22.2356H24.8005Z" fill="#898995"/>
<path fill-rule="evenodd" clip-rule="evenodd" d="M13.1916 26.135C13.6693 25.8579 14.2813 26.0205 14.5584 26.4982C14.7049 26.7508 14.9152 26.9604 15.1682 27.1062C15.4212 27.2519 15.7081 27.3286 16.0001 27.3286C16.292 27.3286 16.5789 27.2519 16.8319 27.1062C17.0849 26.9604 17.2952 26.7508 17.4417 26.4982C17.7188 26.0205 18.3308 25.8579 18.8085 26.135C19.2862 26.4121 19.4488 27.024 19.1717 27.5018C18.8494 28.0574 18.3868 28.5186 17.8301 28.8392C17.2735 29.1599 16.6424 29.3286 16.0001 29.3286C15.3577 29.3286 14.7266 29.1599 14.17 28.8392C13.6133 28.5186 13.1507 28.0574 12.8284 27.5018C12.5513 27.024 12.7139 26.4121 13.1916 26.135Z" fill="#898995"/>
</svg>
