<svg width="32" height="32" viewBox="0 0 32 32" fill="none" xmlns="http://www.w3.org/2000/svg">
<path d="M24.9279 19.8037L28.4688 20.3431C29.1038 20.4393 29.3582 21.2572 28.8978 21.7256L26.336 24.3338L26.9419 28.0181C27.051 28.684 26.3796 29.1803 25.8174 28.8714L22.6497 27.1318L19.4821 28.8714C18.9198 29.1829 18.2485 28.684 18.3575 28.0181L18.9634 24.3338L16.4017 21.7256C15.9412 21.2572 16.1957 20.4393 16.8306 20.3431L20.3715 19.8037L21.9541 16.4511C22.2401 15.846 23.0617 15.8536 23.3453 16.4511L24.9279 19.8037Z" fill="#898995"/>
<path d="M15.4333 8.82505H17.161V15.7361L11.1139 19.3644L10.25 17.9476L15.4333 14.8722V8.82505Z" fill="#898995"/>
<path d="M25.6644 18.196L25.666 18.1915C25.7005 18.0903 25.7334 17.9885 25.7648 17.8859C25.7329 17.99 25.6995 18.0934 25.6644 18.196Z" fill="#898995"/>
<path d="M16 25.204C16.3012 25.204 16.5995 25.1911 16.8942 25.1658L16.9235 25.1865L16.5343 27.4764C16.3571 27.4838 16.179 27.4875 16 27.4875C9.04468 27.4875 3.40627 21.8491 3.40627 14.8938C3.40627 7.93845 9.04468 2.30005 16 2.30005C22.9553 2.30005 28.5937 7.93845 28.5937 14.8938C28.5937 16.1544 28.4085 17.3717 28.0639 18.5198L25.7669 18.2053C26.1192 17.1658 26.3102 16.052 26.3102 14.8938C26.3102 9.19959 21.6942 4.58354 16 4.58354C10.3058 4.58354 5.68977 9.19959 5.68977 14.8938C5.68977 20.588 10.3058 25.204 16 25.204Z" fill="#898995"/>
</svg>
