<svg width="32" height="32" viewBox="0 0 32 32" fill="none" xmlns="http://www.w3.org/2000/svg">
<path d="M14.5547 8.05863C16.8054 5.79659 20.2873 5.52604 22.8325 7.24697C26.7605 10.3327 28.056 15.5993 26.5272 19.0038C26.3177 19.4705 26.5242 20.0195 26.9885 20.2301C27.4528 20.4407 27.9991 20.2331 28.2086 19.7665C29.9331 15.9259 28.7865 10.598 25.2833 6.97556C25.2408 6.89353 25.1854 6.81655 25.1169 6.7477C24.7362 6.36516 24.3282 6.02706 23.899 5.73339C23.4462 5.3819 22.9651 5.05634 22.4563 4.76109C17.4754 1.87089 11.3176 2.74199 7.86808 5.89098C7.6678 5.83392 7.45642 5.80338 7.23795 5.80338C5.96449 5.80338 4.93214 6.84092 4.93214 8.12079C4.93214 9.40066 5.96449 10.4382 7.23795 10.4382C8.51141 10.4382 9.54375 9.40066 9.54375 8.12079C9.54375 7.75157 9.45784 7.40252 9.30501 7.09273C10.9989 5.65425 13.4911 4.79531 16.1294 4.85387C15.0806 5.26507 14.0974 5.89634 13.2503 6.7477C9.97348 10.0411 9.97348 15.3806 13.2503 18.674C13.6105 19.036 14.1945 19.036 14.5547 18.674C14.9149 18.312 14.9149 17.7251 14.5547 17.3631C11.9982 14.7937 11.9982 10.628 14.5547 8.05863Z" fill="#898995"/>
<path d="M6.88252 25.1928C3.24995 21.5687 2.03995 16.1341 3.79142 12.2335C4.00095 11.7669 4.54719 11.5593 5.01149 11.7699C5.47578 11.9805 5.6823 12.5295 5.47277 12.9962C3.87378 16.5571 5.36443 22.1551 9.72546 25.164C12.2265 26.606 15.4725 26.2533 17.6091 24.106C20.1656 21.5366 20.1656 17.3709 17.6091 14.8015C17.2489 14.4395 17.2489 13.8526 17.6091 13.4906C17.9693 13.1286 18.5533 13.1286 18.9135 13.4906C22.1903 16.784 22.1903 22.1235 18.9135 25.4169C18.173 26.161 17.3287 26.7371 16.4273 27.1449C18.857 27.0804 21.1208 26.2441 22.695 24.9073C22.5422 24.5975 22.4563 24.2484 22.4563 23.8792C22.4563 22.5993 23.4886 21.5618 24.7621 21.5618C26.0355 21.5618 27.0679 22.5993 27.0679 23.8792C27.0679 25.1591 26.0355 26.1966 24.7621 26.1966C24.5436 26.1966 24.3322 26.1661 24.1319 26.109C20.6824 29.258 14.5246 30.1291 9.54375 27.2389C9.27176 27.0811 9.00768 26.9146 8.75161 26.7401C8.14269 26.3826 7.56899 25.9415 7.04695 25.4169C6.97951 25.3491 6.9247 25.2734 6.88252 25.1928Z" fill="#898995"/>
</svg>
