<svg width="32" height="32" viewBox="0 0 32 32" fill="none" xmlns="http://www.w3.org/2000/svg">
<path d="M15.1955 9.0011C17.3042 6.88179 20.5654 6.62668 22.9516 8.23577C26.6642 11.1519 27.8794 16.1247 26.4439 19.3215C26.2206 19.8189 26.4407 20.404 26.9356 20.6285C27.4304 20.8529 28.0126 20.6317 28.236 20.1343C29.8983 16.4324 28.7958 11.3162 25.4382 7.83475C25.3938 7.75181 25.3368 7.67389 25.2672 7.60387C24.8986 7.23342 24.5033 6.90611 24.0876 6.62195C23.6544 6.28622 23.1944 5.97521 22.7082 5.69306C18.2942 3.13188 12.9113 3.64053 9.49308 6.11879C9.22609 6.01888 8.93717 5.96427 8.63555 5.96427C7.27823 5.96427 6.17791 7.07012 6.17791 8.43425C6.17791 9.79838 7.27823 10.9042 8.63555 10.9042C9.99287 10.9042 11.0932 9.79838 11.0932 8.43425C11.0932 8.11559 11.0331 7.81103 10.9238 7.53136C12.3415 6.59531 14.1726 6.02406 16.1166 5.97619C15.2798 6.36736 14.4957 6.90992 13.8052 7.60387C10.6401 10.7849 10.6401 15.9423 13.8052 19.1233C14.1891 19.5092 14.8116 19.5092 15.1955 19.1233C15.5794 18.7375 15.5794 18.1119 15.1955 17.7261C12.7982 15.3168 12.7982 11.4104 15.1955 9.0011Z" fill="#898995"/>
<path d="M7.72113 25.3276C4.23942 21.8444 3.07571 16.6255 4.76404 12.8657C4.98737 12.3683 5.56958 12.1471 6.06445 12.3715C6.55932 12.596 6.77944 13.1811 6.55611 13.6785C5.05497 17.0215 6.45246 22.3066 10.5734 25.1511C12.918 26.4997 15.9589 26.168 17.961 24.1559C20.3583 21.7465 20.3583 17.8402 17.961 15.4309C17.5771 15.045 17.5771 14.4195 17.961 14.0336C18.3449 13.6478 18.9673 13.6478 19.3512 14.0336C22.5164 17.2146 22.5164 22.3721 19.3512 25.5531C18.7624 26.1449 18.1054 26.6266 17.4057 26.9982C19.2054 26.8663 20.8822 26.2877 22.1892 25.3927C22.0089 25.0491 21.9068 24.6576 21.9068 24.2421C21.9068 22.878 23.0071 21.7721 24.3645 21.7721C25.7218 21.7721 26.8221 22.878 26.8221 24.2421C26.8221 25.6062 25.7218 26.7121 24.3645 26.7121C24.1749 26.7121 23.9904 26.6905 23.8132 26.6497C20.417 29.3257 14.84 29.946 10.2918 27.3069C10.0324 27.1564 9.78037 26.9976 9.53593 26.8312C8.94775 26.4859 8.39359 26.0599 7.88933 25.5531C7.82116 25.4846 7.76509 25.4085 7.72113 25.3276Z" fill="#898995"/>
</svg>
