<svg width="32" height="32" viewBox="0 0 32 32" fill="none" xmlns="http://www.w3.org/2000/svg">
<path fill-rule="evenodd" clip-rule="evenodd" d="M11.8443 23H7.73913C6.77863 23 6 21.7165 6 20.75V7.75C6 6.7835 6.77864 6 7.73913 6H24.2609C25.2214 6 26 6.7835 26 7.75V20.75C26 21.7165 25.2214 23 24.2609 23H20.1557L16 27.5L11.8443 23ZM21.0453 25H24.2609C26.3377 25 28 22.8093 28 20.75V7.75C28 5.6907 26.3377 4 24.2609 4H7.73913C5.66234 4 4 5.6907 4 7.75V20.75C4 22.8093 5.66234 25 7.73913 25H10.9546L14.5146 28.8393C14.8939 29.2599 15.4337 29.5 16 29.5C16.5663 29.5 17.1061 29.2599 17.4854 28.8393L21.0453 25Z" fill="#898995"/>
<path d="M15.9856 9.63116C16.6558 9.63116 17.1991 10.0498 17.1991 10.5662V15.8043C17.1991 16.3207 16.6558 16.7393 15.9856 16.7393C15.3154 16.7393 14.7722 16.3207 14.7722 15.8043V10.5662C14.7722 10.0498 15.3154 9.63116 15.9856 9.63116Z" fill="#898995"/>
<path d="M17.3211 19.1653C17.3211 19.9025 16.7232 20.5 15.9856 20.5C15.2479 20.5 14.65 19.9025 14.65 19.1653C14.65 18.4282 15.2479 17.8307 15.9856 17.8307C16.7232 17.8307 17.3211 18.4282 17.3211 19.1653Z" fill="#898995"/>
</svg>
