<svg width="32" height="32" viewBox="0 0 32 32" fill="none" xmlns="http://www.w3.org/2000/svg">
<path fill-rule="evenodd" clip-rule="evenodd" d="M10.114 5.39527C11.6781 3.85955 13.7957 3 16 3C18.2043 3 20.3219 3.85955 21.8861 5.39527C23.4508 6.93159 24.3334 9.01924 24.3334 11.2C24.3334 15.2496 25.2157 17.7791 26.0408 19.2644C26.4549 20.0097 26.8604 20.5026 27.1467 20.7994C27.2902 20.948 27.4044 21.0481 27.4757 21.1065C27.5114 21.1357 27.5364 21.1545 27.5489 21.1637C27.5529 21.1666 27.5557 21.1685 27.5571 21.1695C27.9205 21.4133 28.0836 21.8656 27.9583 22.2857C27.832 22.7095 27.4422 23 27 23H5.00002C4.55779 23 4.16808 22.7095 4.04171 22.2857C3.91642 21.8656 4.07952 21.4133 4.44295 21.1695C4.44439 21.1685 4.44712 21.1666 4.45111 21.1637C4.46367 21.1545 4.48865 21.1357 4.52433 21.1065C4.59567 21.0481 4.70988 20.948 4.85332 20.7994C5.13966 20.5026 5.54511 20.0097 5.95919 19.2644C6.78434 17.7791 7.66669 15.2496 7.66669 11.2C7.66669 9.01924 8.5492 6.93159 10.114 5.39527ZM24.7588 21C24.6049 20.7703 24.4483 20.5161 24.2925 20.2356C23.2843 18.4209 22.3334 15.5504 22.3334 11.2C22.3334 9.56164 21.6706 7.98659 20.4849 6.8224C19.2985 5.65759 17.6856 5 16 5C14.3145 5 12.7015 5.65759 11.5152 6.8224C10.3294 7.98659 9.66669 9.56164 9.66669 11.2C9.66669 15.5504 8.7157 18.4209 7.70751 20.2356C7.55172 20.5161 7.39511 20.7703 7.24119 21H24.7588Z" fill="#898995"/>
<path fill-rule="evenodd" clip-rule="evenodd" d="M13.1916 25.135C13.6693 24.8579 14.2813 25.0205 14.5584 25.4982C14.7049 25.7508 14.9152 25.9604 15.1682 26.1062C15.4212 26.2519 15.7081 26.3286 16 26.3286C16.292 26.3286 16.5789 26.2519 16.8319 26.1062C17.0849 25.9604 17.2952 25.7508 17.4417 25.4982C17.7188 25.0205 18.3308 24.8579 18.8085 25.135C19.2862 25.4121 19.4488 26.024 19.1717 26.5018C18.8494 27.0574 18.3868 27.5186 17.8301 27.8392C17.2735 28.1599 16.6424 28.3286 16 28.3286C15.3577 28.3286 14.7266 28.1599 14.17 27.8392C13.6133 27.5186 13.1507 27.0574 12.8284 26.5018C12.5513 26.024 12.7139 25.4121 13.1916 25.135Z" fill="#898995"/>
</svg>
