<svg width="32" height="32" viewBox="0 0 32 32" fill="none" xmlns="http://www.w3.org/2000/svg">
<path d="M7 17C9.12173 17 11.1566 17.8429 12.6569 19.3431C14.1571 20.8434 15 22.8783 15 25M7 11C10.713 11 14.274 12.475 16.8995 15.1005C19.525 17.726 21 21.287 21 25M7 5C12.3043 5 17.3914 7.10714 21.1421 10.8579C24.8929 14.6086 27 19.6957 27 25M9 25C9 26.1046 8.10457 27 7 27C5.89543 27 5 26.1046 5 25C5 23.8954 5.89543 23 7 23C8.10457 23 9 23.8954 9 25Z" stroke="#898995" stroke-width="1.8" stroke-linecap="round" stroke-linejoin="round"/>
</svg>
