<svg width="32" height="32" viewBox="0 0 32 32" fill="none" xmlns="http://www.w3.org/2000/svg">
<path fill-rule="evenodd" clip-rule="evenodd" d="M6.09998 4.99998C6.09998 4.50292 6.50292 4.09998 6.99998 4.09998C12.543 4.09998 17.859 6.30193 21.7785 10.2214C25.698 14.141 27.9 19.457 27.9 25C27.9 25.497 27.497 25.9 27 25.9C26.5029 25.9 26.1 25.497 26.1 25C26.1 19.9343 24.0877 15.0762 20.5057 11.4942C16.9238 7.91229 12.0656 5.89998 6.99998 5.89998C6.50292 5.89998 6.09998 5.49703 6.09998 4.99998ZM6.09998 11C6.09998 10.5029 6.50292 10.1 6.99998 10.1C10.9517 10.1 14.7416 11.6698 17.5359 14.4641C20.3302 17.2584 21.9 21.0483 21.9 25C21.9 25.497 21.497 25.9 21 25.9C20.5029 25.9 20.1 25.497 20.1 25C20.1 21.5256 18.7198 18.1936 16.2631 15.7369C13.8063 13.2802 10.4743 11.9 6.99998 11.9C6.50292 11.9 6.09998 11.497 6.09998 11ZM6.09998 17C6.09998 16.5029 6.50292 16.1 6.99998 16.1C9.3604 16.1 11.6242 17.0377 13.2932 18.7067C14.9623 20.3758 15.9 22.6395 15.9 25C15.9 25.497 15.497 25.9 15 25.9C14.5029 25.9 14.1 25.497 14.1 25C14.1 23.1169 13.3519 21.311 12.0204 19.9795C10.6889 18.648 8.88301 17.9 6.99998 17.9C6.50292 17.9 6.09998 17.497 6.09998 17ZM6.99998 23.9C6.39246 23.9 5.89998 24.3925 5.89998 25C5.89998 25.6075 6.39246 26.1 6.99998 26.1C7.60749 26.1 8.09998 25.6075 8.09998 25C8.09998 24.3925 7.60749 23.9 6.99998 23.9ZM4.09998 25C4.09998 23.3983 5.39835 22.1 6.99998 22.1C8.6016 22.1 9.89998 23.3983 9.89998 25C9.89998 26.6016 8.6016 27.9 6.99998 27.9C5.39835 27.9 4.09998 26.6016 4.09998 25Z" fill="#898995"/>
<path d="M29 8C29 10.7614 26.7614 13 24 13C21.2386 13 19 10.7614 19 8C19 5.23858 21.2386 3 24 3C26.7614 3 29 5.23858 29 8Z" fill="#49A7F7"/>
<path fill-rule="evenodd" clip-rule="evenodd" d="M32 8C32 12.4183 28.4183 16 24 16C19.5817 16 16 12.4183 16 8C16 3.58172 19.5817 0 24 0C28.4183 0 32 3.58172 32 8ZM24 13C26.7614 13 29 10.7614 29 8C29 5.23858 26.7614 3 24 3C21.2386 3 19 5.23858 19 8C19 10.7614 21.2386 13 24 13Z" fill="white"/>
</svg>
