<svg width="32" height="32" viewBox="0 0 32 32" fill="none" xmlns="http://www.w3.org/2000/svg">
<path fill-rule="evenodd" clip-rule="evenodd" d="M15 8V15.1034L9.67771 17.4984L10.4984 19.3223L17 16.3966V8H15Z" fill="#898995"/>
<path d="M24.7613 19.8036L28.3022 20.343C28.9372 20.4392 29.1917 21.2571 28.7312 21.7255L26.1694 24.3337L26.7753 28.018C26.8844 28.6839 26.2131 29.1802 25.6508 28.8713L22.4831 27.1317L19.3155 28.8713C18.7532 29.1828 18.0819 28.6839 18.191 28.018L18.7968 24.3337L16.2351 21.7255C15.7746 21.2571 16.0291 20.4392 16.6641 20.343L20.205 19.8036L21.7876 16.451C22.0736 15.8459 22.8952 15.8535 23.1787 16.451L24.7613 19.8036Z" fill="#898995"/>
<path d="M5 16C5 9.92487 9.92487 5 16 5C22.0751 5 27 9.92487 27 16C27 16.7151 26.9318 17.4142 26.8015 18.0912L28.6034 18.3657C28.6631 18.3748 28.7218 18.3854 28.7794 18.3976C28.9242 17.6205 29 16.8191 29 16C29 8.8203 23.1797 3 16 3C8.8203 3 3 8.8203 3 16C3 23.1797 8.8203 29 16 29C16.1059 29 16.2114 28.9987 16.3167 28.9962C16.1852 28.5867 16.1439 28.143 16.2173 27.6947L16.3323 26.9951C16.222 26.9984 16.1112 27 16 27C9.92487 27 5 22.0751 5 16Z" fill="#898995"/>
</svg>
