<svg width="32" height="32" viewBox="0 0 32 32" fill="none" xmlns="http://www.w3.org/2000/svg">
<path d="M16.0001 29.1885C16.8536 29.1895 17.6862 28.9313 18.3823 28.4496C19.0783 27.968 19.6734 27.0359 19.9541 26.25H12.1865C12.4672 27.0359 12.9218 27.968 13.6178 28.4496C14.3139 28.9313 15.1465 29.1895 16.0001 29.1885ZM25.6475 19.25L25.6475 13.3125C25.6475 8.98966 22.6361 5.34809 18.5566 4.25294C18.1528 3.26125 17.166 2.5625 16 2.5625C14.8341 2.5625 13.8473 3.26125 13.4435 4.25294C9.36399 5.34944 6.35261 8.98966 6.35261 13.3125L6.3526 19.25L4.00001 21.5438C3.87178 21.6684 3.77008 21.8164 3.70078 21.9795C3.63147 22.1425 3.59593 22.3173 3.59619 22.4938V23.8376C3.59619 24.1939 3.7414 24.5357 3.99986 24.7877C4.25832 25.0397 4.60888 25.1813 4.9744 25.1813H27.0257C27.3912 25.1813 27.7418 25.0397 28.0002 24.7877C28.2587 24.5357 28.4039 24.1939 28.4039 23.8376V22.4938C28.4041 22.3173 28.3686 22.1425 28.2993 21.9795C28.23 21.8164 28.1283 21.6684 28.0001 21.5438L25.6475 19.25Z" fill="#898995"/>
</svg>
