<svg width="32" height="32" viewBox="0 0 32 32" fill="none" xmlns="http://www.w3.org/2000/svg">
<path fill-rule="evenodd" clip-rule="evenodd" d="M14 4C7.92486 4 3 8.92486 3 15C3 21.0752 7.92487 26 14 26C16.6772 26 19.1322 25.0426 21.0392 23.4531L26.6265 29.0405C27.017 29.431 27.6502 29.431 28.0407 29.0405C28.4313 28.65 28.4313 28.0168 28.0407 27.6263L22.4534 22.0389C24.0427 20.132 25 17.677 25 15C25 8.92487 20.0752 4 14 4ZM5 15C5 10.0294 9.02943 6 14 6C18.9706 6 23 10.0294 23 15C23 17.4813 21.9972 19.7264 20.3725 21.3554C18.742 22.9903 16.4899 24 14 24C9.02943 24 5 19.9706 5 15Z" fill="#898995"/>
</svg>
