<svg width="33" height="32" viewBox="0 0 33 32" fill="none" xmlns="http://www.w3.org/2000/svg">
<path d="M24.7726 21.2703L29.4922 25.9148C29.9556 26.3831 29.9556 27.14 29.4872 27.6084L28.0771 29.0185C27.6137 29.4869 26.8563 29.4869 26.388 29.0185L21.6683 24.374C21.4441 24.1498 21.3196 23.8459 21.3196 23.527V22.7148C21.3196 21.9026 22.238 20.9215 23.1133 20.9215H23.9255C24.2444 20.9215 24.5483 21.0461 24.7726 21.2703Z" fill="#898995"/>
<path fill-rule="evenodd" clip-rule="evenodd" d="M14.3884 22.2354C18.9404 22.2354 22.6305 18.5452 22.6305 13.9932C22.6305 9.44122 18.9404 5.75109 14.3884 5.75109C9.83637 5.75109 6.14624 9.44122 6.14624 13.9932C6.14624 18.5452 9.83637 22.2354 14.3884 22.2354ZM14.3884 24.7865C20.3493 24.7865 25.1817 19.9542 25.1817 13.9932C25.1817 8.03227 20.3493 3.19995 14.3884 3.19995C8.42741 3.19995 3.5951 8.03227 3.5951 13.9932C3.5951 19.9542 8.42741 24.7865 14.3884 24.7865Z" fill="#898995"/>
</svg>
