<svg width="14" height="14" viewBox="0 0 14 14" fill="none" xmlns="http://www.w3.org/2000/svg">
<path fill-rule="evenodd" clip-rule="evenodd" d="M11.3995 4.54691C11.3413 4.65802 11.3445 4.79037 11.3991 4.90329C11.4684 5.04655 11.5275 5.19451 11.5761 5.34606C11.614 5.46458 11.7019 5.56208 11.8194 5.60296L13.2506 6.10075C13.3999 6.15269 13.5 6.29346 13.5 6.45156V7.54844C13.5 7.70654 13.3999 7.84731 13.2506 7.89925L11.8348 8.39171C11.7089 8.43549 11.618 8.54385 11.5839 8.67267C11.538 8.84615 11.4761 9.01502 11.3991 9.17712C11.3451 9.29079 11.3415 9.42353 11.3999 9.53502L12.0733 10.8206C12.1487 10.9645 12.1218 11.1407 12.0069 11.2556L11.2556 12.0069C11.1407 12.1218 10.9645 12.1487 10.8206 12.0733L9.4815 11.3719C9.40083 11.3296 9.30696 11.3172 9.22053 11.3459C9.11192 11.3819 9.01065 11.4253 8.90938 11.4687C8.82573 11.5046 8.74209 11.5404 8.65431 11.5722C8.53648 11.6147 8.4377 11.7025 8.39654 11.8209L7.89925 13.2506C7.84731 13.3999 7.70654 13.5 7.54844 13.5H6.45156C6.29346 13.5 6.15269 13.3999 6.10075 13.2506L5.60829 11.8348C5.56451 11.7089 5.45615 11.618 5.32733 11.5839C5.15385 11.538 4.98498 11.4761 4.82288 11.3991C4.70921 11.3451 4.57647 11.3415 4.46498 11.3999L3.17939 12.0733C3.03549 12.1487 2.85928 12.1218 2.74441 12.0069L1.99309 11.2556C1.87822 11.1407 1.85133 10.9645 1.92671 10.8206L2.62814 9.4815C2.6704 9.40083 2.68282 9.30696 2.65412 9.22053C2.61805 9.11192 2.57465 9.01065 2.53125 8.90938C2.4954 8.82573 2.45955 8.74209 2.42784 8.65431C2.38527 8.53648 2.29745 8.4377 2.17913 8.39654L0.749406 7.89925C0.60008 7.84731 0.5 7.70654 0.5 7.54844V6.45156C0.5 6.29346 0.600082 6.15269 0.749408 6.10075L2.18055 5.60296C2.29809 5.56208 2.38597 5.46458 2.42393 5.34607C2.47247 5.19451 2.53161 5.04655 2.6009 4.90329C2.65552 4.79037 2.65867 4.65802 2.60046 4.54691L1.92671 3.26064C1.85133 3.11673 1.87822 2.94053 1.99309 2.82566L2.82566 1.99309C2.94053 1.87822 3.11673 1.85133 3.26064 1.92671L4.54691 2.60046C4.65802 2.65867 4.79037 2.65552 4.90329 2.6009C5.04655 2.53161 5.19451 2.47247 5.34607 2.42393C5.46458 2.38597 5.56208 2.29809 5.60296 2.18055L6.10075 0.749407C6.15269 0.600081 6.29346 0.5 6.45156 0.5H7.54479C7.70466 0.5 7.8466 0.602303 7.89716 0.753973L8.39333 2.2425C8.43602 2.37056 8.54534 2.46352 8.6758 2.4982C8.84818 2.54402 9.01599 2.60559 9.17712 2.68215C9.29079 2.73616 9.42353 2.73976 9.53502 2.68136L10.8206 2.00796C10.9645 1.93258 11.1407 1.95947 11.2556 2.07434L12.0069 2.82566C12.1218 2.94053 12.1487 3.11673 12.0733 3.26064L11.3995 4.54691ZM6.99946 9.3472C8.29579 9.3472 9.34668 8.29632 9.34668 6.99998C9.34668 5.70365 8.29579 4.65276 6.99946 4.65276C5.70312 4.65276 4.65224 5.70365 4.65224 6.99998C4.65224 8.29632 5.70312 9.3472 6.99946 9.3472Z" fill="#A7A9B2"/>
</svg>
