<svg width="32" height="32" viewBox="0 0 32 32" fill="none" xmlns="http://www.w3.org/2000/svg">
<path fill-rule="evenodd" clip-rule="evenodd" d="M10.114 5.39527C11.6781 3.85955 13.7958 3 16 3C18.2043 3 20.3219 3.85955 21.8861 5.39527C23.4508 6.93159 24.3334 9.01924 24.3334 11.2C24.3334 15.2496 25.2574 18.0147 26.0825 19.5C26.4966 20.2454 26.902 20.7383 27.1884 21.035C27.3318 21.1837 27.446 21.2838 27.5174 21.3422C27.5531 21.3713 27.578 21.3901 27.5906 21.3993C27.5946 21.4022 27.5988 21.4052 27.5988 21.4052C27.9622 21.6489 28.1253 22.1012 28 22.5214C27.8736 22.9452 27.4839 23.2356 27.0417 23.2356H5.04169C4.59947 23.2356 4.20975 22.9452 4.08339 22.5214C3.9581 22.1012 4.1212 21.6489 4.48463 21.4052C4.48463 21.4052 4.4888 21.4022 4.49278 21.3993C4.50535 21.3901 4.53033 21.3713 4.56601 21.3422C4.63734 21.2838 4.75156 21.1837 4.89499 21.035C5.18134 20.7383 5.58678 20.2454 6.00087 19.5C6.82602 18.0147 7.6667 15.2496 7.6667 11.2C7.6667 9.01924 8.54921 6.93159 10.114 5.39527ZM24.8005 21.2356C24.6466 21.0059 24.49 20.7517 24.3342 20.4713C23.326 18.6565 22.3334 15.5504 22.3334 11.2C22.3334 9.56164 21.6706 7.98659 20.4849 6.8224C19.2985 5.65759 17.6856 5 16 5C14.3145 5 12.7016 5.65759 11.5152 6.8224C10.3294 7.98659 9.6667 9.56164 9.6667 11.2C9.6667 15.5504 8.75737 18.6565 7.74918 20.4713C7.5934 20.7517 7.43678 21.0059 7.28287 21.2356H24.8005Z" fill="#898995"/>
<path fill-rule="evenodd" clip-rule="evenodd" d="M13.1916 25.135C13.6693 24.8579 14.2813 25.0205 14.5584 25.4982C14.7049 25.7508 14.9152 25.9604 15.1682 26.1062C15.4212 26.2519 15.7081 26.3286 16.0001 26.3286C16.292 26.3286 16.5789 26.2519 16.8319 26.1062C17.0849 25.9604 17.2952 25.7508 17.4417 25.4982C17.7188 25.0205 18.3308 24.8579 18.8085 25.135C19.2862 25.4121 19.4488 26.024 19.1717 26.5018C18.8494 27.0574 18.3868 27.5186 17.8301 27.8392C17.2735 28.1599 16.6424 28.3286 16.0001 28.3286C15.3577 28.3286 14.7266 28.1599 14.17 27.8392C13.6133 27.5186 13.1507 27.0574 12.8284 26.5018C12.5513 26.024 12.7139 25.4121 13.1916 25.135Z" fill="#898995"/>
</svg>
