<svg width="32" height="32" viewBox="0 0 32 32" fill="none" xmlns="http://www.w3.org/2000/svg">
<path fill-rule="evenodd" clip-rule="evenodd" d="M11.8443 21.5H7.73913C6.77863 21.5 6 20.7165 6 19.75V6.75C6 5.7835 6.77864 5 7.73913 5H24.2609C25.2214 5 26 5.7835 26 6.75V19.75C26 20.7165 25.2214 21.5 24.2609 21.5H20.1557L16 26L11.8443 21.5ZM21.0453 23.5H24.2609C26.3377 23.5 28 21.8093 28 19.75V6.75C28 4.6907 26.3377 3 24.2609 3H7.73913C5.66234 3 4 4.6907 4 6.75V19.75C4 21.8093 5.66234 23.5 7.73913 23.5H10.9546L14.5146 27.3393C14.8939 27.7599 15.4337 28 16 28C16.5663 28 17.1061 27.7599 17.4854 27.3393L21.0453 23.5Z" fill="#898995"/>
<path d="M15.9856 8.63116C16.6558 8.63116 17.1991 9.04977 17.1991 9.56615V14.8043C17.1991 15.3207 16.6558 15.7393 15.9856 15.7393C15.3154 15.7393 14.7722 15.3207 14.7722 14.8043V9.56615C14.7722 9.04977 15.3154 8.63116 15.9856 8.63116Z" fill="#898995"/>
<path d="M17.3211 18.1653C17.3211 18.9025 16.7232 19.5 15.9856 19.5C15.2479 19.5 14.65 18.9025 14.65 18.1653C14.65 17.4282 15.2479 16.8307 15.9856 16.8307C16.7232 16.8307 17.3211 17.4282 17.3211 18.1653Z" fill="#898995"/>
</svg>
