<svg width="16" height="16" viewBox="0 0 16 16" fill="none" xmlns="http://www.w3.org/2000/svg">
<path d="M8.38243 1.56396C6.67548 1.56396 5.03845 2.24204 3.83146 3.44904C2.62447 4.65603 1.94639 6.29306 1.94639 8L0.330322 8L2.6329 10.8819L5.02935 8H3.37662C3.37662 5.2325 5.61493 2.99419 8.38243 2.99419C11.1499 2.99419 13.3882 5.2325 13.3882 8C13.3882 10.7675 11.1499 13.0058 8.38243 13.0058C7.00225 13.0058 5.7508 12.4409 4.84976 11.5327L3.83429 12.5481C4.43028 13.1474 5.13901 13.6228 5.91962 13.9468C6.70022 14.2708 7.53725 14.4371 8.38243 14.436C10.0894 14.436 11.7264 13.7579 12.9334 12.551C14.1404 11.344 14.8185 9.70694 14.8185 8C14.8185 6.29306 14.1404 4.65603 12.9334 3.44904C11.7264 2.24204 10.0894 1.56396 8.38243 1.56396ZM7.66731 5.13954V8.71511L10.7066 10.5172L11.2572 9.60186L8.73998 8.10726V5.13954H7.66731Z" fill="#232533"/>
</svg>
