<svg width="14" height="14" viewBox="0 0 14 14" fill="none" xmlns="http://www.w3.org/2000/svg">
<path fill-rule="evenodd" clip-rule="evenodd" d="M7 1C3.69248 1 1 3.69248 1 7C1 10.3075 3.69248 13 7 13C10.3075 13 13 10.3075 13 7C13 3.69248 10.3075 1 7 1ZM7 0C3.1402 0 0 3.1402 0 7C0 10.8598 3.1402 14 7 14C10.8598 14 14 10.8598 14 7C14 3.1402 10.8598 0 7 0Z" fill="#5F616D"/>
<path d="M6.29984 6.3H7.69981V10.5H6.29984V6.3ZM6.29984 3.5H7.69981L7.69977 5.17795H6.2998L6.29984 3.5Z" fill="#5F616D"/>
</svg>
