<svg width="32" height="32" viewBox="0 0 32 32" fill="none" xmlns="http://www.w3.org/2000/svg">
<path d="M20 6C18.6228 5.99931 17.2606 6.28538 16 6.84C14.7394 6.28538 13.3772 5.99931 12 6C9.34784 6 6.8043 7.05357 4.92893 8.92893C3.05357 10.8043 2 13.3478 2 16C2 18.6522 3.05357 21.1957 4.92893 23.0711C6.8043 24.9464 9.34784 26 12 26C13.3772 26.0007 14.7394 25.7146 16 25.16C17.2606 25.7146 18.6228 26.0007 20 26C22.6522 26 25.1957 24.9464 27.0711 23.0711C28.9464 21.1957 30 18.6522 30 16C30 13.3478 28.9464 10.8043 27.0711 8.92893C25.1957 7.05357 22.6522 6 20 6ZM12 24C9.87827 24 7.84344 23.1571 6.34315 21.6569C4.84285 20.1566 4 18.1217 4 16C4 13.8783 4.84285 11.8434 6.34315 10.3431C7.84344 8.84286 9.87827 8 12 8C12.5923 8.00056 13.1827 8.06765 13.76 8.2C12.5921 9.13702 11.6495 10.3244 11.0018 11.6744C10.3541 13.0244 10.0178 14.5026 10.0178 16C10.0178 17.4974 10.3541 18.9756 11.0018 20.3256C11.6495 21.6756 12.5921 22.863 13.76 23.8C13.1827 23.9324 12.5923 23.9994 12 24ZM20 16C19.9986 17.4029 19.6282 18.7808 18.9262 19.9954C18.2241 21.2099 17.2149 22.2186 16 22.92C14.7877 22.2168 13.7814 21.2074 13.0819 19.9929C12.3824 18.7784 12.0142 17.4015 12.0142 16C12.0142 14.5985 12.3824 13.2216 13.0819 12.0071C13.7814 10.7926 14.7877 9.78324 16 9.08C17.2149 9.78145 18.2241 10.7901 18.9262 12.0047C19.6282 13.2192 19.9986 14.5971 20 16ZM20 24C19.4077 23.9994 18.8173 23.9324 18.24 23.8C19.4079 22.863 20.3505 21.6756 20.9982 20.3256C21.6459 18.9756 21.9822 17.4974 21.9822 16C21.9822 14.5026 21.6459 13.0244 20.9982 11.6744C20.3505 10.3244 19.4079 9.13702 18.24 8.2C18.8173 8.06765 19.4077 8.00056 20 8C22.1217 8 24.1566 8.84286 25.6569 10.3431C27.1571 11.8434 28 13.8783 28 16C28 18.1217 27.1571 20.1566 25.6569 21.6569C24.1566 23.1571 22.1217 24 20 24Z" fill="black"/>
</svg>
