<svg width="32" height="32" viewBox="0 0 32 32" fill="none" xmlns="http://www.w3.org/2000/svg">
<path d="M20.0001 6C18.6227 5.99935 17.2603 6.28613 16.0001 6.842C14.4783 6.17546 12.8144 5.89862 11.1587 6.03649C9.50309 6.17436 7.90789 6.7226 6.51729 7.63166C5.12669 8.54072 3.98452 9.78196 3.194 11.2432C2.40347 12.7044 1.9895 14.3396 1.9895 16.001C1.9895 17.6624 2.40347 19.2976 3.194 20.7588C3.98452 22.22 5.12669 23.4613 6.51729 24.3703C7.90789 25.2794 9.50309 25.8276 11.1587 25.9655C12.8144 26.1034 14.4783 25.8265 16.0001 25.16C17.3623 25.7551 18.8401 26.0389 20.3258 25.9908C21.8115 25.9427 23.2678 25.5639 24.5887 24.882C25.9096 24.2001 27.0618 23.2322 27.9614 22.0488C28.8611 20.8654 29.4855 19.4964 29.7893 18.0412C30.0931 16.5861 30.0686 15.0815 29.7175 13.637C29.3665 12.1926 28.6978 10.8445 27.7601 9.69111C26.8224 8.53768 25.6392 7.60786 24.2969 6.96934C22.9545 6.33082 21.4866 5.99967 20.0001 6ZM12.0001 24C10.8724 24.0041 9.75668 23.7698 8.72597 23.3124C7.69525 22.855 6.77288 22.1849 6.01935 21.346C5.26581 20.5071 4.69814 19.5183 4.35356 18.4446C4.00899 17.3709 3.89529 16.2365 4.01994 15.1158C4.14458 13.995 4.50475 12.9133 5.07681 11.9416C5.64888 10.9698 6.41992 10.13 7.33936 9.47712C8.2588 8.82428 9.30587 8.37319 10.4119 8.15343C11.5179 7.93368 12.6579 7.95023 13.7571 8.202C12.585 9.13611 11.6386 10.3224 10.9882 11.6726C10.3377 13.0228 9.99989 14.5023 9.99989 16.001C9.99989 17.4997 10.3377 18.9792 10.9882 20.3294C11.6386 21.6796 12.585 22.8659 13.7571 23.8C13.1806 23.9314 12.5913 23.9985 12.0001 24ZM20.0001 24C19.4088 23.9985 18.8196 23.9314 18.2431 23.8C19.4153 22.8659 20.3619 21.6796 21.0125 20.3293C21.663 18.979 22.0009 17.4994 22.0009 16.0005C22.0009 14.5016 21.663 13.022 21.0125 11.6717C20.3619 10.3214 19.4153 9.1351 18.2431 8.201C19.3403 7.95417 20.4772 7.94152 21.5796 8.1639C22.682 8.38627 23.7251 8.83866 24.6408 9.49152C25.5565 10.1444 26.3242 10.9831 26.8938 11.9528C27.4633 12.9225 27.822 14.0014 27.9463 15.1191C28.0706 16.2368 27.9578 17.3682 27.6151 18.4393C27.2725 19.5105 26.7078 20.4973 25.9579 21.3354C25.208 22.1735 24.2898 22.844 23.2632 23.3032C22.2366 23.7623 21.1247 23.9998 20.0001 24Z" fill="black"/>
</svg>
