<svg width="32" height="32" viewBox="0 0 32 32" fill="none" xmlns="http://www.w3.org/2000/svg">
<path d="M19.9999 6C18.6231 6.001 17.2613 6.28629 15.9999 6.838C17.7832 7.61553 19.3008 8.89656 20.3666 10.524C21.4324 12.1515 22.0002 14.0546 22.0002 16C22.0002 17.9454 21.4324 19.8485 20.3666 21.476C19.3008 23.1034 17.7832 24.3845 15.9999 25.162C17.3623 25.7571 18.8402 26.0409 20.326 25.9928C21.8119 25.9446 23.2684 25.5658 24.5894 24.8838C25.9104 24.2017 27.0627 23.2338 27.9624 22.0503C28.8621 20.8667 29.4865 19.4975 29.7903 18.0422C30.0941 16.5869 30.0696 15.0822 29.7185 13.6376C29.3674 12.193 28.6986 10.8449 27.7607 9.69132C26.8229 8.53779 25.6397 7.6079 24.2971 6.96935C22.9546 6.33079 21.4865 5.99964 19.9999 6ZM9.99989 16C10.0005 14.0548 10.5684 12.1519 11.6342 10.5246C12.6999 8.89728 14.2171 7.6161 15.9999 6.838C14.478 6.17237 12.8142 5.89633 11.1589 6.03482C9.50362 6.17331 7.90888 6.72197 6.51874 7.63125C5.12861 8.54052 3.98688 9.78176 3.19667 11.2429C2.40647 12.704 1.99268 14.3389 1.99268 16C1.99268 17.6611 2.40647 19.296 3.19667 20.7571C3.98688 22.2182 5.12861 23.4595 6.51874 24.3688C7.90888 25.278 9.50362 25.8267 11.1589 25.9652C12.8142 26.1037 14.478 25.8276 15.9999 25.162C14.2171 24.3839 12.6999 23.1027 11.6342 21.4754C10.5684 19.8481 10.0005 17.9452 9.99989 16Z" fill="black"/>
</svg>
