<svg width="32" height="32" viewBox="0 0 32 32" fill="none" xmlns="http://www.w3.org/2000/svg">
<path d="M19.9999 6C18.6218 5.99977 17.2587 6.28581 15.9969 6.84C17.7808 7.61642 19.2991 8.89684 20.3656 10.5241C21.432 12.1513 22.0001 14.0545 22.0001 16C22.0001 17.9455 21.432 19.8487 20.3656 21.476C19.2991 23.1032 17.7808 24.3836 15.9969 25.16C17.3592 25.7559 18.8373 26.0404 20.3235 25.9929C21.8096 25.9454 23.2665 25.567 24.588 24.8853C25.9094 24.2036 27.0622 23.2358 27.9624 22.0523C28.8626 20.8688 29.4875 19.4994 29.7916 18.0439C30.0957 16.5884 30.0713 15.0834 29.7203 13.6385C29.3692 12.1936 28.7004 10.8451 27.7624 9.69137C26.8244 8.53762 25.6409 7.6076 24.298 6.96902C22.9552 6.33045 21.4868 5.99941 19.9999 6Z" fill="black"/>
<path d="M9.99989 16C9.99963 17.4984 10.3368 18.9776 10.9863 20.3279C11.6358 21.6782 12.5811 22.8649 13.7519 23.8C15.5238 23.4024 17.1075 22.4133 18.2423 20.9956C19.3771 19.5778 19.9955 17.816 19.9955 16C19.9955 14.184 19.3771 12.4222 18.2423 11.0045C17.1075 9.58673 15.5238 8.59764 13.7519 8.2C12.5811 9.13507 11.6358 10.3218 10.9863 11.6721C10.3368 13.0224 9.99963 14.5016 9.99989 16Z" fill="black"/>
<path d="M11.9999 24C10.8728 24.0036 9.75764 23.769 8.72754 23.3115C7.69744 22.8541 6.77562 22.1841 6.0225 21.3456C5.26937 20.507 4.70195 19.5188 4.35739 18.4456C4.01284 17.3724 3.89894 16.2386 4.02316 15.1184C4.14738 13.9981 4.50692 12.9168 5.0782 11.9452C5.64949 10.9736 6.41963 10.1336 7.33817 9.48045C8.25671 8.82725 9.30291 8.37552 10.4082 8.15486C11.5135 7.93419 12.653 7.94958 13.7519 8.2C14.4372 7.65 15.1921 7.19273 15.9969 6.84C14.4749 6.17344 12.8109 5.8966 11.1551 6.03451C9.49931 6.17242 7.90398 6.72072 6.51326 7.62988C5.12255 8.53904 3.98029 9.7804 3.1897 11.2418C2.39911 12.7031 1.98511 14.3385 1.98511 16C1.98511 17.6615 2.39911 19.2969 3.1897 20.7582C3.98029 22.2196 5.12255 23.461 6.51326 24.3701C7.90398 25.2793 9.49931 25.8276 11.1551 25.9655C12.8109 26.1034 14.4749 25.8266 15.9969 25.16C15.1921 24.8073 14.4372 24.35 13.7519 23.8C13.177 23.931 12.5895 23.9981 11.9999 24Z" fill="black"/>
</svg>
