<svg width="32" height="32" viewBox="0 0 32 32" fill="none" xmlns="http://www.w3.org/2000/svg">
<path d="M20 6C18.6238 5.99914 17.2625 6.28523 16.003 6.84C16.8078 7.19273 17.5627 7.65 18.248 8.2C19.4195 7.93337 20.636 7.93401 21.8071 8.20189C22.9783 8.46977 24.0742 8.99799 25.0133 9.74736C25.9523 10.4967 26.7106 11.448 27.2317 12.5305C27.7528 13.6131 28.0234 14.7991 28.0234 16.0005C28.0234 17.2019 27.7528 18.3879 27.2317 19.4705C26.7106 20.553 25.9523 21.5043 25.0133 22.2536C24.0742 23.003 22.9783 23.5312 21.8071 23.7991C20.636 24.067 19.4195 24.0676 18.248 23.801C17.5627 24.351 16.8078 24.8083 16.003 25.161C17.3653 25.7557 18.843 26.0391 20.3287 25.9907C21.8143 25.9423 23.2705 25.5632 24.5912 24.881C25.9118 24.1989 27.0638 23.2308 27.9632 22.0474C28.8625 20.8639 29.4867 19.4948 29.7902 18.0396C30.0938 16.5845 30.069 15.08 29.7178 13.6357C29.3666 12.1913 28.6978 10.8435 27.76 9.69022C26.8222 8.53695 25.639 7.6073 24.2966 6.96894C22.9543 6.33058 21.4864 5.99957 20 6Z" fill="black"/>
<path d="M12 16C12.0031 17.8158 12.6231 19.5767 13.7584 20.9939C14.8936 22.4111 16.4766 23.4006 18.248 23.8C19.4182 22.8645 20.363 21.6777 21.0122 20.3274C21.6615 18.9772 21.9986 17.4982 21.9986 16C21.9986 14.5018 21.6615 13.0228 21.0122 11.6726C20.363 10.3223 19.4182 9.13551 18.248 8.2C16.4766 8.59944 14.8936 9.58888 13.7584 11.0061C12.6231 12.4233 12.0031 14.1842 12 16Z" fill="black"/>
<path d="M9.99978 16C10.0023 14.0551 10.5716 12.153 11.6377 10.5262C12.7038 8.89949 14.2207 7.61856 16.003 6.84C14.481 6.17344 12.817 5.8966 11.1612 6.03451C9.50541 6.17242 7.91008 6.72072 6.51937 7.62988C5.12865 8.53904 3.98639 9.7804 3.1958 11.2418C2.40521 12.7031 1.99121 14.3385 1.99121 16C1.99121 17.6615 2.40521 19.2969 3.1958 20.7582C3.98639 22.2196 5.12865 23.461 6.51937 24.3701C7.91008 25.2793 9.50541 25.8276 11.1612 25.9655C12.817 26.1034 14.481 25.8276 16.003 25.161C14.2207 24.3824 12.7038 23.1005 11.6377 21.4738C10.5716 19.847 10.0023 17.9449 9.99978 16Z" fill="black"/>
</svg>
