<svg width="12" height="14" viewBox="0 0 12 14" fill="none" xmlns="http://www.w3.org/2000/svg">
<path d="M10.5077 5.75167V4.45433C10.5062 1.9936 8.39942 0 5.79951 0C3.20058 0 1.09382 1.9936 1.09234 4.45433V5.7512C0.469977 5.86413 0 6.37887 0 7V12.7274C0 13.4302 0.602143 14 1.34483 14H10.2552C10.9979 14 11.6 13.4302 11.6 12.7274V7C11.6 6.37887 11.1295 5.86367 10.5077 5.75167ZM6.3045 10.2069V12.0913H5.2955V10.2069C4.80284 10.0179 4.45517 9.56247 4.45517 9.0286C4.45517 8.3258 5.05731 7.75553 5.8 7.75553C6.54269 7.75553 7.14483 8.32533 7.14483 9.0286C7.14483 9.56247 6.79716 10.0179 6.3045 10.2069ZM8.48819 5.7274H3.11033V4.45433C3.1128 3.0478 4.31412 1.91007 5.79951 1.90867C7.28489 1.91007 8.48671 3.0478 8.48819 4.45433V5.7274V5.7274Z" fill="#A7A9B2"/>
</svg>
