<svg width="32" height="32" viewBox="0 0 32 32" fill="none" xmlns="http://www.w3.org/2000/svg">
<path d="M29.25 6.76C28.6926 6.20064 28.0302 5.75682 27.3009 5.45399C26.5716 5.15116 25.7897 4.99527 25 4.99527C24.2103 4.99527 23.4284 5.15116 22.6991 5.45399C21.9697 5.75682 21.3074 6.20064 20.75 6.76L22.17 8.18C22.5423 7.8077 22.9842 7.51238 23.4707 7.31089C23.9571 7.10941 24.4785 7.00571 25.005 7.00571C25.5315 7.00571 26.0528 7.10941 26.5393 7.31089C27.0257 7.51238 27.4677 7.8077 27.84 8.18C28.2123 8.5523 28.5076 8.99428 28.7091 9.48071C28.9106 9.96714 29.0143 10.4885 29.0143 11.015C29.0143 11.5415 28.9106 12.0629 28.7091 12.5493C28.5076 13.0357 28.2123 13.4777 27.84 13.85L19.84 21.85C19.0894 22.6019 18.0709 23.0248 17.0085 23.0258C15.9461 23.0267 14.9269 22.6056 14.175 21.855C13.4231 21.1044 13.0001 20.0859 12.9992 19.0235C12.9983 17.9611 13.4194 16.9419 14.17 16.19L15.58 14.77L14.17 13.35L12.75 14.77C12.1906 15.3274 11.7468 15.9898 11.444 16.7191C11.1411 17.4484 10.9852 18.2303 10.9852 19.02C10.9852 19.8097 11.1411 20.5916 11.444 21.3209C11.7468 22.0502 12.1906 22.7126 12.75 23.27C13.8815 24.387 15.41 25.0092 17 25C17.7927 25.0033 18.5782 24.8494 19.3111 24.5473C20.044 24.2452 20.7098 23.8009 21.27 23.24L29.27 15.24C30.3909 14.1124 31.0184 12.5859 31.0147 10.9959C31.0109 9.40586 30.3762 7.88235 29.25 6.76Z" fill="#232533"/>
<path d="M4.18997 24.82C3.81656 24.4483 3.52026 24.0065 3.31807 23.52C3.11589 23.0335 3.01181 22.5119 3.01181 21.985C3.01181 21.4581 3.11589 20.9365 3.31807 20.45C3.52026 19.9635 3.81656 19.5217 4.18997 19.15L12.19 11.15C12.5616 10.7766 13.0034 10.4803 13.4899 10.2781C13.9765 10.0759 14.4981 9.97184 15.025 9.97184C15.5518 9.97184 16.0735 10.0759 16.56 10.2781C17.0465 10.4803 17.4883 10.7766 17.86 11.15C18.231 11.5246 18.5231 11.9699 18.7189 12.4594C18.9147 12.949 19.0103 13.4728 19 14C19.003 14.5288 18.9012 15.053 18.7004 15.5422C18.4995 16.0314 18.2037 16.4759 17.83 16.85L15.71 19L17.13 20.42L19.25 18.3C20.3785 17.1715 21.0124 15.6409 21.0124 14.045C21.0124 12.4491 20.3785 10.9185 19.25 9.79C18.1215 8.6615 16.5909 8.02752 14.995 8.02752C13.399 8.02752 11.8685 8.6615 10.74 9.79L2.73997 17.79C2.17911 18.3476 1.73401 19.0106 1.43029 19.7408C1.12657 20.4711 0.970215 21.2541 0.970215 22.045C0.970215 22.8359 1.12657 23.619 1.43029 24.3492C1.73401 25.0794 2.17911 25.7424 2.73997 26.3C3.87879 27.4085 5.41087 28.0199 6.99997 28C8.60307 28.0015 10.1417 27.3688 11.28 26.24L9.85997 24.82C9.4883 25.1934 9.04652 25.4897 8.56 25.6919C8.07349 25.8941 7.55182 25.9982 7.02497 25.9982C6.49812 25.9982 5.97645 25.8941 5.48994 25.6919C5.00342 25.4897 4.56164 25.1934 4.18997 24.82Z" fill="#232533"/>
</svg>
