<svg width="16" height="16" viewBox="0 0 16 16" fill="none" xmlns="http://www.w3.org/2000/svg">
<path fill-rule="evenodd" clip-rule="evenodd" d="M7.99988 15.12C11.9321 15.12 15.1199 11.9323 15.1199 8C15.1199 4.06774 11.9321 0.880005 7.99988 0.880005C4.06762 0.880005 0.879883 4.06774 0.879883 8C0.879883 11.9323 4.06762 15.12 7.99988 15.12ZM12.7465 8C12.7465 10.6215 10.6214 12.7467 7.99988 12.7467C7.13839 12.7467 6.33051 12.5172 5.63403 12.116L12.1158 5.63415C12.517 6.33063 12.7465 7.13852 12.7465 8ZM3.90701 10.4055L10.4054 3.90713C9.69998 3.49166 8.87776 3.25334 7.99988 3.25334C5.37837 3.25334 3.25322 5.37849 3.25322 8C3.25322 8.87789 3.49153 9.7001 3.90701 10.4055Z" fill="#232533"/>
</svg>
