<svg width="24" height="24" viewBox="0 0 24 24" fill="none" xmlns="http://www.w3.org/2000/svg">
<path d="M11.3127 3.00638L5.10359 3.60418C4.29426 3.6781 3.65215 4.31925 3.57812 5.12737L3.00622 11.354C2.96344 11.853 3.14281 12.3457 3.49642 12.7L11.3191 20.511C11.9797 21.163 13.0418 21.163 13.7025 20.511L20.5103 13.7134C21.1632 13.0537 21.1632 11.9932 20.5103 11.3336L12.6608 3.49583C12.3053 3.14211 11.8119 2.96304 11.3127 3.00638ZM19.489 12.3533C19.5343 12.3986 19.5599 12.4598 19.5599 12.5235C19.5599 12.5872 19.5343 12.6484 19.489 12.6937L12.6812 19.4913C12.5867 19.5856 12.4348 19.5856 12.3403 19.4913L4.49084 11.6535C4.43723 11.6051 4.4117 11.5337 4.42255 11.463L4.98742 5.22935C4.99444 5.11145 5.08763 5.0184 5.2057 5.01139L11.4487 4.44737C11.5195 4.43653 11.591 4.46203 11.6395 4.51556L19.489 12.3533ZM7.23414 7.25475C6.61437 7.8736 6.42929 8.80408 6.76501 9.61222C7.10011 10.421 7.89029 10.9474 8.76602 10.9474C9.64237 10.9481 10.4326 10.4204 10.7677 9.61287C11.1028 8.80411 10.9177 7.87361 10.2979 7.25477C9.45219 6.41032 8.07986 6.4103 7.23414 7.25475ZM9.27662 9.29418C9.06982 9.50067 8.75963 9.56185 8.48963 9.45032C8.22027 9.33942 8.04412 9.07558 8.04412 8.78496C8.04412 8.49307 8.21964 8.22985 8.48963 8.11833C8.75962 8.0068 9.07046 8.06862 9.27662 8.27447C9.55364 8.55872 9.55363 9.01122 9.27662 9.29418Z" fill="#232533"/>
</svg>
