<svg width="24" height="24" viewBox="0 0 24 24" fill="none" xmlns="http://www.w3.org/2000/svg">
<path fill-rule="evenodd" clip-rule="evenodd" d="M9.42849 4C7.39115 4 5.69849 5.60445 5.69849 7.63349C5.69849 9.66253 7.39115 11.267 9.42849 11.267C11.4658 11.267 13.1585 9.66253 13.1585 7.63349C13.1585 5.60445 11.4658 4 9.42849 4ZM7.15849 7.63349C7.15849 6.45542 8.15212 5.46 9.42849 5.46C10.7049 5.46 11.6985 6.45542 11.6985 7.63349C11.6985 8.81156 10.7049 9.80698 9.42849 9.80698C8.15212 9.80698 7.15849 8.81156 7.15849 7.63349Z" fill="#232533"/>
<path fill-rule="evenodd" clip-rule="evenodd" d="M9.4286 12C7.54171 12 5.72507 12.7119 4.38005 13.99C3.03377 15.2693 2.27002 17.0126 2.27002 18.8386V20.1961C2.27002 20.5993 2.59685 20.9261 3.00002 20.9261H15.8572C16.2603 20.9261 16.5872 20.5993 16.5872 20.1961V18.8386C16.5872 17.0126 15.8234 15.2693 14.4771 13.99C13.1321 12.7119 11.3155 12 9.4286 12ZM5.38576 15.0484C6.45192 14.0353 7.90556 13.46 9.4286 13.46C10.9516 13.46 12.4053 14.0353 13.4714 15.0484C14.5363 16.0603 15.1272 17.4245 15.1272 18.8386V19.4661H3.73002V18.8386C3.73002 17.4245 4.32086 16.0603 5.38576 15.0484Z" fill="#232533"/>
<path d="M14.27 4.73C14.27 4.32683 14.5969 4 15 4C15.9062 4 16.7544 4.40723 17.3648 5.09642C17.9726 5.78274 18.3015 6.69652 18.3015 7.63349C18.3015 8.57046 17.9726 9.48425 17.3648 10.1706C16.7544 10.8598 15.9062 11.267 15 11.267C14.5969 11.267 14.27 10.9402 14.27 10.537C14.27 10.1338 14.5969 9.80698 15 9.80698C15.4578 9.80698 15.9177 9.60241 16.2718 9.20258C16.6285 8.79987 16.8414 8.23663 16.8414 7.63349C16.8414 7.03035 16.6285 6.46711 16.2718 6.0644C15.9177 5.66457 15.4578 5.46 15 5.46C14.5969 5.46 14.27 5.13317 14.27 4.73Z" fill="#232533"/>
<path d="M16.9628 12.0436C16.5837 11.9064 16.1651 12.1025 16.0279 12.4816C15.8907 12.8607 16.0868 13.2792 16.4659 13.4164C17.5914 13.8238 18.5544 14.5446 19.2315 15.4775C19.908 16.4097 20.2684 17.5111 20.27 18.6359V19.4661H18.7833C18.3801 19.4661 18.0533 19.793 18.0533 20.1961C18.0533 20.5993 18.3801 20.9261 18.7833 20.9261H21C21.4032 20.9261 21.73 20.5993 21.73 20.1961V18.6354L21.73 18.6344C21.7281 17.1965 21.267 15.7966 20.4131 14.62C19.5595 13.4438 18.355 12.5475 16.9628 12.0436Z" fill="#232533"/>
</svg>
