<?xml version="1.0" encoding="utf-8"?>
<!-- Generator: Adobe Illustrator 24.0.0, SVG Export Plug-In . SVG Version: 6.00 Build 0)  -->
<svg version="1.1" id="Layer_1" xmlns="http://www.w3.org/2000/svg" xmlns:xlink="http://www.w3.org/1999/xlink" x="0px" y="0px"
	 viewBox="0 0 16 16" style="enable-background:new 0 0 16 16;" xml:space="preserve">
<style type="text/css">
	.st0{fill:#667EEA;}
</style>
<path class="st0" d="M13.8,2.3l-9.1,3V10l1.1,0.2l-0.8,1.5C5,11.9,4.9,12,4.9,12.2c0,0.2,0,0.4,0.1,0.6c0.1,0.2,0.2,0.3,0.3,0.5
	c0.1,0.1,0.3,0.2,0.5,0.3l2.7,0.9c0.3,0.1,0.6,0.1,0.9,0c0.3-0.1,0.5-0.3,0.7-0.6l0.9-1.7l2.7,1c0.1,0,0.2,0,0.3,0
	c0.1,0,0.2-0.1,0.3-0.1c0.1-0.1,0.2-0.1,0.2-0.2c0-0.1,0.1-0.2,0.1-0.3V2.9c0-0.1,0-0.2-0.1-0.3c0-0.1-0.1-0.2-0.2-0.2
	c-0.1-0.1-0.2-0.1-0.3-0.1C14,2.3,13.9,2.3,13.8,2.3z M9,13.2l-2.7-0.9l0.8-1.6l2.7,1L9,13.2z M2.7,10H4V5.3H2.7
	c-0.7,0-1.3,0.6-1.3,1.3v2C1.3,9.4,1.9,10,2.7,10z"/>
</svg>
