<svg width="24" height="24" viewBox="0 0 24 24" fill="none" xmlns="http://www.w3.org/2000/svg">
<path d="M13.9044 16.9488C13.6092 17.2379 13.1371 17.2378 12.8418 16.9488C12.5377 16.651 12.5377 16.1613 12.8418 15.8635L14.6337 14.1356H7.92785C7.51268 14.1357 7.17605 13.7992 7.17605 13.3841C7.17605 12.9691 7.51238 12.6327 7.92734 12.6325L14.6337 12.6325L12.8418 10.941C12.5377 10.6432 12.5377 10.1536 12.8418 9.85577C13.1371 9.56671 13.6092 9.56671 13.9044 9.85577L17.1693 12.9895C17.3904 13.2061 17.3904 13.5621 17.1693 13.7786L13.9044 16.9488Z" fill="#232533"/>
<path fill-rule="evenodd" clip-rule="evenodd" d="M9.98426 4.10413L11.786 6.0853L19.7863 6.08527C20.6925 6.08527 21.3486 6.90672 21.3486 7.69578V19.1788C21.3486 20.2335 20.8567 21.007 19.7863 21.007L4.44414 21.007C3.44829 21.007 2.65137 20.0695 2.65137 19.257V7.46285C2.65137 7.43199 2.65231 7.40137 2.65418 7.37102H2.65137V6.12844C2.65137 5.06774 3.45316 4.10414 4.44414 4.10414L9.98426 4.10413ZM4.16675 7.58492L4.16675 19.4849L19.8407 19.4848L19.8407 7.58488L4.16675 7.58492Z" fill="#232533"/>
</svg>
