<svg width="24" height="24" viewBox="0 0 24 24" fill="none" xmlns="http://www.w3.org/2000/svg">
<path fill-rule="evenodd" clip-rule="evenodd" d="M14.608 6.37221C14.6591 6.26593 14.8023 6.26285 14.8555 6.36802C15.0615 6.77565 15.5279 7.71973 16.3212 9.43374L17.9984 9.68922C18.3517 9.74275 18.5959 10.0032 18.6816 10.3122L20.365 10.5844C20.4799 10.603 20.5256 10.7496 20.443 10.8347L18.1221 13.2279C17.9964 13.3521 17.9019 13.5065 17.847 13.6776C17.7913 13.8514 17.7781 14.0368 17.8087 14.2171L17.809 14.2185L18.3688 17.5855C18.3888 17.7056 18.2679 17.7975 18.1638 17.7415L16.1313 16.6472L16.3498 17.9761C16.3526 17.9929 16.3549 18.0097 16.3567 18.0263L17.8934 18.8723C18.2502 19.0691 18.7061 19.036 19.0331 18.7896C19.3603 18.5431 19.5323 18.1027 19.463 17.6889L18.9191 14.4179C18.8785 14.1736 18.9592 13.9248 19.1314 13.7532C19.6116 13.2747 20.0805 12.7821 20.549 12.2899C20.8271 11.9978 21.105 11.7059 21.3851 11.417C21.6768 11.1286 21.7895 10.6689 21.6658 10.2704C21.5418 9.87092 21.1903 9.5658 20.7902 9.50999C20.4012 9.4501 20.0124 9.38838 19.6235 9.32665C18.9715 9.22318 18.3194 9.11968 17.6664 9.02474C17.4283 8.99011 17.2227 8.83367 17.1185 8.60848C16.8291 7.98361 16.529 7.36356 16.2289 6.74373C16.0504 6.375 15.8719 6.00634 15.6958 5.63679C15.5227 5.25601 15.1342 5 14.7287 5C14.3233 5 13.9347 5.25601 13.7617 5.6368C13.5855 6.00636 13.407 6.37503 13.2285 6.74377C13.2 6.80262 13.1716 6.86147 13.1431 6.92033L13.7384 8.18142L14.608 6.37221ZM11.1282 17.3417L9.9834 17.9704C10.0106 18.2915 10.1709 18.5987 10.4244 18.7896C10.7513 19.036 11.2072 19.0691 11.564 18.8724L11.5647 18.872C11.8823 18.6975 12.6341 18.2837 13.3251 17.9031L12.1698 17.2687L11.2933 17.7402C11.1893 17.7962 11.0686 17.7045 11.0883 17.5845L11.1282 17.3417Z" fill="#E1E0FA"/>
<path fill-rule="evenodd" clip-rule="evenodd" d="M11.8756 6.37221C11.9266 6.26593 12.0699 6.26285 12.123 6.36802C12.3291 6.77565 12.7955 7.71973 13.5888 9.43374L15.266 9.68922C15.6193 9.74275 15.8634 10.0032 15.9492 10.3122L17.6325 10.5844C17.7475 10.603 17.7932 10.7496 17.7106 10.8347L15.3896 13.2279C15.2639 13.3521 15.1695 13.5065 15.1146 13.6776C15.0589 13.8514 15.0457 14.0368 15.0763 14.2171L15.0766 14.2185L15.6364 17.5855C15.6563 17.7056 15.5355 17.7975 15.4314 17.7415L13.3988 16.6472L13.6174 17.9761C13.6202 17.9929 13.6225 18.0097 13.6243 18.0263L15.161 18.8723C15.5178 19.0691 15.9737 19.036 16.3007 18.7896C16.6279 18.5431 16.7999 18.1027 16.7306 17.6889L16.1867 14.4179C16.1461 14.1736 16.2267 13.9248 16.399 13.7532C16.8792 13.2747 17.3481 12.7821 17.8166 12.2899C18.0947 11.9978 18.3726 11.7059 18.6527 11.417C18.9444 11.1286 19.0571 10.6689 18.9334 10.2704C18.8094 9.87092 18.4579 9.5658 18.0578 9.50999C17.6688 9.4501 17.2799 9.38838 16.891 9.32665C16.2391 9.22318 15.587 9.11968 14.934 9.02474C14.6959 8.99011 14.4903 8.83367 14.386 8.60848C14.0967 7.98361 13.7966 7.36356 13.4965 6.74373C13.318 6.375 13.1395 6.00634 12.9634 5.63679C12.7903 5.25601 12.4017 5 11.9963 5C11.5909 5 11.2023 5.25601 11.0292 5.6368C10.8531 6.00636 10.6746 6.37503 10.4961 6.74377C10.4676 6.80262 10.4391 6.86147 10.4106 6.92033L11.006 8.18142L11.8756 6.37221ZM8.39578 17.3417L7.25098 17.9704C7.2782 18.2915 7.43852 18.5987 7.69193 18.7896C8.01892 19.036 8.47477 19.0691 8.83153 18.8724L8.83228 18.872C9.14993 18.6975 9.90163 18.2837 10.5926 17.9031L9.43742 17.2687L8.56084 17.7402C8.45686 17.7962 8.33614 17.7045 8.35586 17.5845L8.39578 17.3417Z" fill="#B7AFED"/>
<path fill-rule="evenodd" clip-rule="evenodd" d="M9.39003 6.36802C9.33687 6.26285 9.19364 6.26593 9.14256 6.37221L7.6671 9.44187C7.59318 9.60921 7.47929 9.75422 7.33619 9.86304C7.19264 9.97221 7.02459 10.0412 6.84814 10.0636C6.70305 10.082 4.40722 10.449 3.59587 10.5788C3.47993 10.5974 3.43599 10.7457 3.52041 10.8303L5.86684 13.1833C5.9941 13.308 6.08968 13.4636 6.14501 13.6361C6.20066 13.8097 6.21385 13.9948 6.1834 14.1749C6.15296 14.355 6.18304 14.177 6.18304 14.177L5.62285 17.5845C5.60313 17.7045 5.72385 17.7962 5.82783 17.7402L8.75589 16.1653C8.75589 16.1653 9.087 16.0387 9.2633 16.0387C9.4396 16.0387 9.61483 16.0796 9.77071 16.1653L12.6984 17.7415C12.8025 17.7975 12.9233 17.7056 12.9034 17.5855L12.3436 14.2185L12.3433 14.2171C12.3127 14.0368 12.3259 13.8514 12.3816 13.6776C12.4365 13.5065 12.5309 13.3521 12.6566 13.2279L14.9776 10.8347C15.0602 10.7496 15.0145 10.603 14.8995 10.5844L11.6785 10.0636C11.502 10.0412 11.334 9.97221 11.1904 9.86304C11.0473 9.75422 10.9334 9.60921 10.8595 9.44186C10.0639 7.72271 9.59638 6.77629 9.39003 6.36802ZM10.2304 5.63679C10.0573 5.25601 9.66873 5 9.2633 5C8.85787 5 8.4693 5.25601 8.29622 5.6368C7.82403 6.62757 7.33499 7.61189 6.87358 8.60848C6.76932 8.83367 6.56373 8.99011 6.3256 9.02474C5.28681 9.1758 4.25026 9.34856 3.21282 9.5083C2.80885 9.54944 2.44509 9.84472 2.30916 10.2429C2.17109 10.6473 2.28022 11.1229 2.57894 11.419L4.86822 13.7145C5.03699 13.8838 5.11433 14.1288 5.07483 14.369L4.52905 17.6888L4.52889 17.6898C4.45996 18.1033 4.63196 18.5433 4.95893 18.7896C5.28591 19.036 5.74176 19.0691 6.09852 18.8724L6.09927 18.872C6.60774 18.5927 8.22841 17.7001 8.93202 17.3125C9.13967 17.1982 9.38765 17.1985 9.59532 17.3129L12.428 18.8723C12.7848 19.0691 13.2407 19.036 13.5677 18.7896C13.8949 18.5431 14.0669 18.1027 13.9976 17.6889L13.4537 14.4179C13.4131 14.1736 13.4937 13.9248 13.666 13.7532C14.4312 12.9907 15.1676 12.1925 15.9197 11.417C16.2114 11.1286 16.3241 10.6689 16.2004 10.2704C16.0764 9.87092 15.7249 9.5658 15.3248 9.50999C14.2837 9.34969 13.2435 9.17631 12.201 9.02474C11.9629 8.99011 11.7573 8.83367 11.653 8.60848C11.1916 7.61188 10.7026 6.62756 10.2304 5.63679Z" fill="#897CD6"/>
</svg>
