<svg width="16" height="16" viewBox="0 0 16 16" fill="none" xmlns="http://www.w3.org/2000/svg">
<path fill-rule="evenodd" clip-rule="evenodd" d="M9.78492 1.735L11.1569 3.107C11.4299 3.38 11.4299 3.82799 11.1639 4.10099L8.49692 6.76799C8.22392 7.04099 7.78292 7.04099 7.50992 6.76799L4.84293 4.10099C4.56993 3.82799 4.56993 3.38 4.84293 3.107L6.21493 1.735C7.19492 0.755 8.80492 0.755 9.78492 1.735ZM1.735 6.21484L3.107 4.84284C3.38 4.56984 3.82799 4.56984 4.10099 4.84284L6.76099 7.50286C7.03399 7.77586 7.03399 8.21686 6.76099 8.48986L4.09399 11.1569C3.82099 11.4298 3.38 11.4298 3.107 11.1569L1.735 9.78485C0.755 8.80486 0.755 7.19486 1.735 6.21484ZM14.2649 6.21484L12.8929 4.84284C12.6199 4.56984 12.1789 4.56984 11.9059 4.84284L9.23893 7.50986C8.96593 7.78286 8.96593 8.22386 9.23893 8.49686L11.9059 11.1639C12.1789 11.4368 12.6199 11.4368 12.8929 11.1639L14.2649 9.79185C15.2449 8.80486 15.2449 7.19486 14.2649 6.21484ZM6.21508 14.265L4.84308 12.893C4.57008 12.62 4.57008 12.172 4.83608 11.906L7.50311 9.23902C7.77611 8.96602 8.21711 8.96602 8.49011 9.23902L11.1571 11.906C11.4301 12.179 11.4301 12.62 11.1571 12.893L9.78511 14.265C8.80511 15.245 7.19512 15.245 6.21508 14.265Z" fill="#232533"/>
</svg>
