<svg width="16" height="16" viewBox="0 0 16 16" fill="none" xmlns="http://www.w3.org/2000/svg">
<path d="M4.61865 7.31976H11.3814V8.68023H4.61865V7.31976Z" fill="black"/>
<path fill-rule="evenodd" clip-rule="evenodd" d="M15.165 7.99996C15.165 11.9571 11.9571 15.165 7.99996 15.165C4.04284 15.165 0.834961 11.9571 0.834961 7.99996C0.834961 4.04284 4.04284 0.834961 7.99996 0.834961C11.9571 0.834961 15.165 4.04284 15.165 7.99996ZM13.785 7.99996C13.785 11.1949 11.1949 13.785 7.99996 13.785C4.80499 13.785 2.21496 11.1949 2.21496 7.99996C2.21496 4.80499 4.80499 2.21496 7.99996 2.21496C11.1949 2.21496 13.785 4.80499 13.785 7.99996Z" fill="black"/>
</svg>
