<svg width="24" height="24" viewBox="0 0 24 24" fill="none" xmlns="http://www.w3.org/2000/svg">
<path fill-rule="evenodd" clip-rule="evenodd" d="M18.5282 4.13296C18.9196 4.00471 19.3435 3.97893 19.7508 4.05875C20.1623 4.13943 20.5395 4.32461 20.8374 4.59228C21.1353 4.85994 21.3413 5.19884 21.4311 5.56868C21.52 5.93457 21.4913 6.31552 21.3486 6.6672L16.6387 19.3517L16.6383 19.3529C16.5199 19.6744 16.3116 19.9633 16.0333 20.1918C15.7558 20.4196 15.418 20.5797 15.0521 20.6568C14.686 20.737 14.303 20.7302 13.9406 20.6372C13.5786 20.5442 13.2496 20.3684 12.986 20.1269L10.4936 17.8976L7.88198 19.111C7.65425 19.2168 7.38127 19.2067 7.16402 19.0844C6.94677 18.9621 6.81757 18.7458 6.82422 18.5155L6.93466 14.6894L3.54707 11.6454C3.29246 11.4168 3.10476 11.1347 3.00133 10.8249C2.89869 10.5175 2.88197 10.1921 2.95259 9.8775C3.02346 9.53399 3.19441 9.21344 3.44807 8.94854C3.70359 8.68171 4.03377 8.48103 4.4045 8.36725L4.40938 8.36575L18.5282 4.13296ZM4.87118 9.60084L18.3897 5.54801L7.71191 13.5452L4.57184 10.7236C4.48704 10.6475 4.42462 10.5537 4.39018 10.4505C4.35574 10.3474 4.35036 10.2381 4.37452 10.1327L4.37777 10.1176C4.4016 9.99951 4.46009 9.88931 4.54718 9.79836C4.63382 9.70789 4.74563 9.63973 4.87118 9.60084ZM8.38374 14.7382L8.30553 17.4474L10.2973 16.522C10.5772 16.3919 10.9185 16.4392 11.1418 16.6389L14.0199 19.2133C14.1079 19.2943 14.2178 19.3533 14.3389 19.3844C14.46 19.4155 14.5881 19.4176 14.7104 19.3906L14.7194 19.3886C14.8447 19.3625 14.9604 19.3078 15.0553 19.2299C15.1503 19.1519 15.2214 19.0533 15.2617 18.9435L15.2624 18.9415L19.9766 6.24545C19.9792 6.23849 19.9819 6.23157 19.9847 6.2247C20.0127 6.15704 20.0283 6.08615 20.0312 6.01474L8.38374 14.7382Z" fill="#232533"/>
</svg>
