<svg width="16" height="16" viewBox="0 0 16 16" fill="none" xmlns="http://www.w3.org/2000/svg">
<path d="M11.6674 4.34215L12.1852 3.03448C12.2888 2.77276 12.3274 2.48938 12.2975 2.20912C12.2676 1.92887 12.1702 1.66028 12.0138 1.42687C11.8573 1.19345 11.6466 1.00232 11.4001 0.870198C11.1537 0.738074 10.8789 0.668985 10.5998 0.668976H5.39866C5.11961 0.668968 4.84481 0.738046 4.5983 0.870164C4.35179 1.00228 4.1411 1.19341 3.98465 1.42684C3.8282 1.66026 3.73077 1.92885 3.70088 2.20912C3.67099 2.48938 3.70955 2.77278 3.81319 3.0345L4.33102 4.34215C3.36214 4.96404 2.56434 5.82294 2.01159 6.83924C1.45883 7.85553 1.16899 8.99634 1.16895 10.1559V11.0184C1.16895 12.1621 1.6187 13.2589 2.41928 14.0676C3.21986 14.8763 4.30567 15.3306 5.43785 15.3306H10.5605C11.6927 15.3306 12.7785 14.8763 13.5791 14.0676C14.3797 13.2589 14.8295 12.1621 14.8295 11.0184V10.1559C14.8294 8.99634 14.5396 7.85553 13.9868 6.83924C13.4341 5.82294 12.6363 4.96404 11.6674 4.34215ZM4.60595 2.71424C4.55412 2.58338 4.53483 2.44168 4.54977 2.30154C4.56471 2.1614 4.61342 2.0271 4.69165 1.91038C4.76987 1.79366 4.87522 1.69809 4.99847 1.63203C5.12173 1.56596 5.25913 1.53142 5.39866 1.53143H10.5998C10.7393 1.53142 10.8768 1.56596 11 1.63203C11.1233 1.69809 11.2286 1.79366 11.3068 1.91038C11.3851 2.0271 11.4338 2.1614 11.4487 2.30154C11.4637 2.44168 11.4444 2.58338 11.3925 2.71424L10.9138 3.92306C10.0037 3.48413 9.00784 3.25633 7.99926 3.25633C6.99068 3.25633 5.99486 3.48413 5.08468 3.92306L4.60595 2.71424ZM13.9757 11.0184C13.9746 11.933 13.6145 12.8099 12.9743 13.4566C12.334 14.1034 11.466 14.4671 10.5605 14.4682H5.43785C4.53242 14.4671 3.66437 14.1033 3.02414 13.4566C2.3839 12.8099 2.02376 11.933 2.02273 11.0184V10.1559C2.02273 8.55478 2.65239 7.0192 3.7732 5.88702C4.894 4.75483 6.41414 4.11878 7.9992 4.11878C9.58426 4.11878 11.1044 4.75483 12.2252 5.88702C13.346 7.0192 13.9757 8.55478 13.9757 10.1559V11.0184Z" fill="#222532"/>
<path fill-rule="evenodd" clip-rule="evenodd" d="M5.39947 0.5C5.39947 0.5 5.39947 0.5 5.39947 0.5H10.6006C10.9078 0.500011 11.2102 0.576075 11.4813 0.721404C11.7525 0.866726 11.9839 1.07682 12.1557 1.3331C12.3275 1.58937 12.4343 1.88408 12.4671 2.19144C12.4999 2.49879 12.4576 2.80962 12.3439 3.09678L11.8767 4.27662C12.8172 4.90715 13.5929 5.75871 14.1368 6.75881C14.7031 7.79994 15 8.96847 15 10.1561V11.0186C15 12.2064 14.5329 13.346 13.7008 14.1866C12.8685 15.0273 11.7393 15.5 10.5613 15.5H5.43865C4.26071 15.5 3.13147 15.0273 2.29925 14.1866C1.46709 13.346 1 12.2064 1 11.0186V10.1561C1.00005 8.96847 1.29689 7.79994 1.86316 6.75881C2.4071 5.75871 3.18281 4.90716 4.1233 4.27662L3.6561 3.09681C3.54238 2.80964 3.5001 2.4988 3.53289 2.19143C3.56567 1.88407 3.67253 1.58934 3.8443 1.33306C4.01607 1.07678 4.24757 0.866683 4.5187 0.721367C4.78985 0.576045 5.09227 0.499992 5.39947 0.5ZM5.39946 0.838346C5.14856 0.838339 4.90137 0.900442 4.6795 1.01936C4.45762 1.13828 4.26772 1.31045 4.1266 1.521C3.98547 1.73156 3.89748 1.97403 3.87048 2.2272C3.84348 2.48036 3.87832 2.73631 3.97189 2.9726L4.54086 4.4094L4.42373 4.48458C3.47901 5.09096 2.70086 5.9286 2.16162 6.92005C1.62237 7.91152 1.33954 9.02461 1.33949 10.1561V11.0186C1.33949 12.1181 1.77192 13.1722 2.54092 13.949C3.30984 14.7257 4.35223 15.1617 5.43865 15.1617H10.5613C11.6478 15.1617 12.6902 14.7257 13.4591 13.949C14.2281 13.1722 14.6605 12.1181 14.6605 11.0186V10.1561C14.6605 9.02461 14.3776 7.91152 13.8384 6.92005C13.2991 5.9286 12.521 5.09096 11.5763 4.48458L11.4591 4.4094L12.0281 2.97258C12.1217 2.7363 12.1565 2.48036 12.1295 2.2272C12.1025 1.97405 12.0145 1.73159 11.8734 1.52103C11.7323 1.31048 11.5424 1.13831 11.3205 1.01939C11.0987 0.900468 10.8515 0.838355 10.6006 0.838346H5.39946ZM5.39946 1.7008C5.28808 1.70079 5.17829 1.72836 5.07967 1.78122C4.98104 1.83408 4.8965 1.91069 4.8336 2.00454C4.7707 2.0984 4.73142 2.20657 4.71937 2.31961C4.70732 2.43265 4.72289 2.5469 4.76465 2.65233L5.1771 3.69382C6.06488 3.29428 7.02664 3.08735 8.00006 3.08735C8.97348 3.08735 9.93524 3.29428 10.823 3.69382L11.2354 2.65234C11.2772 2.54691 11.2928 2.43265 11.2807 2.31961C11.2687 2.20658 11.2294 2.0984 11.1665 2.00454C11.1036 1.91069 11.019 1.83408 10.9204 1.78122C10.8218 1.72836 10.712 1.70079 10.6006 1.7008H5.39946ZM4.91887 1.48323C5.06677 1.40396 5.23179 1.36245 5.39947 1.36245H10.6006C10.7683 1.36245 10.9333 1.40396 11.0812 1.48323C11.2291 1.5625 11.3552 1.67703 11.4488 1.81662C11.5423 1.95619 11.6005 2.11662 11.6183 2.28387C11.6361 2.4511 11.6131 2.62024 11.5512 2.77654C11.5512 2.77655 11.5512 2.77654 11.5512 2.77654L11.0054 4.15495L10.8407 4.07554C9.95352 3.6477 8.98297 3.4257 8.00006 3.4257C7.01715 3.4257 6.0466 3.6477 5.15942 4.07554L4.99475 4.15495L4.44887 2.77655C4.44886 2.77655 4.44887 2.77655 4.44887 2.77655C4.38696 2.62025 4.36395 2.4511 4.38178 2.28387C4.39961 2.11662 4.45775 1.95619 4.55129 1.81662C4.64484 1.67703 4.77099 1.5625 4.91887 1.48323ZM8 4.28815C6.46071 4.28815 4.98399 4.90582 3.89483 6.00603C2.8056 7.10632 2.19327 8.59911 2.19327 10.1561V11.0184C2.19426 11.8889 2.53707 12.7231 3.14577 13.338C3.75441 13.9528 4.57912 14.2982 5.43885 14.2992H10.5611C11.4209 14.2982 12.2456 13.9528 12.8542 13.338C13.4629 12.7231 13.8058 11.8889 13.8067 11.0184V10.1561C13.8067 8.59911 13.1944 7.10632 12.1052 6.00603C11.016 4.90582 9.5393 4.28815 8 4.28815ZM3.65316 5.7684C4.80562 4.60424 6.36918 3.9498 8 3.9498C9.63082 3.9498 11.1944 4.60424 12.3468 5.7684C13.4992 6.93248 14.1462 8.51084 14.1462 10.1561V11.0186C14.1451 11.9773 13.7677 12.897 13.0959 13.5756C12.4241 14.2543 11.5127 14.6365 10.5615 14.6376H5.43865C4.48753 14.6365 3.57594 14.2543 2.9041 13.5756C2.23234 12.897 1.85487 11.9775 1.85378 11.0188L1.85378 10.1561C1.85378 8.51084 2.50078 6.93248 3.65316 5.7684Z" fill="#222532"/>
<path d="M9.32337 10.6525C9.32337 10.3976 9.21803 10.1829 9.00734 10.0084C8.79989 9.83392 8.4482 9.67602 7.95228 9.53475C7.26187 9.35469 6.75783 9.12062 6.44018 8.83253C6.12577 8.54167 5.96856 8.17325 5.96856 7.72727C5.96856 7.27297 6.12253 6.9004 6.43046 6.60954C6.74163 6.31868 7.16787 6.14555 7.70917 6.09015V5.18018H8.43362V6.0943C8.97817 6.15802 9.40116 6.35331 9.70261 6.68018C10.0073 7.00705 10.1596 7.45441 10.1596 8.02228H9.26503C9.26503 7.6317 9.15644 7.32145 8.93927 7.09153C8.7221 6.86162 8.42876 6.74666 8.05924 6.74666C7.67352 6.74666 7.37855 6.83253 7.17435 7.00428C6.97014 7.17325 6.86804 7.41009 6.86804 7.7148C6.86804 7.99735 6.97501 8.22311 7.18894 8.39209C7.40611 8.55829 7.76104 8.71065 8.25372 8.84915C8.74965 8.98489 9.13537 9.13585 9.41089 9.30206C9.68964 9.46549 9.89385 9.65663 10.0235 9.87547C10.1564 10.0943 10.2228 10.3505 10.2228 10.6442C10.2228 11.1123 10.0575 11.489 9.72692 11.7744C9.39954 12.0597 8.93927 12.2287 8.3461 12.2813V13.0749H7.62652V12.2813C7.02363 12.2342 6.55039 12.0514 6.2068 11.7328C5.86646 11.4115 5.69629 10.9766 5.69629 10.4281H6.59577C6.59577 10.8131 6.71408 11.1095 6.9507 11.3173C7.18731 11.5251 7.5228 11.6289 7.95714 11.6289C8.38176 11.6289 8.71562 11.5417 8.95872 11.3672C9.20182 11.1926 9.32337 10.9544 9.32337 10.6525Z" fill="#222532"/>
<path fill-rule="evenodd" clip-rule="evenodd" d="M7.60908 5.08017H8.53352V6.00659C9.05458 6.08271 9.47169 6.28247 9.77584 6.61218C10.102 6.96217 10.2595 7.43633 10.2595 8.02227V8.12228H9.16493V8.02227C9.16493 7.65092 9.06221 7.36742 8.86647 7.16019C8.6714 6.95367 8.40619 6.84665 8.05914 6.84665C7.68671 6.84665 7.41826 6.92972 7.23862 7.0808C7.06096 7.22781 6.96794 7.4349 6.96794 7.7148C6.96794 7.96778 7.0617 8.16397 7.25022 8.31314C7.45204 8.46736 7.79179 8.61541 8.28035 8.75278C8.78006 8.88957 9.17534 9.04334 9.46189 9.21609C9.75094 9.38565 9.96891 9.58752 10.1092 9.82402C10.2527 10.0606 10.3228 10.3352 10.3228 10.6442C10.3228 11.1389 10.1466 11.5441 9.79231 11.8499C9.46171 12.138 9.00982 12.3092 8.446 12.3718V13.1749H7.52642V12.3726C6.95036 12.3133 6.48482 12.127 6.13872 11.8061C5.77491 11.4626 5.59619 10.9989 5.59619 10.4281V10.3281H6.69567V10.4281C6.69567 10.7913 6.80632 11.0575 7.01658 11.2421C7.22904 11.4287 7.53776 11.5289 7.95704 11.5289C8.3692 11.5289 8.67998 11.4441 8.9003 11.2859C9.11696 11.1304 9.22327 10.9225 9.22327 10.6525C9.22327 10.4298 9.13313 10.2425 8.94345 10.0854C8.7528 9.92505 8.41768 9.77141 7.92586 9.63122C7.22951 9.44951 6.70777 9.2103 6.3729 8.9066C6.0371 8.59595 5.86847 8.19982 5.86847 7.72726C5.86847 7.24768 6.0322 6.84806 6.36169 6.53684C6.67479 6.24417 7.09352 6.06754 7.60908 6.00104V5.08017ZM7.80908 5.28017V6.18043L7.71926 6.18962C7.19371 6.24341 6.79007 6.41028 6.49883 6.68241C6.2126 6.95288 6.06847 7.29835 6.06847 7.72726C6.06847 8.1465 6.21485 8.48777 6.50763 8.75879C6.80793 9.03096 7.29377 9.25969 7.97741 9.43798L7.97958 9.43854C8.47881 9.58076 8.8472 9.74324 9.07133 9.93166C9.30283 10.1235 9.42327 10.3656 9.42327 10.6525C9.42327 10.9863 9.28648 11.2549 9.01694 11.4484C8.75105 11.6393 8.39411 11.7289 7.95704 11.7289C7.50764 11.7289 7.14539 11.6214 6.88462 11.3924C6.64355 11.1808 6.51761 10.8887 6.4983 10.5281H6.59567V10.4281H6.49567C6.49567 10.462 6.49654 10.4953 6.4983 10.5281H5.7982C5.79686 10.4953 5.79619 10.4619 5.79619 10.4281H5.69619V10.5281H5.7982C5.81769 11.0059 5.97874 11.3799 6.27504 11.6598C6.5978 11.9589 7.04739 12.1357 7.63421 12.1816L7.72642 12.1888V12.9749H7.62642V13.0749H7.72642V12.9749H8.246V13.0749H8.346V12.9749H8.246V12.1898L8.33716 12.1817C8.91695 12.1302 9.35461 11.9661 9.66112 11.699C9.96799 11.4341 10.1227 11.0856 10.1227 10.6442C10.1227 10.3661 10.06 10.1284 9.93793 9.92737L9.93737 9.92644C9.81838 9.72561 9.62822 9.54545 9.36021 9.38832L9.35914 9.38768C9.09475 9.22819 8.7189 9.08017 8.22723 8.9456C7.73109 8.80612 7.36062 8.64947 7.12806 8.47149L7.12685 8.47056C6.88791 8.28184 6.76794 8.02664 6.76794 7.7148C6.76794 7.38542 6.87965 7.1184 7.11019 6.92748C7.33895 6.73525 7.66031 6.64665 8.05914 6.64665C8.45112 6.64665 8.7726 6.76955 9.01187 7.02286C9.23078 7.25461 9.34518 7.5574 9.36258 7.92228H9.26493V8.02227H9.36493C9.36493 7.98844 9.36415 7.95511 9.36258 7.92228H10.0579C10.059 7.95512 10.0595 7.98845 10.0595 8.02227H10.1595V7.92228H10.0579C10.0409 7.42129 9.89506 7.0334 9.62936 6.74835C9.34764 6.44288 8.94845 6.25523 8.4219 6.19362L8.33352 6.18328V5.28017H8.43352V5.18017H8.33352V5.28017H7.80908Z" fill="#222532"/>
</svg>
