<svg width="24" height="24" viewBox="0 0 24 24" fill="none" xmlns="http://www.w3.org/2000/svg">
<path d="M12.3988 3.79824C12.3988 3.14723 13.2779 1.84473 14.8407 1.84473C16.4035 1.84473 16.7942 3.14723 16.7942 3.79824C16.7942 7.21689 12.3988 9.65879 12.3988 9.65879C12.3988 9.65879 8.00342 7.21689 8.00342 3.79824C8.00342 3.14723 8.39412 1.84473 9.95693 1.84473C11.5197 1.84473 12.3988 3.14723 12.3988 3.79824Z" fill="#232533"/>
<path d="M7.9564 16.2219V16.1305L8.77862 14.802H15.5396C16.1791 14.802 16.8187 14.4366 17.0928 13.8884L20.656 7.49288L19.1028 6.57924L15.5396 12.9747H9.14407L5.30678 4.75195H0.848145L1.62123 6.57924H4.11904L7.40815 13.5229L6.12912 15.491C6.03775 15.7651 5.94639 16.0392 5.94639 16.4046C5.94639 17.4096 6.76866 18.2319 7.77367 18.2319H18.7374V16.4046H8.13913C8.04776 16.4046 7.9564 16.3133 7.9564 16.2219Z" fill="#232533"/>
<path d="M7.77357 22.8006C8.77858 22.8006 9.60086 21.9783 9.60086 20.9733C9.60086 19.9683 8.77858 19.146 7.77357 19.146C6.76857 19.146 5.94629 19.9683 5.94629 20.9733C5.94629 21.9783 6.76857 22.8006 7.77357 22.8006Z" fill="#232533"/>
<path d="M15.0827 20.9733C15.0827 19.9683 15.905 19.146 16.91 19.146C17.915 19.146 18.7373 19.9683 18.7373 20.9733C18.7373 21.9783 17.915 22.8006 16.91 22.8006C15.905 22.8006 15.0827 21.9783 15.0827 20.9733Z" fill="#232533"/>
</svg>
