<svg width="24" height="24" viewBox="0 0 24 24" fill="none" xmlns="http://www.w3.org/2000/svg">
<path fill-rule="evenodd" clip-rule="evenodd" d="M8.39783 10.3369C8.39783 8.3461 10.0117 6.73221 12.0025 6.73221C13.9934 6.73221 15.6073 8.3461 15.6073 10.3369C15.6073 12.3278 13.9934 13.9416 12.0025 13.9416C10.0117 13.9416 8.39783 12.3278 8.39783 10.3369ZM12.0025 8.18221C10.8125 8.18221 9.84783 9.14691 9.84783 10.3369C9.84783 11.5269 10.8125 12.4916 12.0025 12.4916C13.1926 12.4916 14.1573 11.5269 14.1573 10.3369C14.1573 9.14691 13.1926 8.18221 12.0025 8.18221Z" fill="#232533"/>
<path fill-rule="evenodd" clip-rule="evenodd" d="M12.3005 2.00333C12.11 1.91299 11.89 1.91299 11.6996 2.00333C11.2745 2.20492 10.8493 2.40527 10.4243 2.60549C8.02564 3.7356 5.63536 4.86176 3.33116 6.18549C3.10776 6.31411 2.96962 6.55525 2.96962 6.81664C2.96962 6.9766 2.96941 7.13685 2.96919 7.29734C2.96447 10.8287 3.1782 14.2063 5.256 17.2065C6.74205 19.3523 8.84594 20.9989 11.2889 21.933C11.7468 22.1082 12.2531 22.1082 12.711 21.933C15.1539 20.9989 17.2578 19.3523 18.7439 17.2065C20.8723 14.1332 21.0304 10.4241 21.0304 6.81664C21.0304 6.621 20.9528 6.43366 20.8151 6.29718C20.7587 6.24119 20.6954 6.19876 20.6833 6.19069C18.7992 4.92258 16.6831 3.97896 14.5892 3.04523C13.8191 2.70181 13.0519 2.35972 12.3005 2.00333ZM6.41926 16.3707C4.42471 13.4907 4.39159 10.9196 4.39297 7.35671C4.393 7.28509 4.4313 7.2183 4.49344 7.18269C4.65377 7.0908 4.85097 6.97792 5.07723 6.84866C6.467 6.05469 7.89697 5.39497 9.33012 4.73377C10.1919 4.33618 11.0548 3.93806 11.9109 3.5099C11.9673 3.48166 12.0338 3.48157 12.0903 3.50967C12.9551 3.93973 13.8312 4.34426 14.7069 4.74861C16.3341 5.49996 17.96 6.25068 19.5091 7.16341C19.5699 7.19919 19.607 7.26517 19.607 7.33565C19.6085 10.9074 19.5791 13.485 17.5806 16.3707C17.4926 16.4978 17.4021 16.623 17.3092 16.7462C16.6673 16.2456 15.928 15.842 15.1256 15.5502C14.14 15.1919 13.0759 15.008 12.0026 15.008C10.9292 15.008 9.86506 15.1919 8.8795 15.5502C8.07573 15.8425 7.33525 16.247 6.69262 16.7487C6.59905 16.6247 6.50791 16.4987 6.41926 16.3707ZM7.63886 17.8501C8.79986 19.0401 10.214 19.9732 11.7894 20.5756C11.9245 20.6273 12.0752 20.6273 12.2103 20.5756C13.7867 19.9729 15.2018 19.0389 16.3632 17.8478C15.8608 17.4653 15.2761 17.1478 14.6301 16.9129C13.8083 16.6141 12.9122 16.458 12.0026 16.458C11.0929 16.458 10.1968 16.6141 9.37503 16.9129C8.72773 17.1483 8.14193 17.4666 7.63886 17.8501Z" fill="#232533"/>
</svg>
