<svg width="29" height="28" viewBox="0 0 29 28" fill="none" xmlns="http://www.w3.org/2000/svg">
<path d="M28.3334 1.414L26.9194 0L0.333374 26.586L1.74737 28L3.74737 26H24.3334C24.8636 25.9992 25.3718 25.7882 25.7467 25.4133C26.1216 25.0384 26.3326 24.5302 26.3334 24V3.414L28.3334 1.414ZM24.3334 24H5.74737L13.5404 16.207L15.9194 18.586C16.2944 18.9609 16.803 19.1716 17.3334 19.1716C17.8637 19.1716 18.3723 18.9609 18.7474 18.586L20.3334 17L24.3334 20.997V24ZM24.3334 18.168L21.7474 15.582C21.3723 15.2071 20.8637 14.9964 20.3334 14.9964C19.803 14.9964 19.2944 15.2071 18.9194 15.582L17.3334 17.168L14.9564 14.791L24.3334 5.414V18.168ZM4.33337 20V17L9.33337 12.003L10.7064 13.377L12.1224 11.961L10.7474 10.586C10.3723 10.2111 9.8637 10.0004 9.33337 10.0004C8.80305 10.0004 8.29443 10.2111 7.91937 10.586L4.33337 14.172V4H20.3334V2H4.33337C3.8031 2.00053 3.2947 2.21141 2.91975 2.58637C2.54479 2.96133 2.3339 3.46973 2.33337 4V20H4.33337Z" fill="#232533"/>
</svg>
