<svg width="32" height="32" viewBox="0 0 32 32" fill="none" xmlns="http://www.w3.org/2000/svg">
<path fill-rule="evenodd" clip-rule="evenodd" d="M0.62793 8.79604C0.62793 6.44504 2.53379 4.53918 4.88479 4.53918H27.1152C29.4662 4.53918 31.3721 6.44505 31.3721 8.79604V23.2039C31.3721 25.5549 29.4662 27.4607 27.1152 27.4607H4.88479C2.53379 27.4607 0.62793 25.5549 0.62793 23.2039V8.79604ZM4.88479 6.06729C3.37774 6.06729 2.15603 7.28899 2.15603 8.79604V9.03798L14.8163 18.2202C15.4624 18.6888 16.3358 18.6917 16.985 18.2275L29.844 9.0325V8.79604C29.844 7.28899 28.6222 6.06729 27.1152 6.06729H4.88479ZM29.844 10.9111L22.6005 16.0906L29.689 24.1125C29.7894 23.8283 29.844 23.5224 29.844 23.2039V10.9111ZM28.7666 25.3764L21.3508 16.9842L17.8738 19.4705C16.6899 20.317 15.0973 20.3117 13.9191 19.4572L10.7171 17.1348L3.58428 25.6034C3.97088 25.8134 4.41391 25.9326 4.88479 25.9326H27.1152C27.7359 25.9326 28.3082 25.7254 28.7666 25.3764ZM2.49582 24.5236L9.47682 16.2353L2.15603 10.9257V23.2039C2.15603 23.6826 2.2793 24.1325 2.49582 24.5236Z" fill="#232533"/>
</svg>
