<svg width="40" height="40" viewBox="0 0 40 40" fill="none" xmlns="http://www.w3.org/2000/svg">
<path fill-rule="evenodd" clip-rule="evenodd" d="M9.54744 11.0739L9.54018 11.0811C8.77922 11.834 8.35158 12.865 8.35158 13.9122C8.35158 14.9937 8.77232 16.0051 9.53298 16.7489L9.5439 16.7596L9.55462 16.7705C10.2997 17.5252 11.3257 17.9468 12.3798 17.9468C13.4594 17.9468 14.4727 17.5252 15.2177 16.7705L15.2249 16.7632C15.9886 15.9987 16.408 14.9781 16.408 13.9122C16.408 12.8294 15.9906 11.8141 15.2468 11.0954L15.2321 11.0812L15.2177 11.0667C14.4727 10.3119 13.4594 9.89036 12.3798 9.89036C11.315 9.89036 10.3011 10.3105 9.55462 11.0667L9.54744 11.0739ZM8.32538 9.85324C9.39973 8.76488 10.8578 8.16309 12.3798 8.16309C13.9146 8.16309 15.3726 8.76488 16.447 9.85324C17.5469 10.916 18.1353 12.3885 18.1353 13.9122C18.1353 15.4359 17.5341 16.8955 16.447 17.9839C15.3726 19.0722 13.9146 19.674 12.3798 19.674C10.8706 19.674 9.39973 19.0722 8.32538 17.9839C7.22544 16.9083 6.62431 15.4487 6.62431 13.9122C6.62431 12.4013 7.23823 10.9288 8.32538 9.85324ZM1.78021 29.994L1.77654 29.9908L1.77173 29.9837C1.76241 29.9701 1.75526 29.9566 1.74844 29.9339C1.74117 29.9098 1.72727 29.8515 1.72727 29.7431C1.72727 29.1479 2.07173 27.5527 3.54028 26.0779C4.97391 24.6651 7.59846 23.2474 12.3661 23.2474C17.1311 23.2474 19.7722 24.6638 21.2217 26.0803C22.687 27.5532 23.0324 29.1602 23.0324 29.7431C23.0324 29.8684 23.0176 29.9346 23.0104 29.9602C23.0085 29.9668 23.0068 29.9717 23.0056 29.9751C22.9896 29.9931 22.9785 29.9999 22.9766 30.001L22.929 30.0224L22.8819 30.0473C22.8774 30.0496 22.8599 30.0582 22.8184 30.0703C22.7851 30.0801 22.7479 30.089 22.6916 30.1009L22.6774 30.1022C22.6625 30.1035 22.6352 30.1058 22.6023 30.1094H2.15735C2.12439 30.1058 2.09712 30.1035 2.0822 30.1022L2.07558 30.1016C2.01747 30.0889 1.9796 30.0799 1.9402 30.0686C1.89804 30.0564 1.87988 30.0482 1.87743 30.0471L1.84552 30.0303L1.81262 30.0147C1.80885 30.0129 1.80319 30.0099 1.79665 30.0058C1.79017 30.0017 1.78456 29.9976 1.78021 29.994ZM12.3661 21.5202C7.22728 21.5202 4.13577 23.0628 2.32208 24.8534C0.522126 26.6578 0 28.6963 0 29.7431C0 30.2665 0.137401 30.6521 0.343502 30.9552C0.535863 31.2444 0.810663 31.451 1.07172 31.575C1.32151 31.7068 1.58387 31.7629 1.77456 31.8037L1.79995 31.8091C1.84212 31.8152 1.88164 31.8186 1.91737 31.8216C1.96313 31.8256 2.00266 31.8289 2.03353 31.8367H22.7261C22.7569 31.8289 22.7965 31.8256 22.8422 31.8216C22.878 31.8186 22.9175 31.8152 22.9597 31.8091C23.1658 31.7678 23.4268 31.7127 23.6879 31.575C23.9627 31.451 24.2238 31.2444 24.4299 30.9552C24.636 30.6521 24.7596 30.2665 24.7596 29.7431C24.7596 28.71 24.2375 26.6578 22.4375 24.8534C22.2172 24.6375 21.9784 24.4253 21.7196 24.2189C23.1805 23.6406 25.0965 23.2477 27.6064 23.2477C32.3714 23.2477 35.0125 24.664 36.462 26.0806C37.9274 27.5535 38.2727 29.1605 38.2727 29.7433C38.2727 29.8687 38.258 29.9349 38.2507 29.9605C38.2488 29.9671 38.2472 29.9719 38.2459 29.9753C38.23 29.9933 38.2188 30.0002 38.2169 30.0012L38.1694 30.0227L38.1222 30.0476C38.1178 30.0499 38.1002 30.0585 38.0588 30.0706C38.0254 30.0804 37.9882 30.0893 37.932 30.1012L37.9178 30.1024C37.9028 30.1037 37.8756 30.1061 37.8426 30.1097H24.7373C24.6929 30.4538 24.5846 30.7276 24.4299 30.9552C24.2238 31.2444 23.9627 31.451 23.6879 31.575C23.4268 31.7127 23.1658 31.7678 22.9597 31.8091C22.9175 31.8152 22.878 31.8186 22.8422 31.8216C22.7965 31.8256 22.7569 31.8289 22.7261 31.8367L37.9664 31.837C37.9973 31.8292 38.0368 31.8258 38.0826 31.8219C38.1183 31.8188 38.1578 31.8154 38.2 31.8094C38.4061 31.7681 38.6672 31.713 38.9282 31.5753C39.203 31.4513 39.4641 31.2447 39.6702 30.9554C39.8763 30.6524 39.9999 30.2668 39.9999 29.7433C39.9999 28.7103 39.4778 26.658 37.6779 24.8537C35.8504 23.0631 32.7452 21.5204 27.6064 21.5204C24.2808 21.5204 21.8126 22.1665 19.9933 23.1078C18.1661 22.1664 15.692 21.5202 12.3661 21.5202ZM25.225 11.0811L25.2323 11.0739L25.2395 11.0667C25.986 10.3105 26.9999 9.89036 28.0647 9.89036C29.1443 9.89036 30.1576 10.3119 30.9026 11.0667L30.917 11.0812L30.9317 11.0954C31.6755 11.8141 32.0929 12.8294 32.0929 13.9122C32.0929 14.9781 31.6735 15.9987 30.9098 16.7632L30.9026 16.7705C30.1576 17.5252 29.1443 17.9468 28.0647 17.9468C27.0106 17.9468 25.9845 17.5252 25.2395 16.7705L25.2288 16.7596L25.2178 16.7489C24.4572 16.0051 24.0365 14.9937 24.0365 13.9122C24.0365 12.865 24.4641 11.834 25.225 11.0811ZM28.0647 8.16309C26.5427 8.16309 25.0846 8.76488 24.0102 9.85324C22.9231 10.9288 22.3092 12.4013 22.3092 13.9122C22.3092 15.4487 22.9103 16.9083 24.0102 17.9839C25.0846 19.0722 26.5554 19.674 28.0647 19.674C29.5995 19.674 31.0575 19.0722 32.1319 17.9839C33.219 16.8955 33.8201 15.4359 33.8201 13.9122C33.8201 12.3885 33.2318 10.916 32.1319 9.85324C31.0575 8.76488 29.5995 8.16309 28.0647 8.16309Z" fill="#232533"/>
</svg>
