<svg width="24" height="24" viewBox="0 0 24 24" fill="none" xmlns="http://www.w3.org/2000/svg">
<path fill-rule="evenodd" clip-rule="evenodd" d="M20.4621 9.78739L16.871 13.3785L10.6468 7.15438L14.2663 3.53491C14.6908 3.17626 15.2323 2.98617 15.7879 3.00078C16.3434 3.0154 16.8742 3.23372 17.2793 3.61419L20.3829 6.71778C20.7996 7.1148 21.0419 7.66082 21.0568 8.2362C21.0716 8.81158 20.8578 9.36939 20.4621 9.78739ZM16.8707 11.2809L12.8014 7.1811L15.7461 4.28516L19.8248 8.3092L16.8707 11.2809Z" fill="#232533"/>
<path fill-rule="evenodd" clip-rule="evenodd" d="M14.7569 15.768L19.7138 20.7249L20.725 19.7137L4.28613 3.2749L3.27497 4.28606L8.53258 9.54367L4.07203 13.7292C3.7059 14.0984 3.47793 14.5823 3.42639 15.0997L2.93933 19.8231C2.92407 19.989 2.9456 20.1562 3.00238 20.3128C3.05916 20.4695 3.14979 20.6116 3.26781 20.7292C3.37365 20.8342 3.49917 20.9173 3.63718 20.9736C3.77518 21.03 3.92296 21.0586 4.07203 21.0577H4.17397L8.89731 20.6273C9.41472 20.5758 9.89866 20.3478 10.2679 19.9817L14.7569 15.768ZM13.698 14.7091L9.09464 19.0711L4.42188 19.7031L5.01126 14.8775L9.59899 10.6101L13.698 14.7091Z" fill="#232533"/>
</svg>
