<svg width="16" height="16" viewBox="0 0 16 16" fill="none" xmlns="http://www.w3.org/2000/svg">
<path fill-rule="evenodd" clip-rule="evenodd" d="M12 1.5H4C2.61929 1.5 1.5 2.61929 1.5 4V12C1.5 13.3807 2.61929 14.5 4 14.5H12C13.3807 14.5 14.5 13.3807 14.5 12V4C14.5 2.61929 13.3807 1.5 12 1.5ZM4 0C1.79086 0 0 1.79086 0 4V12C0 14.2091 1.79086 16 4 16H12C14.2091 16 16 14.2091 16 12V4C16 1.79086 14.2091 0 12 0H4Z" fill="#232533"/>
<path fill-rule="evenodd" clip-rule="evenodd" d="M8 3C8.39449 3 8.71429 3.3198 8.71429 3.71429V7.28571H12.2857C12.6802 7.28571 13 7.60551 13 8C13 8.39449 12.6802 8.71429 12.2857 8.71429H8.71429V12.2857C8.71429 12.6802 8.39449 13 8 13C7.60551 13 7.28571 12.6802 7.28571 12.2857V8.71429H3.71429C3.3198 8.71429 3 8.39449 3 8C3 7.60551 3.3198 7.28571 3.71429 7.28571H7.28571V3.71429C7.28571 3.3198 7.60551 3 8 3Z" fill="#232533"/>
</svg>
