<svg width="16" height="16" viewBox="0 0 16 16" fill="none" xmlns="http://www.w3.org/2000/svg">
<rect opacity="0.2" x="3" y="1.3335" width="10" height="13.3333" fill="#898995"/>
<path fill-rule="evenodd" clip-rule="evenodd" d="M3.3999 1.95455V14.0455H12.5999V1.95455H3.3999ZM3.1999 1C2.75807 1 2.3999 1.36162 2.3999 1.80769V14.1923C2.3999 14.6384 2.75807 15 3.1999 15H12.7999C13.2417 15 13.5999 14.6384 13.5999 14.1923V1.80769C13.5999 1.36162 13.2417 1 12.7999 1H3.1999Z" fill="#898995"/>
<path d="M7.06644 4.88157V14.427H6.13311L6.13311 4.88157H7.06644Z" fill="#898995"/>
<path d="M6.39977 9.33611H3.06644L3.06644 8.44521L6.39977 8.44521V9.33611Z" fill="#898995"/>
<path d="M2.73311 4.88157H13.3998V5.77248H2.73311V4.88157Z" fill="#898995"/>
</svg>
