<svg width="24" height="24" viewBox="0 0 24 24" fill="none" xmlns="http://www.w3.org/2000/svg">
<path d="M5.9106 2.98096C4.29516 2.98096 2.9856 4.29052 2.9856 5.90596V9.98164C2.9856 10.7552 3.28585 11.4585 3.77616 11.9816C3.28585 12.5046 2.9856 13.208 2.9856 13.9815V18.0813C2.9856 19.6967 4.29517 21.0063 5.9106 21.0063H9.496L10.2425 19.1562H5.9106C5.31689 19.1562 4.8356 18.675 4.8356 18.0813V13.9815C4.8356 13.3878 5.31689 12.9066 5.9106 12.9066H10.3742L11.0768 11.0566H5.9106C5.31689 11.0566 4.8356 10.5753 4.8356 9.98164V5.90596C4.8356 5.31225 5.31689 4.83096 5.9106 4.83096H18.0893C18.683 4.83096 19.1643 5.31225 19.1643 5.90596V7.39411L21.0143 8.53579V5.90596C21.0143 4.29052 19.7047 2.98096 18.0893 2.98096H5.9106Z" fill="#232533"/>
<path fill-rule="evenodd" clip-rule="evenodd" d="M20.9517 12.2983V13.4828C21.5085 13.585 21.9297 14.0554 21.9297 14.6225V19.8517C21.9297 20.4934 21.3906 21.0136 20.7257 21.0136H12.7482C12.0833 21.0136 11.5442 20.4934 11.5442 19.8517V14.6225C11.5442 14.0554 11.965 13.5855 12.5222 13.4824V12.2983C12.5235 10.0516 14.4097 8.23145 16.7365 8.23145C19.0642 8.23145 20.9504 10.0516 20.9517 12.2983ZM17.1886 19.271V17.5505C17.6297 17.3779 17.941 16.9621 17.941 16.4747C17.941 15.8326 17.4019 15.3123 16.7369 15.3123C16.072 15.3123 15.5329 15.833 15.5329 16.4747C15.5329 16.9621 15.8442 17.3779 16.2853 17.5505V19.271H17.1886ZM14.3289 13.4606H19.1437V12.2983C19.1424 11.0141 18.0664 9.97536 16.7365 9.97408C15.4066 9.97536 14.3311 11.0141 14.3289 12.2983V13.4606Z" fill="#232533"/>
<path d="M8.65747 7.95532C8.65747 8.48293 8.22976 8.91064 7.70215 8.91064C7.17454 8.91064 6.74683 8.48293 6.74683 7.95532C6.74683 7.42771 7.17454 7 7.70215 7C8.22976 7 8.65747 7.42771 8.65747 7.95532Z" fill="#232533"/>
<path d="M7.70215 16.9556C8.22976 16.9556 8.65747 16.5279 8.65747 16.0002C8.65747 15.4726 8.22976 15.0449 7.70215 15.0449C7.17454 15.0449 6.74683 15.4726 6.74683 16.0002C6.74683 16.5279 7.17454 16.9556 7.70215 16.9556Z" fill="#232533"/>
</svg>
