<svg width="16" height="16" viewBox="0 0 16 16" fill="none" xmlns="http://www.w3.org/2000/svg">
<g clip-path="url(#clip0_39905_15749)">
<path d="M12.8938 1.97799C11.8782 0.794956 10.4649 0.095345 8.90949 0.00901955C8.80012 0.00376495 8.69152 1.16827e-05 8.58528 1.16827e-05C7.95983 -0.00129846 7.33943 0.107596 6.75486 0.321292C6.40087 0.142821 6.00699 0.0498156 5.60723 0.0503056H4.22055H4.1768C3.7749 0.0520606 3.37946 0.147689 3.02458 0.32895C2.66969 0.510211 2.366 0.771669 2.13966 1.09079C1.91333 1.40991 1.77114 1.77713 1.72536 2.1608C1.67958 2.54447 1.73158 2.93308 1.87687 3.29314L1.88155 3.3044L1.88624 3.31566L2.03311 3.66847V11.413C2.0324 12.041 2.25265 12.6507 2.65809 13.1432L4.30258 15.1302L4.31899 15.1498L4.33539 15.1685C4.65494 15.5345 5.08399 15.7972 5.56427 15.9208C6.04456 16.0444 6.55279 16.0229 7.01995 15.8594C7.48711 15.6958 7.89056 15.398 8.17549 15.0065C8.46043 14.615 8.61305 14.1487 8.61262 13.671L8.62981 11.5504C8.80794 11.5976 8.99188 11.6216 9.17667 11.6217H9.24229H9.3126C10.9743 11.5136 12.3805 10.6976 13.275 9.32241C13.9383 8.30302 14.2992 6.99988 14.2906 5.6517C14.2707 4.31059 13.7783 3.01554 12.8938 1.97799Z" fill="#000002"/>
<path d="M6.19162 14.0964C6.1276 14.0965 6.06434 14.0831 6.0063 14.0572C5.94825 14.0312 5.89684 13.9934 5.85569 13.9463L4.2112 11.9578C4.0832 11.803 4.01353 11.6112 4.01355 11.4135V3.30121L3.72293 2.60685C3.69266 2.53323 3.68188 2.45354 3.69156 2.37493C3.70124 2.29632 3.73108 2.22125 3.7784 2.15646C3.82455 2.09152 3.88712 2.03893 3.96023 2.0036C4.03334 1.96828 4.11459 1.9514 4.19636 1.95453H5.60257C5.69802 1.95444 5.79141 1.98118 5.87123 2.03147C5.95105 2.08175 6.01381 2.15338 6.05178 2.23753L6.26193 2.69243C6.26939 2.70941 6.28107 2.72437 6.29595 2.736C6.31083 2.74763 6.32845 2.75557 6.34727 2.75912C6.36609 2.76268 6.38553 2.76175 6.40389 2.7564C6.42224 2.75105 6.43895 2.74146 6.45255 2.72846C6.83535 2.35688 7.59236 1.84118 8.79623 1.90799C10.9571 2.0281 12.3047 3.94828 12.3118 5.66127C12.3172 6.65364 12.0626 7.59571 11.5962 8.31334C11.0376 9.17209 10.2095 9.65476 9.18294 9.72082C9.16222 9.72082 9.14235 9.71291 9.1277 9.69883C9.11305 9.68476 9.10482 9.66566 9.10482 9.64576V9.46335C9.10479 9.44546 9.11191 9.42825 9.1247 9.41526C9.13749 9.40227 9.15498 9.3945 9.17357 9.39353C11.1368 9.26667 11.986 7.44183 11.9743 5.65902C11.9665 4.09615 10.7407 2.34112 8.77124 2.23227C7.158 2.14145 6.4588 3.20813 6.42755 3.25617C6.41145 3.2816 6.38837 3.30228 6.36085 3.31595C6.33333 3.32962 6.30242 3.33574 6.27152 3.33364C6.24061 3.33155 6.2109 3.32132 6.18565 3.30408C6.16039 3.28684 6.14057 3.26325 6.12834 3.2359L5.73772 2.36439C5.72621 2.33831 5.70695 2.31608 5.68236 2.30046C5.65776 2.28484 5.62893 2.27653 5.59945 2.27656H4.1862H4.18152C4.15533 2.27555 4.12931 2.28087 4.10583 2.29205C4.08235 2.30323 4.06218 2.31991 4.04717 2.34054C4.03215 2.36117 4.02278 2.3851 4.01991 2.41012C4.01704 2.43515 4.02076 2.46047 4.03074 2.48374L4.34323 3.2344V11.2964C4.34321 11.4941 4.41288 11.6859 4.54088 11.8407L6.10881 13.7353C6.12181 13.7505 6.13954 13.7612 6.15937 13.7659C6.1792 13.7707 6.20009 13.7691 6.21896 13.7616C6.23907 13.7554 6.25656 13.7432 6.26881 13.7267C6.28106 13.7102 6.28742 13.6903 6.28693 13.67L6.33068 8.56556C6.33002 8.53502 6.33985 8.50513 6.35866 8.48051C6.37747 8.45589 6.4042 8.43791 6.43472 8.42936C6.46524 8.42081 6.49783 8.42217 6.52747 8.43322C6.5571 8.44427 6.58211 8.4644 6.59864 8.49049L6.64317 8.56106C6.64864 8.56931 7.13378 9.34925 7.73689 9.39504C7.75558 9.39663 7.77306 9.40464 7.78611 9.41759C7.79916 9.43055 7.80693 9.44759 7.80798 9.4656V9.64876C7.80811 9.65848 7.80614 9.66812 7.80221 9.67708C7.79828 9.68603 7.79246 9.69411 7.78513 9.70081C7.77779 9.7075 7.7691 9.71267 7.75959 9.71599C7.75008 9.7193 7.73995 9.72069 7.72986 9.72007C7.27518 9.6953 6.91269 9.38903 6.66114 9.11954L6.63379 13.652C6.63488 13.7393 6.60904 13.8249 6.55955 13.8981C6.51006 13.9714 6.43912 14.0288 6.35568 14.0634C6.30363 14.0842 6.24798 14.0954 6.19162 14.0964Z" fill="#53C026"/>
<path d="M8.19384 7.87212C7.07981 7.87212 6.17358 6.97658 6.17358 5.87612C6.17358 4.77566 7.07981 3.88013 8.19384 3.88013C9.30787 3.88013 10.2141 4.77566 10.2141 5.87612C10.2141 6.97658 9.30787 7.87212 8.19384 7.87212ZM8.19384 4.20441C7.26652 4.20441 6.51186 4.95507 6.51186 5.87612C6.51186 6.79718 7.26652 7.54783 8.19384 7.54783C9.12116 7.54783 9.87973 6.80018 9.87973 5.87837C9.87973 4.95657 9.12116 4.20666 8.19384 4.20666V4.20441Z" fill="#53C026"/>
</g>
<defs>
<clipPath id="clip0_39905_15749">
<rect width="16" height="16" rx="4" fill="white"/>
</clipPath>
</defs>
</svg>
