<svg width="16" height="16" viewBox="0 0 16 16" fill="none" xmlns="http://www.w3.org/2000/svg">
<path fill-rule="evenodd" clip-rule="evenodd" d="M8 3C8.39449 3 8.71429 3.3198 8.71429 3.71429V7.28571H12.2857C12.6802 7.28571 13 7.60551 13 8C13 8.39449 12.6802 8.71429 12.2857 8.71429H8.71429V12.2857C8.71429 12.6802 8.39449 13 8 13C7.60551 13 7.28571 12.6802 7.28571 12.2857V8.71429H3.71429C3.3198 8.71429 3 8.39449 3 8C3 7.60551 3.3198 7.28571 3.71429 7.28571H7.28571V3.71429C7.28571 3.3198 7.60551 3 8 3Z" fill="#222532"/>
</svg>
