<svg width="32" height="32" viewBox="0 0 32 32" fill="none" xmlns="http://www.w3.org/2000/svg">
<g clip-path="url(#clip0_18463_213980)">
<path d="M27.9752 6.20806L3.37907 6.03335C3.18628 6.03196 2.9972 6.08633 2.8346 6.18992C2.672 6.2935 2.54281 6.44187 2.46258 6.61718C2.38728 6.78728 2.36093 6.97502 2.38649 7.15929C2.41204 7.34355 2.48848 7.51704 2.60723 7.66024L10.012 16.0223L12.054 26.9848C12.084 27.1384 12.1496 27.2828 12.2455 27.4064C12.3415 27.53 12.4651 27.6293 12.6064 27.6964C12.7478 27.7636 12.9029 27.7966 13.0593 27.7928C13.2157 27.7891 13.3691 27.7487 13.507 27.6749C13.6471 27.6051 13.7689 27.5033 13.8625 27.3778L28.7599 7.80575C28.8699 7.65822 28.9371 7.48318 28.954 7.29991C28.971 7.11665 28.937 6.93226 28.8559 6.76707C28.7747 6.60187 28.6496 6.46227 28.4942 6.36364C28.3388 6.26501 28.1592 6.21117 27.9752 6.20806ZM13.6242 24.3976L12.0326 16.144L20.3263 12.0705L19.4446 10.2754L11.1509 14.3488L5.59197 8.04369L25.9531 8.19279L13.6242 24.3976Z" fill="#232533"/>
</g>
<defs>
<clipPath id="clip0_18463_213980">
<rect width="32" height="32" fill="white"/>
</clipPath>
</defs>
</svg>
