<svg width="24" height="24" viewBox="0 0 24 24" fill="none" xmlns="http://www.w3.org/2000/svg">
<path fill-rule="evenodd" clip-rule="evenodd" d="M16.5285 13.882C16.5662 13.9198 16.6134 13.9363 16.663 13.9363C16.7102 13.9363 16.7597 13.9174 16.7975 13.882L19.2015 11.4773C20.827 9.84892 21.0181 7.33087 19.7748 5.49484L21.5701 3.69892C21.6433 3.62341 21.6433 3.50305 21.5701 3.42989L20.5698 2.42928C20.5321 2.39152 20.4849 2.375 20.4354 2.375C20.3858 2.375 20.3386 2.39388 20.3009 2.42928L18.5055 4.22519C17.725 3.69622 16.8036 3.41419 15.8608 3.41573C14.6529 3.41573 13.445 3.87592 12.5226 4.79865L10.1185 7.20343C10.0834 7.23891 10.0637 7.28683 10.0637 7.33677C10.0637 7.3867 10.0834 7.43462 10.1185 7.4701L16.5285 13.882ZM13.5771 12.8201C13.5417 12.7849 13.4937 12.7652 13.4438 12.7652C13.4023 12.7652 13.3622 12.7789 13.3295 12.8037C13.3228 12.8087 13.3165 12.8142 13.3105 12.8201L11.7393 14.3918L9.60892 12.2608L11.1825 10.6867C11.1877 10.6815 11.1925 10.6761 11.1969 10.6705C11.2553 10.5968 11.2505 10.488 11.1825 10.42L10.3238 9.56101C10.2883 9.52587 10.2404 9.50616 10.1905 9.50616C10.1478 9.50616 10.1066 9.52055 10.0734 9.54665C10.0678 9.5511 10.0623 9.55589 10.0572 9.56101L8.48358 11.1351L7.46911 10.1203C7.46608 10.1173 7.46294 10.1143 7.45971 10.1115C7.4442 10.098 7.42653 10.0872 7.40741 10.0795C7.3843 10.0701 7.35955 10.0656 7.33464 10.066C7.28745 10.066 7.23791 10.0849 7.20016 10.1203L4.79848 12.5251C3.17298 14.1534 2.98188 16.6715 4.22519 18.5075L2.42983 20.3034C2.3947 20.3389 2.375 20.3868 2.375 20.4368C2.375 20.4867 2.3947 20.5346 2.42983 20.5701L3.43014 21.5707C3.46788 21.6085 3.51507 21.625 3.56461 21.625C3.61415 21.625 3.66134 21.6061 3.69909 21.5707L5.49445 19.7748C6.28951 20.3152 7.21432 20.5843 8.13913 20.5843C9.34705 20.5843 10.555 20.1241 11.4774 19.2013L13.8815 16.7966C13.9546 16.7234 13.9546 16.6031 13.8815 16.5299L12.867 15.5151L14.4406 13.941C14.445 13.9367 14.4491 13.9321 14.4529 13.9275C14.5135 13.8537 14.5094 13.7432 14.4406 13.6744L13.5771 12.8201ZM11.7417 16.5111L11.7393 16.5134L7.33509 12.1079L5.86007 13.5848C5.85999 13.5849 5.86015 13.5847 5.86007 13.5848C4.75155 14.6955 4.61967 16.4149 5.46721 17.6665L5.81365 18.1781L6.33769 18.5343C6.87531 18.8997 7.50434 19.0843 8.13913 19.0843C8.96577 19.0843 9.787 18.7706 10.4166 18.1408L11.8938 16.6632L11.7417 16.5111ZM18.1821 5.81802L17.664 5.46688C17.1325 5.10669 16.5051 4.91468 15.8633 4.91573L15.8608 4.91573C15.0342 4.91573 14.213 5.22936 13.5834 5.85915L12.1062 7.33677L16.663 11.8949L18.1399 10.4175C18.14 10.4174 18.1398 10.4177 18.1399 10.4175C19.2483 9.30683 19.3803 7.58742 18.5328 6.3359L18.1821 5.81802Z" fill="#232533"/>
</svg>
