<svg width="32" height="32" viewBox="0 0 32 32" fill="none" xmlns="http://www.w3.org/2000/svg">
<g clip-path="url(#clip0_18205_194484)">
<path d="M28.5165 15.7886C26.6431 13.9152 23.9102 13.3424 21.2664 13.9933L14.7582 7.48513L15.2128 7.03056C15.5745 6.66888 15.7761 6.17675 15.7732 5.66241C15.7704 5.14808 15.5633 4.65369 15.1976 4.28799C14.8319 3.9223 14.3376 3.71526 13.8232 3.71241C13.3089 3.70957 12.8168 3.91116 12.4551 4.27284L4.27284 12.4551C3.91117 12.8168 3.70957 13.3089 3.71242 13.8232C3.71526 14.3376 3.9223 14.8319 4.288 15.1976C4.65369 15.5633 5.14809 15.7704 5.66242 15.7732C6.17675 15.7761 6.66888 15.5745 7.03056 15.2128L7.48513 14.7582L13.9933 21.2664C13.3424 23.9102 13.9152 26.6431 15.7886 28.5165L21.2434 23.0617L24.9204 26.7386C25.4259 27.2442 26.2487 27.2488 26.7487 26.7487C27.2488 26.2487 27.2442 25.4259 26.7386 24.9204L23.0617 21.2434L28.5165 15.7886Z" fill="#897CD6"/>
</g>
<defs>
<clipPath id="clip0_18205_194484">
<rect width="32" height="32" fill="white"/>
</clipPath>
</defs>
</svg>
