<svg width="16" height="16" viewBox="0 0 16 16" fill="none" xmlns="http://www.w3.org/2000/svg">
<path d="M4.50902 6.67485C4.50902 6.87174 4.5303 7.03138 4.56755 7.14845C4.61012 7.26553 4.66334 7.39324 4.73784 7.5316C4.76444 7.57417 4.77509 7.61674 4.77509 7.65399C4.77509 7.7072 4.74316 7.76042 4.67398 7.81363L4.33873 8.03713C4.29084 8.06906 4.24294 8.08503 4.20037 8.08503C4.14716 8.08503 4.09394 8.05842 4.04073 8.01053C3.96623 7.9307 3.90237 7.84556 3.84916 7.76042C3.79594 7.66995 3.74273 7.56885 3.68419 7.44645C3.26912 7.93603 2.74762 8.18081 2.11969 8.18081C1.67269 8.18081 1.31616 8.0531 1.05541 7.79767C0.794657 7.54224 0.661621 7.20167 0.661621 6.77595C0.661621 6.32363 0.821264 5.95645 1.14587 5.67974C1.47048 5.40302 1.90151 5.26467 2.44962 5.26467C2.63055 5.26467 2.8168 5.28063 3.01369 5.30724C3.21059 5.33385 3.4128 5.37642 3.62566 5.42431V5.03585C3.62566 4.63142 3.54052 4.34938 3.37555 4.18442C3.20527 4.01945 2.91791 3.93963 2.50816 3.93963C2.32191 3.93963 2.13034 3.96092 1.93344 4.00881C1.73655 4.0567 1.54498 4.11524 1.35873 4.18974C1.27359 4.22699 1.20973 4.24827 1.17248 4.25892C1.13523 4.26956 1.10862 4.27488 1.08734 4.27488C1.01284 4.27488 0.975586 4.22167 0.975586 4.10992V3.84917C0.975586 3.76402 0.986228 3.70017 1.01284 3.66292C1.03944 3.62567 1.08734 3.58842 1.16184 3.55117C1.34809 3.45538 1.57159 3.37556 1.83234 3.3117C2.09309 3.24252 2.3698 3.21059 2.66248 3.21059C3.29573 3.21059 3.75869 3.35427 4.05669 3.64163C4.34937 3.92899 4.49837 4.36534 4.49837 4.9507V6.67485H4.50902ZM2.34851 7.4837C2.52412 7.4837 2.70505 7.45178 2.89662 7.38792C3.08819 7.32406 3.25848 7.20699 3.40216 7.04735C3.4873 6.94624 3.55116 6.83449 3.58309 6.70677C3.61502 6.57906 3.6363 6.42474 3.6363 6.24381V6.02031C3.48198 5.98306 3.31702 5.95113 3.14673 5.92985C2.97644 5.90856 2.81148 5.89792 2.64652 5.89792C2.28998 5.89792 2.02923 5.9671 1.85362 6.11077C1.67801 6.25445 1.59287 6.45667 1.59287 6.72274C1.59287 6.97285 1.65673 7.1591 1.78976 7.28681C1.91748 7.41985 2.10373 7.4837 2.34851 7.4837ZM6.62162 8.05842C6.52584 8.05842 6.46198 8.04245 6.41941 8.0052C6.37684 7.97328 6.33959 7.89878 6.30766 7.79767L5.05712 3.6842C5.02519 3.57777 5.00923 3.50859 5.00923 3.47134C5.00923 3.3862 5.0518 3.33831 5.13694 3.33831H5.65844C5.75955 3.33831 5.82873 3.35427 5.86598 3.39152C5.90855 3.42345 5.94048 3.49795 5.97241 3.59906L6.86641 7.12185L7.69655 3.59906C7.72316 3.49263 7.75509 3.42345 7.79766 3.39152C7.84023 3.35959 7.91473 3.33831 8.01052 3.33831H8.43623C8.53734 3.33831 8.60652 3.35427 8.64909 3.39152C8.69166 3.42345 8.72891 3.49795 8.7502 3.59906L9.59098 7.16442L10.5116 3.59906C10.5435 3.49263 10.5808 3.42345 10.618 3.39152C10.6606 3.35959 10.7298 3.33831 10.8256 3.33831H11.3204C11.4056 3.33831 11.4535 3.38088 11.4535 3.47134C11.4535 3.49795 11.4482 3.52456 11.4428 3.55649C11.4375 3.58842 11.4269 3.63099 11.4056 3.68952L10.1231 7.80299C10.0912 7.90942 10.0539 7.9786 10.0114 8.01053C9.9688 8.04245 9.89962 8.06374 9.80916 8.06374H9.35152C9.25041 8.06374 9.18123 8.04778 9.13866 8.01053C9.09609 7.97328 9.05884 7.9041 9.03755 7.79767L8.21273 4.36534L7.39323 7.79235C7.36662 7.89878 7.3347 7.96795 7.29212 8.0052C7.24955 8.04245 7.17505 8.05842 7.07927 8.05842H6.62162ZM13.4597 8.2021C13.1829 8.2021 12.9062 8.17017 12.6402 8.10631C12.3741 8.04245 12.1666 7.97328 12.0282 7.89345C11.9431 7.84556 11.8845 7.79235 11.8632 7.74445C11.8419 7.69656 11.8313 7.64335 11.8313 7.59545V7.32406C11.8313 7.21231 11.8739 7.1591 11.9537 7.1591C11.9856 7.1591 12.0176 7.16442 12.0495 7.17506C12.0814 7.1857 12.1293 7.20699 12.1825 7.22828C12.3634 7.3081 12.5603 7.37195 12.7679 7.41453C12.9807 7.4571 13.1883 7.47838 13.4011 7.47838C13.7364 7.47838 13.9971 7.41985 14.1781 7.30277C14.359 7.1857 14.4548 7.01542 14.4548 6.79724C14.4548 6.64824 14.4069 6.52585 14.3111 6.42474C14.2153 6.32363 14.0344 6.23317 13.7736 6.14802L13.002 5.90856C12.6136 5.78617 12.3262 5.60524 12.1506 5.36577C11.975 5.13163 11.8845 4.87088 11.8845 4.59417C11.8845 4.37067 11.9324 4.17377 12.0282 4.00349C12.124 3.8332 12.2517 3.6842 12.4113 3.56713C12.571 3.44474 12.7519 3.35427 12.9648 3.29042C13.1776 3.22656 13.4011 3.19995 13.6353 3.19995C13.7523 3.19995 13.8747 3.20527 13.9918 3.22124C14.1142 3.2372 14.2259 3.25849 14.3377 3.27977C14.4441 3.30638 14.5452 3.33299 14.641 3.36492C14.7368 3.39684 14.8113 3.42877 14.8645 3.4607C14.939 3.50327 14.9922 3.54584 15.0242 3.59374C15.0561 3.63631 15.0721 3.69484 15.0721 3.76934V4.01945C15.0721 4.1312 15.0295 4.18974 14.9497 4.18974C14.9071 4.18974 14.8379 4.16845 14.7474 4.12588C14.4441 3.98752 14.1036 3.91834 13.7257 3.91834C13.4224 3.91834 13.1829 3.96624 13.018 4.06734C12.853 4.16845 12.7679 4.32277 12.7679 4.54095C12.7679 4.68995 12.8211 4.81767 12.9275 4.91877C13.0339 5.01988 13.2308 5.12099 13.5129 5.21145L14.2685 5.45092C14.6517 5.57331 14.9284 5.7436 15.0933 5.96177C15.2583 6.17995 15.3381 6.43006 15.3381 6.70677C15.3381 6.9356 15.2902 7.14313 15.1998 7.32406C15.104 7.50499 14.9763 7.66463 14.8113 7.79235C14.6463 7.92538 14.4494 8.02117 14.2206 8.09035C13.9812 8.16485 13.7311 8.2021 13.4597 8.2021Z" fill="#252F3E"/>
<path fill-rule="evenodd" clip-rule="evenodd" d="M14.4654 10.7882C12.7146 12.0813 10.171 12.7678 7.98385 12.7678C4.91871 12.7678 2.15688 11.6343 0.0708824 9.75055C-0.094082 9.60155 0.0549181 9.39934 0.251811 9.51641C2.5081 10.8255 5.29121 11.6184 8.1701 11.6184C10.1124 11.6184 12.2463 11.2139 14.2099 10.3838C14.5026 10.2508 14.7527 10.5754 14.4654 10.7882Z" fill="#FF9900"/>
<path fill-rule="evenodd" clip-rule="evenodd" d="M15.1944 9.9581C14.9709 9.67074 13.715 9.81974 13.1456 9.88892C12.9753 9.91021 12.9487 9.76121 13.103 9.64946C14.1035 8.94703 15.7478 9.14924 15.9394 9.38339C16.1309 9.62285 15.8861 11.2672 14.9496 12.0547C14.8059 12.1771 14.6675 12.1133 14.7314 11.9536C14.9443 11.4268 15.4179 10.2401 15.1944 9.9581Z" fill="#FF9900"/>
</svg>
