<svg width="14" height="13" viewBox="0 0 14 13" fill="none" xmlns="http://www.w3.org/2000/svg">
<path d="M7.00288 0C3.13656 0 0 3.11751 0 6.96066C0 9.21358 0.99775 11.3173 2.66804 12.589C3.60087 11.252 5.24199 10.2729 7.00288 10.2729C8.76377 10.2729 10.3991 11.252 11.3319 12.589C13.0022 11.3173 14 9.21358 14 6.96066C14 3.11751 10.8692 0 7.00288 0V0ZM10.5043 3.0434C10.5159 3.04282 10.5275 3.04282 10.5391 3.0434C10.6146 3.04258 10.6886 3.06617 10.7511 3.11103C10.8136 3.15588 10.8616 3.21984 10.8887 3.29432C10.9158 3.36881 10.9206 3.45025 10.9026 3.52774C10.8846 3.60523 10.8446 3.67506 10.7879 3.72785L8.31665 6.18452C8.30928 6.19303 8.30156 6.20118 8.2935 6.20897C8.42259 6.42923 8.50186 6.6874 8.50186 6.96066C8.50186 7.78419 7.83141 8.45179 7.00288 8.45179C6.17438 8.45179 5.49812 7.78419 5.49812 6.96066C5.49812 6.13712 6.17438 5.46953 7.00288 5.46953C7.282 5.46953 7.53724 5.54536 7.76105 5.67731C7.77451 5.65535 7.79002 5.63488 7.80735 5.61619L10.2844 3.15337C10.3439 3.09161 10.4214 3.05286 10.5043 3.0434V3.0434Z" fill="#A7A9B2"/>
</svg>
