<svg width="16" height="16" viewBox="0 0 16 16" fill="none" xmlns="http://www.w3.org/2000/svg">
<g clip-path="url(#clip0_39797_36219)">
<path d="M10.6409 5.08564L12.0317 3.68132L12.1244 3.09001C9.58992 0.763073 5.56111 1.02692 3.27636 3.64055C2.6418 4.36647 2.17098 5.27149 1.91992 6.20603L2.41805 6.13517L5.19961 5.67196L5.41436 5.45027C6.65167 4.0782 8.74373 3.89361 10.1724 5.06102L10.6409 5.08564Z" fill="#EA4335"/>
<path d="M14.0127 6.16478C13.693 4.9761 13.0367 3.9075 12.1241 3.09009L10.1721 5.06104C10.5789 5.39667 10.905 5.8212 11.1256 6.30261C11.3462 6.78401 11.4557 7.30972 11.4458 7.84007V8.18994C12.4052 8.18994 13.1831 8.9753 13.1831 9.94405C13.1831 10.9129 12.4053 11.6785 11.4458 11.6785H7.96638L7.62476 12.053V14.157L7.96638 14.4871H11.4458C13.9414 14.5067 15.9803 12.4996 15.9998 9.97977C16.0056 9.22778 15.8272 8.486 15.4805 7.82042C15.1338 7.15484 14.6296 6.58609 14.0127 6.16478Z" fill="#4285F4"/>
<path d="M4.49185 14.487H7.96642V11.6784H4.49185C4.24589 11.6784 4.00285 11.6246 3.77942 11.5208L3.28648 11.6735L1.88592 13.0778L1.76392 13.5558C2.54935 14.1546 3.50767 14.4913 4.49185 14.487Z" fill="#34A853"/>
<path d="M4.49189 5.37625C1.99627 5.39133 -0.014793 7.44634 8.19887e-05 9.96626C0.00418492 10.6607 0.165206 11.3449 0.470879 11.967C0.776551 12.589 1.21881 13.1324 1.76396 13.5558L3.77946 11.5208C2.90508 11.1219 2.51646 10.0829 2.91152 9.20002C3.30652 8.31715 4.33564 7.92475 5.20996 8.32359C5.59525 8.49936 5.90384 8.81097 6.07789 9.20002L8.09339 7.16495C7.67037 6.60654 7.12515 6.15451 6.50036 5.8442C5.87558 5.5339 5.18817 5.37374 4.49189 5.37625Z" fill="#FBBC05"/>
</g>
<defs>
<clipPath id="clip0_39797_36219">
<rect width="16" height="13" fill="white" transform="translate(0 1.5)"/>
</clipPath>
</defs>
</svg>
