<svg width="24" height="24" viewBox="0 0 24 24" fill="none" xmlns="http://www.w3.org/2000/svg">
<path d="M5.66689 9.54681C5.26649 9.54681 4.94189 9.87141 4.94189 10.2718C4.94189 10.6722 5.26649 10.9968 5.66689 10.9968H6.81836C7.21877 10.9968 7.54336 10.6722 7.54336 10.2718C7.54336 9.87141 7.21877 9.54681 6.81836 9.54681H5.66689Z" fill="#232533"/>
<path d="M8.39624 14.8777C8.39624 14.4773 8.72083 14.1527 9.12124 14.1527H14.8786C15.279 14.1527 15.6036 14.4773 15.6036 14.8777C15.6036 15.2781 15.279 15.6027 14.8786 15.6027H9.12124C8.72083 15.6027 8.39624 15.2781 8.39624 14.8777Z" fill="#232533"/>
<path d="M9.12124 16.4556C8.72083 16.4556 8.39624 16.7802 8.39624 17.1806C8.39624 17.581 8.72083 17.9056 9.12124 17.9056H13.1514C13.5518 17.9056 13.8764 17.581 13.8764 17.1806C13.8764 16.7802 13.5518 16.4556 13.1514 16.4556H9.12124Z" fill="#232533"/>
<path fill-rule="evenodd" clip-rule="evenodd" d="M6.09351 7.2439V4.51453C6.09351 4.01686 6.2912 3.53957 6.64311 3.18767C6.99502 2.83576 7.4723 2.63806 7.96997 2.63806H16.0302C16.5279 2.63806 17.0052 2.83576 17.3571 3.18767C17.709 3.53957 17.9067 4.01686 17.9067 4.51453V7.2439H19.4844C19.9821 7.2439 20.4594 7.4416 20.8113 7.7935C21.1632 8.1454 21.3609 8.62269 21.3609 9.12036V14.8777C21.3609 15.3754 21.1632 15.8526 20.8113 16.2045C20.4594 16.5565 19.9821 16.7542 19.4844 16.7542H17.9067V20.635C17.9067 21.0354 17.5821 21.36 17.1817 21.36H6.81851C6.4181 21.36 6.09351 21.0354 6.09351 20.635V16.7542H4.51538C4.01771 16.7542 3.54042 16.5565 3.18852 16.2045C2.83661 15.8526 2.63892 15.3754 2.63892 14.8777V9.12036C2.63892 8.62269 2.83661 8.14541 3.18852 7.7935C3.54043 7.44159 4.01771 7.2439 4.51538 7.2439H6.09351ZM7.66841 4.21297C7.74839 4.13299 7.85686 4.08806 7.96997 4.08806H16.0302C16.1433 4.08806 16.2518 4.13299 16.3318 4.21297C16.4118 4.29295 16.4567 4.40142 16.4567 4.51453V7.2439H7.54351V4.51453C7.54351 4.40142 7.58844 4.29295 7.66841 4.21297ZM6.81245 8.6939H4.51538C4.40228 8.6939 4.2938 8.73883 4.21382 8.8188C4.13385 8.89878 4.08892 9.00726 4.08892 9.12036V14.8777C4.08892 14.9908 4.13385 15.0993 4.21382 15.1792C4.2938 15.2592 4.40228 15.3042 4.51538 15.3042H6.09351V12.5747C6.09351 12.1743 6.4181 11.8497 6.81851 11.8497H17.1817C17.5821 11.8497 17.9067 12.1743 17.9067 12.5747V15.3042H19.4844C19.5975 15.3042 19.706 15.2592 19.786 15.1792C19.866 15.0993 19.9109 14.9908 19.9109 14.8777V9.12036C19.9109 9.00726 19.866 8.89878 19.786 8.8188C19.706 8.73883 19.5975 8.6939 19.4844 8.6939H17.1877L17.1817 8.69392H6.81851L6.81245 8.6939ZM16.4565 16.0292L16.4567 16.0121V13.2997H7.54351V19.91H16.4567V16.0462L16.4565 16.0292Z" fill="#232533"/>
</svg>
