<svg width="16" height="16" viewBox="0 0 16 16" fill="none" xmlns="http://www.w3.org/2000/svg">
<path d="M8.9375 3.9375C8.9375 3.41973 8.51777 3 8 3C7.48223 3 7.0625 3.41973 7.0625 3.9375V7.0625L3.9375 7.0625C3.41973 7.0625 3 7.48223 3 8C3 8.51777 3.41973 8.9375 3.9375 8.9375L7.0625 8.9375V12.0625C7.0625 12.5803 7.48223 13 8 13C8.51777 13 8.9375 12.5803 8.9375 12.0625V8.9375L12.0625 8.9375C12.5803 8.9375 13 8.51777 13 8C13 7.48223 12.5803 7.0625 12.0625 7.0625L8.9375 7.0625V3.9375Z" fill="#222532"/>
</svg>
