<?xml version="1.0" encoding="utf-8"?>
<!-- Generator: Adobe Illustrator 24.0.0, SVG Export Plug-In . SVG Version: 6.00 Build 0)  -->
<svg version="1.1" id="Layer_1" xmlns="http://www.w3.org/2000/svg" xmlns:xlink="http://www.w3.org/1999/xlink" x="0px" y="0px"
	 viewBox="0 0 16 16" style="enable-background:new 0 0 16 16;" xml:space="preserve">
<style type="text/css">
	.st0{fill:#858895;}
</style>
<path class="st0" d="M8,0C3.6,0,0,3.6,0,8c0,4.4,3.6,8,8,8c4.4,0,8-3.6,8-8C16,3.6,12.4,0,8,0z M8.8,12.8H7.2v-1.6h1.6V12.8z
	 M9.6,8.9C9.4,9,9.3,9.1,9.2,9.3C8.8,9.6,8.8,9.9,8.8,9.9V10H7.2V9.9c0-0.1,0-0.9,0.8-1.7C8.2,8,8.4,7.8,8.6,7.6
	c0.6-0.5,1-0.8,1-1.3c0-0.4-0.2-0.8-0.5-1.1C8.8,5,8.4,4.8,8,4.8C7.6,4.8,7.2,5,6.9,5.3C6.6,5.6,6.5,5.9,6.5,6.3H4.9
	c0-1.7,1.4-3.1,3.1-3.1s3.1,1.4,3.1,3.1C11.1,7.6,10.2,8.4,9.6,8.9L9.6,8.9z"/>
</svg>
