<svg width="14" height="14" viewBox="0 0 14 14" fill="none" xmlns="http://www.w3.org/2000/svg">
<path fill-rule="evenodd" clip-rule="evenodd" d="M7 1C3.69248 1 1 3.69248 1 7C1 10.3075 3.69248 13 7 13C10.3075 13 13 10.3075 13 7C13 3.69248 10.3075 1 7 1ZM7 0C3.1402 0 0 3.1402 0 7C0 10.8598 3.1402 14 7 14C10.8598 14 14 10.8598 14 7C14 3.1402 10.8598 0 7 0Z" fill="#5F616D"/>
<path d="M8.74375 3.63594C8.275 3.225 7.65625 3 7 3C6.34375 3 5.725 3.22656 5.25625 3.63594C4.76875 4.0625 4.5 4.63594 4.5 5.25V5.36875C4.5 5.4375 4.55625 5.49375 4.625 5.49375H5.375C5.44375 5.49375 5.5 5.4375 5.5 5.36875V5.25C5.5 4.56094 6.17344 4 7 4C7.82656 4 8.5 4.56094 8.5 5.25C8.5 5.73594 8.15625 6.18125 7.62344 6.38594C7.29219 6.5125 7.01094 6.73437 6.80937 7.025C6.60469 7.32187 6.49844 7.67812 6.49844 8.03906V8.375C6.49844 8.44375 6.55469 8.5 6.62344 8.5H7.37344C7.44219 8.5 7.49844 8.44375 7.49844 8.375V8.02031C7.49925 7.86863 7.54574 7.72071 7.63187 7.59584C7.71799 7.47097 7.83975 7.37496 7.98125 7.32031C8.90312 6.96562 9.49844 6.15312 9.49844 5.25C9.5 4.63594 9.23125 4.0625 8.74375 3.63594ZM6.375 10.125C6.375 10.2908 6.44085 10.4497 6.55806 10.5669C6.67527 10.6842 6.83424 10.75 7 10.75C7.16576 10.75 7.32473 10.6842 7.44194 10.5669C7.55915 10.4497 7.625 10.2908 7.625 10.125C7.625 9.95924 7.55915 9.80027 7.44194 9.68306C7.32473 9.56585 7.16576 9.5 7 9.5C6.83424 9.5 6.67527 9.56585 6.55806 9.68306C6.44085 9.80027 6.375 9.95924 6.375 10.125Z" fill="#5F616D"/>
</svg>
