<svg width="20" height="20" viewBox="0 0 20 20" fill="none" xmlns="http://www.w3.org/2000/svg">
<path fill-rule="evenodd" clip-rule="evenodd" d="M10 3.25C6.27208 3.25 3.25 6.27208 3.25 10C3.25 13.7279 6.27208 16.75 10 16.75C13.7279 16.75 16.75 13.7279 16.75 10C16.75 6.27208 13.7279 3.25 10 3.25ZM1.75 10C1.75 5.44365 5.44365 1.75 10 1.75C14.5563 1.75 18.25 5.44365 18.25 10C18.25 14.5563 14.5563 18.25 10 18.25C5.44365 18.25 1.75 14.5563 1.75 10Z" fill="#007EE5"/>
<path d="M10 5.83333C10.8241 5.83333 11.6297 6.0777 12.3149 6.53554C13.0001 6.99338 13.5342 7.64413 13.8495 8.40548C14.1649 9.16684 14.2474 10.0046 14.0866 10.8129C13.9259 11.6211 13.529 12.3636 12.9463 12.9463C12.3636 13.529 11.6212 13.9258 10.8129 14.0866C10.0047 14.2474 9.16689 14.1649 8.40553 13.8495C7.64417 13.5341 6.99342 13.0001 6.53558 12.3149C6.07774 11.6297 5.83337 10.8241 5.83337 10C5.83337 8.89493 6.27236 7.83512 7.05376 7.05372C7.83516 6.27232 8.89497 5.83333 10 5.83333Z" fill="#007EE5"/>
</svg>
