<svg width="20" height="20" viewBox="0 0 20 20" fill="none" xmlns="http://www.w3.org/2000/svg">
<path d="M10 17.9167C14.3723 17.9167 17.9167 14.3723 17.9167 10C17.9167 5.62775 14.3723 2.08334 10 2.08334C5.62779 2.08334 2.08337 5.62775 2.08337 10C2.08337 14.3723 5.62779 17.9167 10 17.9167Z" fill="#E5E5E8"/>
<path fill-rule="evenodd" clip-rule="evenodd" d="M10 2.58334C5.90393 2.58334 2.58337 5.90389 2.58337 10C2.58337 14.0961 5.90393 17.4167 10 17.4167C14.0962 17.4167 17.4167 14.0961 17.4167 10C17.4167 5.90389 14.0962 2.58334 10 2.58334ZM1.58337 10C1.58337 5.35161 5.35164 1.58334 10 1.58334C14.6484 1.58334 18.4167 5.35161 18.4167 10C18.4167 14.6484 14.6484 18.4167 10 18.4167C5.35164 18.4167 1.58337 14.6484 1.58337 10Z" fill="#CED0D6"/>
</svg>
