<svg width="24" height="24" viewBox="0 0 24 24" fill="none" xmlns="http://www.w3.org/2000/svg">
<path d="M2.45005 10.575L6.65005 6.37501C6.88338 6.14167 7.15838 5.97501 7.47505 5.87501C7.79172 5.77501 8.11671 5.75834 8.45005 5.82501L9.75005 6.10001C8.85005 7.16667 8.14172 8.13334 7.62505 9.00001C7.10838 9.86667 6.60838 10.9167 6.12505 12.15L2.45005 10.575ZM7.57505 12.85C7.95838 11.65 8.47938 10.5167 9.13805 9.45001C9.79671 8.38334 10.5924 7.38334 11.525 6.45001C12.9917 4.98334 14.6667 3.88767 16.55 3.16301C18.4334 2.43834 20.1917 2.21734 21.8251 2.50001C22.1084 4.13334 21.8917 5.89167 21.175 7.77501C20.4584 9.65834 19.3667 11.3333 17.9 12.8C16.9834 13.7167 15.9834 14.5127 14.9 15.188C13.8167 15.8633 12.675 16.3923 11.475 16.775L7.57505 12.85ZM14.475 9.85001C14.8584 10.2333 15.3294 10.425 15.888 10.425C16.4467 10.425 16.9174 10.2333 17.3 9.85001C17.6834 9.46667 17.875 8.99601 17.875 8.438C17.875 7.88 17.6834 7.40901 17.3 7.02501C16.9167 6.64167 16.446 6.45001 15.888 6.45001C15.33 6.45001 14.859 6.64167 14.475 7.02501C14.0917 7.40834 13.9 7.87934 13.9 8.438C13.9 8.99667 14.0917 9.46734 14.475 9.85001ZM13.775 21.875L12.175 18.2C13.4084 17.7167 14.4627 17.2167 15.338 16.7C16.2134 16.1833 17.184 15.475 18.25 14.575L18.5 15.875C18.5667 16.2083 18.5501 16.5377 18.4501 16.863C18.35 17.1883 18.1834 17.4673 17.95 17.7L13.775 21.875ZM4.05005 16.05C4.63338 15.4667 5.34172 15.1707 6.17505 15.162C7.00838 15.1533 7.71672 15.441 8.30005 16.025C8.88338 16.6083 9.17505 17.3167 9.17505 18.15C9.17505 18.9833 8.88338 19.6917 8.30005 20.275C7.88338 20.6917 7.18772 21.05 6.21305 21.35C5.23838 21.65 3.89238 21.9167 2.17505 22.15C2.40838 20.4333 2.67505 19.0917 2.97505 18.125C3.27505 17.1583 3.63338 16.4667 4.05005 16.05Z" fill="#232533"/>
</svg>
