<svg width="20" height="20" viewBox="0 0 20 20" fill="none" xmlns="http://www.w3.org/2000/svg">
<path d="M2.04167 8.81251L5.54167 5.31251C5.73611 5.11806 5.96528 4.97917 6.22917 4.89584C6.49306 4.81251 6.76389 4.79862 7.04167 4.85417L8.125 5.08334C7.375 5.97223 6.78472 6.77778 6.35417 7.50001C5.92361 8.22223 5.50694 9.09723 5.10417 10.125L2.04167 8.81251ZM6.3125 10.7083C6.63194 9.70834 7.06611 8.7639 7.615 7.87501C8.16389 6.98612 8.82694 6.15278 9.60417 5.37501C10.8264 4.15278 12.2222 3.23973 13.7917 2.63584C15.3611 2.03195 16.8264 1.84778 18.1875 2.08334C18.4236 3.44445 18.2431 4.90973 17.6458 6.47917C17.0486 8.04862 16.1389 9.44445 14.9167 10.6667C14.1528 11.4306 13.3194 12.0939 12.4167 12.6567C11.5139 13.2195 10.5625 13.6603 9.5625 13.9792L6.3125 10.7083ZM12.0625 8.20834C12.3819 8.52779 12.7744 8.68751 13.24 8.68751C13.7056 8.68751 14.0978 8.52779 14.4167 8.20834C14.7361 7.8889 14.8958 7.49667 14.8958 7.03167C14.8958 6.56667 14.7361 6.17417 14.4167 5.85417C14.0972 5.53473 13.705 5.37501 13.24 5.37501C12.775 5.37501 12.3825 5.53473 12.0625 5.85417C11.7431 6.17362 11.5833 6.56612 11.5833 7.03167C11.5833 7.49723 11.7431 7.88945 12.0625 8.20834ZM11.4792 18.2292L10.1458 15.1667C11.1736 14.7639 12.0522 14.3472 12.7817 13.9167C13.5111 13.4861 14.32 12.8958 15.2083 12.1458L15.4167 13.2292C15.4722 13.507 15.4583 13.7814 15.375 14.0525C15.2917 14.3236 15.1528 14.5561 14.9583 14.75L11.4792 18.2292ZM3.375 13.375C3.86111 12.8889 4.45139 12.6422 5.14583 12.635C5.84028 12.6278 6.43056 12.8675 6.91667 13.3542C7.40278 13.8403 7.64583 14.4306 7.64583 15.125C7.64583 15.8195 7.40278 16.4097 6.91667 16.8958C6.56944 17.2431 5.98972 17.5417 5.1775 17.7917C4.36528 18.0417 3.24361 18.2639 1.8125 18.4583C2.00694 17.0278 2.22917 15.9097 2.47917 15.1042C2.72917 14.2986 3.02778 13.7222 3.375 13.375Z" fill="#6638B6"/>
</svg>
