<?xml version="1.0" encoding="utf-8"?>
<!-- Generator: Adobe Illustrator 24.0.0, SVG Export Plug-In . SVG Version: 6.00 Build 0)  -->
<svg version="1.1" id="ic_collector_tags" xmlns="http://www.w3.org/2000/svg" xmlns:xlink="http://www.w3.org/1999/xlink" x="0px"
	 y="0px" viewBox="0 0 24 24" style="enable-background:new 0 0 24 24;" xml:space="preserve">
<style type="text/css">
	.st0{fill:#A5ACCE;}
	.st1{fill:none;stroke:#FFFFFF;stroke-width:0.75;stroke-miterlimit:10;}
	.st2{fill:#FFFFFF;}
</style>
<g id="사각형_437">
	<rect y="0" class="st0" width="24" height="24"/>
</g>
<polygon class="st0" points="12.4,11.3 12.2,11.4 11.9,11.3 12,10.9 "/>
<path class="st1" d="M12,13.4"/>
<path class="st2" d="M19,6.9l-6.2-3.6c-0.5-0.3-1.2-0.3-1.7,0L5,6.9C4.4,7.2,4.1,7.8,4.1,8.4v7.1c0,0.6,0.3,1.2,0.9,1.5l6.2,3.6
	c0.3,0.2,0.6,0.2,0.9,0.2s0.5-0.1,0.8-0.2l6.3-3.6c0.5-0.3,0.9-0.9,0.9-1.5V8.4C20.1,7.8,19.6,7.2,19,6.9z M5.3,7.6L11.5,4
	c0.2-0.1,0.3-0.1,0.5-0.1s0.3,0,0.5,0.1l6.2,3.6c0.2,0.1,0.5,0.3,0.5,0.6c0,0.3-0.2,0.5-0.5,0.7l-6.2,3.6c-0.3,0.2-0.7,0.2-1,0
	L5.3,8.9C5.1,8.8,4.9,8.5,4.9,8.3C4.9,8,5.1,7.7,5.3,7.6z M5.3,16.4c-0.3-0.2-0.5-0.5-0.5-0.9v-6c0,0,6.7,3.7,6.9,3.8v6.8L5.3,16.4z
	 M19.1,16.2c0,0-6.6,3.8-6.7,3.9v-6.8c0.2,0,7.1-4.1,7.1-4.1v6.1C19.5,15.7,19.4,16,19.1,16.2z"/>
</svg>
