<svg width="24" height="24" viewBox="0 0 24 24" fill="none" xmlns="http://www.w3.org/2000/svg">
<path fill-rule="evenodd" clip-rule="evenodd" d="M4.45024 5.46873C4.45024 5.16606 4.69561 4.9207 4.99827 4.9207H19.0016C19.3043 4.9207 19.5496 5.16606 19.5496 5.46873V10.7914C19.5496 11.094 19.3043 11.3394 19.0016 11.3394H4.99827C4.69561 11.3394 4.45024 11.094 4.45024 10.7914V5.46873ZM4.99827 3.4707C3.89479 3.4707 3.00024 4.36525 3.00024 5.46873V10.7914C3.00024 11.2752 3.1722 11.7188 3.45833 12.0645C3.16356 12.4211 3.00037 12.8709 3.00037 13.3374V18.6094C3.00037 19.1393 3.21087 19.6475 3.58558 20.0222C3.96028 20.3969 4.46848 20.6074 4.9984 20.6074H19.0017C19.5316 20.6074 20.0398 20.3969 20.4145 20.0222C20.7892 19.6475 20.9997 19.3747 20.9997 18.8447V13.3374C20.9997 12.8708 20.8365 12.421 20.5417 12.0644C20.8277 11.7187 20.9996 11.2751 20.9996 10.7914V5.46873C20.9996 4.36525 20.1051 3.4707 19.0016 3.4707H4.99827ZM4.9984 12.7894L5.00215 12.7894H18.998L19.0017 12.7894C19.1471 12.7894 19.2865 12.8472 19.3892 12.9499C19.492 13.0527 19.5497 13.1921 19.5497 13.3374V18.6094C19.5497 18.7547 19.492 18.8941 19.3892 18.9969C19.2865 19.0997 19.1471 19.1574 19.0017 19.1574H4.9984C4.85305 19.1574 4.71366 19.0997 4.61088 18.9969C4.5081 18.8941 4.45037 18.7547 4.45037 18.6094V13.3374C4.45037 13.1921 4.5081 13.0527 4.61088 12.9499C4.71366 12.8472 4.85305 12.7894 4.9984 12.7894ZM7.74041 8C7.74041 8.46481 7.38344 8.84161 6.94309 8.84161C6.50275 8.84161 6.14578 8.46481 6.14578 8C6.14578 7.53519 6.50275 7.15839 6.94309 7.15839C7.38344 7.15839 7.74041 7.53519 7.74041 8ZM9.71831 8.84161C10.1587 8.84161 10.5156 8.46481 10.5156 8C10.5156 7.53519 10.1587 7.15839 9.71831 7.15839C9.27796 7.15839 8.92099 7.53519 8.92099 8C8.92099 8.46481 9.27796 8.84161 9.71831 8.84161ZM12.6365 7.28031C12.2361 7.28031 11.9115 7.6049 11.9115 8.00531C11.9115 8.40572 12.2361 8.73031 12.6365 8.73031H17.0921C17.4925 8.73031 17.8171 8.40572 17.8171 8.00531C17.8171 7.6049 17.4925 7.28031 17.0921 7.28031H12.6365ZM7.74041 15.9531C7.74041 16.4179 7.38344 16.7947 6.94309 16.7947C6.50275 16.7947 6.14578 16.4179 6.14578 15.9531C6.14578 15.4883 6.50275 15.1115 6.94309 15.1115C7.38344 15.1115 7.74041 15.4883 7.74041 15.9531ZM9.71831 16.7947C10.1587 16.7947 10.5156 16.4179 10.5156 15.9531C10.5156 15.4883 10.1587 15.1115 9.71831 15.1115C9.27796 15.1115 8.92099 15.4883 8.92099 15.9531C8.92099 16.4179 9.27796 16.7947 9.71831 16.7947ZM12.6365 15.2281C12.2361 15.2281 11.9115 15.5527 11.9115 15.9531C11.9115 16.3535 12.2361 16.6781 12.6365 16.6781H17.0921C17.4925 16.6781 17.8171 16.3535 17.8171 15.9531C17.8171 15.5527 17.4925 15.2281 17.0921 15.2281H12.6365Z" fill="#232533"/>
</svg>
