<svg width="24" height="24" viewBox="0 0 24 24" fill="none" xmlns="http://www.w3.org/2000/svg">
<path fill-rule="evenodd" clip-rule="evenodd" d="M13.7124 4.60039C13.7124 4.19998 14.037 3.87539 14.4374 3.87539L20.2037 3.82925C20.6041 3.82925 20.9287 4.15385 20.9287 4.55425L20.975 19.4458C20.975 19.8462 20.6504 20.1708 20.25 20.1708H3.72506C3.32465 20.1708 3.00005 19.8462 3.00005 19.4458L2.9538 14.5156C2.9538 14.1152 3.27839 13.7906 3.6788 13.7906L8.42783 13.8368C8.53829 13.8368 8.62783 13.7472 8.62783 13.6368V9.8139C8.62783 9.41349 8.95242 9.0889 9.35283 9.0889H13.5124C13.6229 9.0889 13.7124 8.99935 13.7124 8.8889L13.7124 4.60039ZM15.3624 5.32539C15.252 5.32539 15.1624 5.41493 15.1624 5.52539L15.1624 9.8139C15.1624 10.2143 14.8378 10.5389 14.4374 10.5389H10.2778C10.1674 10.5389 10.0778 10.6284 10.0778 10.7389V14.5618C10.0778 14.9622 9.75323 15.2868 9.35283 15.2868L4.60647 15.2406C4.49498 15.2406 4.40501 15.3318 4.40649 15.4433L4.44743 18.5234C4.44889 18.6328 4.53799 18.7208 4.64741 18.7208H19.3243C19.435 18.7208 19.5247 18.6308 19.5243 18.5201L19.4794 5.47857C19.479 5.36838 19.3896 5.27925 19.2794 5.27925L15.3624 5.32539Z" fill="#232533"/>
</svg>
