<svg width="24" height="24" viewBox="0 0 24 24" fill="none" xmlns="http://www.w3.org/2000/svg">
<path fill-rule="evenodd" clip-rule="evenodd" d="M12.1975 4.10628C12.1225 3.96357 11.9205 3.96775 11.8485 4.11196L9.76773 8.2772C9.66349 8.50427 9.50289 8.70103 9.30108 8.84869C9.09863 8.99682 8.86164 9.09048 8.61281 9.12082C8.40819 9.14578 5.1705 9.64377 4.02631 9.81997C3.8628 9.84514 3.80083 10.0463 3.91988 10.1612L7.22893 13.354C7.40839 13.5232 7.54318 13.7343 7.62122 13.9684C7.6997 14.2039 7.7183 14.4551 7.67536 14.6995C7.63243 14.9439 7.67486 14.7024 7.67486 14.7024L6.88484 19.326C6.85703 19.4888 7.02727 19.6132 7.17391 19.5373L11.3032 17.4002C11.3032 17.4002 11.7701 17.2285 12.0188 17.2285C12.2674 17.2285 12.5145 17.284 12.7344 17.4002L16.8631 19.539C17.0099 19.615 17.1803 19.4902 17.1522 19.3273L16.3627 14.7587L16.3623 14.7567C16.3192 14.512 16.3378 14.2605 16.4163 14.0247C16.4937 13.7925 16.6269 13.583 16.8042 13.4144L20.0774 10.1672C20.1938 10.0516 20.1293 9.85276 19.9673 9.82755L15.4247 9.12082C15.1759 9.09048 14.9389 8.99682 14.7365 8.84869C14.5347 8.70103 14.3741 8.50426 14.2698 8.27718C13.1479 5.94446 12.4885 4.66026 12.1975 4.10628ZM13.3826 3.11406C13.1385 2.59738 12.5905 2.25 12.0188 2.25C11.447 2.25 10.899 2.59739 10.655 3.11408C9.98905 4.45845 9.29938 5.79408 8.64868 7.14637C8.50165 7.45193 8.21172 7.66421 7.8759 7.71119C6.41094 7.91616 4.94915 8.15059 3.48611 8.36734C2.91642 8.42316 2.40342 8.82383 2.21172 9.36407C2.01701 9.9128 2.17092 10.5582 2.59218 10.9599L5.82063 14.0748C6.05863 14.3044 6.16771 14.6369 6.11201 14.9629L5.34231 19.4675L5.34209 19.4688C5.24488 20.03 5.48744 20.6269 5.94855 20.9612C6.40968 21.2955 7.05254 21.3404 7.55566 21.0735L7.55672 21.073C8.27378 20.694 10.5593 19.4828 11.5516 18.957C11.8444 18.8018 12.1941 18.8022 12.487 18.9574L16.4818 21.0734C16.9849 21.3404 17.6278 21.2956 18.089 20.9612C18.5504 20.6267 18.793 20.0291 18.6953 19.4676L17.9283 15.0293C17.871 14.6977 17.9847 14.3601 18.2276 14.1272C19.3068 13.0926 20.3453 12.0096 21.4059 10.9573C21.8173 10.566 21.9762 9.94216 21.8018 9.40149C21.6269 8.85938 21.1312 8.44536 20.5669 8.36963C19.0987 8.15212 17.6318 7.91686 16.1616 7.71119C15.8258 7.66421 15.5359 7.45192 15.3889 7.14637C14.7382 5.79408 14.0485 4.45844 13.3826 3.11406Z" fill="#232533"/>
</svg>
