<svg width="24" height="24" viewBox="0 0 24 24" fill="none" xmlns="http://www.w3.org/2000/svg">
<path d="M16.9432 18.6229C17.3835 18.6229 17.7405 18.2461 17.7405 17.7813C17.7405 17.3165 17.3835 16.9397 16.9432 16.9397C16.5028 16.9397 16.1458 17.3165 16.1458 17.7813C16.1458 18.2461 16.5028 18.6229 16.9432 18.6229Z" fill="#232533"/>
<path d="M17.7405 12.2813C17.7405 12.7461 17.3835 13.1229 16.9432 13.1229C16.5028 13.1229 16.1458 12.7461 16.1458 12.2813C16.1458 11.8165 16.5028 11.4397 16.9432 11.4397C17.3835 11.4397 17.7405 11.8165 17.7405 12.2813Z" fill="#232533"/>
<path fill-rule="evenodd" clip-rule="evenodd" d="M5.98929 3.63458C7.56398 2.96163 9.68958 2.56281 12 2.56281C14.3105 2.56281 16.4361 2.96163 18.0108 3.63458C18.7968 3.97049 19.4787 4.38883 19.9745 4.8898C20.4733 5.39379 20.8181 6.02003 20.8181 6.74067V17.8219C20.8181 18.5423 20.4733 19.1685 19.9745 19.6723C19.4788 20.1732 18.7969 20.5916 18.0109 20.9276C16.4362 21.6006 14.3106 21.9997 12 21.9997C9.68943 21.9997 7.56382 21.6006 5.98917 20.9276C5.20314 20.5916 4.5213 20.1732 4.02551 19.6723C3.52676 19.1685 3.18192 18.5423 3.18192 17.8219V6.74068C3.18192 6.02004 3.5267 5.39379 4.02552 4.8898C4.52134 4.38883 5.20324 3.97049 5.98929 3.63458ZM5.04188 5.89573C4.72062 6.22033 4.61192 6.50507 4.61192 6.74067C4.61192 6.97628 4.72062 7.26101 5.04188 7.58561C5.36613 7.91322 5.87091 8.24107 6.55123 8.53181C7.90929 9.11218 9.83524 9.48854 12 9.48854C14.1648 9.48854 16.0908 9.11218 17.4488 8.53181C18.1291 8.24107 18.6339 7.91322 18.9582 7.58561C19.2794 7.26101 19.3881 6.97628 19.3881 6.74067C19.3881 6.50507 19.2794 6.22033 18.9582 5.89573C18.6339 5.56812 18.1291 5.24027 17.4488 4.94953C16.0908 4.36917 14.1648 3.99281 12 3.99281C9.83524 3.99281 7.90929 4.36917 6.55123 4.94953C5.87091 5.24027 5.36613 5.56812 5.04188 5.89573ZM4.61192 14.8781V17.8219C4.61192 18.0571 4.72053 18.3417 5.04183 18.6664C5.3661 18.994 5.87089 19.3218 6.55122 19.6126C7.90926 20.1931 9.83521 20.5697 12 20.5697C14.1648 20.5697 16.0908 20.1931 17.4488 19.6126C18.1292 19.3218 18.634 18.994 18.9582 18.6664C19.2795 18.3417 19.3881 18.0571 19.3881 17.8219V14.8781C18.9879 15.1658 18.5214 15.4188 18.0109 15.637C16.4362 16.3101 14.3106 16.7092 12 16.7092C9.68943 16.7092 7.56382 16.3101 5.98917 15.637C5.47866 15.4188 5.0121 15.1658 4.61192 14.8781ZM19.3881 12.5313C19.3881 12.7666 19.2795 13.0512 18.9582 13.3758C18.634 13.7034 18.1292 14.0313 17.4488 14.3221C16.0908 14.9026 14.1648 15.2792 12 15.2792C9.83521 15.2792 7.90926 14.9026 6.55122 14.3221C5.87089 14.0313 5.3661 13.7034 5.04183 13.3758C4.72053 13.0512 4.61192 12.7666 4.61192 12.5313V9.08786C5.01214 9.37564 5.47875 9.62859 5.98929 9.84677C7.56398 10.5197 9.68958 10.9185 12 10.9185C14.3105 10.9185 16.4361 10.5197 18.0108 9.84677C18.5213 9.62859 18.9879 9.37564 19.3881 9.08786V12.5313Z" fill="#232533"/>
</svg>
