<svg width="24" height="24" viewBox="0 0 24 24" fill="none" xmlns="http://www.w3.org/2000/svg">
<path d="M17.7688 14.5236C17.2074 14.5264 16.6538 14.6552 16.1489 14.9006C15.6439 15.1459 15.2005 15.5015 14.8513 15.9411L9.36882 12.5136C9.56863 11.8687 9.56863 11.1785 9.36882 10.5336L14.8513 7.10609C15.4078 7.79513 16.1902 8.26497 17.0599 8.4324C17.9296 8.59982 18.8305 8.45401 19.603 8.02081C20.3755 7.5876 20.9697 6.89496 21.2804 6.06558C21.5911 5.23619 21.5982 4.3236 21.3005 3.48947C21.0028 2.65533 20.4195 1.95349 19.6538 1.50826C18.8882 1.06304 17.9897 0.903178 17.1175 1.05699C16.2453 1.21081 15.4556 1.66837 14.8885 2.34863C14.3213 3.02889 14.0132 3.88793 14.0188 4.77359C14.0224 5.10897 14.0728 5.44221 14.1688 5.76359L8.68632 9.19109C8.2023 8.58178 7.54072 8.13813 6.79328 7.92164C6.04584 7.70515 5.24956 7.72654 4.51482 7.98285C3.78009 8.23916 3.14328 8.71769 2.69268 9.35212C2.24208 9.98654 2 10.7454 2 11.5236C2 12.3018 2.24208 13.0606 2.69268 13.6951C3.14328 14.3295 3.78009 14.808 4.51482 15.0643C5.24956 15.3206 6.04584 15.342 6.79328 15.1255C7.54072 14.9091 8.2023 14.4654 8.68632 13.8561L14.1688 17.2836C14.0728 17.605 14.0224 17.9382 14.0188 18.2736C14.0188 19.0153 14.2387 19.7403 14.6508 20.357C15.0629 20.9737 15.6485 21.4543 16.3338 21.7381C17.019 22.022 17.773 22.0962 18.5004 21.9515C19.2278 21.8068 19.896 21.4497 20.4205 20.9252C20.9449 20.4008 21.3021 19.7326 21.4468 19.0052C21.5915 18.2778 21.5172 17.5238 21.2334 16.8385C20.9495 16.1533 20.4689 15.5676 19.8522 15.1556C19.2355 14.7435 18.5105 14.5236 17.7688 14.5236ZM17.7688 2.52359C18.2138 2.52359 18.6488 2.65555 19.0188 2.90278C19.3889 3.15002 19.6772 3.50142 19.8475 3.91255C20.0178 4.32369 20.0624 4.77609 19.9756 5.21254C19.8888 5.649 19.6745 6.04991 19.3598 6.36458C19.0451 6.67925 18.6442 6.89354 18.2078 6.98036C17.7713 7.06717 17.3189 7.02262 16.9078 6.85232C16.4966 6.68202 16.1452 6.39363 15.898 6.02362C15.6508 5.65361 15.5188 5.2186 15.5188 4.77359C15.5188 4.17685 15.7559 3.60456 16.1778 3.1826C16.5998 2.76064 17.1721 2.52359 17.7688 2.52359ZM5.76882 13.7736C5.32381 13.7736 4.88879 13.6416 4.51878 13.3944C4.14877 13.1472 3.86038 12.7958 3.69009 12.3846C3.51979 11.9735 3.47523 11.5211 3.56205 11.0846C3.64886 10.6482 3.86316 10.2473 4.17782 9.9326C4.49249 9.61793 4.8934 9.40364 5.32986 9.31682C5.76632 9.23001 6.21872 9.27456 6.62985 9.44486C7.04099 9.61516 7.39239 9.90355 7.63962 10.2736C7.88685 10.6436 8.01882 11.0786 8.01882 11.5236C8.01882 12.1203 7.78176 12.6926 7.35981 13.1146C6.93785 13.5365 6.36555 13.7736 5.76882 13.7736ZM17.7688 20.5236C17.3238 20.5236 16.8888 20.3916 16.5188 20.1444C16.1488 19.8972 15.8604 19.5458 15.6901 19.1346C15.5198 18.7235 15.4752 18.2711 15.562 17.8346C15.6489 17.3982 15.8632 16.9973 16.1778 16.6826C16.4925 16.3679 16.8934 16.1536 17.3299 16.0668C17.7663 15.98 18.2187 16.0246 18.6299 16.1949C19.041 16.3652 19.3924 16.6535 19.6396 17.0236C19.8869 17.3936 20.0188 17.8286 20.0188 18.2736C20.0188 18.8703 19.7818 19.4426 19.3598 19.8646C18.9378 20.2865 18.3656 20.5236 17.7688 20.5236Z" fill="black"/>
</svg>
