<svg width="18" height="18" viewBox="0 0 18 18" fill="none" xmlns="http://www.w3.org/2000/svg">
<path d="M14.3594 16H11.0781C10.1734 16 9.4375 15.2638 9.4375 14.3594V11.0781C9.4375 10.1734 10.1734 9.4375 11.0781 9.4375H14.3594C15.2638 9.4375 16 10.1737 16 11.0781V14.3594C16 15.2638 15.2638 16 14.3594 16ZM11.0781 10.5312C10.7765 10.5312 10.5312 10.7765 10.5312 11.0781V14.3594C10.5312 14.661 10.7765 14.9062 11.0781 14.9062H14.3594C14.661 14.9062 14.9062 14.661 14.9062 14.3594V11.0781C14.9062 10.7765 14.661 10.5312 14.3594 10.5312H11.0781Z" fill="#515364"/>
<path d="M3.64062 8.5625H6.92188C7.82633 8.5625 8.5625 7.82633 8.5625 6.92188V3.64062C8.5625 2.73617 7.82633 2 6.92188 2H3.64062C2.73587 2 2 2.73617 2 3.64062V6.92188C2 7.82633 2.73617 8.5625 3.64062 8.5625ZM3.09375 3.64062C3.09375 3.33904 3.33904 3.09375 3.64062 3.09375H6.92188C7.22346 3.09375 7.46875 3.33904 7.46875 3.64062V6.92188C7.46875 7.22346 7.22346 7.46875 6.92188 7.46875H3.64062C3.33904 7.46875 3.09375 7.22346 3.09375 6.92188V3.64062Z" fill="#515364"/>
<path d="M16 3.63975C15.9994 2.73558 15.2638 2 14.3594 2H11.0781C10.1734 2 9.4375 2.73617 9.4375 3.64062V6.92188C9.4375 7.82633 10.1734 8.5625 11.0781 8.5625H14.3594C15.2638 8.5625 16 7.82633 16 6.92188C16 6.92188 16 3.64033 16 3.63975ZM14.3594 7.46875H11.0781C10.7765 7.46875 10.5312 7.22346 10.5312 6.92188V3.64062C10.5312 3.33904 10.7765 3.09375 11.0781 3.09375H14.3594C14.5936 3.09375 14.7931 3.24192 14.871 3.44929L13.2656 5.05462L12.5586 4.34762C12.3451 4.13412 11.9989 4.13412 11.7854 4.34762C11.5719 4.56112 11.5719 4.90733 11.7854 5.12083L12.8792 6.21458C12.9859 6.32133 13.1259 6.37471 13.2659 6.37471C13.4059 6.37471 13.5459 6.32133 13.6527 6.21458L14.9065 4.96071V6.92158C14.9062 7.22346 14.661 7.46875 14.3594 7.46875Z" fill="#515364"/>
<path d="M8.5625 11.0773C8.56192 10.1728 7.82633 9.4375 6.92188 9.4375H3.64062C2.73617 9.4375 2 10.1734 2 11.0781V14.3594C2 15.2641 2.73587 16 3.64062 16H6.92188C7.82633 16 8.5625 15.2638 8.5625 14.3594V11.0773ZM6.92188 14.9062H3.64062C3.33904 14.9062 3.09375 14.661 3.09375 14.3594V11.0781C3.09375 10.7765 3.33904 10.5312 3.64062 10.5312H6.92188C7.15608 10.5312 7.35558 10.6794 7.43346 10.8868L5.82812 12.4921L5.12112 11.7851C4.90762 11.5716 4.56142 11.5716 4.34792 11.7851C4.13442 11.9986 4.13442 12.3448 4.34792 12.5583L5.44167 13.6521C5.54812 13.7591 5.68812 13.8125 5.82812 13.8125C5.96812 13.8125 6.10812 13.7591 6.21487 13.6524L7.46875 12.3985V14.3594C7.46875 14.661 7.22346 14.9062 6.92188 14.9062Z" fill="#515364"/>
</svg>
