<svg width="24" height="24" viewBox="0 0 24 24" fill="none" xmlns="http://www.w3.org/2000/svg">
<path d="M3.75 20.25V3.75H20.25V7.52846C20.2777 7.528 20.3055 7.52777 20.3333 7.52777C20.8258 7.52777 21.3014 7.60018 21.75 7.73493V3.6C21.75 2.85444 21.1456 2.25 20.4 2.25H3.6C2.85442 2.25 2.25 2.85442 2.25 3.6V20.4C2.25 21.1456 2.85444 21.75 3.6 21.75H12.3082C11.5218 21.4563 10.8161 20.9227 10.2446 20.25H3.75Z" fill="black"/>
<path fill-rule="evenodd" clip-rule="evenodd" d="M8.75505 16.1085C8.7517 16.183 8.75 16.258 8.75 16.3333C8.75 16.7942 8.81343 17.262 8.93204 17.7209C7.60353 17.5267 6.58334 16.3827 6.58334 15.0002L6.58333 13.2219C6.51944 13.1555 6.41147 13.0722 6.26916 12.9832C6.13207 12.8975 5.99047 12.8235 5.88042 12.77C5.82623 12.7437 5.78162 12.7232 5.75154 12.7098L5.71836 12.6952L5.71152 12.6923C5.43217 12.5758 5.25 12.3027 5.25 12C5.25 11.6974 5.43186 11.4244 5.71109 11.3079L5.71836 11.3048L5.75154 11.2902C5.78162 11.2768 5.82623 11.2563 5.88042 11.23C5.99047 11.1765 6.13207 11.1025 6.26916 11.0168C6.41148 10.9278 6.51944 10.8445 6.58334 10.7781V8.99998C6.58334 7.48119 7.81457 6.25 9.33334 6.25H10C10.4142 6.25 10.75 6.58579 10.75 7C10.75 7.41421 10.4142 7.75 10 7.75H9.33334C8.64297 7.75 8.08334 8.30963 8.08334 8.99998V10.8889C8.08333 11.3216 7.83434 11.641 7.66603 11.8163C7.60342 11.8815 7.53641 11.9428 7.46778 12C7.53641 12.0572 7.60342 12.1185 7.66603 12.1837C7.83433 12.359 8.08332 12.6784 8.08333 13.1111L8.08334 15.0002C8.08334 15.4818 8.35579 15.8998 8.75505 16.1085ZM6.61503 10.7418C6.6179 10.7367 6.62009 10.7341 6.62009 10.7341C6.62009 10.7341 6.61891 10.7366 6.61503 10.7418ZM6.62008 13.2659C6.62008 13.2659 6.61789 13.2633 6.61503 13.2582C6.6189 13.2634 6.62008 13.2659 6.62008 13.2659Z" fill="black"/>
<path fill-rule="evenodd" clip-rule="evenodd" d="M18.0036 20.8669C17.9493 20.6702 17.9192 20.4634 17.9168 20.25C17.9167 20.2407 17.9167 20.2315 17.9167 20.2222C17.9167 20.0422 17.9364 19.8668 17.9737 19.698L15.2621 18.1485C14.8365 18.5229 14.2781 18.75 13.6667 18.75C12.332 18.75 11.25 17.668 11.25 16.3333C11.25 14.9986 12.332 13.9166 13.6667 13.9166C14.2781 13.9166 14.8365 14.1437 15.2621 14.5181L17.9737 12.9686C17.9672 12.9395 17.9613 12.9101 17.9559 12.8806C17.9301 12.7391 17.9167 12.5934 17.9167 12.4444C17.9167 12.2212 17.9469 12.005 18.0036 11.7998C18.0564 11.6085 18.1321 11.4268 18.2276 11.2577C18.6295 10.5461 19.3816 10.0586 20.25 10.0292C20.2646 10.0287 20.2793 10.0283 20.294 10.0281C20.3071 10.0279 20.3202 10.0278 20.3333 10.0278C20.8625 10.0278 21.352 10.1978 21.75 10.4863C22.3559 10.9254 22.75 11.6389 22.75 12.4444C22.75 13.25 22.3559 13.9634 21.75 14.4026C21.352 14.691 20.8625 14.8611 20.3333 14.8611C20.3084 14.8611 20.2836 14.8607 20.2588 14.86C20.2559 14.8599 20.2529 14.8598 20.25 14.8597C19.6712 14.8401 19.144 14.6169 18.7378 14.2596L16.0263 15.809C16.0295 15.8233 16.0325 15.8377 16.0354 15.8521C16.0374 15.8619 16.0393 15.8716 16.0412 15.8814C16.0688 16.0278 16.0833 16.1789 16.0833 16.3333C16.0833 16.4877 16.0688 16.6388 16.0412 16.7852L16.0402 16.79C16.0359 16.8126 16.0313 16.8352 16.0263 16.8576L18.7378 18.407C19.1441 18.0497 19.6712 17.8266 20.25 17.807C20.2529 17.8069 20.2559 17.8068 20.2588 17.8067C20.2836 17.8059 20.3084 17.8055 20.3333 17.8055C20.8625 17.8055 21.352 17.9756 21.75 18.2641C22.3559 18.7032 22.75 19.4167 22.75 20.2222C22.75 21.5569 21.6681 22.6389 20.3333 22.6389C19.5782 22.6389 18.9039 22.2925 18.4608 21.75C18.2517 21.494 18.094 21.1944 18.0036 20.8669ZM20.25 19.3093C19.7828 19.3514 19.4167 19.744 19.4167 20.2222C19.4167 20.2315 19.4168 20.2408 19.4171 20.25C19.4246 20.501 19.5329 20.7266 19.7029 20.8877C19.8672 21.0434 20.0891 21.1389 20.3333 21.1389C20.8396 21.1389 21.25 20.7285 21.25 20.2222C21.25 19.8129 20.9817 19.4662 20.6114 19.3485C20.5237 19.3206 20.4303 19.3055 20.3333 19.3055C20.3052 19.3055 20.2774 19.3068 20.25 19.3093ZM13.3886 17.207C13.4763 17.2349 13.5697 17.25 13.6667 17.25C13.8984 17.25 14.11 17.164 14.2714 17.0222C14.2739 17.02 14.2764 17.0178 14.2789 17.0156C14.2847 17.0103 14.2905 17.005 14.2962 16.9996L14.2971 16.9988C14.4271 16.8756 14.521 16.7147 14.5614 16.5336C14.5758 16.4691 14.5833 16.4021 14.5833 16.3333C14.5833 15.827 14.1729 15.4166 13.6667 15.4166C13.1604 15.4166 12.75 15.827 12.75 16.3333C12.75 16.7179 12.9868 17.0471 13.3225 17.1832C13.3441 17.1919 13.3662 17.1999 13.3886 17.207ZM20.25 13.3574C20.2774 13.3598 20.3052 13.3611 20.3333 13.3611C20.4303 13.3611 20.5237 13.3461 20.6114 13.3182C20.9817 13.2004 21.25 12.8538 21.25 12.4444C21.25 11.9382 20.8396 11.5278 20.3333 11.5278C20.3052 11.5278 20.2774 11.529 20.25 11.5315C19.7828 11.5736 19.4167 11.9663 19.4167 12.4444C19.4167 12.9226 19.7828 13.3153 20.25 13.3574Z" fill="black"/>
<path d="M17.4184 8.48461C16.8139 8.93036 16.3151 9.51122 15.9667 10.1826V8.99998C15.9667 8.30963 15.407 7.75 14.7167 7.75H14.05C13.6358 7.75 13.3 7.41421 13.3 7C13.3 6.58579 13.6358 6.25 14.05 6.25H14.7167C16.0593 6.25 17.1772 7.21216 17.4184 8.48461Z" fill="black"/>
</svg>
