<svg width="24" height="24" viewBox="0 0 24 24" fill="none" xmlns="http://www.w3.org/2000/svg">
<path fill-rule="evenodd" clip-rule="evenodd" d="M5.5885 9.07792C5.56848 9.14944 5.51142 9.20469 5.43943 9.22293C4.28425 9.51549 3.34497 10.1459 2.62159 11.1141C1.87386 12.1148 1.5 13.2551 1.5 14.5348C1.50064 16.0277 2.01386 17.291 3.03968 18.3246C4.0655 19.3582 5.30227 19.875 6.75 19.875H18.2045C19.3984 19.8757 20.4127 19.4452 21.2476 18.5835C22.0825 17.7218 22.5 16.6758 22.5 15.4453C22.5006 14.3139 22.1389 13.3256 21.4147 12.4804C20.7197 11.6693 19.8528 11.1869 18.8139 11.0333C18.7387 11.0222 18.682 10.9583 18.6808 10.8823C18.652 9.02122 18.0042 7.43751 16.7374 6.13116C15.4405 4.79372 13.8614 4.125 12 4.125C10.4886 4.125 9.13636 4.59258 7.94318 5.52773C6.78088 6.43869 5.99598 7.62208 5.5885 9.07792ZM2.95 14.5341C2.95012 13.5594 3.22766 12.7255 3.78318 11.9819C4.32712 11.2539 5.01039 10.8087 5.88274 10.6074L6.61819 10.4378C6.69056 10.4211 6.74771 10.3657 6.76664 10.2939L6.95896 9.564C7.27869 8.35061 7.90112 7.40298 8.83764 6.66898C9.77643 5.93321 10.814 5.575 12 5.575C13.4687 5.575 14.6724 6.08448 15.6965 7.14057C16.7223 8.19844 17.2323 9.46068 17.2318 11.0151L17.2315 12.125C17.2314 12.2263 17.3071 12.3116 17.4077 12.3236L18.5097 12.4554C19.2438 12.5431 19.8241 12.8525 20.3136 13.4238C20.8084 14.0013 21.0504 14.6532 21.05 15.4445C21.05 16.309 20.7717 16.9909 20.2063 17.5745C19.6432 18.1557 19.0042 18.4254 18.2053 18.425H6.75C5.69129 18.425 4.82424 18.0643 4.06885 17.3032C3.32009 16.5487 2.95061 15.6552 2.95 14.5341Z" fill="#232533"/>
</svg>
