<svg width="24" height="24" viewBox="0 0 24 24" fill="none" xmlns="http://www.w3.org/2000/svg">
<path fill-rule="evenodd" clip-rule="evenodd" d="M13.3826 3.11406C13.1385 2.59738 12.5905 2.25 12.0188 2.25C11.447 2.25 10.899 2.59739 10.655 3.11408C9.98905 4.45845 9.29938 5.79408 8.64868 7.14637C8.50165 7.45192 8.21172 7.66421 7.8759 7.71119C6.41094 7.91616 4.94915 8.15059 3.48611 8.36733C2.91642 8.42316 2.40342 8.82383 2.21172 9.36407C2.01701 9.9128 2.17092 10.5582 2.59218 10.9599L5.82063 14.0748C6.05863 14.3044 6.16771 14.6369 6.11201 14.9629L5.34231 19.4675L5.34209 19.4688C5.24488 20.0299 5.48744 20.6269 5.94855 20.9612C6.40968 21.2955 7.05254 21.3404 7.55566 21.0735L7.55672 21.073C8.27378 20.694 10.5593 19.4828 11.5516 18.957C11.8444 18.8018 12.1941 18.8022 12.487 18.9574L16.4818 21.0734C16.9849 21.3404 17.6278 21.2956 18.089 20.9612C18.5504 20.6267 18.793 20.0291 18.6953 19.4676L17.9283 15.0293C17.871 14.6977 17.9847 14.3601 18.2276 14.1272C19.3068 13.0926 20.3453 12.0096 21.4059 10.9573C21.8173 10.566 21.9762 9.94216 21.8018 9.40149C21.6269 8.85938 21.1312 8.44536 20.5669 8.36963C19.0987 8.15212 17.6318 7.91686 16.1616 7.71119C15.8258 7.66421 15.5359 7.45192 15.3889 7.14637C14.7382 5.79408 14.0485 4.45844 13.3826 3.11406Z" fill="#232533"/>
</svg>
