<svg width="24" height="24" viewBox="0 0 24 24" fill="none" xmlns="http://www.w3.org/2000/svg">
<path d="M11.99 15.002C14.7669 15.002 16.9345 15.6929 18.2331 16.9947C19.222 17.976 19.4817 19.0574 19.4817 19.488C19.4817 19.498 19.4817 19.498 19.4817 19.508C19.4717 19.508 19.4617 19.508 19.4617 19.518C19.4417 19.518 19.4317 19.518 19.4118 19.518H4.56826C4.55828 19.518 4.53829 19.518 4.5283 19.518C4.51831 19.518 4.50832 19.518 4.49833 19.508C4.49833 19.498 4.49833 19.498 4.49833 19.488C4.49833 19.0574 4.75805 17.986 5.73696 17.0047C7.0555 15.6929 9.22308 15.002 11.99 15.002ZM11.99 13.5C8.25416 13.5 6.00666 14.6215 4.68813 15.9232C3.37958 17.235 3 18.717 3 19.478C3 19.8585 3.09989 20.1389 3.24972 20.3591C3.38957 20.5694 3.58934 20.7196 3.77913 20.8097C3.96892 20.9099 4.1687 20.9499 4.30854 20.98C4.37847 20.99 4.4384 20.99 4.47835 21H19.5216C19.5616 20.99 19.6215 20.99 19.6915 20.98C19.8413 20.9499 20.0311 20.9099 20.2209 20.8097C20.4206 20.7196 20.6104 20.5694 20.7603 20.3591C20.9101 20.1389 21 19.8585 21 19.478C21 18.727 20.6204 17.235 19.3119 15.9232C17.9833 14.6215 15.7259 13.5 11.99 13.5Z" fill="#222532"/>
<path d="M12 4.50167C12.79 4.50167 13.57 4.82202 14.13 5.39266C14.68 5.93326 15 6.70412 15 7.49499C15 8.3059 14.69 9.05673 14.12 9.62736C13.57 10.188 12.79 10.5083 12 10.5083C11.21 10.5083 10.44 10.188 9.88 9.62736C9.31 9.05673 9 8.3059 9 7.49499C9 6.70412 9.32 5.93326 9.89 5.37264C10.44 4.82202 11.21 4.50167 12 4.50167ZM12 3C10.81 3 9.67 3.47052 8.83 4.32147C7.98 5.1624 7.5 6.31368 7.5 7.49499C7.5 8.69633 7.97 9.8376 8.83 10.6785C9.67 11.5295 10.82 12 12 12C13.2 12 14.34 11.5295 15.18 10.6785C16.03 9.82759 16.5 8.68632 16.5 7.49499C16.5 6.30367 16.04 5.15239 15.18 4.32147C14.34 3.47052 13.2 3 12 3Z" fill="#222532"/>
</svg>
