<svg width="24" height="24" viewBox="0 0 24 24" fill="none" xmlns="http://www.w3.org/2000/svg">
<path d="M4 4.5C4 3.83696 4.26339 3.20107 4.73223 2.73223C5.20107 2.26339 5.83696 2 6.5 2H18C18.3283 2 18.6534 2.06466 18.9567 2.1903C19.26 2.31594 19.5356 2.50009 19.7678 2.73223C19.9999 2.96438 20.1841 3.23998 20.3097 3.54329C20.4353 3.84661 20.5 4.1717 20.5 4.5V18.75C20.5 18.9489 20.421 19.1397 20.2803 19.2803C20.1397 19.421 19.9489 19.5 19.75 19.5H5.5C5.5 19.7652 5.60536 20.0196 5.79289 20.2071C5.98043 20.3946 6.23478 20.5 6.5 20.5H19.75C19.9489 20.5 20.1397 20.579 20.2803 20.7197C20.421 20.8603 20.5 21.0511 20.5 21.25C20.5 21.4489 20.421 21.6397 20.2803 21.7803C20.1397 21.921 19.9489 22 19.75 22H6.5C5.83696 22 5.20107 21.7366 4.73223 21.2678C4.26339 20.7989 4 20.163 4 19.5V4.5ZM19 18V4.5C19 4.23478 18.8946 3.98043 18.7071 3.79289C18.5196 3.60536 18.2652 3.5 18 3.5H6.5C6.23478 3.5 5.98043 3.60536 5.79289 3.79289C5.60536 3.98043 5.5 4.23478 5.5 4.5V18H19Z" fill="#232533"/>
<path d="M13.4671 9.08445L10.7171 9.42221L10.6189 9.8696L11.16 9.96585C11.5119 10.0487 11.582 10.1726 11.5056 10.5175L10.7403 14.0965C10.5084 15.1508 10.8676 15.6472 11.7106 15.6472C12.3654 15.6472 13.1238 15.3514 13.4685 14.9441L13.574 14.4548C13.3348 14.6616 12.9829 14.7444 12.751 14.7444C12.4209 14.7444 12.3017 14.5172 12.3854 14.117L13.4671 9.08445ZM13.5508 6.82917C13.5508 7.14116 13.4243 7.44038 13.1992 7.661C12.9741 7.88161 12.6688 8.00555 12.3504 8.00555C12.032 8.00555 11.7267 7.88161 11.5016 7.661C11.2765 7.44038 11.15 7.14116 11.15 6.82917C11.15 6.51717 11.2765 6.21795 11.5016 5.99733C11.7267 5.77672 12.032 5.65278 12.3504 5.65278C12.6688 5.65278 12.9741 5.77672 13.1992 5.99733C13.4243 6.21795 13.5508 6.51717 13.5508 6.82917Z" fill="#232533"/>
<path fill-rule="evenodd" clip-rule="evenodd" d="M13.6594 8.90695L12.5321 14.1489C12.4933 14.335 12.51 14.4463 12.5429 14.5044C12.5686 14.5496 12.621 14.5917 12.751 14.5917C12.9587 14.5917 13.2724 14.5151 13.4769 14.3383L13.8158 14.0453L13.6069 15.0146L13.5821 15.0438C13.3884 15.2728 13.0885 15.4604 12.7603 15.5907C12.4304 15.7217 12.0587 15.8 11.7106 15.8C11.2632 15.8 10.9025 15.6674 10.6973 15.3515C10.4974 15.0437 10.4749 14.6048 10.5939 14.0633L11.3591 10.4845C11.3968 10.3143 11.3834 10.2524 11.3663 10.2245C11.3493 10.1968 11.3001 10.1561 11.1301 10.1156L10.4382 9.99254L10.5939 9.28347L13.6594 8.90695ZM11.16 9.96585C11.5119 10.0487 11.582 10.1726 11.5056 10.5175L10.7403 14.0965C10.5084 15.1508 10.8676 15.6472 11.7106 15.6472C12.3654 15.6472 13.1238 15.3514 13.4685 14.9441L13.574 14.4548C13.5189 14.5024 13.4579 14.5434 13.3938 14.5784C13.1792 14.6953 12.9295 14.7444 12.751 14.7444C12.4209 14.7444 12.3017 14.5172 12.3854 14.117L13.4671 9.08445L10.7171 9.42221L10.6189 9.8696L11.16 9.96585ZM13.7008 6.82917C13.7008 7.18362 13.5571 7.52232 13.3032 7.77109C13.0496 8.01967 12.7067 8.15833 12.3504 8.15833C11.9941 8.15833 11.6512 8.01967 11.3976 7.77109C11.1437 7.52232 11 7.18362 11 6.82917C11 6.47471 11.1437 6.13602 11.3976 5.88724C11.6512 5.63866 11.9941 5.5 12.3504 5.5C12.7067 5.5 13.0496 5.63866 13.3032 5.88724C13.5571 6.13602 13.7008 6.47471 13.7008 6.82917ZM13.1992 7.661C13.4243 7.44038 13.5508 7.14116 13.5508 6.82917C13.5508 6.51717 13.4243 6.21795 13.1992 5.99733C12.9741 5.77672 12.6688 5.65278 12.3504 5.65278C12.032 5.65278 11.7267 5.77672 11.5016 5.99733C11.2765 6.21795 11.15 6.51717 11.15 6.82917C11.15 7.14116 11.2765 7.44038 11.5016 7.661C11.7267 7.88161 12.032 8.00555 12.3504 8.00555C12.6688 8.00555 12.9741 7.88161 13.1992 7.661Z" fill="#232533"/>
</svg>
