<svg width="24" height="24" viewBox="0 0 24 24" fill="none" xmlns="http://www.w3.org/2000/svg">
<path fill-rule="evenodd" clip-rule="evenodd" d="M13.6142 14.2491L14.1039 15.7987C14.1438 15.9195 14.2538 16 14.3837 16H15.7028C15.9026 16 16.0525 15.7987 15.9826 15.6075L13.1745 8.1912C13.1346 8.0805 13.0247 8 12.8947 8H11.096C10.9761 8 10.8662 8.0805 10.8162 8.1912L8.0182 15.6075C7.94825 15.7987 8.08815 16 8.298 16H9.61707C9.74698 16 9.8569 15.9195 9.89687 15.7987L10.3865 14.2491C10.4265 14.1283 10.5364 14.0478 10.6663 14.0478H13.3444C13.4643 14.0478 13.5743 14.1283 13.6142 14.2491ZM12.7149 12.5786H11.2959C11.096 12.5786 10.9561 12.3874 11.0161 12.1962C11.0161 12.1962 11.8355 9.66038 11.8355 9.65031C11.8755 9.50943 12.1053 9.50943 12.1453 9.65031C12.2052 9.86163 12.9847 12.1962 12.9847 12.1962C13.0546 12.3874 12.9147 12.5786 12.7149 12.5786Z" fill="#222532"/>
<path fill-rule="evenodd" clip-rule="evenodd" d="M10.1539 5.03096C10.2638 5.00364 10.3728 5.07625 10.3931 5.1877L10.5866 6.25306C10.6166 6.42297 10.8572 6.41297 10.9273 6.31303L11.7291 5.2336L12.5409 4.13419C12.6512 3.98427 12.6011 3.65444 12.4407 3.55449L11.2982 2.7949L10.1356 2.02531C10.0253 1.95534 9.8349 2.0353 9.87499 2.20521L10.0717 3.31413C10.0905 3.42031 10.0214 3.52214 9.91642 3.54683C6.01523 4.46434 3.20001 7.89803 3.20001 11.99C3.20001 13.4192 3.5608 14.8485 4.24233 16.1078C4.37262 16.3577 4.63321 16.4976 4.90382 16.4976C5.02408 16.4976 5.14436 16.4676 5.25461 16.4077C5.61542 16.2078 5.75572 15.758 5.55527 15.3982C4.99401 14.3587 4.69335 13.1794 4.69335 11.99C4.69335 8.64229 6.97175 5.82185 10.1539 5.03096Z" fill="#222532"/>
<path fill-rule="evenodd" clip-rule="evenodd" d="M20.8 12.0052C20.8 10.5767 20.4392 9.14826 19.7576 7.88959C19.6274 7.63985 19.3668 7.5 19.0962 7.5C18.9759 7.5 18.8556 7.52997 18.7454 7.58991C18.3846 7.78969 18.2443 8.23922 18.4447 8.59884C19.006 9.63774 19.3067 10.8165 19.3067 12.0052C19.3067 15.361 17.0282 18.1802 13.846 18.9706C13.7361 18.9979 13.6271 18.9253 13.6069 18.8139L13.4134 17.7492C13.3834 17.5794 13.1428 17.5893 13.0727 17.6892L12.2709 18.7681L11.4591 19.8669C11.3488 20.0168 11.3989 20.3464 11.5593 20.4463L12.7019 21.2055L13.8644 21.9747C13.9747 22.0446 14.1651 21.9647 14.125 21.7949L13.9282 20.6862C13.9094 20.5802 13.9783 20.4785 14.0831 20.4536C17.9845 19.5273 20.8 16.0953 20.8 12.0052Z" fill="#222532"/>
</svg>
