<svg width="24" height="24" viewBox="0 0 24 24" fill="none" xmlns="http://www.w3.org/2000/svg">
<path fill-rule="evenodd" clip-rule="evenodd" d="M11.4981 2.94253C11.7833 2.68582 12.2163 2.68582 12.5015 2.94253L21.9204 11.4195C22.6357 12.0633 22.1803 13.25 21.218 13.25H19.2498V20.5C19.2498 20.9142 18.914 21.25 18.4998 21.25H13.9998C13.5856 21.25 13.2498 20.9142 13.2498 20.5V16.5C13.2498 15.8096 12.6902 15.25 11.9998 15.25C11.3095 15.25 10.7498 15.8096 10.7498 16.5V20.5C10.7498 20.9142 10.414 21.25 9.99982 21.25H5.49982C5.0856 21.25 4.74982 20.9142 4.74982 20.5V13.25H2.7816C1.81929 13.25 1.36392 12.0633 2.07919 11.4195L11.4981 2.94253ZM3.95428 11.75H5.49982C5.91403 11.75 6.24982 12.0858 6.24982 12.5V19.75H9.24982V16.5C9.24982 14.9812 10.481 13.75 11.9998 13.75C13.5186 13.75 14.7498 14.9812 14.7498 16.5V19.75H17.7498V12.5C17.7498 12.0858 18.0856 11.75 18.4998 11.75H20.0453L11.9998 4.50902L3.95428 11.75Z" fill="#232533"/>
</svg>
