<svg width="24" height="24" viewBox="0 0 24 24" fill="none" xmlns="http://www.w3.org/2000/svg">
<path fill-rule="evenodd" clip-rule="evenodd" d="M17.7276 9.36347C17.7276 12.5013 15.1839 15.0449 12.0461 15.0449C8.90835 15.0449 6.36467 12.5013 6.36467 9.36347C6.36467 6.22568 8.90835 3.682 12.0461 3.682C15.1839 3.682 17.7276 6.22568 17.7276 9.36347ZM18.3814 12.5191C17.2214 14.8433 14.8202 16.4396 12.0461 16.4396C9.28349 16.4396 6.89062 14.8564 5.7253 12.5478C4.55842 12.3347 3.65945 11.2949 3.65698 10.0815L3.65486 9.04067C3.65257 7.91819 4.41817 7.00594 5.4561 6.78095C6.48785 4.15015 9.04946 2.28737 12.0461 2.28737C15.0477 2.28737 17.6128 4.15622 18.6412 6.7938C19.64 7.05483 20.3753 7.95209 20.386 9.04482L20.396 10.0637C20.4077 11.269 19.534 12.299 18.3814 12.5191ZM3.33193 21.4164H4.76836C4.68746 20.3851 4.93986 19.1744 5.68484 18.5704C5.87375 18.4173 6.09831 18.3059 6.36703 18.2252C7.27738 17.9516 8.22219 18.3185 9.11568 18.6654L9.279 18.7287C11.0329 19.4052 12.9592 19.4049 14.7288 18.7204L14.8681 18.6663C15.7606 18.3194 16.7056 17.952 17.6175 18.2212C17.8922 18.3022 18.121 18.4148 18.3131 18.5704C19.1874 19.2792 19.5472 20.454 19.717 21.4107H21.0148C21.0686 19.473 20.1833 18.2182 19.2295 17.4451C18.4743 16.8328 16.4864 16.0332 15.4852 16.6991C13.3484 18.1204 10.644 18.1111 8.51159 16.6984C7.55259 16.0631 5.50944 16.8444 4.7684 17.4451C3.76105 18.2617 3.21871 19.4513 3.33193 21.4164ZM11.3982 9.569C11.3981 9.68292 11.3757 9.79572 11.3321 9.90096C11.2884 10.0062 11.2245 10.1018 11.1439 10.1824C11.0634 10.2629 10.9677 10.3268 10.8624 10.3703C10.7572 10.4139 10.6444 10.4363 10.5304 10.4363C10.4165 10.4363 10.3037 10.4138 10.1985 10.3702C10.0932 10.3266 9.99762 10.2626 9.91708 10.1821C9.83655 10.1015 9.77267 10.0058 9.7291 9.90056C9.68553 9.7953 9.66312 9.68249 9.66315 9.56856C9.6632 9.33848 9.75466 9.11785 9.91739 8.9552C10.0801 8.79255 10.3008 8.70121 10.5309 8.70126C10.761 8.70132 10.9816 8.79277 11.1442 8.95551C11.3069 9.11824 11.3982 9.33892 11.3982 9.569ZM14.4255 9.569C14.4255 9.68292 14.403 9.79572 14.3594 9.90096C14.3157 10.0062 14.2518 10.1018 14.1712 10.1824C14.0907 10.2629 13.995 10.3268 13.8898 10.3703C13.7845 10.4139 13.6717 10.4363 13.5578 10.4363C13.4438 10.4363 13.331 10.4138 13.2258 10.3702C13.1205 10.3266 13.0249 10.2626 12.9444 10.1821C12.8639 10.1015 12.8 10.0058 12.7564 9.90056C12.7128 9.7953 12.6904 9.68249 12.6905 9.56856C12.6905 9.33848 12.782 9.11785 12.9447 8.9552C13.1074 8.79255 13.3281 8.70121 13.5582 8.70126C13.7883 8.70132 14.0089 8.79277 14.1715 8.95551C14.3342 9.11824 14.4255 9.33892 14.4255 9.569ZM12.0461 6.36866C13.7448 6.36866 15.3438 7.97863 15.3438 9.60936C15.3438 11.5726 14.488 12.8603 11.9525 12.9137C9.51794 12.9137 8.84376 11.538 8.84376 9.60936C8.84376 7.97863 10.3475 6.36866 12.0461 6.36866ZM16.4797 9.60936C16.4797 12.0253 15.3368 13.8176 12.0461 13.9838C8.87382 13.9838 7.6125 12.0253 7.6125 9.60936C7.6125 7.19342 9.5975 5.23492 12.0461 5.23492C14.4947 5.23492 16.4797 7.19342 16.4797 9.60936Z" fill="#232533"/>
</svg>
