<svg width="24" height="24" viewBox="0 0 24 24" fill="none" xmlns="http://www.w3.org/2000/svg">
<path d="M22.3106 12.0271L15.0567 14.5963C14.9979 14.6151 14.945 14.6485 14.9029 14.6935C14.8608 14.7385 14.8311 14.7935 14.8164 14.8532L12.7045 22.2355C12.6805 22.3122 12.6326 22.3792 12.5678 22.4268C12.5029 22.4743 12.4245 22.5 12.344 22.5C12.2635 22.5 12.185 22.4743 12.1202 22.4268C12.0553 22.3792 12.0074 22.3122 11.9834 22.2355L9.40808 14.9903C9.38613 14.9335 9.35157 14.8824 9.30696 14.8408C9.26235 14.7993 9.20881 14.7684 9.15051 14.7505L1.75925 12.6523C1.6835 12.626 1.61783 12.5768 1.57136 12.5116C1.52489 12.4463 1.5 12.3683 1.5 12.2883C1.5 12.2083 1.52489 12.1302 1.57136 12.065C1.61783 11.9998 1.6835 11.9506 1.75925 11.9243L9.02182 9.3979C9.07875 9.376 9.12993 9.3415 9.17157 9.29699C9.2132 9.25249 9.24413 9.19915 9.26211 9.14098L11.3654 1.75872C11.3917 1.68314 11.441 1.61763 11.5064 1.57127C11.5718 1.52491 11.6499 1.5 11.7302 1.5C11.8104 1.5 11.8886 1.52491 11.954 1.57127C12.0194 1.61763 12.0687 1.68314 12.095 1.75872L14.6274 9.00395C14.6461 9.06118 14.6787 9.11295 14.7221 9.15476C14.7655 9.19656 14.8184 9.22712 14.8764 9.24375L22.2677 11.342C22.333 11.3702 22.3892 11.416 22.4301 11.4741C22.471 11.5323 22.4949 11.6005 22.4994 11.6714C22.5038 11.7423 22.4886 11.813 22.4552 11.8758C22.4219 11.9385 22.3719 11.9909 22.3106 12.0271Z" fill="#232533"/>
</svg>
