<svg width="24" height="24" viewBox="0 0 24 24" fill="none" xmlns="http://www.w3.org/2000/svg">
<path d="M12.6842 9.50339C12.6842 9.12697 12.3791 8.82182 12.0027 8.82182C11.6263 8.82182 11.3211 9.12697 11.3211 9.50339V10.1393C11.3211 10.229 11.2611 10.3067 11.1768 10.3371C10.9235 10.4283 10.6872 10.5679 10.4809 10.7504C9.51318 11.6064 9.51959 13.0085 10.4843 13.8618C10.9153 14.2431 11.4693 14.3976 12.0515 14.3976C12.4678 14.3976 12.9087 14.6345 12.9087 15.1272C12.9087 15.7741 11.6648 16.0766 11.1958 15.4907C10.9606 15.1968 10.5317 15.1492 10.2378 15.3844C9.94391 15.6196 9.89634 16.0485 10.1315 16.3424C10.3593 16.627 10.6484 16.8559 10.9784 17.0087C11.0433 17.0388 11.1095 17.0657 11.1767 17.0895C11.2612 17.1194 11.3211 17.1973 11.3211 17.2869V17.9885C11.3211 18.365 11.6263 18.6701 12.0027 18.6701C12.3791 18.6701 12.6843 18.365 12.6843 17.9885V17.2916C12.6843 17.2023 12.7438 17.1248 12.8277 17.0942C13.0801 17.0024 13.3154 16.8627 13.5211 16.6808C13.9509 16.3006 14.2171 15.7667 14.2743 15.1951C14.3332 14.6066 13.9437 13.9475 13.5211 13.5736C13.09 13.1924 12.5621 13.0379 11.9539 13.0379C11.7539 13.0523 11.5507 12.9853 11.3875 12.8408C11.0382 12.5319 11.0336 12.0815 11.3841 11.7714C11.5465 11.6277 11.7489 11.562 11.9477 11.5781C11.9806 11.5808 12.0136 11.581 12.0465 11.5789C12.1892 11.5697 12.3329 11.5938 12.4678 11.6506C12.6029 11.7075 12.7273 11.7964 12.8307 11.9136C13.0798 12.1958 13.5105 12.2226 13.7927 11.9735C14.075 11.7244 14.1018 11.2937 13.8527 11.0115C13.6166 10.7441 13.3248 10.5324 12.9968 10.3943C12.9426 10.3715 12.8878 10.3508 12.8323 10.3323C12.746 10.3034 12.6842 10.2248 12.6842 10.1338V9.50339Z" fill="#232533"/>
<path fill-rule="evenodd" clip-rule="evenodd" d="M15.0675 2.46613H9.02173L9.01518 2.46616C8.41362 2.4716 7.84821 2.83281 7.56954 3.35663C7.28815 3.88556 7.27577 4.6228 7.63928 5.11892L8.83426 6.74989C3.67412 8.59014 -0.315801 15.5665 5.47335 19.9408C7.14988 21.0245 9.44429 21.5 12.0094 21.5C14.5744 21.5 16.8695 21.0246 18.5465 19.9363C24.4375 14.9278 20.2206 8.29279 15.2519 6.73451L16.4421 5.12075C16.8047 4.62906 16.7913 3.87957 16.5131 3.35663C16.2345 2.83281 15.6691 2.47157 15.0675 2.46613ZM8.84082 4.30547C8.77762 4.16319 8.84141 3.91999 9.02631 3.91613H15.0564C15.2416 3.92 15.306 4.16008 15.2422 4.30474L13.5944 6.53906C13.3572 6.86061 13.4232 7.46116 13.8402 7.61094C17.7572 9.01779 22.8438 14.2238 17.7572 18.72C16.4421 19.6875 14.4296 20.05 12.0094 20.05C9.58934 20.05 7.61073 19.5959 6.26053 18.7231C1.37505 14.5938 6.26053 8.69259 10.2443 7.62501C10.6291 7.42111 10.747 6.90719 10.4897 6.55588L8.84082 4.30547Z" fill="#232533"/>
</svg>
