<svg width="24" height="24" viewBox="0 0 24 24" fill="none" xmlns="http://www.w3.org/2000/svg">
<path d="M4.47138 5.06442C4.71149 8.13949 4.69658 11.22 6.57722 13.7346C6.81533 14.0529 6.80702 14.4891 6.50722 14.7502C6.20743 15.0114 5.7346 14.9949 5.49157 14.6802C3.325 11.8752 3.27872 8.28508 3.00219 4.7436C2.98175 4.48183 3.10546 4.22969 3.325 4.08566C7.04276 1.64656 11.6375 1.34896 15.6889 3.18142C16.0511 3.34527 16.2119 3.77175 16.0481 4.13399C15.8842 4.49624 15.4578 4.65707 15.0955 4.49322C11.6246 2.9233 7.72828 3.0888 4.47138 5.06442Z" fill="#000001"/>
<path d="M12.4436 10.9569C12.3655 10.933 12.2835 10.9323 12.2051 10.9547C12.1265 10.9773 12.0509 11.0235 11.9887 11.0927C11.7912 11.3123 11.453 11.3302 11.2334 11.1327C11.0138 10.9352 10.9959 10.5971 11.1934 10.3775C11.3858 10.1636 11.633 10.0061 11.9102 9.92661C12.1831 9.8483 12.4715 9.84962 12.7435 9.93019C13.0085 9.99905 13.2485 10.1391 13.4414 10.3328C13.6373 10.5295 13.7779 10.7748 13.8523 11.0422C13.9041 11.2285 13.8506 11.4193 13.7275 11.5511L13.3231 12.6341C13.2203 12.9094 12.8805 13.0368 12.5641 12.9187C12.2478 12.8005 12.0746 12.4816 12.1774 12.2063L12.6162 11.031C12.5704 10.9992 12.521 10.977 12.4706 10.9644C12.4615 10.9621 12.4526 10.9597 12.4436 10.9569Z" fill="#000001"/>
<path d="M17.9086 12.9912C17.9888 12.9661 18.0729 12.9644 18.1534 12.986C18.2343 13.0078 18.3123 13.0533 18.3776 13.1222C18.443 13.1913 18.4928 13.2812 18.5178 13.3838C18.5911 13.6837 18.8936 13.8674 19.1934 13.7942C19.4933 13.7209 19.677 13.4184 19.6038 13.1186C19.5338 12.8323 19.3919 12.5676 19.1892 12.3535C18.9862 12.1392 18.7293 11.9833 18.4436 11.9065C18.1576 11.8296 17.8569 11.8359 17.5743 11.9245C17.2921 12.0129 17.0417 12.1791 16.8472 12.4011C16.8396 12.4098 16.8322 12.4187 16.8252 12.4278C16.7593 12.481 16.7118 12.55 16.6911 12.631L16.4025 13.7636C16.339 14.0128 16.5528 14.2824 16.8801 14.3658C17.2073 14.4492 17.5241 14.3148 17.5876 14.0657L17.8563 13.0112C17.8735 13.0034 17.891 12.9967 17.9086 12.9912Z" fill="#000001"/>
<path d="M15.1854 12.3676C15.4549 12.4363 15.6177 12.7104 15.549 12.9799L15.0027 15.1235C14.934 15.3929 14.6599 15.5557 14.3905 15.487L13.4718 15.2529C13.2023 15.1842 13.0396 14.9101 13.1082 14.6407C13.1769 14.3712 13.451 14.2084 13.7205 14.2771L14.1513 14.3869L14.5732 12.7312C14.6419 12.4617 14.916 12.299 15.1854 12.3676Z" fill="#000001"/>
<path d="M12.5808 16.0308C12.4202 15.7755 12.0831 15.6988 11.8278 15.8594C11.5726 16.02 11.4958 16.3571 11.6564 16.6123C12.0706 17.2706 12.7217 17.7448 13.4753 17.9368C14.229 18.1289 15.0276 18.0242 15.7063 17.6444C15.9695 17.4972 16.0635 17.1645 15.9162 16.9013C15.7689 16.6381 15.4362 16.5442 15.173 16.6914C14.7386 16.9345 14.2274 17.0015 13.745 16.8786C13.2626 16.7556 12.8459 16.4522 12.5808 16.0308Z" fill="#000001"/>
<path fill-rule="evenodd" clip-rule="evenodd" d="M12.8783 21.7194C13.4416 21.872 14.0316 21.8806 14.5989 21.7444L14.6019 21.7437C16.2914 21.33 17.8342 20.4275 19.0606 19.1427C20.2864 17.8586 21.1488 16.2428 21.5569 14.4771L21.5573 14.4753L22.5 10.4827C22.557 10.2412 22.4829 9.98748 22.3047 9.81472C20.6593 8.21873 18.6629 7.07826 16.4931 6.5C14.323 5.92168 12.0511 5.92485 9.88254 6.50921C9.63225 6.57666 9.43917 6.77604 9.3798 7.02837L8.43646 11.0376C8.01847 12.8024 8.0706 14.6556 8.58739 16.3913C9.10395 18.1263 10.0658 19.68 11.3708 20.8761C11.8003 21.2769 12.3164 21.5672 12.8783 21.7194ZM9.80838 11.362L10.6537 7.76932C12.4599 7.35257 14.3336 7.38348 16.1301 7.86222C17.9369 8.34375 19.6158 9.26517 21.0343 10.5553L20.1845 14.1547L20.1837 14.158C19.8311 15.6849 19.0875 17.0729 18.0409 18.1692C16.9951 19.2648 15.6883 20.0259 14.2683 20.374C13.9315 20.4546 13.5819 20.4494 13.247 20.3587C12.9114 20.2678 12.597 20.0926 12.3309 19.8438C11.2021 18.7991 10.3774 17.463 9.93855 15.989C9.49223 14.49 9.44702 12.8874 9.80838 11.362Z" fill="#000001"/>
</svg>
