<svg width="24" height="24" viewBox="0 0 24 24" fill="none" xmlns="http://www.w3.org/2000/svg">
<path fill-rule="evenodd" clip-rule="evenodd" d="M8.60477 3.84727C8.81185 4.03532 8.88978 4.32713 8.80403 4.59339C8.54352 5.40226 8.41124 6.24693 8.41201 7.09672C8.41201 11.5971 12.0604 15.2462 16.5608 15.2462C17.6712 15.2475 18.771 15.0211 19.7904 14.5809C20.0472 14.47 20.3452 14.5196 20.5522 14.7077C20.7593 14.8958 20.8371 15.1877 20.7513 15.4539C19.5106 19.3026 15.9004 22.087 11.6378 22.087C6.35009 22.087 2.06348 17.8004 2.06348 12.5128C2.06348 8.57185 4.44392 5.18913 7.84295 3.72062C8.09974 3.60968 8.39769 3.65921 8.60477 3.84727ZM7.07979 5.75699C4.91238 7.22183 3.48892 9.70139 3.48892 12.5128C3.48892 17.0132 7.13734 20.6616 11.6378 20.6616C14.7266 20.6616 17.415 18.9433 18.7969 16.4086C18.0661 16.5838 17.3153 16.6726 16.56 16.6716C11.2729 16.6712 6.98691 12.3851 6.98656 7.09801C6.98619 6.6489 7.01743 6.20038 7.07979 5.75699Z" fill="#232533"/>
<path fill-rule="evenodd" clip-rule="evenodd" d="M11.5358 5.75454C11.5358 5.39375 11.8282 5.10127 12.189 5.10127H15.2076C15.4519 5.10127 15.6757 5.23754 15.7879 5.45451C15.9001 5.67149 15.8818 5.93292 15.7406 6.13222L13.2636 9.628H15.3954C15.7562 9.628 16.0487 9.92048 16.0487 10.2813C16.0487 10.6421 15.7562 10.9345 15.3954 10.9345H12.0001C11.7558 10.9345 11.532 10.7983 11.4198 10.5813C11.3076 10.3643 11.3258 10.1029 11.4671 9.90358L13.9441 6.4078H12.189C11.8282 6.4078 11.5358 6.11532 11.5358 5.75454Z" fill="#232533"/>
<path fill-rule="evenodd" clip-rule="evenodd" d="M16.4651 2.7499C16.4651 2.36473 16.7773 2.05249 17.1625 2.05249H20.2717C20.5325 2.05249 20.7715 2.19796 20.8913 2.4296C21.011 2.66124 20.9915 2.94034 20.8408 3.1531L18.3168 6.71517H20.4652C20.8504 6.71517 21.1626 7.02741 21.1626 7.41258C21.1626 7.79775 20.8504 8.10999 20.4652 8.10999H16.9679C16.7071 8.10999 16.4681 7.96451 16.3484 7.73288C16.2286 7.50124 16.2481 7.22214 16.3989 7.00938L18.9228 3.44731H17.1625C16.7773 3.44731 16.4651 3.13507 16.4651 2.7499Z" fill="#232533"/>
</svg>
