<svg width="24" height="24" viewBox="0 0 24 24" fill="none" xmlns="http://www.w3.org/2000/svg">
<path fill-rule="evenodd" clip-rule="evenodd" d="M12.1108 3.71395C12.5603 3.71395 12.9247 3.34956 12.9247 2.90005C12.9247 2.45055 12.5603 2.08615 12.1108 2.08615C9.50622 2.08615 7.00833 3.12081 5.16662 4.96252C4.2547 5.87444 3.53132 6.95705 3.0378 8.14853C2.54427 9.34001 2.29025 10.617 2.29025 11.9067C2.29025 12.3562 2.65465 12.7206 3.10415 12.7206C3.55366 12.7206 3.91805 12.3562 3.91805 11.9067C3.91805 10.8308 4.12996 9.76545 4.54169 8.77146C4.95341 7.77747 5.55688 6.87431 6.31765 6.11355C7.85409 4.57711 9.93794 3.71395 12.1108 3.71395Z" fill="#232533"/>
<path d="M12.1037 21.7272C12.5532 21.7311 12.9208 21.3699 12.9247 20.9204C12.9286 20.4709 12.5674 20.1033 12.1179 20.0994C10.6969 20.0871 9.29581 19.7641 8.01284 19.1531C7.607 18.9598 7.12133 19.1321 6.92807 19.538C6.7348 19.9438 6.90712 20.4295 7.31295 20.6227C8.81025 21.3358 10.4454 21.7127 12.1037 21.7272Z" fill="#232533"/>
<path fill-rule="evenodd" clip-rule="evenodd" d="M15.1339 4.23767C15.8183 4.51153 16.4612 4.87951 17.044 5.33095C17.3994 5.60623 17.9106 5.5413 18.1859 5.18594C18.4611 4.83059 18.3962 4.31936 18.0408 4.04409C17.3384 3.49996 16.5635 3.05645 15.7386 2.72637C15.3213 2.55937 14.8476 2.76231 14.6806 3.17965C14.5136 3.59698 14.7165 4.07067 15.1339 4.23767Z" fill="#232533"/>
<path d="M20.1004 10.043C20.196 10.4822 20.6296 10.7607 21.0688 10.6651C21.5081 10.5694 21.7866 10.1359 21.6909 9.69665C21.4812 8.73342 21.1235 7.80851 20.6306 6.95481C20.4058 6.56554 19.908 6.4322 19.5187 6.65697C19.1295 6.88175 18.9961 7.37953 19.2209 7.7688C19.6298 8.47688 19.9265 9.24403 20.1004 10.043Z" fill="#232533"/>
<path d="M18.0408 19.7693C18.3962 19.494 18.4611 18.9828 18.1859 18.6274C17.9106 18.272 17.3994 18.2071 17.044 18.4824C16.4612 18.9338 15.8183 19.3018 15.1339 19.5757C14.7165 19.7427 14.5136 20.2164 14.6806 20.6337C14.8476 21.051 15.3213 21.254 15.7386 21.087C16.5635 20.7569 17.3384 20.3134 18.0408 19.7693Z" fill="#232533"/>
<path d="M21.6909 14.1167C21.7866 13.6775 21.5081 13.2439 21.0688 13.1483C20.6296 13.0527 20.196 13.3312 20.1004 13.7704C19.9265 14.5694 19.6298 15.3365 19.2209 16.0446C18.9961 16.4339 19.1295 16.9316 19.5187 17.1564C19.908 17.3812 20.4058 17.2478 20.6306 16.8586C21.1235 16.0049 21.4812 15.08 21.6909 14.1167Z" fill="#232533"/>
<path d="M8.09853 17.905C8.48629 17.8336 8.74275 17.4614 8.67135 17.0736C8.59996 16.6859 8.22774 16.4294 7.83998 16.5008L4.54903 17.1068C4.16128 17.1782 3.90481 17.5504 3.97621 17.9381L4.58216 21.2291C4.65356 21.6168 5.02578 21.8733 5.41354 21.8019C5.80129 21.7305 6.05776 21.3583 5.98636 20.9705L5.50968 18.3817L8.09853 17.905Z" fill="#232533"/>
<path d="M7.96552 11.7857L9.58484 12.5691C10.4563 12.9908 11.1453 13.7142 11.524 14.6051L12.2839 16.393L13.0438 14.6051C13.4225 13.7142 14.1115 12.9908 14.9829 12.5691L16.6023 11.7857L14.983 11.0022C14.1115 10.5805 13.4225 9.85715 13.0438 8.96619L12.2839 7.1783L11.524 8.96619C11.1453 9.85715 10.4563 10.5805 9.58483 11.0022L7.96552 11.7857Z" fill="#232533"/>
</svg>
