<svg width="32" height="32" viewBox="0 0 32 32" fill="none" xmlns="http://www.w3.org/2000/svg">
<path d="M25 12H20V14H25C25.2652 14 25.5196 14.1054 25.7071 14.2929C25.8946 14.4804 26 14.7348 26 15V17H22C21.2046 17.0008 20.442 17.3171 19.8796 17.8796C19.3171 18.442 19.0008 19.2046 19 20V21C19.0008 21.7954 19.3171 22.558 19.8796 23.1204C20.442 23.6829 21.2046 23.9992 22 24H28V15C27.9992 14.2046 27.6829 13.442 27.1204 12.8796C26.558 12.3171 25.7954 12.0008 25 12ZM22 22C21.7348 22 21.4804 21.8946 21.2929 21.7071C21.1054 21.5196 21 21.2652 21 21V20C21 19.7348 21.1054 19.4804 21.2929 19.2929C21.4804 19.1054 21.7348 19 22 19H26V22H22ZM16 24H18L12 7H10L4 24H6L7.694 19H14.307L16 24ZM8.371 17L10.868 9.629H11.134L13.63 17H8.371Z" fill="#232533"/>
</svg>
