<svg width="24" height="24" viewBox="0 0 24 24" fill="none" xmlns="http://www.w3.org/2000/svg">
<path fill-rule="evenodd" clip-rule="evenodd" d="M2.99624 4.36762C2.99624 3.61217 3.60865 2.99976 4.36409 2.99976L9.45403 2.99982C10.2095 2.99982 10.8219 3.61223 10.8219 4.36767L10.8219 12.0001C10.8219 12.7555 10.2095 13.3679 9.45401 13.3679L4.36407 13.3679C3.60863 13.3679 2.99622 12.7555 2.99622 12L2.99624 4.36762ZM4.44624 4.44976L4.44622 11.9179L9.37186 11.9179L9.37188 4.44982L4.44624 4.44976Z" fill="#232533"/>
<path fill-rule="evenodd" clip-rule="evenodd" d="M14.6342 2.99969C14.1578 2.99969 13.7983 3.27449 13.5872 3.57363C13.3748 3.87469 13.2664 4.25254 13.2664 4.63589L13.2663 8.21702C13.2663 8.60037 13.3748 8.97822 13.5872 9.27928C13.7983 9.57842 14.1577 9.85322 14.6342 9.85322L19.7143 9.85328C20.1908 9.85328 20.5503 9.57848 20.7613 9.27934C20.9737 8.97828 21.0822 8.60044 21.0822 8.21708L21.0822 4.63596C21.0822 4.2526 20.9737 3.87476 20.7613 3.5737C20.5503 3.27456 20.1908 2.99976 19.7144 2.99976L14.6342 2.99969ZM14.7164 4.63589C14.7164 4.55284 14.7505 4.44969 14.7505 4.44969L19.598 4.44976C19.6152 4.49008 19.6322 4.55291 19.6322 4.63596L19.6322 8.21708C19.6322 8.30013 19.6152 8.36296 19.598 8.40328L14.7505 8.40322C14.7333 8.3629 14.7163 8.30007 14.7163 8.21702L14.7164 4.63589Z" fill="#232533"/>
<path fill-rule="evenodd" clip-rule="evenodd" d="M14.6342 11.9178C13.9876 11.9178 13.2663 12.3883 13.2663 13.1938V19.8061C13.2663 20.6116 13.9876 21.0821 14.6342 21.0821L19.7143 21.0822C20.3609 21.0822 21.0822 20.6117 21.0822 19.8062V13.1939C21.0822 12.3883 20.3609 11.9179 19.7143 11.9179L14.6342 11.9178ZM14.7163 19.6321V13.3678L19.6322 13.3679V19.6322L14.7163 19.6321Z" fill="#232533"/>
<path fill-rule="evenodd" clip-rule="evenodd" d="M4.36407 15.1557C3.52543 15.1557 2.99622 15.8954 2.99622 16.61V19.5415C2.99622 20.2561 3.52543 20.9958 4.36407 20.9958L9.45401 20.9958C10.2927 20.9958 10.8219 20.2561 10.8219 19.5416V16.61C10.8219 15.8955 10.2927 15.1558 9.45401 15.1558L4.36407 15.1557ZM4.44622 16.61L4.44629 16.6057L9.37179 16.6058L9.37186 16.61V19.5416L9.37179 19.5458L4.44629 19.5458L4.44622 19.5415V16.61Z" fill="#232533"/>
</svg>
