<svg width="24" height="24" viewBox="0 0 24 24" fill="none" xmlns="http://www.w3.org/2000/svg">
<path fill-rule="evenodd" clip-rule="evenodd" d="M9.42497 10.1425V9.46311C9.42497 9.12496 9.49157 8.79011 9.62098 8.4777C9.75039 8.16528 9.94006 7.88142 10.1792 7.64231C10.4183 7.40319 10.7021 7.21352 11.0146 7.08411C11.327 6.95471 11.6618 6.8881 12 6.8881C12.3381 6.8881 12.673 6.95471 12.9854 7.08411C13.2978 7.21352 13.5817 7.40319 13.8208 7.64231C14.0599 7.88142 14.2496 8.16528 14.379 8.4777C14.5084 8.79011 14.575 9.12496 14.575 9.46311V10.1425C15.3061 10.4238 15.825 11.1329 15.825 11.9631V14.4631C15.825 15.5401 14.9519 16.4131 13.875 16.4131H10.125C9.04802 16.4131 8.17497 15.5401 8.17497 14.4631V11.9631C8.17497 11.1329 8.69383 10.4238 9.42497 10.1425ZM10.125 11.4131C9.82121 11.4131 9.57497 11.6594 9.57497 11.9631V14.4631C9.57497 14.7669 9.82121 15.0131 10.125 15.0131H13.875C14.1787 15.0131 14.425 14.7669 14.425 14.4631V11.9631C14.425 11.6594 14.1787 11.4131 13.875 11.4131H10.125ZM13.175 10.0131V9.46311C13.175 9.30881 13.1446 9.15601 13.0855 9.01345C13.0265 8.8709 12.9399 8.74136 12.8308 8.63226C12.7217 8.52315 12.5922 8.4366 12.4496 8.37755C12.3071 8.3185 12.1543 8.2881 12 8.2881C11.8457 8.2881 11.6929 8.3185 11.5503 8.37755C11.4078 8.4366 11.2782 8.52315 11.1691 8.63226C11.06 8.74136 10.9735 8.8709 10.9144 9.01345C10.8554 9.15601 10.825 9.30881 10.825 9.46311V10.0131H13.175Z" fill="#232533"/>
<path fill-rule="evenodd" clip-rule="evenodd" d="M12.3005 2.00333C12.11 1.91299 11.89 1.91299 11.6996 2.00333C11.2745 2.20492 10.8493 2.40526 10.4243 2.60549C8.02564 3.7356 5.63536 4.86176 3.33116 6.18549C3.10776 6.31411 2.96962 6.55525 2.96962 6.81664C2.96962 6.9766 2.96941 7.13685 2.96919 7.29734C2.96447 10.8287 3.1782 14.2063 5.256 17.2065C6.74205 19.3523 8.84594 20.9989 11.2889 21.933C11.7468 22.1082 12.2531 22.1082 12.711 21.933C15.1539 20.9989 17.2578 19.3523 18.7439 17.2065C20.8723 14.1332 21.0304 10.4241 21.0304 6.81664C21.0304 6.621 20.9528 6.43366 20.8151 6.29718C20.7587 6.24119 20.6954 6.19876 20.6833 6.19069C18.7992 4.92258 16.6831 3.97896 14.5892 3.04523C13.8191 2.70181 13.0519 2.35972 12.3005 2.00333ZM6.41926 16.3707C4.42471 13.4907 4.39159 10.9196 4.39297 7.35671C4.393 7.28509 4.4313 7.2183 4.49344 7.18269C4.65377 7.0908 4.85097 6.97792 5.07723 6.84866C6.467 6.05469 7.89697 5.39497 9.33012 4.73377C10.1919 4.33618 11.0548 3.93806 11.9109 3.5099C11.9673 3.48166 12.0338 3.48157 12.0903 3.50967C12.9551 3.93973 13.8312 4.34426 14.7069 4.74861C16.3341 5.49996 17.96 6.25068 19.5091 7.16341C19.5699 7.19919 19.607 7.26517 19.607 7.33565C19.6085 10.9074 19.5791 13.485 17.5806 16.3707C16.2617 18.2751 14.3902 19.7421 12.2103 20.5756C12.0752 20.6273 11.9245 20.6273 11.7894 20.5756C9.60949 19.7421 7.73817 18.2751 6.41926 16.3707Z" fill="#232533"/>
</svg>
