<svg width="24" height="24" viewBox="0 0 24 24" fill="none" xmlns="http://www.w3.org/2000/svg">
<path d="M14.5013 1.59013C14.5013 1.20867 14.8105 0.899449 15.192 0.89946C16.0898 0.899485 16.9787 1.07634 17.8081 1.41992C18.6375 1.7635 19.3912 2.26708 20.026 2.90191C20.6607 3.53674 21.1643 4.29039 21.5078 5.11982C21.8514 5.94925 22.0282 6.83822 22.0281 7.73598C22.0281 8.11744 21.7189 8.42666 21.3374 8.42665C20.956 8.42664 20.6468 8.1174 20.6468 7.73594C20.6468 7.01959 20.5057 6.31024 20.2316 5.64841C19.9575 4.98658 19.5557 4.38521 19.0492 3.87866C18.5426 3.37211 17.9413 2.97028 17.2795 2.69612C16.6177 2.42197 15.9083 2.28085 15.192 2.28083C14.8105 2.28082 14.5013 1.97158 14.5013 1.59013Z" fill="#232533"/>
<path fill-rule="evenodd" clip-rule="evenodd" d="M6.08026 5.26334C6.37085 4.97274 6.842 4.97274 7.1326 5.26334L11.9349 9.89773C12.0135 9.97361 12.1385 9.97233 12.2156 9.89485L12.6504 9.45768C12.7053 9.40247 12.7223 9.32064 12.7002 9.24596C12.6484 9.07076 12.6205 8.88524 12.6205 8.69322C12.6205 7.61906 13.4913 6.74828 14.5655 6.74828C15.6396 6.74828 16.5104 7.61906 16.5104 8.69322C16.5104 9.76738 15.6396 10.6382 14.5655 10.6382C14.3245 10.6382 14.0938 10.5944 13.8809 10.5143C13.8023 10.4847 13.7125 10.5 13.6533 10.5595L13.2696 10.9455C13.1919 11.0236 13.192 11.1499 13.27 11.2279L17.6528 15.6107C17.7924 15.7503 17.8708 15.9395 17.8708 16.1369C17.8708 16.3342 17.7924 16.5235 17.6528 16.6631C16.4325 17.8834 14.7771 18.2684 13.0219 18.394C12.9393 18.3999 12.8981 18.4976 12.9523 18.5603L14.7533 20.6454C14.8861 20.8757 14.8861 21.1593 14.7532 21.3895C14.6203 21.6197 14.3746 21.7615 14.1088 21.7615H4.7914C4.52555 21.7615 4.2799 21.6197 4.14698 21.3895C4.01405 21.1592 4.01405 20.8756 4.14698 20.6453L7.03003 16.8236C7.09683 16.7351 7.07839 16.6091 6.99116 16.5406C3.59011 13.8693 2.68342 8.66017 6.08026 5.26334ZM8.56071 17.5263C8.47504 17.4841 8.37116 17.5062 8.31174 17.5809L6.3381 20.0643C6.23394 20.1954 6.32727 20.3888 6.49467 20.3888H12.4829C12.6566 20.3888 12.7477 20.1825 12.6307 20.0541L11.1465 18.4247C11.0853 18.3575 11.0029 18.3134 10.9133 18.2978C10.1051 18.1565 9.30953 17.8953 8.56071 17.5263ZM11.5505 11.613L6.80205 7.03181C6.71614 6.94892 6.57643 6.95986 6.50728 7.05716C4.36628 10.0697 5.71037 14.0311 8.53598 15.8095C9.60512 16.4824 10.8277 16.8718 12.0324 16.9268C13.4332 16.9907 14.781 16.9527 15.8545 16.2353C15.9549 16.1682 15.9641 16.0266 15.8786 15.9412L11.5505 11.613ZM14.5655 8.23652C14.3132 8.23652 14.1088 8.44099 14.1088 8.69322C14.1088 8.94545 14.3132 9.14992 14.5655 9.14992C14.8177 9.14992 15.0222 8.94545 15.0222 8.69322C15.0222 8.44099 14.8177 8.23652 14.5655 8.23652Z" fill="#232533"/>
<path d="M15.1918 3.98465C14.8103 3.98464 14.5011 4.29386 14.501 4.67531C14.501 5.05677 14.8103 5.36601 15.1917 5.36602C15.5572 5.36603 15.9191 5.43802 16.2567 5.57789C16.5943 5.71775 16.9011 5.92275 17.1595 6.18118C17.4179 6.43961 17.6229 6.7464 17.7628 7.08405C17.9026 7.42169 17.9746 7.78358 17.9746 8.14904C17.9746 8.53049 18.2838 8.83973 18.6652 8.83974C19.0467 8.83975 19.3559 8.53053 19.3559 8.14908C19.356 7.60221 19.2483 7.0607 19.039 6.55546C18.8297 6.05021 18.523 5.59113 18.1363 5.20443C17.7497 4.81773 17.2906 4.51097 16.7854 4.30168C16.2801 4.09239 15.7386 3.98466 15.1918 3.98465Z" fill="#232533"/>
</svg>
