<svg width="24" height="24" viewBox="0 0 24 24" fill="none" xmlns="http://www.w3.org/2000/svg">
<path d="M16.5065 8.60197C16.7621 8.2937 16.7193 7.83665 16.4111 7.58112C16.1028 7.32558 15.6457 7.36833 15.3902 7.67659L11.8752 11.917C11.8215 11.9817 11.7253 11.9897 11.6617 11.9348L9.21852 9.82651C8.90469 9.57784 8.44869 9.63067 8.20003 9.9445C7.95136 10.2583 8.00419 10.7143 8.31802 10.963L11.4328 13.6117C11.7418 13.8565 12.1897 13.8096 12.4413 13.5061L16.5065 8.60197Z" fill="#232533"/>
<path fill-rule="evenodd" clip-rule="evenodd" d="M14.4504 17.2845C14.4113 17.186 14.4839 17.0792 14.5898 17.0792H19.4099C20.4139 17.0792 20.9749 16.4445 20.9749 15.3319V5.22153C20.9749 4.14047 20.3686 3.52634 19.425 3.52634H4.47501C3.56037 3.52634 3.02499 4.13658 3.02499 5.10838V15.4292C3.02499 16.3905 3.54865 17.0792 4.67501 17.0792H9.45695C9.56291 17.0792 9.63546 17.186 9.59636 17.2845L8.85668 19.1475C8.834 19.2046 8.77875 19.2421 8.71727 19.2421H7.65467C7.25427 19.2421 6.92967 19.5667 6.92967 19.9671C6.92967 20.3675 7.25427 20.6921 7.65467 20.6921L16.3453 20.6921C16.7457 20.6921 17.0703 20.3675 17.0703 19.9671C17.0703 19.5667 16.7457 19.2421 16.3453 19.2421H15.3295C15.268 19.2421 15.2128 19.2046 15.1901 19.1475L14.4504 17.2845ZM4.67501 5.02153C4.56455 5.02153 4.47501 5.11107 4.47501 5.22153V15.4292C4.47501 15.5396 4.56455 15.6292 4.67501 15.6292H10.7367C10.7484 15.6289 10.7602 15.6289 10.772 15.6292H13.2748C13.2866 15.6289 13.2984 15.6289 13.3101 15.6292H19.3249C19.4354 15.6292 19.5249 15.5396 19.5249 15.4292V5.22153C19.5249 5.11107 19.4354 5.02153 19.3249 5.02153H4.67501ZM13.5955 19.0368C13.6346 19.1352 13.5621 19.2421 13.4561 19.2421H10.5907C10.4847 19.2421 10.4122 19.1352 10.4513 19.0368L11.1909 17.1738C11.2136 17.1167 11.2689 17.0792 11.3304 17.0792H12.7164C12.7779 17.0792 12.8331 17.1167 12.8558 17.1738L13.5955 19.0368Z" fill="#232533"/>
</svg>
