<svg width="25" height="24" viewBox="0 0 25 24" fill="none" xmlns="http://www.w3.org/2000/svg">
<path d="M9.16903 5.74092L9.84609 7.82449C10.0561 8.45824 10.4114 9.03408 10.8837 9.50599C11.3559 9.9779 11.9321 10.3328 12.566 10.5423L14.6516 11.2193L14.6944 11.231C14.8552 11.2875 14.9943 11.3926 15.0928 11.5316C15.1913 11.6707 15.2441 11.8368 15.2441 12.0072C15.2441 12.1776 15.1913 12.3438 15.0928 12.4828C14.9943 12.6218 14.8552 12.7269 14.6944 12.7834L12.6088 13.4605C11.9745 13.6697 11.398 14.0245 10.9254 14.4964C10.4527 14.9683 10.0971 15.5443 9.88695 16.1782L9.21183 18.2599C9.15526 18.4206 9.0502 18.5598 8.91116 18.6582C8.77211 18.7567 8.60593 18.8096 8.43555 18.8096C8.26518 18.8096 8.099 18.7567 7.95995 18.6582C7.8209 18.5598 7.71584 18.4206 7.65927 18.2599L6.98221 16.1782C6.77361 15.5421 6.41868 14.9638 5.94596 14.4898C5.47324 14.0157 4.89591 13.6592 4.26036 13.4488L2.17471 12.7718C2.014 12.7152 1.87481 12.6102 1.77634 12.4711C1.67788 12.3321 1.625 12.1659 1.625 11.9955C1.625 11.8252 1.67788 11.659 1.77634 11.52C1.87481 11.3809 2.014 11.2759 2.17471 11.2193L4.26036 10.5423C4.88673 10.3274 5.4547 9.97008 5.91957 9.49848C6.38444 9.02689 6.73354 8.45386 6.93941 7.82449L7.61647 5.74286C7.67263 5.58149 7.77764 5.4416 7.91692 5.3426C8.0562 5.2436 8.22284 5.19041 8.39372 5.19041C8.5646 5.19041 8.73125 5.2436 8.87053 5.3426C9.00981 5.4416 9.11481 5.58149 9.17098 5.74286" fill="#232533"/>
<path d="M18.0363 3.64509L18.4095 4.79345C18.5252 5.14274 18.721 5.46012 18.9813 5.72021C19.2416 5.9803 19.5592 6.1759 19.9086 6.29137L21.0581 6.66451L21.0817 6.67094C21.1702 6.70212 21.2469 6.76002 21.3012 6.83665C21.3555 6.91328 21.3846 7.00486 21.3846 7.09876C21.3846 7.19266 21.3555 7.28425 21.3012 7.36088C21.2469 7.43751 21.1702 7.49541 21.0817 7.52659L19.9322 7.89972C19.5826 8.01505 19.2648 8.21058 19.0043 8.47068C18.7438 8.73078 18.5478 9.04823 18.432 9.39764L18.0599 10.5449C18.0287 10.6335 17.9708 10.7102 17.8942 10.7645C17.8176 10.8187 17.726 10.8479 17.6321 10.8479C17.5382 10.8479 17.4466 10.8187 17.3699 10.7645C17.2933 10.7102 17.2354 10.6335 17.2042 10.5449L16.8311 9.39764C16.7161 9.04704 16.5205 8.7283 16.2599 8.46704C15.9994 8.20577 15.6812 8.00926 15.3309 7.89329L14.1814 7.52015C14.0928 7.48898 14.0161 7.43107 13.9618 7.35444C13.9076 7.27781 13.8784 7.18623 13.8784 7.09233C13.8784 6.99843 13.9076 6.90685 13.9618 6.83021C14.0161 6.75358 14.0928 6.69569 14.1814 6.66451L15.3309 6.29137C15.6761 6.17292 15.9892 5.97599 16.2454 5.71607C16.5016 5.45615 16.694 5.14033 16.8075 4.79345L17.1806 3.64616C17.2116 3.55722 17.2695 3.48011 17.3462 3.42555C17.423 3.37099 17.5148 3.34167 17.609 3.34167C17.7032 3.34167 17.795 3.37099 17.8718 3.42555C17.9486 3.48011 18.0064 3.55722 18.0374 3.64616" fill="#232533"/>
<path d="M16.4888 15.1789L16.8241 16.2109C16.9281 16.5248 17.1041 16.81 17.338 17.0437C17.5719 17.2774 17.8573 17.4532 18.1712 17.557L19.2042 17.8923L19.2254 17.8981C19.305 17.9261 19.374 17.9781 19.4227 18.047C19.4715 18.1158 19.4977 18.1981 19.4977 18.2825C19.4977 18.3669 19.4715 18.4492 19.4227 18.5181C19.374 18.5869 19.305 18.639 19.2254 18.667L18.1924 19.0023C17.8783 19.1059 17.5927 19.2816 17.3586 19.5154C17.1246 19.7491 16.9484 20.0344 16.8443 20.3484L16.51 21.3794C16.4819 21.459 16.4299 21.5279 16.361 21.5767C16.2922 21.6254 16.2099 21.6516 16.1255 21.6516C16.0411 21.6516 15.9588 21.6254 15.8899 21.5767C15.8211 21.5279 15.769 21.459 15.741 21.3794L15.4057 20.3484C15.3023 20.0333 15.1266 19.7469 14.8924 19.5121C14.6583 19.2773 14.3723 19.1007 14.0576 18.9965L13.0246 18.6612C12.945 18.6332 12.876 18.5811 12.8273 18.5123C12.7785 18.4434 12.7523 18.3611 12.7523 18.2767C12.7523 18.1924 12.7785 18.1101 12.8273 18.0412C12.876 17.9723 12.945 17.9203 13.0246 17.8923L14.0576 17.557C14.3678 17.4505 14.6491 17.2736 14.8794 17.04C15.1096 16.8064 15.2825 16.5226 15.3845 16.2109L15.7198 15.1799C15.7476 15.1 15.7996 15.0307 15.8686 14.9816C15.9376 14.9326 16.0201 14.9063 16.1048 14.9063C16.1894 14.9063 16.2719 14.9326 16.3409 14.9816C16.4099 15.0307 16.4619 15.1 16.4897 15.1799" fill="#232533"/>
</svg>
