<svg width="24" height="24" viewBox="0 0 24 24" fill="none" xmlns="http://www.w3.org/2000/svg">
<path fill-rule="evenodd" clip-rule="evenodd" d="M6.85723 19.4933C7.00326 19.4446 7.03247 19.2596 6.91564 19.1622C6.15627 18.5096 5.51372 17.7305 5.01721 16.8637C4.93932 16.7273 4.74461 16.7273 4.67646 16.8734C4.55963 17.1266 4.45254 17.4091 4.36492 17.6915C4.22863 18.1395 4.17021 18.5583 4.19942 18.909C4.21889 19.2498 4.32598 19.4836 4.47201 19.6297C4.59858 19.7563 4.94906 19.8926 5.73764 19.7758C6.07838 19.7173 6.44833 19.6199 6.85723 19.4933ZM8.60963 20.3699C8.65831 20.3504 8.72646 20.3504 8.77513 20.3699C9.9142 20.925 11.1993 21.2367 12.5525 21.2367C17.3424 21.2367 21.2269 17.3507 21.2269 12.5589C21.2269 11.2051 20.9154 9.92921 20.3605 8.77996C20.3313 8.73126 20.3313 8.67283 20.3605 8.61439C20.7694 7.67941 21.0712 6.7639 21.188 5.96527C21.3243 5.07898 21.2756 4.0953 20.6331 3.4525C20.1657 2.98501 19.5719 2.79996 18.9975 2.761C18.4231 2.72204 17.8195 2.81944 17.2743 2.98501C16.3981 3.23823 15.5414 3.67651 14.9475 4.13426C14.8988 4.17322 14.8307 4.18296 14.7722 4.17322C14.0615 3.98817 13.3119 3.88103 12.5428 3.88103C7.7529 3.88103 3.86841 7.76706 3.86841 12.5589C3.86841 13.3283 3.96577 14.0782 4.16048 14.7892C4.17995 14.8476 4.16048 14.9158 4.12153 14.9645C3.6737 15.5489 3.2356 16.4059 2.98247 17.2727C2.81697 17.8279 2.71961 18.422 2.75855 18.9966C2.7975 19.5712 2.99221 20.1751 3.44978 20.6328C4.09233 21.2756 5.06588 21.3243 5.96156 21.188C6.75987 21.0711 7.66528 20.7789 8.60963 20.3699ZM10.8391 19.581C10.6736 19.542 10.6541 19.3278 10.8001 19.2401C12.5039 18.2369 14.2271 16.9513 15.59 15.5878C16.9433 14.234 18.2381 12.5102 19.2409 10.796C19.3285 10.6499 19.5427 10.6791 19.5816 10.835C19.7179 11.3804 19.7861 11.955 19.7861 12.5394C19.7861 16.5325 16.5539 19.7758 12.5525 19.7758C11.9587 19.7855 11.3843 19.7173 10.8391 19.581ZM18.647 8.84814C18.6762 8.7897 18.6762 8.72152 18.6373 8.66309C17.3522 6.65677 15.1033 5.32247 12.5428 5.32247C8.55122 5.32247 5.30927 8.55595 5.30927 12.5589C5.30927 15.1203 6.64305 17.3701 8.64857 18.6557C8.70699 18.6947 8.77514 18.6947 8.83355 18.6655C10.8099 17.6721 12.9614 16.1624 14.5483 14.5749C16.1547 12.9777 17.6637 10.8252 18.647 8.84814ZM16.8557 4.67967C16.7096 4.74784 16.7096 4.94263 16.8459 5.02055C17.7124 5.51726 18.4912 6.1698 19.1435 6.92947C19.2409 7.04634 19.4258 7.01713 19.4745 6.87104C19.6011 6.46198 19.6984 6.09188 19.7471 5.751C19.8639 4.96211 19.7276 4.61149 19.6011 4.48488C19.455 4.33879 19.2214 4.23165 18.8807 4.21217C18.5302 4.18296 18.1115 4.25113 17.6637 4.37774C17.3911 4.45566 17.1185 4.56279 16.8557 4.67967Z" fill="#232533"/>
</svg>
