<svg width="24" height="24" viewBox="0 0 24 24" fill="none" xmlns="http://www.w3.org/2000/svg">
<path fill-rule="evenodd" clip-rule="evenodd" d="M18.88 10.4385H20.16C20.62 10.4385 21 10.0582 21 9.5877V6.20448C21 5.14347 20.14 4.28265 19.1 4.28265H16.22C16.04 4.28265 15.89 4.16254 15.86 3.98236C15.58 2.551 14.33 1.5 12.87 1.5C11.43 1.5 10.17 2.551 9.89 3.98236C9.85 4.16254 9.7 4.28265 9.53 4.28265H7.15C6.11 4.28265 5.26 5.14347 5.26 6.20448V8.61678C5.26 8.78694 5.13 8.94709 4.96 8.97712C3.53 9.25739 2.5 10.5386 2.5 12C2.5 13.4614 3.53 14.7426 4.96 15.0229C5.13 15.0529 5.26 15.2131 5.26 15.3832V17.7955C5.26 18.8565 6.11 19.7174 7.15 19.7174H9.53C9.7 19.7174 9.85 19.8375 9.89 20.0176C10.17 21.449 11.42 22.5 12.87 22.5C14.32 22.5 15.58 21.449 15.86 20.0176C15.89 19.8375 16.04 19.7174 16.22 19.7174H19.1C20.14 19.7174 21 18.8565 21 17.7955V14.4123C21 13.9418 20.62 13.5615 20.16 13.5615H18.88C18.03 13.5615 17.34 12.8608 17.34 12C17.34 11.1392 18.02 10.4385 18.88 10.4385ZM18.88 15.0829H19.15C19.35 15.0829 19.51 15.2431 19.51 15.4433V17.7955C19.51 18.0257 19.33 18.2059 19.1 18.2059H15.26C14.8 18.2059 14.43 18.5863 14.43 19.0567V19.4271C14.43 20.2879 13.73 20.9886 12.88 20.9886C12.03 20.9886 11.34 20.2879 11.34 19.4271V19.0567C11.34 18.5863 10.96 18.2059 10.5 18.2059H7.16C6.94 18.2059 6.75 18.0257 6.75 17.7955V14.4123C6.75 13.9418 6.38 13.5615 5.92 13.5615H5.55C4.7 13.5615 4.01 12.8608 4.01 12C4.01 11.1392 4.7 10.4385 5.55 10.4385H5.92C6.38 10.4385 6.75 10.0582 6.75 9.5877V6.20448C6.75 5.97426 6.94 5.79409 7.16 5.79409H10.5C10.96 5.79409 11.34 5.41373 11.34 4.94328V4.57293C11.34 3.71211 12.03 3.01144 12.88 3.01144C13.73 3.01144 14.43 3.71211 14.43 4.57293V4.94328C14.43 5.41373 14.8 5.79409 15.26 5.79409H19.1C19.33 5.79409 19.51 5.97426 19.51 6.20448V8.55672C19.51 8.75691 19.35 8.91706 19.15 8.91706H18.88C17.21 8.91706 15.84 10.2984 15.84 12C15.84 13.7016 17.2 15.0829 18.88 15.0829Z" fill="#222532"/>
</svg>
