<svg width="24" height="24" viewBox="0 0 24 24" fill="none" xmlns="http://www.w3.org/2000/svg">
<path d="M4.77924 7.81186C4.90626 7.48191 5.2767 7.31741 5.60664 7.44443L5.82069 7.52684C6.15063 7.65386 6.31513 8.0243 6.18811 8.35424C6.06109 8.68418 5.69065 8.84868 5.36071 8.72166L5.14666 8.63926C4.81672 8.51224 4.65222 8.1418 4.77924 7.81186Z" fill="#000001"/>
<path d="M18.8168 7.81186C18.9438 8.1418 18.7793 8.51224 18.4494 8.63926L18.2353 8.72166C17.9054 8.84868 17.535 8.68418 17.4079 8.35424C17.2809 8.0243 17.4454 7.65386 17.7754 7.52684L17.9894 7.44443C18.3193 7.31741 18.6898 7.48191 18.8168 7.81186Z" fill="#000001"/>
<path d="M6.70565 8.55348C6.83267 8.22354 7.20311 8.05904 7.53305 8.18606L7.96115 8.35086C8.29109 8.47788 8.45559 8.84832 8.32857 9.17826C8.20155 9.5082 7.83111 9.67271 7.50117 9.54569L7.07307 9.38088C6.74313 9.25386 6.57863 8.88342 6.70565 8.55348Z" fill="#000001"/>
<path d="M16.8904 8.55348C17.0174 8.88342 16.8529 9.25386 16.523 9.38088L16.0949 9.54569C15.7649 9.67271 15.3945 9.5082 15.2675 9.17826C15.1405 8.84832 15.305 8.47788 15.6349 8.35086L16.063 8.18606C16.3929 8.05904 16.7634 8.22354 16.8904 8.55348Z" fill="#000001"/>
<path d="M8.84611 9.3775C8.97313 9.04756 9.34357 8.88306 9.67351 9.01008L10.1016 9.17489C10.4315 9.30191 10.596 9.67235 10.469 10.0023C10.342 10.3322 9.97156 10.4967 9.64162 10.3697L9.21353 10.2049C8.88359 10.0779 8.71909 9.70745 8.84611 9.3775Z" fill="#000001"/>
<path d="M14.7499 9.3775C14.877 9.70745 14.7125 10.0779 14.3825 10.2049L13.9544 10.3697C13.6245 10.4967 13.254 10.3322 13.127 10.0023C13 9.67235 13.1645 9.30191 13.4944 9.17489L13.9225 9.01008C14.2525 8.88306 14.6229 9.04756 14.7499 9.3775Z" fill="#000001"/>
<path d="M11.798 9.82821C11.4722 9.71242 11.1115 9.87689 10.9866 10.2015C10.8595 10.5315 11.024 10.9019 11.354 11.0289L11.568 11.1113C11.7161 11.1683 11.88 11.1683 12.028 11.1113L12.2421 11.0289C12.572 10.9019 12.7365 10.5315 12.6095 10.2015C12.4845 9.87689 12.1239 9.71242 11.798 9.82821Z" fill="#000001"/>
<path d="M11.798 11.746C12.1516 11.746 12.4382 12.0326 12.4382 12.3861V12.5996C12.4382 12.9531 12.1516 13.2397 11.798 13.2397C11.4445 13.2397 11.1579 12.9531 11.1579 12.5996V12.3861C11.1579 12.0326 11.4445 11.746 11.798 11.746Z" fill="#000001"/>
<path d="M11.798 13.667C12.1516 13.667 12.4382 13.9536 12.4382 14.3072V14.7341C12.4382 15.0876 12.1516 15.3742 11.798 15.3742C11.4445 15.3742 11.1579 15.0876 11.1579 14.7341V14.3072C11.1579 13.9536 11.4445 13.667 11.798 13.667Z" fill="#000001"/>
<path d="M11.798 15.8016C12.1516 15.8016 12.4382 16.0882 12.4382 16.4417V16.8686C12.4382 17.2222 12.1516 17.5088 11.798 17.5088C11.4445 17.5088 11.1579 17.2222 11.1579 16.8686V16.4417C11.1579 16.0882 11.4445 15.8016 11.798 15.8016Z" fill="#000001"/>
<path d="M11.798 17.9361C12.1516 17.9361 12.4382 18.2227 12.4382 18.5762V18.7897C12.4382 19.1432 12.1516 19.4298 11.798 19.4298C11.4445 19.4298 11.1579 19.1432 11.1579 18.7897V18.5762C11.1579 18.2227 11.4445 17.9361 11.798 17.9361Z" fill="#000001"/>
<path fill-rule="evenodd" clip-rule="evenodd" d="M11.7981 2.7321C11.6239 2.7321 11.4515 2.76678 11.2909 2.83404L3.61358 5.78982C3.40584 5.85284 3.2163 5.96554 3.06154 6.11845C3.04403 6.13575 3.0274 6.15392 3.01172 6.17289C2.81512 6.41072 2.70581 6.7087 2.70207 7.01725L2.702 17.3062L2.70212 17.3157C2.70569 17.5907 2.79153 17.8583 2.94856 18.084C3.1056 18.3097 3.32711 18.4835 3.58367 18.5824L11.303 21.5544C11.387 21.5867 11.4764 21.6033 11.5665 21.6033H12.0296C12.1197 21.6033 12.2091 21.5867 12.2931 21.5544L20.0129 18.5823C20.2694 18.4833 20.4905 18.3097 20.6475 18.084C20.8046 17.8583 20.8905 17.5907 20.894 17.3157L20.894 7.09789C20.9093 6.76842 20.8035 6.44459 20.5965 6.18763C20.446 5.9903 20.2436 5.83857 20.0117 5.74957L12.3028 2.83305C12.1429 2.76644 11.9714 2.7321 11.7981 2.7321ZM4.16894 7.14784L11.7983 4.21053L19.4272 7.09678L19.4272 17.2359L11.8933 20.1365H11.7028L4.16893 17.2359L4.16894 7.14784Z" fill="#000001"/>
</svg>
