<svg width="24" height="24" viewBox="0 0 24 24" fill="none" xmlns="http://www.w3.org/2000/svg">
<path fill-rule="evenodd" clip-rule="evenodd" d="M21.5 5.38867C21.5 4.06941 20.4306 3 19.1113 3H4.88874C3.56944 3 2.5 4.06941 2.5 5.38867V15.553C2.5 16.8723 3.56944 17.9417 4.88874 17.9417H7.72725C7.84718 17.9417 7.94712 17.9917 8.01709 18.0916C8.08705 18.1916 8.09705 18.3015 8.05707 18.4214L7.54733 19.8406C7.44739 20.1105 7.48736 20.4003 7.65728 20.6302C7.81719 20.8601 8.07706 21 8.36691 21H15.6331C15.9129 21 16.1728 20.8701 16.3427 20.6302C16.5026 20.4003 16.5426 20.1105 16.4527 19.8406L15.9429 18.4214C15.9029 18.3115 15.9229 18.1916 15.9829 18.0916C16.0529 17.9917 16.1528 17.9417 16.2728 17.9417H19.1113C20.4306 17.9417 21.5 16.8723 21.5 15.553V5.38867ZM14.4937 19.3109C14.4237 19.4109 14.3238 19.4609 14.2038 19.4609H9.81614C9.69621 19.4609 9.59627 19.4109 9.5263 19.3109C9.45634 19.211 9.44634 19.1011 9.48632 18.9811L9.77617 18.1716C9.82614 18.0316 9.95608 17.9317 10.106 17.9317H13.914C14.0639 17.9317 14.1938 18.0217 14.2438 18.1716L14.5337 18.9811C14.5736 19.1011 14.5537 19.221 14.4937 19.3109ZM19.9808 15.553C19.9808 16.0328 19.591 16.4125 19.1212 16.4125H4.89873C4.41898 16.4125 4.03918 16.0228 4.03918 15.553V14.2338C4.03918 14.0339 4.1991 13.874 4.39899 13.874H19.631C19.8309 13.874 19.9908 14.0339 19.9908 14.2338V15.553H19.9808ZM19.9808 11.995C19.9808 12.1949 19.8209 12.3548 19.621 12.3548H4.38901C4.18911 12.3548 4.02919 12.1949 4.02919 11.995V5.38867C4.02919 4.90894 4.41899 4.52915 4.88874 4.52915H19.1113C19.591 4.52915 19.9708 4.91893 19.9708 5.38867V11.995H19.9808Z" fill="#222532"/>
</svg>
