<svg width="24" height="24" viewBox="0 0 24 24" fill="none" xmlns="http://www.w3.org/2000/svg">
<path fill-rule="evenodd" clip-rule="evenodd" d="M10.4347 4.25807C10.4948 4.07827 10.665 3.95841 10.8452 3.95841H13.108C13.2982 3.95841 13.4584 4.07827 13.5285 4.25807L13.8589 5.23698C14.0691 5.85628 14.4997 6.38569 15.0804 6.71532C15.6611 7.04495 16.3419 7.15483 17.0027 7.02498L18.0339 6.81521C18.2142 6.77526 18.4044 6.86515 18.4945 7.02498L19.6259 8.94283C19.726 9.11264 19.706 9.31242 19.5758 9.46225L18.875 10.2314C18.4344 10.7208 18.1841 11.3501 18.1841 12.0094C18.1841 12.6587 18.4244 13.298 18.875 13.7874L19.5758 14.5565C19.706 14.6964 19.726 14.9062 19.6259 15.076L18.4945 16.9938C18.4044 17.1536 18.2142 17.2336 18.0339 17.2036L17.0027 16.9938C16.3419 16.864 15.6611 16.9738 15.0804 17.3035C14.4997 17.6331 14.0691 18.1625 13.8589 18.7818L13.5285 19.7407C13.4684 19.9205 13.2982 20.0404 13.118 20.0404H10.8552C10.665 20.0404 10.4948 19.9205 10.4347 19.7407L10.1244 18.7718C9.91409 18.1525 9.48357 17.6231 8.90287 17.2935C8.32216 16.9639 7.64133 16.854 6.98053 16.9838L5.93927 17.1936C5.75905 17.2336 5.56882 17.1437 5.47871 16.9938L4.33733 15.086C4.23721 14.9161 4.25723 14.7064 4.38739 14.5665L5.08824 13.7974C5.53878 13.3079 5.77908 12.6687 5.77908 12.0094C5.77908 11.3501 5.52877 10.7208 5.08824 10.2314L4.38739 9.46225C4.25723 9.3224 4.23721 9.11264 4.33733 8.94283L5.4687 7.04495C5.5588 6.88513 5.74904 6.80522 5.92926 6.83519L6.96051 7.04495C7.62131 7.17481 8.30213 7.06493 8.88284 6.7353C9.46354 6.40567 9.89407 5.87626 10.1043 5.25695L10.4347 4.25807ZM9.98418 2.50004C9.82399 2.49005 9.65377 2.54 9.52362 2.62989C9.39346 2.71979 9.29334 2.84965 9.23327 2.99948L8.67258 4.78748C8.57246 5.06717 8.37222 5.3069 8.1119 5.45673C7.85158 5.60656 7.54121 5.65651 7.25086 5.59657L5.33854 5.22699C5.18836 5.20701 5.04819 5.22699 4.91803 5.29691C4.78787 5.35684 4.67774 5.45673 4.59764 5.58659L2.60522 8.95282C2.52513 9.08267 2.48508 9.2325 2.5051 9.39233C2.51512 9.54216 2.5852 9.69199 2.68532 9.80187L3.94685 11.2003C4.1471 11.4201 4.25723 11.7097 4.25723 12.0094C4.25723 12.3091 4.1471 12.5887 3.94685 12.8185L2.68532 14.2169C2.5852 14.3368 2.52513 14.4766 2.5051 14.6265C2.49509 14.7763 2.52513 14.9361 2.60522 15.066L4.58763 18.4322C4.66773 18.5621 4.78788 18.6719 4.92805 18.7319C5.06822 18.7918 5.23842 18.8118 5.3886 18.7818L7.25086 18.4122C7.54121 18.3523 7.85158 18.4022 8.1119 18.5521C8.37222 18.7019 8.57246 18.9317 8.67258 19.2213L9.28332 20.9993C9.33338 21.1492 9.43351 21.279 9.57368 21.3689C9.71385 21.4588 9.87403 21.4988 10.0342 21.4988H14.0191C14.1793 21.4988 14.3294 21.4488 14.4596 21.3589C14.5898 21.269 14.6799 21.1392 14.7299 20.9993L15.3307 19.2213C15.4308 18.9416 15.631 18.7019 15.8913 18.5521C16.1517 18.4022 16.462 18.3523 16.7524 18.4122L18.6146 18.7818C18.7748 18.8118 18.935 18.7918 19.0752 18.7319C19.2154 18.6719 19.3355 18.5621 19.4156 18.4322L21.398 15.066C21.4781 14.9361 21.5082 14.7763 21.4981 14.6265C21.4781 14.4766 21.418 14.3268 21.3179 14.2169L19.9763 12.8085C19.776 12.5887 19.6659 12.2991 19.6659 11.9994C19.6659 11.6997 19.776 11.4201 19.9763 11.1903L21.2478 9.79188C21.358 9.67201 21.418 9.53217 21.4381 9.38234C21.4581 9.23251 21.418 9.07268 21.3379 8.94283L19.3555 5.5766C19.2754 5.44674 19.1553 5.33686 19.0151 5.27693C18.875 5.217 18.7048 5.19702 18.5546 5.22699L16.6923 5.59657C16.402 5.65651 16.0916 5.60656 15.8313 5.45673C15.571 5.3069 15.3707 5.07716 15.2706 4.78748L14.6799 2.99948C14.6298 2.85964 14.5397 2.72978 14.4095 2.63988C14.2794 2.54998 14.1292 2.50004 13.969 2.50004H9.98418Z" fill="#232533"/>
<path d="M12 15.75C9.93 15.75 8.25 14.07 8.25 12C8.25 9.93003 9.93 8.25003 12 8.25003C14.07 8.25003 15.75 9.93003 15.75 12C15.75 14.07 14.07 15.75 12 15.75ZM12 9.75003C10.76 9.75003 9.75 10.76 9.75 12C9.75 13.24 10.76 14.25 12 14.25C13.24 14.25 14.25 13.24 14.25 12C14.25 10.76 13.24 9.75003 12 9.75003Z" fill="#232533"/>
</svg>
