<svg width="24" height="24" viewBox="0 0 24 24" fill="none" xmlns="http://www.w3.org/2000/svg">
<path fill-rule="evenodd" clip-rule="evenodd" d="M14.3709 11.7576L14.3713 11.7592C14.4569 12.2058 14.4081 12.6678 14.2311 13.0867C14.0542 13.5056 13.757 13.8626 13.3772 14.1126C13.3074 14.1585 13.2355 14.2004 13.1617 14.2382C12.9953 14.3256 12.818 14.3927 12.6333 14.4374L12.6318 14.4377C12.2616 14.5216 11.8769 14.5124 11.5119 14.4115L11.1925 14.8463C10.9908 15.1209 10.6125 15.1955 10.3216 15.0179C9.99641 14.8194 9.908 14.3867 10.1293 14.0765L10.3844 13.719C10.1326 13.4423 9.95185 13.108 9.85834 12.7448L9.85795 12.7433C9.75102 12.3013 9.77756 11.8375 9.93421 11.4106C10.0909 10.9837 10.3706 10.6128 10.738 10.3449C10.8354 10.2739 10.9378 10.2109 11.0441 10.1564C11.243 10.052 11.4573 9.97667 11.6803 9.93392L11.6819 9.93363C12.054 9.86795 12.4361 9.89506 12.7945 10.012L14.4773 7.6618C14.6842 7.37282 15.0838 7.30148 15.3779 7.501C15.6819 7.70717 15.7571 8.12287 15.5446 8.42243L13.8893 10.7559C14.1291 11.045 14.2946 11.3889 14.3709 11.7576ZM11.5588 13.0093C11.7755 13.1563 12.0418 13.2112 12.299 13.1619C12.3898 13.1445 12.4768 13.1146 12.5579 13.0737C12.712 12.9914 12.843 12.8688 12.9356 12.7171C13.072 12.4936 13.1141 12.225 13.0525 11.9704C12.9909 11.7159 12.8307 11.4962 12.6072 11.3597C12.3837 11.2233 12.1151 11.1812 11.8605 11.2428C11.7863 11.2608 11.7151 11.2871 11.6481 11.3209C11.508 11.3957 11.3867 11.5038 11.2959 11.6377C11.1489 11.8544 11.094 12.1207 11.1433 12.3779C11.1926 12.6351 11.3421 12.8622 11.5588 13.0093Z" fill="#232533"/>
<path fill-rule="evenodd" clip-rule="evenodd" d="M12 2.51633C12.0593 2.51633 12.1169 2.52314 12.1722 2.53602C17.2861 2.62788 21.4034 6.80203 21.4034 11.9378C21.4034 17.1312 17.1933 21.3412 12 21.3412C6.80667 21.3412 2.59665 17.1312 2.59665 11.9378C2.59665 6.80202 6.71392 2.62786 11.8278 2.53602C11.8831 2.52314 11.9408 2.51633 12 2.51633ZM11.2435 4.78352V4.08326C9.55434 4.24394 8.02041 4.93716 6.81151 5.99316L7.36261 6.54425C7.65804 6.83968 7.65804 7.31867 7.36261 7.6141C7.06718 7.90953 6.58819 7.90953 6.29276 7.6141L5.77171 7.09305C4.87564 8.24336 4.29126 9.64841 4.14544 11.1813H4.92675C5.34455 11.1813 5.68325 11.52 5.68325 11.9378C5.68325 12.3556 5.34455 12.6943 4.92675 12.6943H4.14544C4.31037 14.4283 5.03645 15.9986 6.14005 17.2217L6.82684 16.5349C7.12227 16.2395 7.60126 16.2395 7.89669 16.5349C8.19212 16.8304 8.19212 17.3094 7.89669 17.6048L7.25723 18.2442C8.57742 19.2387 10.2199 19.8282 12 19.8282C13.9123 19.8282 15.6658 19.1479 17.0315 18.0161L16.5115 17.496C16.2161 17.2006 16.2161 16.7216 16.5115 16.4262C16.8069 16.1307 17.2859 16.1307 17.5813 16.4262L18.0992 16.944C19.0681 15.7648 19.7019 14.2997 19.8546 12.6943H19.1244C18.7066 12.6943 18.3679 12.3556 18.3679 11.9378C18.3679 11.52 18.7066 11.1813 19.1244 11.1813H19.8546C19.7095 9.65612 19.1302 8.25749 18.2418 7.11042L17.7381 7.61409C17.4427 7.90952 16.9637 7.90952 16.6683 7.61409C16.3728 7.31866 16.3728 6.83968 16.6683 6.54425L17.2049 6.00756C15.9935 4.94347 14.4533 4.24467 12.7565 4.08327V4.78352C12.7565 5.20132 12.4178 5.54002 12 5.54002C11.5822 5.54002 11.2435 5.20132 11.2435 4.78352Z" fill="#232533"/>
</svg>
