<svg width="14" height="14" viewBox="0 0 14 14" fill="none" xmlns="http://www.w3.org/2000/svg">
<path d="M13.8708 3.29946C13.8031 3.02635 13.4612 2.93381 13.2621 3.13281L11.0123 5.38174L8.95857 5.03969L8.61638 2.98674L10.8662 0.737804C11.0665 0.53759 10.9699 0.196439 10.6949 0.128088C9.26142 -0.226974 7.683 0.15561 6.56264 1.27524C5.36331 2.4741 5.03322 4.21191 5.53244 5.72713L0.567063 10.6961C-0.189021 11.4519 -0.189021 12.6774 0.567063 13.4332C1.32315 14.1889 2.5491 14.1889 3.30518 13.4332L8.26511 8.46964C9.78151 8.97501 11.5167 8.64142 12.7239 7.4347C13.8454 6.31356 14.2276 4.73332 13.8708 3.29946ZM1.93642 12.7902C1.53554 12.7902 1.21029 12.465 1.21029 12.0643C1.21029 11.6633 1.53554 11.3385 1.93642 11.3385C2.33731 11.3385 2.66256 11.6633 2.66256 12.0643C2.66256 12.465 2.33731 12.7902 1.93642 12.7902Z" fill="#A7A9B2"/>
</svg>
