<svg width="24" height="24" viewBox="0 0 24 24" fill="none" xmlns="http://www.w3.org/2000/svg">
<path fill-rule="evenodd" clip-rule="evenodd" d="M8.49671 3.66605C8.49671 3.27082 8.83714 2.95042 9.25708 2.95042L14.5695 2.95041C14.9895 2.95041 15.3299 3.27081 15.3299 3.66605V7.26622C15.3299 7.37668 15.4195 7.46622 15.5299 7.46622L19.7708 7.46622C20.1907 7.46622 20.5311 7.78662 20.5311 8.18186V19.9764C20.5311 20.3717 20.1907 20.6921 19.7708 20.6921L14.5766 20.6921C14.5743 20.6921 14.5719 20.6921 14.5695 20.6921L9.25708 20.6921L9.25207 20.6921H4.22906C3.80912 20.6921 3.46869 20.3717 3.46869 19.9765V12.2324C3.46869 11.8372 3.80912 11.5168 4.22906 11.5168H8.49671V3.66605ZM13.6104 19.2608C13.7208 19.2608 13.8104 19.1713 13.8104 19.0608C13.8104 14.2331 13.8092 9.40862 13.8092 4.58169C13.8092 4.47123 13.7196 4.38169 13.6092 4.38169L10.2175 4.38169C10.107 4.38169 10.0175 4.47123 10.0175 4.58169V19.0608C10.0175 19.1713 10.107 19.2608 10.2175 19.2608L13.6104 19.2608ZM8.29671 12.948C8.40717 12.948 8.49671 13.0376 8.49671 13.148V19.0608C8.49671 19.1713 8.40717 19.2608 8.29671 19.2608H5.18943C5.07898 19.2608 4.98943 19.1713 4.98943 19.0608V13.148C4.98943 13.0376 5.07898 12.948 5.18943 12.948H8.29671ZM15.5311 19.2608C15.4207 19.2608 15.3311 19.1713 15.3311 19.0608V9.0975C15.3311 8.98704 15.4207 8.8975 15.5311 8.8975L18.8104 8.89749C18.9208 8.89749 19.0104 8.98704 19.0104 9.09749V19.0608C19.0104 19.1713 18.9208 19.2608 18.8104 19.2608L15.5311 19.2608Z" fill="#232533"/>
</svg>
