<svg width="24" height="24" viewBox="0 0 24 24" fill="none" xmlns="http://www.w3.org/2000/svg">
<path fill-rule="evenodd" clip-rule="evenodd" d="M6.91408 4.29431C6.6482 4.29431 6.3984 4.39632 6.21833 4.5698C6.03918 4.7424 5.94377 4.9706 5.94377 5.20258V18.9885L11.4974 13.6455C11.7781 13.3755 12.222 13.3755 12.5027 13.6455L18.0562 18.9885V5.20258C18.0562 4.9706 17.9608 4.7424 17.7817 4.5698C17.6016 4.39632 17.3518 4.29431 17.0859 4.29431H6.91408ZM5.21231 3.52557C5.6681 3.08646 6.28072 2.84431 6.91408 2.84431H17.0859C17.7193 2.84431 18.3319 3.08646 18.7877 3.52557C19.2444 3.96557 19.5062 4.56822 19.5062 5.20258V20.6921C19.5062 20.9828 19.3326 21.2454 19.0652 21.3592C18.7977 21.473 18.4881 21.4161 18.2786 21.2146L12 15.174L5.72143 21.2146C5.51195 21.4161 5.20234 21.473 4.93487 21.3592C4.6674 21.2454 4.49377 20.9828 4.49377 20.6921V5.20258C4.49377 4.56822 4.7556 3.96557 5.21231 3.52557Z" fill="#232533"/>
</svg>
