<svg width="24" height="24" viewBox="0 0 24 24" fill="none" xmlns="http://www.w3.org/2000/svg">
<path fill-rule="evenodd" clip-rule="evenodd" d="M15 21.25H20C20.69 21.25 21.25 20.69 21.25 20V15C21.25 14.31 20.69 13.75 20 13.75H15C14.31 13.75 13.75 14.31 13.75 15V16.2C13.75 16.5 13.5 16.75 13.2 16.75H8.5C7.81 16.75 7.25 16.19 7.25 15.5V10.8C7.25 10.5 7.49999 10.25 7.79999 10.25H9C9.69 10.25 10.25 9.69 10.25 9V4C10.25 3.31 9.69 2.75 9 2.75H4C3.31 2.75 2.75 3.31 2.75 4V9C2.75 9.69 3.31 10.25 4 10.25H5.20001C5.50001 10.25 5.75 10.5 5.75 10.8V15.5C5.75 17.02 6.98 18.25 8.5 18.25H13.2C13.5 18.25 13.75 18.5 13.75 18.8V20C13.75 20.69 14.31 21.25 15 21.25ZM15.25 15.8C15.25 15.5 15.5 15.25 15.8 15.25H19.2C19.5 15.25 19.75 15.5 19.75 15.8V19.2C19.75 19.5 19.5 19.75 19.2 19.75H15.8C15.5 19.75 15.25 19.5 15.25 19.2V15.8ZM4.79999 8.75C4.49999 8.75 4.25 8.5 4.25 8.2V4.8C4.25 4.5 4.49999 4.25 4.79999 4.25H8.20001C8.50001 4.25 8.75 4.5 8.75 4.8V8.2C8.75 8.5 8.50001 8.75 8.20001 8.75H4.79999Z" fill="#222532"/>
</svg>
