<svg width="24" height="24" viewBox="0 0 24 24" fill="none" xmlns="http://www.w3.org/2000/svg">
<path d="M12.4819 7.25284C12.9845 7.25284 13.392 7.5668 13.392 7.95408V11.8827C13.392 12.27 12.9845 12.584 12.4819 12.584C11.9792 12.584 11.5717 12.27 11.5717 11.8827V7.95408C11.5717 7.5668 11.9792 7.25284 12.4819 7.25284Z" fill="#232533"/>
<path d="M13.4835 14.4035C13.4835 14.9563 13.035 15.4045 12.4818 15.4045C11.9286 15.4045 11.4801 14.9563 11.4801 14.4035C11.4801 13.8506 11.9286 13.4025 12.4818 13.4025C13.035 13.4025 13.4835 13.8506 13.4835 14.4035Z" fill="#232533"/>
<path fill-rule="evenodd" clip-rule="evenodd" d="M5.79892 3.88034H19.0012C20.0248 3.88034 21.0465 4.62904 21.0465 5.71615V16.8242C21.0465 18.0929 20.1643 18.66 19.0012 18.66H8.54071C8.52351 18.66 8.50638 18.6623 8.48975 18.6666L3.30768 20.0322C3.04648 20.0872 2.7762 19.9941 2.60415 19.7901C2.4321 19.586 2.38611 19.3039 2.48442 19.0557L3.74158 15.6082C3.74959 15.5863 3.75368 15.5631 3.75368 15.5397V5.71615C3.75368 4.62904 4.77538 3.88034 5.79892 3.88034ZM5.79892 5.33034C5.60446 5.33034 5.43794 5.39643 5.33213 5.48545C5.23006 5.57133 5.20368 5.65822 5.20368 5.71615V15.7134C5.20368 15.8049 5.18639 15.8955 5.15271 15.9805L4.45595 17.9735C4.40259 18.1261 4.54302 18.2757 4.69872 18.2321L8.29015 17.2256C8.33922 17.2152 8.38924 17.21 8.43938 17.21H19.0012C19.1957 17.21 19.3622 17.144 19.468 17.0549C19.5701 16.969 19.5965 16.8822 19.5965 16.8242V5.71615C19.5965 5.65822 19.5701 5.57133 19.468 5.48545C19.3622 5.39643 19.1957 5.33034 19.0012 5.33034H5.79892Z" fill="#232533"/>
</svg>
