<svg width="18" height="18" viewBox="0 0 18 18" fill="none" xmlns="http://www.w3.org/2000/svg">
<path d="M15.1762 8.74041V7.74978C15.1762 5.51695 13.9988 3.45372 12.0881 2.33731C10.1773 1.2209 7.82264 1.2209 5.91186 2.33731C4.00109 3.45372 2.82376 5.51695 2.82376 7.74978V8.74041C2.32116 8.98807 2.00233 9.5037 2 10.0693V12.0976C2.00232 12.8257 2.52497 13.4444 3.23524 13.5593V13.5835C3.23601 14.3562 3.5402 15.0976 4.0806 15.6445C4.62101 16.1915 5.35367 16.4992 6.11806 16.5H9.4123H9.41153C9.52116 16.5 9.62538 16.4563 9.70259 16.3781C9.7798 16.3 9.8238 16.1937 9.8238 16.0836V15.6664C9.8238 15.5562 9.7798 15.45 9.70259 15.3719C9.62539 15.2937 9.52117 15.25 9.41153 15.25H8.58854C8.36081 15.25 8.17629 15.4367 8.17629 15.6664H6.11808C4.98166 15.6656 4.06066 14.7335 4.05908 13.5836H5.204C5.54447 13.9695 6.08488 14.1023 6.56277 13.9172C7.04066 13.732 7.35486 13.2671 7.35332 12.75V9.41632C7.35487 8.92256 7.06845 8.47413 6.62222 8.27335C6.17599 8.07335 5.65487 8.1585 5.29432 8.49131V7.7499C5.29432 6.41005 6.00072 5.17247 7.14718 4.50226C8.29365 3.83271 9.70641 3.83271 10.8529 4.50226C11.9994 5.17259 12.7058 6.41011 12.7058 7.7499V8.49131C12.3452 8.15849 11.8241 8.07335 11.3779 8.27335C10.9317 8.47413 10.6452 8.92258 10.6468 9.41632V12.75C10.6452 13.2671 10.9594 13.732 11.4373 13.9172C11.9152 14.1023 12.4556 13.9695 12.7961 13.5836H14.5316C15.3422 13.582 15.9985 12.9179 16 12.0976V10.0694C15.9977 9.50374 15.6788 8.98807 15.1762 8.74041ZM3.46925 12.7499C3.11334 12.7491 2.82461 12.4577 2.82384 12.0975V11.9163C2.93269 11.9163 3.03768 11.8725 3.1149 11.7944C3.19212 11.7163 3.23534 11.61 3.23534 11.4998V10.6662C3.23534 10.5561 3.1921 10.4498 3.1149 10.3717C3.0377 10.2935 2.9327 10.2498 2.82384 10.2498V10.0693C2.82461 9.70839 3.11334 9.41699 3.46925 9.41621H4.88282V12.7498L3.46925 12.7499ZM6.118 8.99981C6.22686 8.99981 6.33185 9.04356 6.40906 9.12169C6.48628 9.19982 6.5295 9.30607 6.5295 9.41623V12.7499C6.5295 12.9803 6.34499 13.1663 6.11802 13.1663C5.89028 13.1663 5.70576 12.9803 5.70576 12.7499V9.41623C5.70576 9.18655 5.89026 8.99981 6.118 8.99981ZM8.99997 3.16614C7.79947 3.1677 6.64767 3.65131 5.79921 4.5107C4.94998 5.36931 4.47211 6.53492 4.47054 7.74974V8.58335H3.64756V7.74974C3.64756 5.81455 4.66741 4.02629 6.32339 3.05908C7.98015 2.09111 10.0198 2.09111 11.6766 3.05908C13.3326 4.02627 14.3525 5.81451 14.3525 7.74974V8.58335H13.5295V7.74974C13.5279 6.53488 13.05 5.36931 12.2008 4.5107C11.3523 3.65131 10.2004 3.16772 8.99997 3.16614ZM11.8819 13.1663C11.655 13.1663 11.4705 12.9803 11.4705 12.7499V9.41622C11.4705 9.18653 11.655 8.99981 11.8819 8.99981C12.1097 8.99981 12.2942 9.18653 12.2942 9.41622V12.7499C12.2942 12.86 12.2502 12.9663 12.173 13.0444C12.0958 13.1225 11.9916 13.1663 11.8819 13.1663ZM15.1762 12.0967V12.0975C15.1754 12.4577 14.8875 12.7491 14.5315 12.7498H13.1172V9.4162H14.5315C14.8875 9.41698 15.1754 9.70916 15.1762 10.0693V10.2498C14.9484 10.2498 14.7647 10.4365 14.7647 10.6662V11.4998C14.7647 11.61 14.8079 11.7162 14.8851 11.7944C14.9623 11.8725 15.0673 11.9162 15.1762 11.9162L15.1762 12.0967Z" fill="#6638B6"/>
</svg>
