<svg width="24" height="24" viewBox="0 0 24 24" fill="none" xmlns="http://www.w3.org/2000/svg">
<path fill-rule="evenodd" clip-rule="evenodd" d="M12.1975 4.35396C12.1225 4.21125 11.9205 4.21543 11.8485 4.35964L9.76773 8.52488C9.66349 8.75195 9.50289 8.94871 9.30108 9.09637C9.09864 9.2445 8.86164 9.33816 8.61281 9.3685C8.40819 9.39346 5.1705 9.89145 4.02631 10.0676C3.8628 10.0928 3.80083 10.294 3.91988 10.4089L7.22893 13.6016C7.40839 13.7709 7.54318 13.982 7.62122 14.2161C7.6997 14.4515 7.7183 14.7028 7.67536 14.9472C7.63243 15.1916 7.67486 14.9501 7.67486 14.9501L6.88484 19.5737C6.85703 19.7364 7.02727 19.8609 7.17391 19.785L11.3032 17.6479C11.3032 17.6479 11.7701 17.4762 12.0188 17.4762C12.2674 17.4762 12.5145 17.5317 12.7344 17.6479L16.8631 19.7867C17.0099 19.8627 17.1803 19.7379 17.1522 19.575L16.3627 15.0064L16.3623 15.0044C16.3192 14.7597 16.3378 14.5081 16.4163 14.2724C16.4937 14.0402 16.6269 13.8307 16.8042 13.6621L20.0774 10.4148C20.1938 10.2993 20.1293 10.1004 19.9673 10.0752L15.4247 9.3685C15.1759 9.33816 14.9389 9.2445 14.7365 9.09637C14.5347 8.94871 14.3741 8.75194 14.2698 8.52486C13.1479 6.19214 12.4885 4.90794 12.1975 4.35396ZM13.3826 3.36174C13.1385 2.84506 12.5905 2.49768 12.0188 2.49768C11.447 2.49768 10.899 2.84507 10.655 3.36176C9.98905 4.70614 9.29938 6.04176 8.64868 7.39405C8.50165 7.6996 8.21172 7.91189 7.8759 7.95887C6.41094 8.16384 4.94915 8.39827 3.48611 8.61502C2.91642 8.67084 2.40342 9.07151 2.21172 9.61175C2.01701 10.1605 2.17092 10.8058 2.59218 11.2076L5.82063 14.3225C6.05863 14.5521 6.16771 14.8846 6.11201 15.2106L5.34231 19.7152L5.34209 19.7165C5.24488 20.2776 5.48744 20.8746 5.94855 21.2089C6.40968 21.5432 7.05254 21.5881 7.55566 21.3212L7.55672 21.3206C8.27378 20.9417 10.5593 19.7305 11.5516 19.2046C11.8444 19.0494 12.1941 19.0499 12.487 19.2051L16.4818 21.3211C16.9849 21.5881 17.6278 21.5433 18.089 21.2089C18.5504 20.8744 18.793 20.2768 18.6953 19.7153L17.9283 15.2769C17.871 14.9454 17.9847 14.6077 18.2276 14.3749C19.3068 13.3403 20.3453 12.2572 21.4059 11.205C21.8173 10.8137 21.9762 10.1898 21.8018 9.64917C21.6269 9.10706 21.1312 8.69304 20.5669 8.61731C19.0987 8.3998 17.6318 8.16454 16.1616 7.95887C15.8258 7.91189 15.5359 7.6996 15.3889 7.39405C14.7382 6.04176 14.0485 4.70612 13.3826 3.36174Z" fill="#232533"/>
</svg>
