<svg width="25" height="24" viewBox="0 0 25 24" fill="none" xmlns="http://www.w3.org/2000/svg">
<path fill-rule="evenodd" clip-rule="evenodd" d="M18.5396 8.69776C18.4613 8.84733 18.4655 9.0255 18.539 9.17751C18.6323 9.37036 18.7119 9.56953 18.7773 9.77355C18.8284 9.93309 18.9467 10.0643 19.1049 10.1194L21.0314 10.7895C21.2325 10.8594 21.3672 11.0489 21.3672 11.2617V12.7383C21.3672 12.9511 21.2325 13.1406 21.0314 13.2105L19.1255 13.8735C18.9561 13.9324 18.8337 14.0783 18.7878 14.2517C18.726 14.4852 18.6427 14.7125 18.5391 14.9307C18.4664 15.0838 18.4615 15.2625 18.5401 15.4125L19.4466 17.1431C19.5481 17.3368 19.5119 17.574 19.3573 17.7287L18.3459 18.7401C18.1912 18.8947 17.954 18.9309 17.7603 18.8294L15.9577 17.8852C15.8491 17.8283 15.7227 17.8116 15.6064 17.8502C15.4602 17.8988 15.3238 17.9572 15.1875 18.0156C15.0749 18.0639 14.9623 18.1121 14.8441 18.1548C14.6855 18.2121 14.5526 18.3304 14.4972 18.4896L13.8277 20.4143C13.7578 20.6153 13.5683 20.75 13.3555 20.75H11.8789C11.6661 20.75 11.4766 20.6153 11.4067 20.4143L10.7437 18.5084C10.6848 18.3389 10.5389 18.2165 10.3655 18.1706C10.132 18.1088 9.90466 18.0255 9.68645 17.9219C9.53343 17.8492 9.35474 17.8443 9.20467 17.9229L7.47406 18.8294C7.28034 18.9309 7.04315 18.8947 6.88851 18.7401L5.87712 17.7287C5.72248 17.574 5.68628 17.3368 5.78775 17.1431L6.73199 15.3405C6.78888 15.2319 6.8056 15.1055 6.76696 14.9892C6.71841 14.843 6.65999 14.7066 6.60156 14.5703C6.55331 14.4577 6.50505 14.3451 6.46236 14.227C6.40506 14.0683 6.28683 13.9354 6.12755 13.88L4.20293 13.2105C4.00191 13.1406 3.86719 12.9511 3.86719 12.7383V11.2617C3.86719 11.0489 4.00191 10.8594 4.20293 10.7895L6.12947 10.1194C6.2877 10.0643 6.40599 9.93309 6.45709 9.77355C6.52244 9.56953 6.60205 9.37036 6.69533 9.17751C6.76885 9.0255 6.77308 8.84733 6.69473 8.69776L5.78775 6.96625C5.68628 6.77253 5.72248 6.53533 5.87712 6.3807L6.99788 5.25993C7.15252 5.10529 7.38972 5.06909 7.58344 5.17057L9.31495 6.07755C9.46452 6.1559 9.64269 6.15166 9.79469 6.07814C9.98754 5.98486 10.1867 5.90525 10.3907 5.8399C10.5503 5.7888 10.6815 5.67051 10.7366 5.51228L11.4067 3.58574C11.4766 3.38472 11.6661 3.25 11.8789 3.25H13.3506C13.5658 3.25 13.7568 3.38772 13.8249 3.59189L14.4928 5.59567C14.5503 5.76806 14.6975 5.8932 14.8731 5.93988C15.1051 6.00156 15.331 6.08445 15.5479 6.18751C15.7009 6.26021 15.8796 6.26506 16.0297 6.18645L17.7603 5.27994C17.954 5.17847 18.1912 5.21467 18.3459 5.3693L19.3573 6.3807C19.5119 6.53533 19.5481 6.77253 19.4466 6.96625L18.5396 8.69776ZM12.6165 15.1597C14.3615 15.1597 15.7762 13.745 15.7762 12C15.7762 10.2549 14.3615 8.84025 12.6165 8.84025C10.8714 8.84025 9.45674 10.2549 9.45674 12C9.45674 13.745 10.8714 15.1597 12.6165 15.1597Z" fill="#222532"/>
</svg>
