<svg width="18" height="18" viewBox="0 0 18 18" fill="none" xmlns="http://www.w3.org/2000/svg">
<path d="M9.53633 15.4272C9.53633 15.7232 9.29663 15.9629 9.00066 15.9629H8.12218C7.49277 15.9629 6.98122 15.4486 6.98122 14.8166V13.8691C6.75758 13.7981 6.5393 13.7124 6.32771 13.6133L5.6675 14.2735C5.45724 14.4885 5.17067 14.6097 4.86534 14.611H4.85864C4.55332 14.611 4.2654 14.4912 4.04644 14.2735L3.18937 13.4158C2.96976 13.1962 2.84989 12.9056 2.85123 12.5976C2.85324 12.2923 2.97443 12.0064 3.19339 11.7921L3.79868 11.1868C3.67882 10.9585 3.57637 10.7228 3.49267 10.4824H2.64632C2.01424 10.4824 1.5 9.97016 1.5 9.34144V8.12012C1.5 7.49138 2.01424 6.97917 2.64632 6.97917H3.44044C3.5228 6.72339 3.62658 6.47096 3.74778 6.22389L3.18936 5.66546C2.97509 5.45588 2.85323 5.16998 2.85121 4.86397C2.84987 4.55529 2.96973 4.2647 3.18936 4.04575L4.04642 3.18869C4.2647 2.97041 4.55262 2.85121 4.85862 2.85121H4.86532C5.17064 2.85255 5.45656 2.97374 5.67149 3.1927L6.22591 3.74778C6.47298 3.62592 6.72542 3.52347 6.98118 3.44044V2.64632C6.98118 2.01424 7.49275 1.5 8.12214 1.5H9.34279C9.9722 1.5 10.4837 2.01424 10.4837 2.64632V3.492C10.7241 3.5757 10.9598 3.67814 11.1881 3.79868L11.7975 3.18936C12.0077 2.97442 12.2943 2.85323 12.5996 2.85188C12.9184 2.87063 13.1982 2.9704 13.4178 3.18936L14.2749 4.04709C14.4945 4.2667 14.6144 4.55731 14.6131 4.86531C14.611 5.17063 14.4899 5.45655 14.2709 5.67081L13.614 6.327C13.7138 6.53926 13.7995 6.75686 13.8705 6.98051H14.8179C15.45 6.98051 15.9643 7.49274 15.9643 8.12146V8.48371C15.9643 8.77967 15.7246 9.01937 15.4286 9.01937C15.1326 9.01937 14.8929 8.77967 14.8929 8.48371V8.12146C14.8929 8.08464 14.8581 8.05183 14.8179 8.05183H13.4627C13.2136 8.05183 12.998 7.88041 12.9411 7.63802C12.8467 7.23492 12.696 6.84858 12.4925 6.49036C12.3733 6.28011 12.4095 6.01764 12.5795 5.84689L13.5411 4.85994C13.5411 4.84587 13.537 4.82512 13.517 4.80503L12.6599 3.94797C12.6391 3.92788 12.6037 3.92051 12.605 3.92453C12.6037 3.92587 12.5548 3.94797 12.5548 3.94797L11.6549 4.84788C11.4774 5.02533 11.2002 5.05545 10.99 4.92154C10.619 4.68718 10.2226 4.51443 9.81351 4.40864C9.57714 4.3477 9.41175 4.1341 9.41175 3.89039V2.64765C9.41175 2.6068 9.37961 2.57265 9.34211 2.57265H8.12147C8.08397 2.57265 8.05183 2.6068 8.05183 2.64765V3.84753C8.05183 4.09528 7.88176 4.31155 7.63938 4.36847C7.21352 4.46891 6.79704 4.63831 6.39998 4.87133C6.18905 4.9952 5.92189 4.96105 5.74981 4.7883L4.85927 3.9232C4.85525 3.91985 4.82512 3.92655 4.80437 3.9473L3.9473 4.80437C3.92721 4.82445 3.9232 4.84521 3.9232 4.85927C3.92454 4.86061 3.9473 4.90882 3.9473 4.90882L4.78762 5.7498C4.96037 5.92255 4.99451 6.18972 4.87065 6.3993C4.63696 6.79703 4.46755 7.21351 4.36846 7.63803C4.31088 7.87976 4.09526 8.05049 3.84685 8.05049H2.64696C2.60746 8.05049 2.57197 8.0833 2.57197 8.12012V9.34144C2.57197 9.37826 2.60679 9.41107 2.64696 9.41107H3.8897C4.1341 9.41107 4.34703 9.57579 4.40795 9.81283C4.51442 10.2239 4.68717 10.6197 4.92085 10.9893C5.05477 11.2015 5.02397 11.4774 4.8472 11.6548L3.92318 12.6043C3.92318 12.6184 3.9272 12.6391 3.94729 12.6592L4.80435 13.5163C4.82444 13.5364 4.85591 13.5417 4.85925 13.5397C4.86059 13.5384 4.90947 13.5163 4.90947 13.5163L5.8469 12.5789C6.01697 12.4081 6.28077 12.3726 6.49036 12.4918C6.84724 12.6947 7.23359 12.8454 7.63802 12.9391C7.88041 12.9953 8.05183 13.2116 8.05183 13.4607V14.8159C8.05183 14.8568 8.08397 14.8909 8.12146 14.8909H8.99995C9.29591 14.8909 9.53562 15.1306 9.53562 15.4266L9.53633 15.4272ZM8.6565 6.83242C9.44058 6.83242 10.1349 7.33127 10.3847 8.07383C10.4798 8.35371 10.7824 8.50637 11.0636 8.41062C11.3435 8.31621 11.4955 8.01289 11.4011 7.73167C11.0047 6.55254 9.90192 5.76111 8.65714 5.76111C7.06153 5.76111 5.76249 7.05942 5.76249 8.65507C5.76249 9.91523 6.56733 11.0221 7.76596 11.4097C7.82087 11.4271 7.87644 11.4358 7.93068 11.4358C8.157 11.4358 8.36658 11.2912 8.44024 11.0648C8.5313 10.7836 8.3773 10.4816 8.09541 10.3906C7.3408 10.1462 6.83391 9.44913 6.83391 8.65569C6.83391 7.65065 7.65214 6.83306 8.65723 6.83306L8.6565 6.83242ZM16.5 12.7489C16.5 14.8165 14.8173 16.4985 12.7503 16.4985C10.6834 16.4985 9.0007 14.8166 9.0007 12.7489C9.0007 10.6812 10.6834 8.99925 12.7503 8.99925C14.8173 8.99925 16.5 10.6812 16.5 12.7489ZM15.4287 12.7489C15.4287 11.2718 14.2274 10.0706 12.7503 10.0706C11.2733 10.0706 10.072 11.2718 10.072 12.7489C10.072 14.226 11.2733 15.4272 12.7503 15.4272C14.2274 15.4272 15.4287 14.226 15.4287 12.7489ZM13.5766 11.8343L12.3485 13.0623L11.924 12.6378C11.7144 12.4282 11.3763 12.4282 11.1667 12.6378C10.9571 12.8473 10.9571 13.1855 11.1667 13.3951L11.9702 14.1986C12.0747 14.303 12.2119 14.3552 12.3492 14.3552C12.4865 14.3552 12.6237 14.303 12.7282 14.1986L14.3352 12.5916C14.5447 12.382 14.5447 12.0438 14.3352 11.8343C14.1256 11.6247 13.7874 11.6247 13.5779 11.8343H13.5766Z" fill="#6638B6"/>
</svg>
