<svg width="24" height="24" viewBox="0 0 24 24" fill="none" xmlns="http://www.w3.org/2000/svg">
<path d="M12.9136 15.9119C12.9136 15.5115 13.1749 15.1869 13.4973 15.1869H16.5725C16.8949 15.1869 17.1563 15.5115 17.1563 15.9119C17.1563 16.3123 16.8949 16.6369 16.5725 16.6369H13.4973C13.1749 16.6369 12.9136 16.3123 12.9136 15.9119Z" fill="#232533"/>
<path d="M9.23631 8.13541C9.61273 8.13541 9.91788 8.44056 9.91788 8.81698V9.44738C9.91788 9.53837 9.97962 9.61703 10.0659 9.64587C10.1214 9.66442 10.1763 9.6851 10.2304 9.7079C10.5584 9.84601 10.8503 10.0577 11.0863 10.3251C11.3354 10.6073 11.3086 11.038 11.0264 11.2871C10.7442 11.5362 10.3135 11.5094 10.0644 11.2272C9.96096 11.11 9.83653 11.0211 9.70146 10.9642C9.56654 10.9074 9.42284 10.8833 9.28013 10.8925C9.24722 10.8946 9.21419 10.8944 9.18132 10.8917C8.98258 10.8756 8.78017 10.9413 8.61769 11.085C8.26719 11.395 8.27185 11.8455 8.62109 12.1544C8.78438 12.2989 8.98751 12.3659 9.18755 12.3515C9.79577 12.3515 10.3237 12.506 10.7547 12.8872C11.1774 13.2611 11.5669 13.9202 11.5079 14.5087C11.4507 15.0803 11.1846 15.6142 10.7547 15.9944C10.5491 16.1763 10.3137 16.316 10.0614 16.4078C9.97746 16.4383 9.91789 16.5159 9.91789 16.6052V17.3021C9.91789 17.6786 9.61274 17.9837 9.23632 17.9837C8.8599 17.9837 8.55475 17.6786 8.55475 17.3021V16.6005C8.55475 16.5108 8.49479 16.433 8.41031 16.4031C8.34316 16.3793 8.27698 16.3524 8.212 16.3223C7.88202 16.1694 7.59295 15.9406 7.36519 15.656C7.12998 15.3621 7.17755 14.9332 7.47144 14.698C7.76532 14.4628 8.19424 14.5104 8.42944 14.8043C8.89841 15.3902 10.1424 15.0877 10.1424 14.4408C10.1424 13.9481 9.70146 13.7112 9.28511 13.7112C8.70292 13.7112 8.14897 13.5567 7.71794 13.1754C6.75323 12.3221 6.74681 10.92 7.71454 10.064C7.92082 9.88154 8.15715 9.74188 8.41045 9.65066C8.49477 9.6203 8.55474 9.54254 8.55474 9.45293V8.81698C8.55474 8.44056 8.85989 8.13541 9.23631 8.13541Z" fill="#232533"/>
<path fill-rule="evenodd" clip-rule="evenodd" d="M13.3371 2.64105C13.5195 2.64105 13.6944 2.71609 13.8234 2.84966L19.8611 9.10282C19.9901 9.23639 20.0625 9.41754 20.0625 9.60643V19.4747C20.0625 19.9952 19.8628 20.4945 19.5074 20.8626C19.152 21.2307 18.6699 21.4375 18.1673 21.4375H5.83273C5.33008 21.4375 4.84803 21.2307 4.4926 20.8626C4.13718 20.4945 3.9375 19.9952 3.9375 19.4747V4.60391C3.9375 4.08332 4.13718 3.58407 4.4926 3.21596C4.84802 2.84785 5.33008 2.64105 5.83273 2.64105H13.3371ZM12.6493 4.26549C12.6493 4.15504 12.5597 4.06549 12.4493 4.06549H5.83273C5.69485 4.06549 5.56263 4.12222 5.46513 4.22319C5.36764 4.32416 5.31287 4.46111 5.31287 4.60391V19.4747C5.31287 19.6175 5.36764 19.7544 5.46513 19.8554C5.56262 19.9563 5.69485 20.0131 5.83273 20.0131H18.1673C18.3052 20.0131 18.4374 19.9563 18.5349 19.8554C18.6324 19.7544 18.6871 19.6175 18.6871 19.4747V10.5187C18.6871 10.4082 18.5976 10.3187 18.4871 10.3187H13.9407C13.5982 10.3187 13.2697 10.1778 13.0276 9.92692C12.7854 9.67608 12.6493 9.33588 12.6493 8.98114V4.26549ZM14.2247 8.89424C14.1142 8.89424 14.0247 8.80469 14.0247 8.69423V5.56782C14.0247 5.38794 14.2436 5.2995 14.3685 5.4289L17.3872 8.55531C17.5098 8.68228 17.4199 8.89424 17.2434 8.89424H14.2247Z" fill="#232533"/>
</svg>
