<svg width="21" height="22" viewBox="0 0 21 22" fill="none" xmlns="http://www.w3.org/2000/svg">
<path d="M18.9167 11.57V10.4225L20.3567 9.1625C20.6221 8.92854 20.7963 8.60827 20.8485 8.2583C20.9006 7.90833 20.8274 7.55119 20.6417 7.25L18.8717 4.25C18.7402 4.0222 18.5511 3.83299 18.3233 3.70135C18.0956 3.56971 17.8372 3.50027 17.5742 3.5C17.4112 3.49875 17.2491 3.52408 17.0942 3.575L15.2717 4.19C14.957 3.98091 14.6288 3.79299 14.2892 3.6275L13.9067 1.7375C13.8381 1.3922 13.6503 1.08203 13.376 0.861277C13.1018 0.640523 12.7587 0.523254 12.4067 0.53H8.89669C8.54472 0.523254 8.20158 0.640523 7.92735 0.861277C7.65312 1.08203 7.46528 1.3922 7.39669 1.7375L7.01419 3.6275C6.67214 3.79295 6.34142 3.98086 6.02419 4.19L4.23919 3.545C4.08267 3.50422 3.92057 3.48902 3.75919 3.5C3.49615 3.50027 3.2378 3.56971 3.01007 3.70135C2.78233 3.83299 2.59322 4.0222 2.46169 4.25L0.691693 7.25C0.516634 7.55074 0.451582 7.90299 0.50768 8.24642C0.563778 8.58985 0.737536 8.9031 0.999193 9.1325L2.41669 10.43V11.5775L0.999193 12.8375C0.730145 13.0685 0.551635 13.3873 0.495342 13.7375C0.43905 14.0876 0.508615 14.4463 0.691693 14.75L2.46169 17.75C2.59322 17.9778 2.78233 18.167 3.01007 18.2987C3.2378 18.4303 3.49615 18.4997 3.75919 18.5C3.92221 18.5012 4.08433 18.4759 4.23919 18.425L6.06169 17.81C6.37635 18.0191 6.70457 18.207 7.04419 18.3725L7.42669 20.2625C7.49528 20.6078 7.68312 20.918 7.95735 21.1387C8.23158 21.3595 8.57472 21.4767 8.92669 21.47H12.4667C12.8187 21.4767 13.1618 21.3595 13.436 21.1387C13.7103 20.918 13.8981 20.6078 13.9667 20.2625L14.3492 18.3725C14.6912 18.2071 15.022 18.0191 15.3392 17.81L17.1542 18.425C17.3091 18.4759 17.4712 18.5012 17.6342 18.5C17.8972 18.4997 18.1556 18.4303 18.3833 18.2987C18.6111 18.167 18.8002 17.9778 18.9317 17.75L20.6417 14.75C20.8168 14.4493 20.8818 14.097 20.8257 13.7536C20.7696 13.4101 20.5958 13.0969 20.3342 12.8675L18.9167 11.57ZM17.5742 17L15.0017 16.13C14.3995 16.6401 13.7112 17.0388 12.9692 17.3075L12.4367 20H8.89669L8.36419 17.3375C7.62801 17.0612 6.94348 16.6631 6.33919 16.16L3.75919 17L1.98919 14L4.02919 12.2C3.89052 11.4236 3.89052 10.6289 4.02919 9.8525L1.98919 8L3.75919 5L6.33169 5.87C6.9339 5.35992 7.62215 4.96119 8.36419 4.6925L8.89669 2H12.4367L12.9692 4.6625C13.7054 4.93882 14.3899 5.33686 14.9942 5.84L17.5742 5L19.3442 8L17.3042 9.8C17.4429 10.5764 17.4429 11.3711 17.3042 12.1475L19.3442 14L17.5742 17Z" fill="black"/>
<path d="M10.6667 15.5C9.77667 15.5 8.90664 15.2361 8.16662 14.7416C7.4266 14.2472 6.84983 13.5443 6.50923 12.7221C6.16864 11.8998 6.07952 10.995 6.25316 10.1221C6.42679 9.24918 6.85537 8.44736 7.48471 7.81802C8.11404 7.18869 8.91587 6.7601 9.78878 6.58647C10.6617 6.41284 11.5665 6.50195 12.3888 6.84255C13.211 7.18314 13.9138 7.75992 14.4083 8.49994C14.9028 9.23996 15.1667 10.11 15.1667 11C15.1727 11.5926 15.0604 12.1805 14.8364 12.7292C14.6124 13.2779 14.2811 13.7763 13.8621 14.1954C13.443 14.6145 12.9445 14.9457 12.3959 15.1697C11.8472 15.3937 11.2593 15.506 10.6667 15.5ZM10.6667 8C10.2702 7.99077 9.87595 8.06205 9.5078 8.20955C9.13965 8.35704 8.80524 8.57768 8.5248 8.85812C8.24437 9.13855 8.02373 9.47296 7.87623 9.84111C7.72874 10.2093 7.65745 10.6035 7.66669 11C7.65745 11.3965 7.72874 11.7907 7.87623 12.1589C8.02373 12.527 8.24437 12.8615 8.5248 13.1419C8.80524 13.4223 9.13965 13.643 9.5078 13.7905C9.87595 13.938 10.2702 14.0092 10.6667 14C11.0632 14.0092 11.4574 13.938 11.8256 13.7905C12.1937 13.643 12.5281 13.4223 12.8086 13.1419C13.089 12.8615 13.3097 12.527 13.4571 12.1589C13.6046 11.7907 13.6759 11.3965 13.6667 11C13.6759 10.6035 13.6046 10.2093 13.4571 9.84111C13.3097 9.47296 13.089 9.13855 12.8086 8.85812C12.5281 8.57768 12.1937 8.35704 11.8256 8.20955C11.4574 8.06205 11.0632 7.99077 10.6667 8Z" fill="black"/>
</svg>
