<svg width="24" height="24" viewBox="0 0 24 24" fill="none" xmlns="http://www.w3.org/2000/svg">
<path fill-rule="evenodd" clip-rule="evenodd" d="M6.72001 19.6968C6.87001 19.6468 6.90001 19.4567 6.78001 19.3567C6.00001 18.6864 5.34001 17.8861 4.83001 16.9957C4.75001 16.8557 4.55001 16.8557 4.48001 17.0057C4.36001 17.2658 4.25001 17.556 4.16001 17.8461C4.02001 18.3062 3.96001 18.7364 3.99001 19.0966C4.01001 19.4467 4.12001 19.6868 4.27001 19.8369C4.40001 19.9669 4.76001 20.107 5.57001 19.9869C5.92001 19.9269 6.30001 19.8268 6.72001 19.6968ZM8.52001 20.5972C8.57001 20.5771 8.64001 20.5771 8.69001 20.5972C9.86001 21.1674 11.18 21.4875 12.57 21.4875C17.49 21.4875 21.48 17.4959 21.48 12.574C21.48 11.1834 21.16 9.87291 20.59 8.69244C20.56 8.64242 20.56 8.5824 20.59 8.52238C21.01 7.562 21.32 6.62162 21.44 5.8013C21.58 4.89094 21.53 3.88054 20.87 3.22028C20.39 2.74009 19.78 2.55001 19.19 2.51C18.6 2.46998 17.98 2.57002 17.42 2.74009C16.52 3.00019 15.64 3.45037 15.03 3.92055C14.98 3.96057 14.91 3.97057 14.85 3.96057C14.12 3.7705 13.35 3.66045 12.56 3.66045C7.64001 3.66045 3.65001 7.65203 3.65001 12.574C3.65001 13.3643 3.75001 14.1346 3.95001 14.8649C3.97001 14.9249 3.95001 14.9949 3.91001 15.045C3.45001 15.6452 3.00001 16.5255 2.74001 17.4159C2.57001 17.9861 2.47001 18.5964 2.51001 19.1866C2.55001 19.7768 2.75001 20.3971 3.22001 20.8673C3.88001 21.5275 4.88001 21.5775 5.80001 21.4375C6.62001 21.3174 7.55001 21.0173 8.52001 20.5972ZM10.81 19.7868C10.64 19.7468 10.62 19.5267 10.77 19.4367C12.52 18.4063 14.29 17.0858 15.69 15.6852C17.08 14.2947 18.41 12.524 19.44 10.7633C19.53 10.6132 19.75 10.6432 19.79 10.8033C19.93 11.3635 20 11.9537 20 12.554C20 16.6556 16.68 19.9869 12.57 19.9869C11.96 19.9969 11.37 19.9269 10.81 19.7868ZM18.83 8.76247C18.86 8.70245 18.86 8.63242 18.82 8.5724C17.5 6.51158 15.19 5.14104 12.56 5.14104C8.46001 5.14104 5.13001 8.46235 5.13001 12.574C5.13001 15.205 6.50001 17.5159 8.56001 18.8365C8.62001 18.8765 8.69001 18.8765 8.75001 18.8465C10.78 17.8261 12.99 16.2754 14.62 14.6448C16.27 13.0041 17.82 10.7933 18.83 8.76247ZM16.99 4.48078C16.84 4.5508 16.84 4.75088 16.98 4.83091C17.87 5.34112 18.67 6.01138 19.34 6.79169C19.44 6.91174 19.63 6.88173 19.68 6.73167C19.81 6.3115 19.91 5.93135 19.96 5.58121C20.08 4.77089 19.94 4.41075 19.81 4.2807C19.66 4.13064 19.42 4.02059 19.07 4.00059C18.71 3.97057 18.28 4.0406 17.82 4.17065C17.54 4.25069 17.26 4.36073 16.99 4.48078Z" fill="#222532"/>
</svg>
