<svg width="24" height="24" viewBox="0 0 24 24" fill="none" xmlns="http://www.w3.org/2000/svg">
<path fill-rule="evenodd" clip-rule="evenodd" d="M12.5351 3.14947C12.2549 2.87865 11.8107 2.87781 11.5294 3.14756L3.53471 11.0902C3.39215 11.2269 3.31155 11.4159 3.31155 11.6134L3.31152 19.5886C3.31152 20.486 4.03906 21.2136 4.93652 21.2136L9.94128 21.204C10.0516 21.2037 10.1409 21.1143 10.1409 21.004V16.2676C10.1409 15.2006 11.0059 14.6 12.073 14.6C13.14 14.6 14.0049 15.2006 14.0049 16.2676V21.004C14.0049 21.1143 14.0943 21.2038 14.2046 21.204L19.054 21.2136C19.9515 21.2136 20.679 20.486 20.679 19.5886L20.6791 11.6134C20.6791 11.4168 20.5992 11.2287 20.4579 11.0921L12.5351 3.14947ZM15.4549 19.6136C15.4549 19.6964 15.5221 19.7636 15.6049 19.7636H19.054C19.1507 19.7636 19.229 19.6852 19.229 19.5886L19.2291 12.3334C19.2291 12.0693 19.1245 11.8158 18.9383 11.6285L12.1353 4.78374C12.0768 4.72492 11.9817 4.7247 11.923 4.78325L5.05554 11.6295C4.86733 11.8172 4.76155 12.072 4.76155 12.3377L4.76152 19.5886C4.76152 19.6852 4.83987 19.7636 4.93652 19.7636H8.54089C8.62374 19.7636 8.69089 19.6964 8.69089 19.6136V16.2676C8.69089 14.3998 10.2051 13.15 12.073 13.15C13.9408 13.15 15.4549 14.3998 15.4549 16.2676V19.6136Z" fill="#232533"/>
</svg>
