<svg width="24" height="24" viewBox="0 0 24 24" fill="none" xmlns="http://www.w3.org/2000/svg">
<path d="M8.59244 9.30347C8.19756 9.30347 7.87744 9.62358 7.87744 10.0185C7.87744 10.4134 8.19756 10.7335 8.59244 10.7335H15.4073C15.8022 10.7335 16.1223 10.4134 16.1223 10.0185C16.1223 9.62358 15.8022 9.30347 15.4073 9.30347H8.59244Z" fill="#232533"/>
<path d="M7.87744 13.4257C7.87744 13.0308 8.19756 12.7107 8.59244 12.7107H15.4073C15.8022 12.7107 16.1223 13.0308 16.1223 13.4257C16.1223 13.8206 15.8022 14.1407 15.4073 14.1407H8.59244C8.19756 14.1407 7.87744 13.8206 7.87744 13.4257Z" fill="#232533"/>
<path d="M8.59244 16.1179C8.19756 16.1179 7.87744 16.438 7.87744 16.8329C7.87744 17.2278 8.19756 17.5479 8.59244 17.5479H15.4073C15.8022 17.5479 16.1223 17.2278 16.1223 16.8329C16.1223 16.438 15.8022 16.1179 15.4073 16.1179H8.59244Z" fill="#232533"/>
<path fill-rule="evenodd" clip-rule="evenodd" d="M9.60797 2.42578C8.71155 2.42578 7.94771 2.9934 7.65625 3.78882H6.04673C5.49562 3.78882 4.96707 4.00775 4.57738 4.39744C4.18768 4.78714 3.96875 5.31568 3.96875 5.8668V19.4966C3.96875 20.0477 4.18768 20.5763 4.57738 20.966C4.96707 21.3557 5.49562 21.5746 6.04673 21.5746H17.9845C18.5356 21.5746 19.0642 21.3557 19.4539 20.966C19.8436 20.5763 20.0625 20.0477 20.0625 19.4966V5.8668C20.0625 5.31568 19.8436 4.78714 19.4539 4.39744C19.0642 4.00775 18.5356 3.78882 17.9845 3.78882H16.4365C16.145 2.9934 15.3812 2.42578 14.4848 2.42578H9.60797ZM9.60797 3.85578C9.2501 3.85578 8.95999 4.14589 8.95999 4.50376V5.18525C8.95999 5.54312 9.2501 5.83323 9.60797 5.83323H14.4848C14.8427 5.83323 15.1328 5.54312 15.1328 5.18525V4.50896L15.1327 4.50382L15.1328 4.50024C15.1309 4.14399 14.8415 3.85578 14.4848 3.85578H9.60797ZM14.4848 7.26323C15.6212 7.26323 16.5446 6.35098 16.5625 5.21882H17.9845C18.1564 5.21882 18.3212 5.28709 18.4427 5.40861C18.5642 5.53013 18.6325 5.69494 18.6325 5.8668V19.4966C18.6325 19.6685 18.5642 19.8333 18.4427 19.9548C18.3212 20.0763 18.1564 20.1446 17.9845 20.1446H6.04673C5.87488 20.1446 5.71006 20.0763 5.58854 19.9548C5.46702 19.8333 5.39875 19.6685 5.39875 19.4966V5.8668C5.39875 5.69494 5.46702 5.53013 5.58854 5.40861C5.71006 5.28709 5.87488 5.21882 6.04673 5.21882H7.53025C7.54818 6.35098 8.47154 7.26323 9.60797 7.26323H14.4848Z" fill="#232533"/>
</svg>
