<svg width="24" height="24" viewBox="0 0 24 24" fill="none" xmlns="http://www.w3.org/2000/svg">
<path d="M11.9835 7.07593C12.3599 7.07593 12.6651 7.38108 12.6651 7.7575V8.3879C12.6651 8.47889 12.7268 8.55755 12.8131 8.58639C12.8686 8.60493 12.9235 8.62561 12.9776 8.64842C13.3056 8.78652 13.5975 8.99818 13.8335 9.26563C14.0826 9.54784 14.0558 9.97855 13.7736 10.2276C13.4914 10.4767 13.0607 10.4499 12.8116 10.1677C12.7082 10.0505 12.5837 9.9616 12.4487 9.90473C12.3137 9.84793 12.17 9.82384 12.0273 9.83302C11.9944 9.83514 11.9614 9.83487 11.9285 9.83221C11.7298 9.81612 11.5274 9.8818 11.3649 10.0255C11.0144 10.3356 11.019 10.786 11.3683 11.0949C11.5316 11.2394 11.7347 11.3064 11.9347 11.292C12.543 11.292 13.0709 11.4465 13.5019 11.8277C13.9245 12.2016 14.3141 12.8607 14.2551 13.4492C14.1979 14.0208 13.9318 14.5547 13.5019 14.9349C13.2963 15.1168 13.0609 15.2565 12.8086 15.3483C12.7247 15.3789 12.6651 15.4564 12.6651 15.5457V16.2427C12.6651 16.6191 12.3599 16.9242 11.9835 16.9242C11.6071 16.9242 11.3019 16.6191 11.3019 16.2427V15.541C11.3019 15.4514 11.242 15.3735 11.1575 15.3436C11.0904 15.3198 11.0242 15.2929 10.9592 15.2628C10.6292 15.11 10.3401 14.8811 10.1124 14.5965C9.87718 14.3026 9.92475 13.8737 10.2186 13.6385C10.5125 13.4033 10.9414 13.4509 11.1766 13.7448C11.6456 14.3307 12.8896 14.0282 12.8896 13.3813C12.8896 12.8886 12.4487 12.6517 12.0323 12.6517C11.4501 12.6517 10.8962 12.4972 10.4651 12.1159C9.50042 11.2626 9.49401 9.86053 10.4617 9.00451C10.668 8.82205 10.9044 8.6824 11.1576 8.59118C11.242 8.56081 11.3019 8.48306 11.3019 8.39344V7.7575C11.3019 7.38108 11.6071 7.07593 11.9835 7.07593Z" fill="#232533"/>
<path fill-rule="evenodd" clip-rule="evenodd" d="M9.52362 2.62989C9.65377 2.54 9.82399 2.49005 9.98418 2.50004H13.969C14.1292 2.50004 14.2794 2.54998 14.4095 2.63988C14.5397 2.72978 14.6298 2.85964 14.6799 2.99948L15.2706 4.78748C15.3707 5.07716 15.571 5.3069 15.8313 5.45673C16.0916 5.60656 16.402 5.65651 16.6923 5.59657L18.5546 5.22699C18.7048 5.19702 18.875 5.217 19.0151 5.27693C19.1553 5.33686 19.2754 5.44674 19.3555 5.5766L21.3379 8.94283C21.418 9.07268 21.4581 9.23251 21.4381 9.38234C21.418 9.53217 21.358 9.67201 21.2478 9.79188L19.9763 11.1903C19.776 11.4201 19.6659 11.6997 19.6659 11.9994C19.6659 12.2991 19.776 12.5887 19.9763 12.8085L21.3179 14.2169C21.418 14.3268 21.4781 14.4766 21.4981 14.6265C21.5082 14.7763 21.4781 14.9361 21.398 15.066L19.4156 18.4322C19.3355 18.5621 19.2154 18.6719 19.0752 18.7319C18.935 18.7918 18.7748 18.8118 18.6146 18.7818L16.7524 18.4122C16.462 18.3523 16.1517 18.4022 15.8913 18.5521C15.631 18.7019 15.4308 18.9416 15.3307 19.2213L14.7299 20.9993C14.6799 21.1392 14.5898 21.269 14.4596 21.3589C14.3294 21.4488 14.1793 21.4988 14.0191 21.4988H10.0342C9.87403 21.4988 9.71385 21.4588 9.57368 21.3689C9.43351 21.279 9.33338 21.1492 9.28332 20.9993L8.67258 19.2213C8.57246 18.9317 8.37222 18.7019 8.1119 18.5521C7.85158 18.4022 7.54121 18.3523 7.25086 18.4122L5.3886 18.7818C5.23842 18.8118 5.06822 18.7918 4.92805 18.7319C4.78788 18.6719 4.66773 18.5621 4.58763 18.4322L2.60522 15.066C2.52513 14.9361 2.49509 14.7763 2.5051 14.6265C2.52513 14.4766 2.5852 14.3368 2.68532 14.2169L3.94685 12.8185C4.1471 12.5887 4.25723 12.3091 4.25723 12.0094C4.25723 11.7097 4.1471 11.4201 3.94685 11.2003L2.68532 9.80187C2.5852 9.69199 2.51512 9.54216 2.5051 9.39233C2.48508 9.2325 2.52513 9.08267 2.60522 8.95282L4.59764 5.58659C4.67774 5.45673 4.78787 5.35684 4.91803 5.29691C5.04819 5.22699 5.18836 5.20701 5.33854 5.22699L7.25086 5.59657C7.54121 5.65651 7.85158 5.60656 8.1119 5.45673C8.37222 5.3069 8.57246 5.06717 8.67258 4.78748L9.23327 2.99948C9.29334 2.84965 9.39346 2.71979 9.52362 2.62989ZM10.8452 3.95841C10.665 3.95841 10.4948 4.07827 10.4347 4.25807L10.1043 5.25695C9.89407 5.87626 9.46354 6.40567 8.88284 6.7353C8.30213 7.06493 7.62131 7.17481 6.96051 7.04495L5.92926 6.83519C5.74904 6.80522 5.5588 6.88513 5.4687 7.04495L4.33733 8.94283C4.23721 9.11264 4.25723 9.3224 4.38739 9.46225L5.08824 10.2314C5.52877 10.7208 5.77908 11.3501 5.77908 12.0094C5.77908 12.6687 5.53878 13.3079 5.08824 13.7974L4.38739 14.5665C4.25723 14.7064 4.23721 14.9161 4.33733 15.086L5.47871 16.9938C5.56882 17.1437 5.75905 17.2336 5.93927 17.1936L6.98053 16.9838C7.64133 16.854 8.32216 16.9639 8.90287 17.2935C9.48357 17.6231 9.91409 18.1525 10.1244 18.7718L10.4347 19.7407C10.4948 19.9205 10.665 20.0404 10.8552 20.0404H13.118C13.2982 20.0404 13.4684 19.9205 13.5285 19.7407L13.8589 18.7818C14.0691 18.1625 14.4997 17.6331 15.0804 17.3035C15.6611 16.9738 16.3419 16.864 17.0027 16.9938L18.0339 17.2036C18.2142 17.2336 18.4044 17.1536 18.4945 16.9938L19.6259 15.076C19.726 14.9062 19.706 14.6964 19.5758 14.5565L18.875 13.7874C18.4244 13.298 18.1841 12.6587 18.1841 12.0094C18.1841 11.3501 18.4344 10.7208 18.875 10.2314L19.5758 9.46225C19.706 9.31242 19.726 9.11264 19.6259 8.94283L18.4945 7.02498C18.4044 6.86515 18.2142 6.77526 18.0339 6.81521L17.0027 7.02498C16.3419 7.15483 15.6611 7.04495 15.0804 6.71532C14.4997 6.38569 14.0691 5.85628 13.8589 5.23698L13.5285 4.25807C13.4584 4.07827 13.2982 3.95841 13.108 3.95841H10.8452Z" fill="#232533"/>
</svg>
