<svg width="24" height="24" viewBox="0 0 24 24" fill="none" xmlns="http://www.w3.org/2000/svg">
<path fill-rule="evenodd" clip-rule="evenodd" d="M10.4347 4.25804C10.4948 4.07824 10.665 3.95838 10.8452 3.95838H13.108C13.2982 3.95838 13.4584 4.07824 13.5285 4.25804L13.8589 5.23695C14.0691 5.85625 14.4997 6.38566 15.0804 6.71529C15.6611 7.04492 16.3419 7.1548 17.0027 7.02495L18.0339 6.81518C18.2142 6.77522 18.4044 6.86512 18.4945 7.02495L19.6259 8.9428C19.726 9.11261 19.706 9.31239 19.5758 9.46222L18.875 10.2314C18.4344 10.7208 18.1841 11.3501 18.1841 12.0094C18.1841 12.6586 18.4244 13.2979 18.875 13.7874L19.5758 14.5565C19.706 14.6964 19.726 14.9061 19.6259 15.0759L18.4945 16.9938C18.4044 17.1536 18.2142 17.2335 18.0339 17.2036L17.0027 16.9938C16.3419 16.8639 15.6611 16.9738 15.0804 17.3034C14.4997 17.6331 14.0691 18.1625 13.8589 18.7818L13.5285 19.7407C13.4684 19.9205 13.2982 20.0404 13.118 20.0404H10.8552C10.665 20.0404 10.4948 19.9205 10.4347 19.7407L10.1244 18.7718C9.91409 18.1525 9.48357 17.6231 8.90287 17.2935C8.32216 16.9638 7.64133 16.8539 6.98053 16.9838L5.93927 17.1936C5.75905 17.2335 5.56882 17.1436 5.47871 16.9938L4.33733 15.0859C4.23721 14.9161 4.25723 14.7063 4.38739 14.5665L5.08824 13.7974C5.53878 13.3079 5.77908 12.6686 5.77908 12.0094C5.77908 11.3501 5.52877 10.7208 5.08824 10.2314L4.38739 9.46222C4.25723 9.32237 4.23721 9.11261 4.33733 8.9428L5.4687 7.04492C5.5588 6.8851 5.74904 6.80519 5.92926 6.83516L6.96051 7.04492C7.62131 7.17478 8.30213 7.0649 8.88284 6.73527C9.46354 6.40564 9.89407 5.87623 10.1043 5.25692L10.4347 4.25804ZM9.98418 2.50001C9.82399 2.49002 9.65377 2.53996 9.52362 2.62986C9.39346 2.71976 9.29334 2.84962 9.23327 2.99945L8.67258 4.78745C8.57246 5.06714 8.37222 5.30687 8.1119 5.4567C7.85158 5.60653 7.54121 5.65648 7.25086 5.59654L5.33854 5.22696C5.18836 5.20698 5.04819 5.22696 4.91803 5.29688C4.78787 5.35681 4.67774 5.4567 4.59764 5.58656L2.60522 8.95279C2.52513 9.08264 2.48508 9.23247 2.5051 9.3923C2.51512 9.54213 2.5852 9.69196 2.68532 9.80184L3.94685 11.2003C4.1471 11.42 4.25723 11.7097 4.25723 12.0094C4.25723 12.309 4.1471 12.5887 3.94685 12.8185L2.68532 14.2169C2.5852 14.3368 2.52513 14.4766 2.5051 14.6264C2.49509 14.7763 2.52513 14.9361 2.60522 15.0659L4.58763 18.4322C4.66773 18.562 4.78788 18.6719 4.92805 18.7318C5.06822 18.7918 5.23842 18.8118 5.3886 18.7818L7.25086 18.4122C7.54121 18.3523 7.85158 18.4022 8.1119 18.552C8.37222 18.7019 8.57246 18.9316 8.67258 19.2213L9.28332 20.9993C9.33338 21.1491 9.43351 21.279 9.57368 21.3689C9.71385 21.4588 9.87403 21.4987 10.0342 21.4987H10.0443H14.0191C14.1793 21.4987 14.3294 21.4488 14.4596 21.3589C14.5898 21.269 14.6799 21.1392 14.7299 20.9993L15.3307 19.2213C15.4308 18.9416 15.631 18.7019 15.8913 18.552C16.1517 18.4022 16.462 18.3523 16.7524 18.4122L18.6146 18.7818C18.7748 18.8118 18.935 18.7918 19.0752 18.7318C19.2154 18.6719 19.3355 18.562 19.4156 18.4322L21.398 15.0659C21.4781 14.9361 21.5082 14.7763 21.4981 14.6264C21.4781 14.4766 21.418 14.3268 21.3179 14.2169L19.9763 12.8085C19.776 12.5887 19.6659 12.299 19.6659 11.9994C19.6659 11.6997 19.776 11.42 19.9763 11.1903L21.2478 9.79185C21.358 9.67198 21.418 9.53214 21.4381 9.38231C21.4581 9.23247 21.418 9.07265 21.3379 8.9428L19.3555 5.57657C19.2754 5.44671 19.1553 5.33683 19.0151 5.2769C18.875 5.21697 18.7048 5.19699 18.5546 5.22696L16.6923 5.59654C16.402 5.65648 16.0916 5.60653 15.8313 5.4567C15.571 5.30687 15.3707 5.07712 15.2706 4.78745L14.6799 2.99945C14.6298 2.85961 14.5397 2.72975 14.4095 2.63985C14.2794 2.54995 14.1292 2.50001 13.969 2.50001H9.98418Z" fill="#222532"/>
<path d="M12 15.75C9.93 15.75 8.25 14.07 8.25 12C8.25 9.93 9.93 8.25 12 8.25C14.07 8.25 15.75 9.93 15.75 12C15.75 14.07 14.07 15.75 12 15.75ZM12 9.75C10.76 9.75 9.75 10.76 9.75 12C9.75 13.24 10.76 14.25 12 14.25C13.24 14.25 14.25 13.24 14.25 12C14.25 10.76 13.24 9.75 12 9.75Z" fill="#222532"/>
</svg>
