<svg width="24" height="24" viewBox="0 0 24 24" fill="none" xmlns="http://www.w3.org/2000/svg">
<path fill-rule="evenodd" clip-rule="evenodd" d="M14.6875 9.65291C14.6875 10.9382 13.8024 12.0167 12.6085 12.3122V13.4291H13.3185C13.6832 13.4291 13.9788 13.7247 13.9788 14.0894C13.9788 14.4541 13.6832 14.7497 13.3185 14.7497H12.6085V15.7659H13.6571C14.0217 15.7659 14.3174 16.0615 14.3174 16.4262C14.3174 16.7909 14.0217 17.0865 13.6571 17.0865C13.0717 17.0865 12.3897 17.1907 11.8151 17.0731C11.5142 17.0116 11.2878 16.7453 11.2878 16.4262L11.2879 16.4134V14.1022L11.2878 14.0894L11.2879 14.0766V12.3123C10.0938 12.0168 9.20863 10.9382 9.20863 9.65291C9.20863 8.13996 10.4351 6.91347 11.9481 6.91347C13.461 6.91347 14.6875 8.13996 14.6875 9.65291ZM10.5292 9.65291C10.5292 8.8693 11.1645 8.23406 11.9481 8.23406C12.7317 8.23406 13.3669 8.8693 13.3669 9.65291C13.3669 10.4308 12.7409 11.0625 11.9652 11.0717L11.9482 11.0714L11.9311 11.0717C11.1553 11.0626 10.5292 10.4308 10.5292 9.65291Z" fill="#232533"/>
<path fill-rule="evenodd" clip-rule="evenodd" d="M12.3005 2.00333C12.11 1.91299 11.89 1.91299 11.6996 2.00333C8.87532 3.34275 6.0436 4.62724 3.33116 6.18549C3.10776 6.31411 2.96962 6.55525 2.96962 6.81664C2.96962 6.9766 2.96941 7.13685 2.96919 7.29734C2.96447 10.8287 3.1782 14.2063 5.256 17.2065C6.74205 19.3523 8.84594 20.9989 11.2889 21.933C11.7468 22.1082 12.2531 22.1082 12.711 21.933C15.1539 20.9989 17.2578 19.3523 18.7439 17.2065C20.8723 14.1332 21.0304 10.4241 21.0304 6.81664C21.0304 6.621 20.9528 6.43366 20.8151 6.29718C20.7587 6.24119 20.6954 6.19876 20.6833 6.19069C18.1062 4.45618 15.0951 3.32872 12.3005 2.00333ZM6.41926 16.3707C4.42471 13.4907 4.39159 10.9196 4.39297 7.35671C4.393 7.28509 4.4313 7.2183 4.49344 7.18269C4.65377 7.0908 4.85097 6.97792 5.07723 6.84866C7.3027 5.57726 9.63126 4.65009 11.9109 3.5099C11.9673 3.48166 12.0338 3.48157 12.0903 3.50967C14.562 4.73888 17.1263 5.75949 19.5091 7.16341C19.5699 7.19919 19.607 7.26517 19.607 7.33565C19.6085 10.9074 19.5791 13.485 17.5806 16.3707C16.2617 18.2751 14.3902 19.7421 12.2103 20.5756C12.0752 20.6273 11.9245 20.6273 11.7894 20.5756C9.60949 19.7421 7.73817 18.2751 6.41926 16.3707Z" fill="#232533"/>
</svg>
