<svg width="24" height="24" viewBox="0 0 24 24" fill="none" xmlns="http://www.w3.org/2000/svg">
<path fill-rule="evenodd" clip-rule="evenodd" d="M3.75 19.05C3.75 20.13 4.62 21 5.7 21H18.3C19.38 21 20.25 20.12 20.25 19.05V8.95C20.25 7.87 19.38 7 18.3 7H15.7C15.45 7 15.25 6.8 15.25 6.56V4.95C15.25 3.87 14.38 3 13.3 3H10.7C9.62 3 8.75 3.88 8.75 4.95V10.56C8.75 10.8 8.55 11 8.3 11H5.7C4.62 11 3.75 11.88 3.75 12.95V19.05ZM15.25 8.95C15.25 8.7 15.45 8.5 15.7 8.5H18.3C18.55 8.5 18.75 8.7 18.75 8.95V19.05C18.75 19.3 18.55 19.5 18.3 19.5H15.7C15.45 19.5 15.25 19.3 15.25 19.05V8.95ZM10.25 4.95C10.25 4.7 10.45 4.5 10.7 4.5H13.3C13.55 4.5 13.75 4.7 13.75 4.95V19.05C13.75 19.3 13.55 19.5 13.3 19.5H10.7C10.45 19.5 10.25 19.3 10.25 19.05V4.95ZM5.25 12.95C5.25 12.7 5.45 12.5 5.7 12.5H8.3C8.55 12.5 8.75 12.7 8.75 12.95V19.05C8.75 19.3 8.55 19.5 8.3 19.5H5.7C5.45 19.5 5.25 19.3 5.25 19.05V12.95Z" fill="#222532"/>
</svg>
