<svg width="40" height="40" viewBox="0 0 40 40" fill="none" xmlns="http://www.w3.org/2000/svg">
<path d="M9.17539 6.347C8.068 6.347 7.00598 6.78685 6.22294 7.5698C5.43991 8.35274 5 9.41465 5 10.5219V16.486C5 18.7906 6.87057 20.6609 9.17539 20.6609H15.1402C16.2476 20.6609 17.3096 20.2211 18.0927 19.4382C18.8757 18.6552 19.3156 17.5933 19.3156 16.486V10.5219C19.3156 9.41465 18.8757 8.35274 18.0927 7.5698C17.3096 6.78685 16.2476 6.347 15.1402 6.347H9.17539ZM7.38593 10.5219C7.38593 10.0474 7.57447 9.59226 7.91005 9.25671C8.24564 8.92116 8.70079 8.73265 9.17539 8.73265H15.1402C15.6148 8.73265 16.07 8.92116 16.4056 9.25671C16.7411 9.59226 16.9297 10.0474 16.9297 10.5219V16.486C16.9297 16.9606 16.7411 17.4157 16.4056 17.7512C16.07 18.0868 15.6148 18.2753 15.1402 18.2753H9.17539C8.70079 18.2753 8.24564 18.0868 7.91005 17.7512C7.57447 17.4157 7.38593 16.9606 7.38593 16.486V10.5219ZM21.1051 23.0466C19.9977 23.0466 18.9357 23.4865 18.1526 24.2694C17.3696 25.0524 16.9297 26.1143 16.9297 27.2215V30.8C16.9297 33.1046 18.8002 34.9749 21.1051 34.9749H29.4558C30.5632 34.9749 31.6252 34.5351 32.4083 33.7521C33.1913 32.9692 33.6312 31.9073 33.6312 30.8V27.2215C33.6312 26.1143 33.1913 25.0524 32.4083 24.2694C31.6252 23.4865 30.5632 23.0466 29.4558 23.0466H21.1051ZM19.3156 27.2215C19.3156 26.747 19.5041 26.2919 19.8397 25.9563C20.1753 25.6208 20.6305 25.4323 21.1051 25.4323H29.4558C29.9304 25.4323 30.3856 25.6208 30.7212 25.9563C31.0567 26.2919 31.2453 26.747 31.2453 27.2215V30.8C31.2453 31.2745 31.0567 31.7296 30.7212 32.0652C30.3856 32.4007 29.9304 32.5893 29.4558 32.5893H21.1051C20.6305 32.5893 20.1753 32.4007 19.8397 32.0652C19.5041 31.7296 19.3156 31.2745 19.3156 30.8V27.2215ZM5 27.2215C5 24.917 6.87057 23.0466 9.17539 23.0466H10.3684C12.6732 23.0466 14.5437 24.917 14.5437 27.2215V30.8C14.5437 31.9073 14.1038 32.9692 13.3208 33.7521C12.5378 34.5351 11.4757 34.9749 10.3684 34.9749H9.17539C8.068 34.9749 7.00598 34.5351 6.22294 33.7521C5.43991 32.9692 5 31.9073 5 30.8V27.2215ZM9.17539 25.4323C8.70079 25.4323 8.24564 25.6208 7.91005 25.9563C7.57447 26.2919 7.38593 26.747 7.38593 27.2215V30.8C7.38593 31.7877 8.18761 32.5893 9.17539 32.5893H10.3684C10.8429 32.5893 11.2981 32.4007 11.6337 32.0652C11.9693 31.7296 12.1578 31.2745 12.1578 30.8V27.2215C12.1578 26.747 11.9693 26.2919 11.6337 25.9563C11.2981 25.6208 10.8429 25.4323 10.3684 25.4323H9.17539Z" fill="#232533"/>
<path d="M31.8059 8.289L31.7719 8.27993L30.0366 7.71743C29.5089 7.54148 29.0294 7.24514 28.6361 6.85186C28.2428 6.45858 27.9464 5.97917 27.7704 5.45156L27.2056 3.7187C27.1586 3.58472 27.0712 3.46865 26.9554 3.38652C26.8395 3.3044 26.7011 3.26029 26.5591 3.26029C26.4171 3.26029 26.2786 3.3044 26.1628 3.38652C26.047 3.46865 25.9596 3.58472 25.9126 3.7187L25.3478 5.45156C25.1752 5.97554 24.884 6.45263 24.4969 6.84565C24.1097 7.23867 23.637 7.53701 23.1156 7.71743L21.3803 8.27993C21.2463 8.32689 21.1302 8.41432 21.0481 8.53012C20.966 8.64593 20.9219 8.78439 20.9219 8.92635C20.9219 9.06832 20.966 9.20678 21.0481 9.32258C21.1302 9.43839 21.2463 9.52582 21.3803 9.57277L23.1156 10.1375C23.6441 10.3142 24.124 10.6116 24.5174 11.0061C24.9107 11.4006 25.2067 11.8814 25.3818 12.4102L25.9466 14.1431C25.993 14.2774 26.0803 14.3938 26.1963 14.476C26.3122 14.5581 26.451 14.6019 26.5931 14.6012H26.6022C26.7414 14.5996 26.8768 14.5553 26.9901 14.4742C27.1057 14.3925 27.1929 14.2767 27.2396 14.1431L27.8022 12.4102C27.9784 11.8824 28.2751 11.4028 28.6688 11.0095C29.0626 10.6162 29.5425 10.32 30.0706 10.1443L31.8059 9.58185C31.9389 9.53385 32.0538 9.44604 32.135 9.33036C32.2163 9.21468 32.2599 9.07677 32.2599 8.93543C32.2599 8.79408 32.2163 8.65617 32.135 8.54049C32.0538 8.42482 31.9389 8.337 31.8059 8.289Z" fill="#232533"/>
<path d="M35.5659 15.9732L36.9541 16.4268L36.9836 16.4336C37.0896 16.4721 37.1812 16.5422 37.2459 16.6346C37.3107 16.7269 37.3454 16.8369 37.3454 16.9496C37.3454 17.0624 37.3107 17.1724 37.2459 17.2647C37.1812 17.3571 37.0896 17.4272 36.9836 17.4656L35.5931 17.917C35.1711 18.0575 34.7878 18.2944 34.4736 18.609C34.1593 18.9236 33.9228 19.3072 33.7829 19.7293L33.3292 21.1174C33.2923 21.2252 33.2226 21.3188 33.1298 21.385C33.0371 21.4513 32.926 21.4869 32.812 21.4869C32.698 21.4869 32.5869 21.4513 32.4942 21.385C32.4014 21.3188 32.3317 21.2252 32.2948 21.1174L31.8434 19.727C31.7035 19.3043 31.4668 18.9201 31.1522 18.605C30.8375 18.29 30.4535 18.0528 30.0309 17.9125L28.6404 17.4588C28.5344 17.4204 28.4428 17.3503 28.3781 17.2579C28.3133 17.1656 28.2786 17.0556 28.2786 16.9428C28.2786 16.8301 28.3133 16.7201 28.3781 16.6278C28.4428 16.5354 28.5344 16.4653 28.6404 16.4268L30.0309 15.9755C30.4478 15.8314 30.8257 15.5929 31.135 15.2785C31.4444 14.9641 31.6767 14.5824 31.8139 14.1632L32.2676 12.7751C32.3056 12.6684 32.3757 12.576 32.4683 12.5106C32.5609 12.4453 32.6715 12.4102 32.7848 12.4102C32.8981 12.4102 33.0087 12.4453 33.1013 12.5106C33.1939 12.576 33.264 12.6684 33.302 12.7751L33.7511 14.1632C33.8918 14.5854 34.1291 14.9688 34.4442 15.283C34.7593 15.5973 35.1433 15.8336 35.5659 15.9732Z" fill="#232533"/>
</svg>
