<svg width="24" height="24" viewBox="0 0 24 24" fill="none" xmlns="http://www.w3.org/2000/svg">
<path fill-rule="evenodd" clip-rule="evenodd" d="M5.98931 3.63476C7.564 2.96181 9.6896 2.56299 12 2.56299C14.3105 2.56299 16.4361 2.96181 18.0108 3.63476C18.7968 3.97068 19.4787 4.38901 19.9746 4.88998C20.4734 5.39397 20.8182 6.02022 20.8182 6.74086V17.822C20.8182 18.5425 20.4733 19.1686 19.9746 19.6725C19.4788 20.1734 18.7969 20.5918 18.0109 20.9277C17.2543 21.2512 16.3704 21.5113 15.4 21.6943V20.2365C16.1711 20.0758 16.8628 19.8633 17.4489 19.6128C18.1292 19.322 18.634 18.9941 18.9582 18.6665C19.2795 18.3419 19.3882 18.0573 19.3882 17.822V14.8782C18.988 15.166 18.5214 15.419 18.0109 15.6372C17.2543 15.9606 16.3704 16.2207 15.4 16.4038V14.9459C16.1711 14.7853 16.8628 14.5727 17.4489 14.3223C18.1292 14.0315 18.634 13.7036 18.9582 13.376C19.2795 13.0514 19.3882 12.7667 19.3882 12.5315V9.08804C18.9879 9.37582 18.5213 9.62877 18.0108 9.84695C16.4361 10.5199 14.3105 10.9187 12 10.9187C9.6896 10.9187 7.564 10.5199 5.98931 9.84695C5.47876 9.62877 5.01216 9.37582 4.61193 9.08804V10H3.18193V6.74086C3.18193 6.02023 3.52672 5.39397 4.02553 4.88998C4.52136 4.38901 5.20326 3.97068 5.98931 3.63476ZM5.0419 5.89592C4.72063 6.22051 4.61193 6.50525 4.61193 6.74086C4.61193 6.97646 4.72063 7.2612 5.0419 7.58579C5.36615 7.91341 5.87092 8.24125 6.55125 8.53199C7.90931 9.11236 9.83526 9.48872 12 9.48872C14.1648 9.48872 16.0908 9.11236 17.4488 8.53199C18.1292 8.24125 18.6339 7.91341 18.9582 7.58579C19.2794 7.2612 19.3882 6.97646 19.3882 6.74086C19.3882 6.50525 19.2794 6.22051 18.9582 5.89592C18.6339 5.5683 18.1292 5.24046 17.4488 4.94972C16.0908 4.36935 14.1648 3.99299 12 3.99299C9.83526 3.99299 7.90931 4.36935 6.55125 4.94972C5.87092 5.24046 5.36615 5.5683 5.0419 5.89592Z" fill="#232533"/>
<path d="M16.9432 13.1231C17.3835 13.1231 17.7405 12.7463 17.7405 12.2815C17.7405 11.8167 17.3835 11.4398 16.9432 11.4398C16.5028 11.4398 16.1459 11.8167 16.1459 12.2815C16.1459 12.7463 16.5028 13.1231 16.9432 13.1231Z" fill="#232533"/>
<path d="M16.9432 18.6231C17.3835 18.6231 17.7405 18.2463 17.7405 17.7815C17.7405 17.3167 17.3835 16.9398 16.9432 16.9398C16.5028 16.9398 16.1459 17.3167 16.1459 17.7815C16.1459 18.2463 16.5028 18.6231 16.9432 18.6231Z" fill="#232533"/>
<path fill-rule="evenodd" clip-rule="evenodd" d="M2.50005 12.0925C1.83731 12.0925 1.30005 12.6297 1.30005 13.2925V15.2925C1.30005 15.9552 1.83731 16.4925 2.50005 16.4925H4.50005C5.16279 16.4925 5.70005 15.9552 5.70005 15.2925V13.2925C5.70005 12.6297 5.16279 12.0925 4.50005 12.0925H2.50005ZM2.70005 15.0925V13.4925H4.30005V15.0925H2.70005Z" fill="#232533"/>
<path d="M8.91225 12.9876C9.1663 12.6962 9.13603 12.2541 8.84463 12C8.55323 11.7459 8.11105 11.7762 7.85699 12.0676L6.47238 13.6558C6.24255 13.9194 6.24255 14.3122 6.47238 14.5758L7.85699 16.1639C8.11105 16.4553 8.55323 16.4856 8.84463 16.2315C9.13603 15.9775 9.1663 15.5353 8.91225 15.2439L8.53901 14.8158L11.1539 14.8159C11.4245 14.8159 11.707 14.9383 11.9317 15.1961C12.1591 15.4569 12.3 15.8288 12.3 16.2334V16.5275C12.3 16.9141 12.6134 17.2275 13 17.2275C13.3866 17.2275 13.7 16.9141 13.7 16.5275V16.2334C13.7 15.5148 13.452 14.8095 12.9869 14.276C12.5192 13.7396 11.8626 13.4159 11.1539 13.4159L8.53896 13.4158L8.91225 12.9876Z" fill="#232533"/>
<path d="M2.70005 18C2.70005 17.6134 2.38665 17.3 2.00005 17.3C1.61345 17.3 1.30005 17.6134 1.30005 18V18.2941C1.30005 19.0127 1.54807 19.718 2.01315 20.2514C2.48088 20.7879 3.13753 21.1116 3.8462 21.1116L6.46114 21.1117L6.08785 21.5398C5.83379 21.8312 5.86407 22.2734 6.15547 22.5275C6.44687 22.7815 6.88905 22.7513 7.14311 22.4599L8.52772 20.8717C8.75755 20.6081 8.75755 20.2153 8.52772 19.9517L7.14311 18.3636C6.88905 18.0722 6.44687 18.0419 6.15547 18.2959C5.86407 18.55 5.83379 18.9922 6.08785 19.2836L6.46108 19.7117L3.8462 19.7116C3.57562 19.7116 3.29311 19.5891 3.0684 19.3314C2.84103 19.0706 2.70005 18.6987 2.70005 18.2941V18Z" fill="#232533"/>
<path fill-rule="evenodd" clip-rule="evenodd" d="M11.5 18.3C10.9166 18.3 10.357 18.5318 9.94441 18.9444C9.53183 19.3569 9.30005 19.9165 9.30005 20.5C9.30005 21.0835 9.53183 21.6431 9.94441 22.0556C10.357 22.4682 10.9166 22.7 11.5 22.7C12.0835 22.7 12.6431 22.4682 13.0557 22.0556C13.4683 21.6431 13.7 21.0835 13.7 20.5C13.7 19.9165 13.4683 19.3569 13.0557 18.9444C12.6431 18.5318 12.0835 18.3 11.5 18.3ZM10.9344 19.9343C11.0844 19.7843 11.2879 19.7 11.5 19.7C11.7122 19.7 11.9157 19.7843 12.0657 19.9343C12.2158 20.0843 12.3 20.2878 12.3 20.5C12.3 20.7122 12.2158 20.9157 12.0657 21.0657C11.9157 21.2157 11.7122 21.3 11.5 21.3C11.2879 21.3 11.0844 21.2157 10.9344 21.0657C10.7843 20.9157 10.7 20.7122 10.7 20.5C10.7 20.2878 10.7843 20.0843 10.9344 19.9343Z" fill="#232533"/>
</svg>
