<svg width="16" height="16" viewBox="0 0 16 16" fill="none" xmlns="http://www.w3.org/2000/svg">
<path d="M8 1C4.14015 1 1 4.14015 1 8C1 11.8598 4.14015 15 8 15C11.8598 15 15 11.8598 15 8C15 4.14015 11.8598 1 8 1ZM8 13.9231C4.734 13.9231 2.07692 11.266 2.07692 8C2.07692 4.734 4.734 2.07692 8 2.07692C11.266 2.07692 13.9231 4.734 13.9231 8C13.9231 11.266 11.266 13.9231 8 13.9231Z" fill="#898995"/>
<path d="M7.46143 3.20508H8.53835V7.77062L11.0142 10.1502L10.2677 10.9266L7.46143 8.22908V3.20508Z" fill="#383B4C"/>
</svg>
