<svg width="32" height="32" viewBox="0 0 32 32" fill="none" xmlns="http://www.w3.org/2000/svg">
<path d="M29.438 16.572L21.453 8.586C21.0778 8.211 20.569 8.00034 20.0385 8.00034C19.508 8.00034 18.9992 8.211 18.624 8.586L13.266 13.944L9 2H7L2 16H4L4.999 13H10.999L11.802 15.408L4.586 22.624C4.4002 22.8097 4.25281 23.0302 4.15225 23.2729C4.05169 23.5156 3.99993 23.7758 3.99993 24.0385C3.99993 24.3012 4.05169 24.5613 4.15225 24.8041C4.25281 25.0468 4.4002 25.2673 4.586 25.453L9.132 30H18.722L29.438 19.283C29.6162 19.105 29.7575 18.8936 29.8539 18.6609C29.9503 18.4282 30 18.1789 30 17.927C30 17.6751 29.9503 17.4258 29.8539 17.1931C29.7575 16.9604 29.6162 16.749 29.438 16.571V16.572ZM5.665 11L7.996 4L10.332 11H5.665ZM17.895 28H9.96L6 24.038L12.312 17.727L20.24 25.654L17.895 28ZM21.655 24.24L13.727 16.313L20.039 10L27.966 17.927L21.655 24.24Z" fill="#232533"/>
</svg>
