<svg width="24" height="24" viewBox="0 0 24 24" fill="none" xmlns="http://www.w3.org/2000/svg">
<path d="M2.688 3.7515L3.7485 2.691L6.3105 5.2515L5.25 6.31275L2.688 3.7515ZM17.6857 18.744L18.747 17.6835L21.3075 20.2455L20.247 21.306L17.6857 18.744ZM8.25 1.5H9.75V4.5H8.25V1.5ZM1.5 8.25H4.5V9.75H1.5V8.25ZM19.5 14.25H22.5V15.75H19.5V14.25ZM14.25 19.5H15.75V22.5H14.25V19.5ZM12.435 15.8025L9.6525 18.5925C9.37377 18.8712 9.04287 19.0923 8.67869 19.2432C8.31451 19.394 7.92418 19.4717 7.53 19.4717C7.13582 19.4717 6.74549 19.394 6.38131 19.2432C6.01713 19.0923 5.68623 18.8712 5.4075 18.5925C4.84458 18.0296 4.52833 17.2661 4.52833 16.47C4.52833 15.6739 4.84458 14.9104 5.4075 14.3475L8.1975 11.5575L7.1325 10.5L4.35 13.29C3.923 13.7056 3.58279 14.2019 3.34912 14.75C3.11545 15.2982 2.99297 15.8872 2.98878 16.4831C2.98459 17.0789 3.09879 17.6697 3.32474 18.2211C3.55068 18.7724 3.88388 19.2734 4.305 19.695C4.72548 20.1121 5.22415 20.442 5.77242 20.666C6.32069 20.8899 6.90777 21.0034 7.5 21C8.10252 21.0006 8.69916 20.8815 9.25534 20.6498C9.81151 20.4181 10.3162 20.0782 10.74 19.65L13.5 16.8675L12.435 15.8025ZM11.5575 8.1975L14.3475 5.4075C14.6262 5.12877 14.9571 4.90767 15.3213 4.75682C15.6855 4.60597 16.0758 4.52833 16.47 4.52833C16.8642 4.52833 17.2545 4.60597 17.6187 4.75682C17.9829 4.90767 18.3138 5.12877 18.5925 5.4075C18.8712 5.68623 19.0923 6.01713 19.2432 6.38131C19.394 6.74549 19.4717 7.13582 19.4717 7.53C19.4717 7.92418 19.394 8.31451 19.2432 8.67869C19.0923 9.04287 18.8712 9.37377 18.5925 9.6525L15.8025 12.4425L16.8675 13.5L19.65 10.71C20.077 10.2944 20.4172 9.79812 20.6509 9.24998C20.8846 8.70185 21.007 8.11276 21.0112 7.51691C21.0154 6.92105 20.9012 6.3303 20.6753 5.77894C20.4493 5.22757 20.1161 4.72657 19.695 4.305C19.2745 3.88793 18.7758 3.55797 18.2276 3.33403C17.6793 3.11009 17.0922 2.99658 16.5 3C15.8975 2.99942 15.3008 3.11845 14.7447 3.35019C14.1885 3.58193 13.6838 3.92177 13.26 4.35L10.5 7.1325L11.5575 8.1975Z" fill="#232533"/>
</svg>
