<svg width="24" height="24" viewBox="0 0 24 24" fill="none" xmlns="http://www.w3.org/2000/svg">
<g clip-path="url(#clip0_37023_105694)">
<path fill-rule="evenodd" clip-rule="evenodd" d="M23.0532 4.86771C22.2197 4.69672 20.4331 6.67324 20.8538 7.57078C21.1022 8.10055 21.7329 8.32871 22.2627 8.08038C22.5901 7.92691 22.9571 7.71834 23.2647 7.38004C23.5862 7.0264 23.7787 6.60319 23.8781 6.11837C23.9957 5.54522 23.6264 4.98528 23.0532 4.86771Z" fill="#FFD467"/>
<path d="M5.41429 1.26139L6.57083 4.70616C4.83343 5.72562 3.59802 7.97266 3.23618 9.81032L0.818546 10.1128C0.351105 10.1712 0.000113681 10.5686 0.000488581 11.0397C0.0017806 12.6632 0.012782 14.115 0.0880425 15.8011C0.107218 16.2307 0.421405 16.5866 0.848514 16.6366C1.65017 16.7304 2.69501 16.8109 3.23618 16.8689C4.19307 17.7847 5.33394 19.2163 6.18446 19.9947V22.1284C6.18446 22.3725 6.28141 22.6065 6.45399 22.7791C6.62656 22.9517 6.86063 23.0486 7.10468 23.0486H10.9827C11.2268 23.0486 11.4608 22.9517 11.6334 22.7791C11.806 22.6065 11.9029 22.3725 11.9029 22.1284V19.9947H17.0247V21.9849C17.0247 22.2289 17.1216 22.463 17.2942 22.6356C17.4668 22.8081 17.7008 22.9051 17.9449 22.9051H21.5815C21.8256 22.9051 22.0597 22.8081 22.2322 22.6356C22.4048 22.463 22.5018 22.2289 22.5018 21.9849V18.4045C22.5018 18.318 22.6711 17.8469 22.8901 17.4408C23.5306 15.3095 24.5962 11.7096 23.0649 8.31952C21.7821 5.47971 19.2236 2.90683 12.5207 3.28228C11.2462 0.811231 7.31179 0.482884 6.01244 0.539938C5.64251 0.558342 5.41429 0.889623 5.41429 1.26139Z" fill="url(#paint0_linear_37023_105694)"/>
<ellipse cx="7.19032" cy="8.93576" rx="1.03456" ry="1.51111" transform="rotate(0.700976 7.19032 8.93576)" fill="#D38A2E"/>
<path d="M14.7775 6.9513C14.7831 6.488 14.4122 6.10783 13.9489 6.10216C13.4856 6.09649 13.1054 6.46748 13.0997 6.93078L13.0902 7.7135C13.0888 7.8238 13.0138 7.9186 12.9096 7.9547C12.5964 8.06316 12.3035 8.23148 12.0468 8.45296C10.8429 9.49197 10.8296 11.2177 12.0042 12.2826C12.5289 12.7583 13.2084 12.9568 13.925 12.9655C14.4374 12.9718 14.9765 13.2701 14.9691 13.8765C14.9594 14.6727 13.4237 15.0263 12.8553 14.298C12.5703 13.9328 12.0431 13.8678 11.6778 14.1528C11.3126 14.4379 11.2476 14.9651 11.5326 15.3304C11.8087 15.6841 12.161 15.9701 12.5649 16.1631C12.6444 16.2012 12.7254 16.2354 12.8077 16.2656C12.9113 16.3037 12.9839 16.4004 12.9825 16.5107L12.972 17.3743C12.9663 17.8376 13.3373 18.2178 13.8006 18.2235C14.2639 18.2291 14.644 17.8582 14.6497 17.3949L14.6602 16.5371C14.6616 16.4272 14.736 16.3326 14.8398 16.2963C15.1517 16.187 15.4435 16.0187 15.6994 15.7979C16.2342 15.3364 16.5698 14.6833 16.6488 13.9807C16.7302 13.2571 16.2607 12.4401 15.7462 11.9736C15.2214 11.4978 14.574 11.2998 13.8254 11.2906C13.5789 11.3053 13.3299 11.2197 13.1311 11.0395C12.7059 10.654 12.707 10.0995 13.1431 9.72322C13.3452 9.54877 13.5953 9.47098 13.8397 9.49378C13.8801 9.49755 13.9207 9.49838 13.9613 9.49627C14.1371 9.48711 14.3136 9.51892 14.4788 9.59087C14.6442 9.6629 14.796 9.77425 14.9215 9.91999C15.2238 10.2711 15.7535 10.3106 16.1046 10.0083C16.4557 9.70592 16.4952 9.1762 16.1929 8.82511C15.9064 8.49238 15.5504 8.22747 15.1488 8.05256C15.0824 8.02368 15.0152 7.99739 14.9472 7.97373C14.8414 7.93694 14.7666 7.83919 14.768 7.7272L14.7775 6.9513Z" fill="#D38A2E"/>
</g>
<defs>
<linearGradient id="paint0_linear_37023_105694" x1="11.9255" y1="0.533691" x2="11.9255" y2="23.0482" gradientUnits="userSpaceOnUse">
<stop offset="0.415" stop-color="#FFD466"/>
<stop offset="0.84" stop-color="#FFB126"/>
</linearGradient>
<clipPath id="clip0_37023_105694">
<rect width="24" height="24" fill="white"/>
</clipPath>
</defs>
</svg>
