<svg width="16" height="16" viewBox="0 0 16 16" fill="none" xmlns="http://www.w3.org/2000/svg">
<path d="M10.3529 6.57143C11.9153 6.57143 13.1671 5.32714 13.1671 3.78571C13.1671 2.24429 11.9153 1 10.3529 1C10.0518 1 9.76 1.04643 9.49647 1.13C10.0329 1.88214 10.3435 2.79214 10.3435 3.78571C10.3435 4.77929 10.0235 5.68 9.49647 6.44143C9.76 6.525 10.0518 6.57143 10.3529 6.57143ZM5.64706 6.57143C7.20941 6.57143 8.46118 5.32714 8.46118 3.78571C8.46118 2.24429 7.20941 1 5.64706 1C4.08471 1 2.82353 2.24429 2.82353 3.78571C2.82353 5.32714 4.08471 6.57143 5.64706 6.57143ZM11.8776 8.57714C12.6588 9.255 13.1765 10.1186 13.1765 11.2143V15H15C15.5523 15 16 14.5523 16 14V11.2143C16 9.78429 13.7694 8.90214 11.8776 8.57714ZM5.64706 8.42857C3.76471 8.42857 0 9.35714 0 11.2143V14C0 14.5523 0.447715 15 1 15H11.2941V11.2143C11.2941 9.35714 7.52941 8.42857 5.64706 8.42857Z" fill="#222532"/>
</svg>
