<svg width="16" height="16" viewBox="0 0 16 16" fill="none" xmlns="http://www.w3.org/2000/svg">
<path fill-rule="evenodd" clip-rule="evenodd" d="M13.8319 14.5C14.7279 14.5 15.2911 13.4846 14.8424 12.6722L9.01056 2.10899C8.56251 1.29774 7.4383 1.29627 6.98945 2.10899L1.15743 12.6722C0.709677 13.483 1.27021 14.5 2.16799 14.5H13.8319ZM6.88086 11.6188C6.88086 10.9732 7.38187 10.4498 7.9999 10.4498C8.61792 10.4498 9.11894 10.9732 9.11894 11.6188C9.11894 12.2644 8.61792 12.7878 7.9999 12.7878C7.38187 12.7878 6.88086 12.2644 6.88086 11.6188ZM7.11793 9.70401L6.93747 6.24785C6.92835 6.07316 7.06146 5.92627 7.22893 5.92627H8.77084C8.93831 5.92627 9.07145 6.07316 9.06233 6.24785L8.88187 9.70401C8.87343 9.86574 8.74542 9.99235 8.59039 9.99235H7.40941C7.25437 9.99235 7.12637 9.86574 7.11793 9.70401Z" fill="#FFCE02"/>
</svg>
