<svg width="48" height="48" viewBox="0 0 48 48" fill="none" xmlns="http://www.w3.org/2000/svg">
<path d="M20.2757 41.6417C16.7046 46.7594 9.73363 48.045 4.69496 44.4849C-0.319262 40.9248 -1.49332 33.8292 2.02886 28.6621C3.01386 27.2166 4.31749 26.022 5.83703 25.1726C7.35657 24.3231 9.05051 23.8419 10.7854 23.7669L10.9077 27.3023C8.68187 27.4753 6.52942 28.6373 5.13523 30.6646C2.68927 34.2248 3.44752 39.0211 6.79848 41.4192C10.1739 43.7927 14.8946 42.8779 17.3406 39.3425C18.0988 38.2299 18.5391 37.0185 18.7103 35.7823V33.2853L32.3588 33.1864L32.53 32.9144C33.8263 30.6399 36.6392 29.8488 38.8405 31.1344C39.3674 31.446 39.8284 31.8595 40.1971 32.3512C40.5658 32.8429 40.8351 33.4032 40.9896 34.0001C41.144 34.597 41.1806 35.2189 41.0973 35.8301C41.0139 36.4413 40.8123 37.03 40.5038 37.5624C39.2074 39.8122 36.3701 40.6034 34.1688 39.3178C33.1659 38.7491 32.4566 37.8344 32.1386 36.796L22.1836 36.8454C21.892 38.5631 21.2416 40.1982 20.2757 41.6417V41.6417ZM38.0823 23.9894C44.2706 24.7558 48.6733 30.368 47.9151 36.524C47.1568 42.7048 41.5311 47.0808 35.3428 46.3144C33.6244 46.1121 31.9746 45.5144 30.5203 44.5673C29.0659 43.6201 27.8457 42.3487 26.9532 40.8506L29.9862 39.0705C30.6136 40.0525 31.4473 40.8828 32.4281 41.5024C33.4088 42.122 34.5126 42.5156 35.6608 42.6554C39.9412 43.1746 43.7325 40.2325 44.2461 36.1037C44.7598 31.975 41.7268 28.1923 37.4953 27.6731C36.1745 27.5248 34.9026 27.6978 33.753 28.1181L31.6739 29.206L25.3633 17.413H24.8252C23.5938 17.3768 22.4267 16.8493 21.5788 15.946C20.7309 15.0427 20.2712 13.8368 20.3002 12.592C20.3736 10.0208 22.5749 8.01818 25.1432 8.11707C27.7114 8.26541 29.7416 10.3669 29.6682 12.9381C29.6193 14.0259 29.2035 15.0148 28.5431 15.7813L33.1904 24.4591C34.7069 23.9646 36.3701 23.7916 38.0823 23.9894V23.9894ZM14.8701 17.2647C12.4242 11.4547 15.0169 4.80416 20.6671 2.38129C26.3417 -0.0415842 32.8969 2.70269 35.3428 8.51264C36.7859 11.8997 36.4924 15.6082 34.8536 18.575L31.8206 16.7949C32.8479 14.7923 33.0192 12.3447 32.0408 10.0455C30.3775 6.08977 25.9503 4.18608 22.1591 5.79309C18.3434 7.42482 16.6312 11.9739 18.2945 15.9296C18.9794 17.5613 20.129 18.8222 21.5232 19.6628L22.4771 20.182L14.968 32.5189C15.0414 32.6425 15.1392 32.7908 15.2126 32.9886C16.4111 35.2384 15.5795 38.0816 13.3292 39.293C11.1034 40.5045 8.29052 39.6144 7.06754 37.2904C5.86902 34.9912 6.70064 32.148 8.95092 30.9366C9.90485 30.4174 10.9566 30.2938 11.9595 30.5163L17.6096 21.1956C16.46 20.1325 15.4816 18.7975 14.8701 17.2647V17.2647Z" fill="#CED0D6"/>
</svg>
