<svg width="24" height="24" viewBox="0 0 24 24" fill="none" xmlns="http://www.w3.org/2000/svg">
<path d="M8.75035 5.72902C8.57595 5.66188 8.38015 5.74883 8.31301 5.92322C8.24587 6.09762 8.33282 6.29342 8.50722 6.36056L8.62036 6.40411C8.79475 6.47125 8.99055 6.3843 9.05769 6.20991C9.12483 6.03551 9.03788 5.83971 8.86348 5.77257L8.75035 5.72902Z" fill="#232533"/>
<path d="M15.5386 6.36056C15.713 6.29342 15.7999 6.09762 15.7328 5.92322C15.6656 5.74883 15.4698 5.66188 15.2954 5.72902L15.1823 5.77257C15.0079 5.83971 14.921 6.03551 14.9881 6.20991C15.0552 6.3843 15.251 6.47125 15.4254 6.40411L15.5386 6.36056Z" fill="#232533"/>
<path d="M9.33124 6.31522C9.39838 6.14082 9.59418 6.05387 9.76858 6.12101L9.99485 6.20812C10.1692 6.27526 10.2562 6.47106 10.1891 6.64546C10.1219 6.81985 9.92612 6.9068 9.75172 6.83966L9.52545 6.75255C9.35106 6.68542 9.26411 6.48961 9.33124 6.31522Z" fill="#232533"/>
<path d="M14.5203 6.75255C14.6947 6.68542 14.7817 6.48961 14.7145 6.31522C14.6474 6.14082 14.4516 6.05387 14.2772 6.12101L14.0509 6.20812C13.8765 6.27526 13.7896 6.47106 13.8567 6.64546C13.9239 6.81985 14.1197 6.9068 14.2941 6.83966L14.5203 6.75255Z" fill="#232533"/>
<path d="M10.4626 6.75077C10.5298 6.57637 10.7256 6.48942 10.8999 6.55656L11.1262 6.64367C11.3006 6.71081 11.3876 6.90661 11.3204 7.08101C11.2533 7.2554 11.0575 7.34235 10.8831 7.27521L10.6568 7.1881C10.4824 7.12097 10.3955 6.92516 10.4626 6.75077Z" fill="#232533"/>
<path d="M13.389 7.1881C13.5634 7.12097 13.6503 6.92516 13.5832 6.75077C13.516 6.57637 13.3202 6.48942 13.1458 6.55656L12.9196 6.64367C12.7452 6.71081 12.6582 6.90661 12.7254 7.08101C12.7925 7.2554 12.9883 7.34235 13.1627 7.27521L13.389 7.1881Z" fill="#232533"/>
<path d="M12.0229 6.98899C11.8507 6.92779 11.66 7.01473 11.594 7.18632C11.5268 7.36071 11.6138 7.55652 11.7882 7.62365L11.9013 7.66721C11.9796 7.69733 12.0662 7.69733 12.1445 7.66721L12.2576 7.62365C12.432 7.55652 12.5189 7.36071 12.4518 7.18632C12.3857 7.01473 12.1951 6.92779 12.0229 6.98899Z" fill="#232533"/>
<path d="M12.3613 8.34102C12.3613 8.15414 12.2098 8.00265 12.0229 8.00265C11.836 8.00265 11.6845 8.15414 11.6845 8.34102V8.45384C11.6845 8.64071 11.836 8.7922 12.0229 8.7922C12.2098 8.7922 12.3613 8.64071 12.3613 8.45384V8.34102Z" fill="#232533"/>
<path d="M12.0229 9.01806C12.2098 9.01806 12.3613 9.16955 12.3613 9.35643V9.58207C12.3613 9.76895 12.2098 9.92044 12.0229 9.92044C11.836 9.92044 11.6845 9.76895 11.6845 9.58207V9.35643C11.6845 9.16955 11.836 9.01806 12.0229 9.01806Z" fill="#232533"/>
<path d="M12.3613 10.4847C12.3613 10.2978 12.2098 10.1463 12.0229 10.1463C11.836 10.1463 11.6845 10.2978 11.6845 10.4847V10.7103C11.6845 10.8972 11.836 11.0487 12.0229 11.0487C12.2098 11.0487 12.3613 10.8972 12.3613 10.7103V10.4847Z" fill="#232533"/>
<path d="M4.3102 13.3404C4.13581 13.2733 3.94001 13.3602 3.87287 13.5346C3.80573 13.709 3.89268 13.9048 4.06707 13.972L4.18021 14.0155C4.35461 14.0827 4.55041 13.9957 4.61755 13.8213C4.68469 13.6469 4.59774 13.4511 4.42334 13.384L4.3102 13.3404Z" fill="#232533"/>
<path d="M11.0984 13.972C11.2728 13.9048 11.3598 13.709 11.2926 13.5346C11.2255 13.3602 11.0297 13.2733 10.8553 13.3404L10.7422 13.384C10.5678 13.4511 10.4808 13.6469 10.5479 13.8213C10.6151 13.9957 10.8109 14.0827 10.9853 14.0155L11.0984 13.972Z" fill="#232533"/>
<path d="M4.8911 13.9266C4.95824 13.7522 5.15404 13.6653 5.32844 13.7324L5.55471 13.8195C5.72911 13.8867 5.81606 14.0825 5.74892 14.2569C5.68178 14.4313 5.48598 14.5182 5.31158 14.4511L5.08531 14.364C4.91091 14.2968 4.82396 14.101 4.8911 13.9266Z" fill="#232533"/>
<path d="M10.0802 14.364C10.2546 14.2968 10.3415 14.101 10.2744 13.9266C10.2073 13.7522 10.0115 13.6653 9.83706 13.7324L9.61079 13.8195C9.43639 13.8867 9.34944 14.0825 9.41658 14.2569C9.48372 14.4313 9.67952 14.5182 9.85392 14.4511L10.0802 14.364Z" fill="#232533"/>
<path d="M6.02247 14.3622C6.08961 14.1878 6.28541 14.1008 6.45981 14.168L6.68608 14.2551C6.86048 14.3222 6.94742 14.518 6.88029 14.6924C6.81315 14.8668 6.61735 14.9538 6.44295 14.8866L6.21668 14.7995C6.04228 14.7324 5.95533 14.5366 6.02247 14.3622Z" fill="#232533"/>
<path d="M8.94882 14.7995C9.12322 14.7324 9.21016 14.5366 9.14303 14.3622C9.07589 14.1878 8.88009 14.1008 8.70569 14.168L8.47942 14.2551C8.30502 14.3222 8.21807 14.518 8.28521 14.6924C8.35235 14.8668 8.54815 14.9538 8.72255 14.8866L8.94882 14.7995Z" fill="#232533"/>
<path d="M7.58275 14.6004C7.41052 14.5392 7.2199 14.6261 7.15384 14.7977C7.0867 14.9721 7.17365 15.1679 7.34805 15.2351L7.46118 15.2786C7.53943 15.3087 7.62607 15.3087 7.70431 15.2786L7.81745 15.2351C7.99185 15.1679 8.07879 14.9721 8.01166 14.7977C7.9456 14.6261 7.75498 14.5392 7.58275 14.6004Z" fill="#232533"/>
<path d="M7.92111 15.9524C7.92111 15.7655 7.76962 15.6141 7.58275 15.6141C7.39587 15.6141 7.24438 15.7655 7.24438 15.9524V16.0652C7.24438 16.2521 7.39587 16.4036 7.58275 16.4036C7.76962 16.4036 7.92111 16.2521 7.92111 16.0652V15.9524Z" fill="#232533"/>
<path d="M7.58275 16.6295C7.76962 16.6295 7.92111 16.781 7.92111 16.9678V17.1935C7.92111 17.3803 7.76962 17.5318 7.58275 17.5318C7.39587 17.5318 7.24438 17.3803 7.24438 17.1935V16.9678C7.24438 16.781 7.39587 16.6295 7.58275 16.6295Z" fill="#232533"/>
<path d="M7.92111 18.0961C7.92111 17.9092 7.76962 17.7577 7.58275 17.7577C7.39587 17.7577 7.24438 17.9092 7.24438 18.0961V18.3217C7.24438 18.5086 7.39587 18.6601 7.58275 18.6601C7.76962 18.6601 7.92111 18.5086 7.92111 18.3217V18.0961Z" fill="#232533"/>
<path d="M7.58275 18.8859C7.76962 18.8859 7.92111 19.0374 7.92111 19.2243V19.3371C7.92111 19.524 7.76962 19.6755 7.58275 19.6755C7.39587 19.6755 7.24438 19.524 7.24438 19.3371V19.2243C7.24438 19.0374 7.39587 18.8859 7.58275 18.8859Z" fill="#232533"/>
<path d="M20.1724 13.5346C20.2396 13.709 20.1526 13.9048 19.9782 13.972L19.8651 14.0155C19.6907 14.0827 19.4949 13.9957 19.4278 13.8213C19.3606 13.6469 19.4476 13.4511 19.622 13.384L19.7351 13.3404C19.9095 13.2733 20.1053 13.3602 20.1724 13.5346Z" fill="#232533"/>
<path d="M14.2082 13.7324C14.0338 13.6653 13.838 13.7522 13.7709 13.9266C13.7038 14.101 13.7907 14.2968 13.9651 14.364L14.1914 14.4511C14.3658 14.5182 14.5616 14.4313 14.6287 14.2569C14.6959 14.0825 14.6089 13.8867 14.4345 13.8195L14.2082 13.7324Z" fill="#232533"/>
<path d="M19.1542 13.9266C19.2213 14.101 19.1344 14.2968 18.96 14.364L18.7337 14.4511C18.5593 14.5182 18.3635 14.4313 18.2964 14.2569C18.2292 14.0825 18.3162 13.8867 18.4906 13.8195L18.7169 13.7324C18.8913 13.6653 19.0871 13.7522 19.1542 13.9266Z" fill="#232533"/>
<path d="M15.3396 14.168C15.1652 14.1008 14.9694 14.1878 14.9023 14.3622C14.8351 14.5366 14.9221 14.7324 15.0965 14.7995L15.3228 14.8866C15.4972 14.9538 15.693 14.8668 15.7601 14.6924C15.8272 14.518 15.7403 14.3222 15.5659 14.2551L15.3396 14.168Z" fill="#232533"/>
<path d="M18.0228 14.3622C18.09 14.5366 18.003 14.7324 17.8286 14.7995L17.6024 14.8866C17.428 14.9538 17.2322 14.8668 17.165 14.6924C17.0979 14.518 17.1848 14.3222 17.3592 14.2551L17.5855 14.168C17.7599 14.1008 17.9557 14.1878 18.0228 14.3622Z" fill="#232533"/>
<path d="M16.0336 14.7977C16.0997 14.6261 16.2903 14.5392 16.4626 14.6004C16.6348 14.5392 16.8254 14.6261 16.8915 14.7977C16.9586 14.9721 16.8717 15.1679 16.6973 15.2351L16.5841 15.2786C16.5059 15.3087 16.4192 15.3087 16.341 15.2786L16.2279 15.2351C16.0535 15.1679 15.9665 14.9721 16.0336 14.7977Z" fill="#232533"/>
<path d="M16.4626 15.6141C16.6494 15.6141 16.8009 15.7655 16.8009 15.9524V16.0652C16.8009 16.2521 16.6494 16.4036 16.4626 16.4036C16.2757 16.4036 16.1242 16.2521 16.1242 16.0652V15.9524C16.1242 15.7655 16.2757 15.6141 16.4626 15.6141Z" fill="#232533"/>
<path d="M16.8009 16.9678C16.8009 16.781 16.6494 16.6295 16.4626 16.6295C16.2757 16.6295 16.1242 16.781 16.1242 16.9678V17.1935C16.1242 17.3803 16.2757 17.5318 16.4626 17.5318C16.6494 17.5318 16.8009 17.3803 16.8009 17.1935V16.9678Z" fill="#232533"/>
<path d="M16.4626 17.7577C16.6494 17.7577 16.8009 17.9092 16.8009 18.0961V18.3217C16.8009 18.5086 16.6494 18.6601 16.4626 18.6601C16.2757 18.6601 16.1242 18.5086 16.1242 18.3217V18.0961C16.1242 17.9092 16.2757 17.7577 16.4626 17.7577Z" fill="#232533"/>
<path d="M16.8009 19.2243C16.8009 19.0374 16.6494 18.8859 16.4626 18.8859C16.2757 18.8859 16.1242 19.0374 16.1242 19.2243V19.3371C16.1242 19.524 16.2757 19.6755 16.4626 19.6755C16.6494 19.6755 16.8009 19.524 16.8009 19.3371V19.2243Z" fill="#232533"/>
<path fill-rule="evenodd" clip-rule="evenodd" d="M12.33 2.50763C12.1591 2.44018 11.969 2.43966 11.7978 2.50618L7.01037 4.36531C6.72961 4.47434 6.54463 4.74461 6.54463 5.0458V10.3729L2.50929 11.9243C2.22733 12.0327 2.04126 12.3036 2.04126 12.6057V18.9802C2.04126 19.2814 2.22624 19.5516 2.50701 19.6607L7.22771 21.4939C7.4003 21.5609 7.5919 21.5598 7.76374 21.4909L12.06 19.7675L16.2906 21.4895C16.4687 21.562 16.6682 21.5613 16.8458 21.4876L21.5086 19.5518C21.7811 19.4386 21.9587 19.1726 21.9587 18.8776L21.9587 12.6057C21.9587 12.3046 21.7738 12.0343 21.4931 11.9253L17.5029 10.3748V5.0458C17.5029 4.74607 17.3197 4.4768 17.0409 4.36677L12.33 2.50763ZM15.923 5.49518L12.023 4.01969L8.00463 5.56678V10.4019L11.8069 11.9862C11.7321 11.9241 11.6845 11.8305 11.6845 11.7257V11.6129C11.6845 11.426 11.836 11.2745 12.0229 11.2745C12.2098 11.2745 12.3613 11.426 12.3613 11.6129V11.7257C12.3613 11.8366 12.3079 11.9351 12.2254 11.9968L16.0429 10.4432V5.5425L15.923 5.49518ZM3.55028 13.1836L7.3624 11.716L11.3513 13.378V18.4787L7.48762 20.0286L3.55028 18.4996L3.55028 13.1836ZM12.8113 18.497L16.5631 20.0241L20.495 18.3917L20.4951 13.1567L16.7397 11.7359L12.8113 13.3346V13.4361C12.9019 13.3303 13.0526 13.2875 13.19 13.3404L13.3031 13.384C13.4775 13.4511 13.5645 13.6469 13.4974 13.8213C13.4302 13.9957 13.2344 14.0827 13.06 14.0155L12.9469 13.972C12.8925 13.951 12.8467 13.9176 12.8113 13.8762V18.497ZM12.0266 12.0777L11.9901 12.0625C12.0009 12.0636 12.0118 12.0641 12.0229 12.0641C12.0379 12.0641 12.0527 12.0631 12.0672 12.0612L12.0266 12.0777Z" fill="#232533"/>
</svg>
