<svg width="16" height="16" viewBox="0 0 16 16" fill="none" xmlns="http://www.w3.org/2000/svg">
<path d="M6.05945 7.69525L6.33745 8.82172L6.72116 7.69525H6.05945Z" fill="#232533"/>
<path d="M7.96714 7.69525L7.52964 8.9815H8.47117L8.03367 7.69525H7.96714Z" fill="#232533"/>
<path d="M9.27963 7.69525L9.66244 8.82172L9.94134 7.69525H9.27963Z" fill="#232533"/>
<path fill-rule="evenodd" clip-rule="evenodd" d="M16 8C16 12.4183 12.4183 16 8 16C3.58172 16 0 12.4183 0 8C0 3.58172 3.58172 0 8 0C12.4183 0 16 3.58172 16 8ZM10.8318 8.9815H12.6666L12.6667 10.2677H10.5138L9.83842 13L8.90873 10.2677H7.09218L6.16249 13L5.4862 10.2677H3.33333V8.9815H5.1681L4.85 7.69525H3.33333V6.409H4.53189L3.93671 4.00634L5.06235 3.6677L5.74046 6.40895H7.15777L7.99996 3.93392L8.84216 6.40895H10.2595L10.9367 3.66667L12.0623 4.00531L11.468 6.409H12.6666V7.69525H11.1499L10.8318 8.9815Z" fill="#232533"/>
</svg>
