<svg width="16" height="16" viewBox="0 0 16 16" fill="none" xmlns="http://www.w3.org/2000/svg">
<path fill-rule="evenodd" clip-rule="evenodd" d="M16 8C16 12.4183 12.4183 16 8 16C3.58172 16 0 12.4183 0 8C0 3.58172 3.58172 0 8 0C12.4183 0 16 3.58172 16 8ZM11.3333 3.5332L9.67495 3.54442L8.04968 7.23761L6.35388 3.56721L4.66667 3.57878L7.04775 8.42724L5.55819 8.43285L5.56388 9.56481L7.30772 9.55727L7.31188 10.0665H5.56803L5.57358 11.1332H7.31742L7.32408 12.8665L8.75852 12.8565L8.752 11.1332H10.5054L10.4997 10.0665H8.74632L8.7423 9.54728L10.4956 9.53991L10.49 8.40813L8.99701 8.41374L11.3333 3.5332Z" fill="#232533"/>
</svg>
