<svg width="32" height="32" viewBox="0 0 32 32" fill="none" xmlns="http://www.w3.org/2000/svg">
<rect width="32" height="32" fill="url(#paint0_linear-510283)"/>
<ellipse opacity="0.9" cx="16.446" cy="16.4953" rx="7.62956" ry="7.62956" fill="url(#paint1_linear-353578)"/>
<g style="mix-blend-mode:multiply">
<path d="M12.2979 22.8994C12.4336 22.8474 12.5727 22.7912 12.715 22.7306C14.5801 21.9364 16.7192 20.5146 18.4048 18.8366C20.1696 16.9375 21.621 14.8358 22.4274 13.0627C22.5624 12.7657 22.6759 12.4856 22.7688 12.2236C23.0792 12.6822 23.341 13.1764 23.5469 13.6987C22.6599 15.6074 21.1362 17.7852 19.3277 19.728C17.6967 21.3561 15.6689 22.7596 13.7939 23.651C13.2651 23.4549 12.7639 23.2019 12.2979 22.8994Z" fill="#F8F8FD"/>
<path d="M12.2979 22.8994C12.4336 22.8474 12.5727 22.7912 12.715 22.7306C14.5801 21.9364 16.7192 20.5146 18.4048 18.8366C20.1696 16.9375 21.621 14.8358 22.4274 13.0627C22.5624 12.7657 22.6759 12.4856 22.7688 12.2236C23.0792 12.6822 23.341 13.1764 23.5469 13.6987C22.6599 15.6074 21.1362 17.7852 19.3277 19.728C17.6967 21.3561 15.6689 22.7596 13.7939 23.651C13.2651 23.4549 12.7639 23.2019 12.2979 22.8994Z" fill="url(#paint2_linear-440039)"/>
</g>
<path d="M18.2565 9.08145C20.5443 7.74981 22.5299 7.4055 23.6432 8.63666C25.2965 10.284 22.7943 15.2159 19.1109 19.1729C15.5115 22.7659 9.97932 25.2647 8.42255 23.581C7.41724 22.4937 7.76277 20.5785 9.04284 18.3468C9.18433 18.9143 9.38937 19.4567 9.64996 19.9659C9.30649 20.7245 9.14584 21.3455 9.12346 21.8174C9.10055 22.3005 9.22097 22.5549 9.36446 22.7101C9.36897 22.715 9.52692 22.8705 10.1567 22.8279C10.7554 22.7875 11.5584 22.5756 12.4982 22.1754C14.3633 21.3812 16.5024 19.9594 18.188 18.2815C19.9528 16.3823 21.4042 14.2806 22.2106 12.5076C22.6174 11.613 22.8282 10.8711 22.8716 10.3206C22.9156 9.76398 22.7809 9.58842 22.7378 9.54541L22.7141 9.52184L22.6917 9.49707C22.3726 9.14416 21.607 8.88694 19.8791 9.67951C19.3685 9.4218 18.8249 9.21979 18.2565 9.08145Z" fill="white"/>
<path d="M18.2565 9.08145C20.5443 7.74981 22.5299 7.4055 23.6432 8.63666C25.2965 10.284 22.7943 15.2159 19.1109 19.1729C15.5115 22.7659 9.97932 25.2647 8.42255 23.581C7.41724 22.4937 7.76277 20.5785 9.04284 18.3468C9.18433 18.9143 9.38937 19.4567 9.64996 19.9659C9.30649 20.7245 9.14584 21.3455 9.12346 21.8174C9.10055 22.3005 9.22097 22.5549 9.36446 22.7101C9.36897 22.715 9.52692 22.8705 10.1567 22.8279C10.7554 22.7875 11.5584 22.5756 12.4982 22.1754C14.3633 21.3812 16.5024 19.9594 18.188 18.2815C19.9528 16.3823 21.4042 14.2806 22.2106 12.5076C22.6174 11.613 22.8282 10.8711 22.8716 10.3206C22.9156 9.76398 22.7809 9.58842 22.7378 9.54541L22.7141 9.52184L22.6917 9.49707C22.3726 9.14416 21.607 8.88694 19.8791 9.67951C19.3685 9.4218 18.8249 9.21979 18.2565 9.08145Z" fill="url(#paint3_linear-126615)"/>
<path d="M18.2565 9.08145C20.5443 7.74981 22.5299 7.4055 23.6432 8.63666C25.2965 10.284 22.7943 15.2159 19.1109 19.1729C15.5115 22.7659 9.97932 25.2647 8.42255 23.581C7.41724 22.4937 7.76277 20.5785 9.04284 18.3468C9.18433 18.9143 9.38937 19.4567 9.64996 19.9659C9.30649 20.7245 9.16349 21.1687 9.14111 21.6406C9.11821 22.1236 9.25874 22.2931 9.40223 22.4483C9.40674 22.4531 9.6049 22.6811 10.2036 22.6406C10.8023 22.6002 11.4826 22.4158 12.4224 22.0156C14.2661 21.0938 16.393 19.8967 18.0786 18.2188C19.8434 16.3196 21.3348 14.4293 22.1411 12.6562C22.5479 11.7617 22.7071 10.988 22.7505 10.4375C22.773 10.1526 22.7353 9.70457 22.5786 9.53125C22.2595 9.17834 21.607 8.88694 19.8791 9.67951C19.3685 9.4218 18.8249 9.21979 18.2565 9.08145Z" fill="white"/>
<defs>
<linearGradient id="paint0_linear-510283" x1="20" y1="39" x2="16.5" y2="8.5" gradientUnits="userSpaceOnUse">
<stop stop-color="#AFA1D9"/>
<stop offset="1" stop-color="#4D29B1"/>
</linearGradient>
<linearGradient id="paint1_linear-353578" x1="12.0002" y1="21.25" x2="22.7502" y2="12" gradientUnits="userSpaceOnUse">
<stop offset="0.166667" stop-color="#C5C0E0"/>
<stop offset="0.692708" stop-color="#EDEAFA"/>
<stop offset="1" stop-color="white"/>
</linearGradient>
<linearGradient id="paint2_linear-440039" x1="9.64882" y1="25.7744" x2="28.2996" y2="2.8635" gradientUnits="userSpaceOnUse">
<stop offset="0.203125" stop-color="#CCC5F2" stop-opacity="0"/>
<stop offset="1" stop-color="#BEB5EF"/>
</linearGradient>
<linearGradient id="paint3_linear-126615" x1="6.00049" y1="26.75" x2="36.0005" y2="-2.5" gradientUnits="userSpaceOnUse">
<stop offset="0.203125" stop-color="#CCC5F2" stop-opacity="0"/>
<stop offset="1" stop-color="#BEB5EF"/>
</linearGradient>
</defs>
</svg>
