<svg width="32" height="32" viewBox="0 0 32 32" fill="none" xmlns="http://www.w3.org/2000/svg">
<rect width="32" height="32" fill="url(#paint0_linear-081924)"/>
<path fill-rule="evenodd" clip-rule="evenodd" d="M18.2385 17.8125L22.0956 25.6875H20.8099L18.2385 20.4375V27H16.9528V19.125L14.3813 25.6875H13.0956L15.667 19.125L18.2385 17.8125ZM16.9528 6H15.667V7.3125H16.9528V6ZM14.3813 9.9375H13.0956V11.25H14.3813V9.9375ZM10.5242 7.3125H9.23847V8.625H10.5242V7.3125ZM8.76275 17.8125C8.62928 17.9082 8.53469 18.0505 8.4968 18.2124C8.45891 18.3744 8.48034 18.5449 8.55704 18.6919L9.26418 19.8994C9.43132 20.2013 9.79132 20.3062 10.087 20.1619L11.8742 19.2956L10.3828 16.6706L8.74989 17.7994L8.76275 17.8125ZM18.907 10.7381L11.4499 15.9225L13.0313 18.7312L21.1699 14.7544L18.8942 10.7381H18.907ZM24.3328 12.4181L22.4428 9.11062C22.398 9.03213 22.338 8.96377 22.2665 8.90969C22.195 8.85562 22.1134 8.81697 22.0268 8.79609C21.9402 8.77522 21.8504 8.77256 21.7627 8.78827C21.6751 8.80399 21.5915 8.83775 21.517 8.8875L19.9742 9.97688L22.3399 14.1769L24.0499 13.3369C24.397 13.1662 24.5128 12.7594 24.3328 12.4181Z" fill="white"/>
<defs>
<linearGradient id="paint0_linear-081924" x1="8.62278" y1="1.77436" x2="28.7641" y2="35.0352" gradientUnits="userSpaceOnUse">
<stop stop-color="#3E60D8"/>
<stop offset="1" stop-color="#9B69AE"/>
</linearGradient>
</defs>
</svg>
