<svg width="32" height="32" viewBox="0 0 32 32" fill="none" xmlns="http://www.w3.org/2000/svg">
<rect width="32" height="32" rx="6" fill="url(#paint0_linear_5611_47492)"/>
<path fill-rule="evenodd" clip-rule="evenodd" d="M20.3483 8.82509L21.2312 7.97614C21.3848 7.82843 21.3848 7.58889 21.2312 7.44118L19.9612 6.22003C19.8076 6.07232 19.5584 6.07232 19.4048 6.22003L18.5217 7.0692C18.3292 6.96142 18.1293 6.86588 17.9232 6.7837C17.7186 6.70217 17.5077 6.63327 17.2915 6.57801V5.37831C17.2915 5.16938 17.1153 5 16.898 5H15.102C14.8847 5 14.7085 5.16938 14.7085 5.37831V6.57803C14.4923 6.63327 14.2814 6.70217 14.0768 6.7837C13.8707 6.86586 13.6708 6.96137 13.4783 7.06916L12.5952 6.22003C12.4416 6.07232 12.1925 6.07232 12.0388 6.22003L10.7688 7.44118C10.6152 7.58889 10.6152 7.82843 10.7688 7.97614L11.6519 8.82522C11.5398 9.01032 11.4405 9.2025 11.355 9.40069C11.2702 9.59738 11.1985 9.80024 11.1411 10.0082H9.89344C9.67616 10.0082 9.5 10.1776 9.5 10.3865V12.1135C9.5 12.3224 9.67616 12.4918 9.89344 12.4918H11.1409C11.1984 12.6998 11.2701 12.9028 11.3549 13.0995C11.4404 13.2977 11.5397 13.4898 11.6517 13.6749L10.7688 14.5239C10.6152 14.6716 10.6152 14.9111 10.7688 15.0588L12.0388 16.28C12.1925 16.4277 12.4416 16.4277 12.5952 16.28L13.4783 15.4308C13.6708 15.5386 13.8707 15.6341 14.0768 15.7163C14.2814 15.7978 14.4923 15.8667 14.7085 15.922V17.1217C14.7085 17.3306 14.8847 17.5 15.102 17.5H16.898C17.1153 17.5 17.2915 17.3306 17.2915 17.1217V15.9222C17.5078 15.8669 17.7189 15.798 17.9235 15.7164C18.1296 15.6343 18.3294 15.5388 18.5219 15.431L19.4048 16.28C19.5584 16.4277 19.8075 16.4277 19.9612 16.28L21.2312 15.0588C21.3848 14.9111 21.3848 14.6716 21.2312 14.5238L20.348 13.6747C20.4601 13.4896 20.5595 13.2974 20.645 13.0992C20.7297 12.9025 20.8014 12.6997 20.8589 12.4918H22.1066C22.3238 12.4918 22.5 12.3224 22.5 12.1135V10.3865C22.5 10.1776 22.3238 10.0082 22.1066 10.0082H20.8591C20.8016 9.80016 20.7299 9.59723 20.6451 9.40044C20.5596 9.20231 20.4603 9.01017 20.3483 8.82509ZM16 9.22406C16.5818 9.22406 17.1086 9.45085 17.4898 9.81747C17.8711 10.1841 18.107 10.6906 18.107 11.25C18.107 11.8094 17.8711 12.3159 17.4898 12.6825C17.1086 13.0492 16.5818 13.2759 16 13.2759C15.4182 13.2759 14.8914 13.0492 14.5102 12.6825C14.1289 12.3159 13.893 11.8094 13.893 11.25C13.893 10.6906 14.1289 10.1841 14.5102 9.81747C14.8914 9.45085 15.4182 9.22406 16 9.22406Z" fill="#2C0F66"/>
<path d="M6.09787 23.5524C6.47947 22.0321 7.03832 21.0068 7.06158 20.9645C7.46732 20.0767 8.19979 19.3529 9.14684 18.7876C10.1662 18.1791 11.4348 17.7533 12.8073 17.5043C12.882 17.4908 12.9618 17.5053 13.0307 17.5501C13.4872 17.8483 13.9876 18.0827 14.5194 18.241C15.0322 18.3935 15.5768 18.4754 16.1423 18.4754C16.6857 18.4754 17.21 18.3996 17.7057 18.258C18.2124 18.1133 18.6909 17.8999 19.1307 17.6284C19.1982 17.5801 19.2845 17.5588 19.3719 17.5765C20.7128 17.8484 21.9444 18.2831 22.9276 18.876C23.8492 19.4317 24.556 20.1287 24.9384 20.9645C24.9617 21.0069 25.5206 22.0321 25.9021 23.5524C25.9058 23.5672 25.9079 23.5826 25.9095 23.5982C25.9097 23.6007 26 24.4526 26 24.7093C26 25.0052 25.8145 25.3145 25.7599 25.3991C25.7278 25.4544 25.679 25.5004 25.6167 25.5282C23.4281 26.5094 19.7095 27 16 27C12.2905 27 8.57189 26.5094 6.38331 25.5282C6.3335 25.506 6.28894 25.4699 6.25512 25.4217C6.2544 25.4207 6 25.0558 6 24.7093C6 24.4756 6.0748 23.7488 6.08842 23.6184C6.08926 23.5966 6.09235 23.5745 6.09787 23.5524Z" fill="#2C0F66"/>
<defs>
<linearGradient id="paint0_linear_5611_47492" x1="2.5" y1="1.5" x2="29.5" y2="30" gradientUnits="userSpaceOnUse">
<stop stop-color="#E1E0FA"/>
<stop offset="1" stop-color="#B7AFED"/>
</linearGradient>
</defs>
</svg>
