<svg width="32" height="32" viewBox="0 0 32 32" fill="none" xmlns="http://www.w3.org/2000/svg">
<rect width="32" height="32" fill="url(#paint0_linear-105514)"/>
<path d="M25.4446 15.4444C25.4446 20.6606 18.0984 26 16.0001 26C13.9012 26 6.55566 20.6606 6.55566 15.4444C6.55566 10.2283 10.784 6 16.0001 6C21.2162 6 25.4446 10.2283 25.4446 15.4444Z" fill="white"/>
<path d="M13.502 14.2471C15.2375 15.9827 15.5886 17.4446 14.7209 18.3124C13.8531 19.1802 12.0947 19.126 10.3592 17.3899C8.62308 15.6544 7.91975 13.5438 8.78808 12.676C9.65641 11.8082 11.7664 12.5116 13.502 14.2471ZM18.4986 14.2471C16.7631 15.9827 16.4131 17.4446 17.2809 18.3124C18.1486 19.1802 19.9059 19.126 21.6414 17.3899C23.3775 15.6538 24.0809 13.5438 23.2125 12.676C22.3447 11.8082 20.2342 12.511 18.4986 14.2471ZM16.0003 23.2221C14.6964 23.2221 14.0142 22.5777 13.9409 22.5038C13.8359 22.4004 13.7764 22.2595 13.7754 22.1122C13.7743 21.9649 13.8319 21.8232 13.9353 21.7182C14.0387 21.6133 14.1796 21.5538 14.3269 21.5528C14.4742 21.5517 14.6159 21.6093 14.7209 21.7127C14.7492 21.7388 15.1686 22.111 16.0003 22.111C16.8442 22.111 17.2631 21.7282 17.2809 21.7116C17.3875 21.6115 17.529 21.5571 17.6753 21.5602C17.8215 21.5632 17.9607 21.6233 18.0631 21.7277C18.1647 21.8314 18.2213 21.971 18.2207 22.1162C18.2201 22.2613 18.1622 22.4004 18.0597 22.5032C17.9864 22.5777 17.3042 23.2221 16.0003 23.2221Z" fill="#A7A9B2"/>
<defs>
<linearGradient id="paint0_linear-105514" x1="16" y1="0" x2="16" y2="32" gradientUnits="userSpaceOnUse">
<stop stop-color="#C3C6D4"/>
<stop offset="1" stop-color="#E3E2EB"/>
</linearGradient>
</defs>
</svg>
