<?xml version="1.0" encoding="utf-8"?>
<!-- Generator: Adobe Illustrator 24.0.0, SVG Export Plug-In . SVG Version: 6.00 Build 0)  -->
<svg version="1.1" id="Layer_1" xmlns="http://www.w3.org/2000/svg" xmlns:xlink="http://www.w3.org/1999/xlink" x="0px" y="0px"
	 viewBox="0 0 32 32" style="enable-background:new 0 0 32 32;" xml:space="preserve">
<style type="text/css">
	.st0{fill:url(#SVGID_1_);}
	.st1{opacity:0.2;fill:#FFFFFF;}
	.st2{opacity:0.8;fill:#FFFFFF;}
	.st3{opacity:0.5;fill:#FFFFFF;}
</style>
<linearGradient id="SVGID_1_" gradientUnits="userSpaceOnUse" x1="-9.094947e-13" y1="31.9999" x2="31.9999" y2="1.964651e-12">
	<stop  offset="0" style="stop-color:#543EA8"/>
	<stop  offset="1" style="stop-color:#613AB2"/>
</linearGradient>
<rect class="st0" width="32" height="32"/>
<g>
	<polygon class="st1" points="16.1,10.1 21.3,13.2 21.3,19.5 23.6,20.9 23.6,11.9 16.1,7.4 	"/>
	<polygon class="st2" points="8.5,11.9 16.1,7.4 23.6,11.9 26.1,10.4 16.1,4.4 6.1,10.4 	"/>
	<polygon class="st3" points="10.8,19.5 10.8,13.3 16.1,10.1 16.1,7.4 8.5,11.9 8.5,20.9 	"/>
	<polygon class="st1" points="16.1,25.4 8.5,20.9 8.5,11.9 6.1,10.4 6.1,22.4 16.1,28.4 	"/>
	<polygon class="st2" points="21.3,19.5 16.1,22.7 10.8,19.5 8.5,20.9 16.1,25.4 23.6,20.9 	"/>
	<polygon class="st3" points="23.6,11.9 23.6,20.9 16.1,25.4 16.1,28.4 26.1,22.4 26.1,10.4 	"/>
</g>
</svg>
