<svg width="32" height="32" viewBox="0 0 32 32" fill="none" xmlns="http://www.w3.org/2000/svg">
<g clip-path="url(#clip0-449515)">
<path d="M0 0H32V32H0V0Z" fill="url(#paint0_linear-406779)"/>
<g style="mix-blend-mode:overlay">
<path d="M13.4854 7.717C14.2107 7.58901 14.6376 7.16234 14.7653 6.43701C14.8933 7.16234 15.3203 7.58901 16.0453 7.717C15.3203 7.84529 14.8933 8.27167 14.7653 8.997C14.6376 8.27167 14.2107 7.84529 13.4854 7.717Z" fill="white"/>
<path d="M23.2695 22.6585C24.1034 22.5113 24.5942 22.0208 24.741 21.187C24.8881 22.0208 25.379 22.5113 26.2125 22.6585C25.379 22.806 24.8881 23.2961 24.741 24.1299C24.5942 23.2961 24.1034 22.806 23.2695 22.6585Z" fill="white"/>
<path d="M7.08398 10.9191C8.17285 10.7269 8.81378 10.0864 9.00551 8.99756C9.19766 10.0864 9.8386 10.7269 10.927 10.9191C9.8386 11.1117 9.19766 11.7517 9.00551 12.8406C8.81378 11.7517 8.17285 11.1117 7.08398 10.9191Z" fill="white"/>
</g>
<path d="M11.0937 22.9373L11.9687 23.7498L6.50018 35.4998L-1.4999 30L11.0937 22.9373Z" fill="url(#paint1_linear-110069)"/>
<path d="M10.5696 23.0459L12.0108 24.1326L3.12407 36.4926L-3.55493 30.3024L10.5696 23.0459Z" fill="url(#paint2_linear-169139)"/>
<path d="M24.1801 8.31274C24.1398 8.3208 24.1509 8.33039 24.1519 8.28882C18.1371 9.56909 14.8904 12.28 13.1466 14.985C13.0849 15.0809 13.0245 15.1775 12.9653 15.2749L12.9634 15.2777C11.1018 18.3469 11.1107 21.3955 11.1569 22.2286L10.8961 22.2502L10.7002 23.054L11.8295 24.0105L12.5901 23.685L12.5685 23.4243C13.1864 23.361 13.7974 23.2424 14.3941 23.0701C14.5802 23.0069 14.6393 23.0703 14.7191 24.0337L14.9135 26.3803C14.9526 26.8519 15.2133 27.0109 15.4529 26.7278C16.0322 26.0424 16.1705 25.8747 17.4849 24.3207C18.4795 23.1444 18.5616 22.5002 18.017 21.3734C20.8875 19.4193 23.85 15.6349 24.1801 8.31274Z" fill="#FFFFFD"/>
<path d="M14.7202 24.0318C14.6404 23.0684 14.5813 23.005 14.3952 23.0682C15.1029 22.8244 16.8182 22.1436 18.0181 21.3715C18.5627 22.4983 18.4806 23.1425 17.4859 24.3188C16.1716 25.8728 16.0332 26.0405 15.4539 26.7259C15.2143 27.009 14.9536 26.85 14.9145 26.3783L14.7202 24.0318Z" fill="#D6D1EE"/>
<path d="M24.1791 8.28598C24.1199 9.59639 23.9776 10.8173 23.765 11.911C23.449 11.42 23.0028 10.8285 22.4563 10.3729C21.8497 9.8666 21.1232 9.52985 20.5775 9.32487C22.1113 8.74367 23.3492 8.46288 24.1791 8.28598Z" fill="#D6D1EE"/>
<path d="M12.2677 16.6237C11.8048 16.4809 11.7246 16.4062 11.2031 16.4494C10.6817 16.4926 10.1423 16.8995 9.50204 17.6569C8.48488 18.8592 8.34201 19.0233 7.46541 20.0591C7.17898 20.3979 7.66314 20.4179 8.37676 20.3588C9.74115 20.2458 10.7981 20.1254 11.221 20.496C11.7794 20.9852 12.2677 16.6237 12.2677 16.6237Z" fill="#D6D1EE"/>
<path d="M11.8642 24.1618L10.5445 23.044L10.7734 22.1046L11.3828 22.0542L12.7026 23.172L12.7531 23.7814L11.8642 24.1618Z" fill="white"/>
<g style="mix-blend-mode:multiply">
<path d="M18.0171 21.3557C18.5617 22.4822 18.5058 23.0972 17.5096 24.2733C17.3077 24.5116 15.6383 26.4915 15.4527 26.71C15.2128 26.9929 14.9612 26.8334 14.9136 26.3625L14.8995 26.1925C15.6169 25.3455 17.2327 23.6528 17.5224 22.9962C17.6922 22.6117 17.5353 22.0359 17.4144 21.6925C16.5889 22.2229 14.5003 23.0087 14.3948 23.0528C13.5843 23.2896 12.9498 23.36 12.5686 23.4065L12.5544 23.2355C12.5544 23.2355 20.1611 20.0687 24.1781 8.2689C23.8467 15.6592 20.8876 19.4016 18.0171 21.3557Z" fill="#DCDCE3"/>
</g>
<path d="M18.9169 16.0723C17.9825 16.1497 17.1592 15.4524 17.0818 14.518C17.0044 13.5835 17.7017 12.7603 18.6361 12.6829C19.5706 12.6055 20.3939 13.3028 20.4713 14.2372C20.5487 15.1717 19.8514 15.9949 18.9169 16.0723Z" fill="#FFFFFD"/>
<path d="M18.9228 12.7345C19.3688 12.6976 19.8112 12.7887 20.1527 13.0779C20.4942 13.3672 20.7068 13.7802 20.7437 14.2262C20.7806 14.6722 20.6389 15.1072 20.3497 15.4487C20.0604 15.7902 19.6474 16.0028 19.2014 16.0397C18.7554 16.0767 18.313 15.9349 17.9716 15.6457C17.6301 15.3565 17.4175 14.9434 17.3805 14.4974C17.3436 14.0514 17.4853 13.609 17.7746 13.2676C18.0638 12.9261 18.4768 12.7715 18.9228 12.7345ZM18.8722 12.123C17.6073 12.2278 16.6643 13.3415 16.769 14.6061C16.8738 15.8706 17.9872 16.814 19.2521 16.7092C20.5169 16.6044 21.4167 15.4907 21.3119 14.2262C21.2072 12.9616 20.137 12.0183 18.8722 12.123Z" fill="#7545FF"/>
</g>
<defs>
<linearGradient id="paint0_linear-406779" x1="0.0826054" y1="2.68472" x2="32.0825" y2="31.9096" gradientUnits="userSpaceOnUse">
<stop stop-color="#5B28AE"/>
<stop offset="1" stop-color="#375BDA"/>
</linearGradient>
<linearGradient id="paint1_linear-110069" x1="11.8279" y1="23.5593" x2="6.16148" y2="30.6268" gradientUnits="userSpaceOnUse">
<stop offset="0.177083" stop-color="#521FFF"/>
<stop offset="1" stop-color="#BBA5DC"/>
</linearGradient>
<linearGradient id="paint2_linear-169139" x1="11.3881" y1="23.7467" x2="5.00633" y2="31.6175" gradientUnits="userSpaceOnUse">
<stop offset="0.0989583" stop-color="#9224FF"/>
<stop offset="1" stop-color="#4318BC"/>
</linearGradient>
<clipPath id="clip0-449515">
<rect width="32" height="32" fill="white"/>
</clipPath>
</defs>
</svg>
