<?xml version="1.0" encoding="utf-8"?>
<!-- Generator: Adobe Illustrator 24.0.0, SVG Export Plug-In . SVG Version: 6.00 Build 0)  -->
<svg version="1.1" id="Layer_1" xmlns="http://www.w3.org/2000/svg" xmlns:xlink="http://www.w3.org/1999/xlink" x="0px" y="0px"
	 viewBox="0 0 32 32" style="enable-background:new 0 0 32 32;" xml:space="preserve">
<style type="text/css">
	.st0{fill:#B9DCFF;}
</style>
<path class="st0" d="M25.5,14.6c0-0.5,0.2-1,0.2-1.7c0-3.8-3.2-6.9-7.1-6.9c-2.8,0-5.1,1.5-6.4,3.8c-0.4-0.2-1.1-0.3-1.6-0.3
	c-2.5,0-4.4,1.9-4.4,4.3c0,0.3,0,0.7,0.2,0.9c-3.2,0.5-5.5,2.9-5.5,6c0,3.3,2.8,6,6.2,6h17.6c3.4,0,6.2-2.8,6.2-6
	C31,17.5,28.7,14.9,25.5,14.6z"/>
</svg>
