<svg width="80" height="80" viewBox="0 0 80 80" fill="none" xmlns="http://www.w3.org/2000/svg">
<g clip-path="url(#clip0_11584_31334)">
<rect width="80" height="80" rx="40" fill="#D8D3F6"/>
<path opacity="0.9" d="M68.5806 54.9328C70.1961 50.1573 70.9385 46.3248 63.941 42.2016C60.8125 35.6511 62.0567 31.5724 58.0709 24.8619C54.0851 18.1514 47.8452 17.1388 43.4441 17.1192C42.5813 15.631 41.4586 14.3096 40.1292 13.2179C34.9884 8.84041 31.774 11.1222 34.8461 12.5563C37.6347 13.8565 36.8819 16.6033 36.719 17.1009C35.424 16.1264 33.0957 14.989 29.2463 15.0161C22.4931 15.0512 21.5446 18.8776 24.8088 17.9607C26.5458 17.4724 27.6815 18.1551 28.3674 18.908C26.0337 20.0363 24.023 21.846 23.1487 24.7064C23.1487 24.7064 20.2895 35.5848 17.0796 42.0954C11.3448 46.5141 9.13482 51.4165 10.6801 55.1146C12.2254 58.8127 17.1912 61.5562 19.6248 62.0537C22.0583 62.5512 26.1067 62.5468 19.6664 57.5737C17.1625 54.9602 16.408 52.5953 17.295 50.1826C18.622 53.377 19.4505 55.6191 23.0039 55.6512C28.5924 55.7018 29.5115 58.5002 40.4559 58.549C51.4004 58.5977 52.3443 55.8075 57.9331 55.8068C60.9705 55.3386 62.2833 53.4603 63.015 51.8693C63.2255 53.1637 63.2927 54.4119 62.4804 56.5875C61.668 58.7632 57.4892 61.0857 58.7897 62.0537C60.9201 63.6394 66.965 59.7084 68.5806 54.9328Z" fill="#A59AE9"/>
<path opacity="0.3" d="M17.3136 50.1896C17.3124 50.4475 18.21 52.6043 18.6254 53.1074C17.9191 50.9322 17.6455 47.2042 17.5657 46.3446C15.6535 49.6299 16.763 53.5827 17.3134 54.146C16.4583 52.4167 17.3139 50.118 17.3136 50.1896Z" fill="#625AAF"/>
<path d="M29.0455 41.1405C30.6115 41.1475 31.8866 39.8837 31.8936 38.3177C31.9006 36.7517 30.6367 35.4766 29.0708 35.4697C27.5048 35.4627 26.2297 36.7265 26.2227 38.2925C26.2157 39.8584 27.4796 41.1335 29.0455 41.1405Z" fill="white"/>
<path d="M52.0706 41.0012C53.8775 41.0093 55.3488 39.551 55.3568 37.7441C55.3649 35.9373 53.9066 34.466 52.0998 34.4579C50.2929 34.4499 48.8216 35.9081 48.8136 37.715C48.8055 39.5219 50.2637 40.9932 52.0706 41.0012Z" fill="white"/>
<path opacity="0.19" d="M12.2834 52.1504C12.4151 50.9875 12.2048 50.009 11.8138 49.9647C11.4227 49.9204 10.999 50.8272 10.8673 51.9901C10.7356 53.153 10.9459 54.1316 11.337 54.1759C11.728 54.2201 12.1517 53.3133 12.2834 52.1504Z" fill="#CBC7FC"/>
<path opacity="0.19" d="M68.5579 50.639C68.9216 50.5438 69.1575 49.3758 68.8611 48.2436C68.5648 47.1114 67.8484 46.4438 67.4847 46.539C67.121 46.6342 67.3005 47.6024 67.5968 48.7346C67.8932 49.8667 68.1942 50.7342 68.5579 50.639Z" fill="#CBC7FC"/>
<path opacity="0.3" d="M63.0087 51.8315C62.9041 52.5164 62.0703 53.5303 61.6665 53.9516C62.4528 51.6255 63.0408 48.378 63.1803 46.1628C64.4945 48.7657 64.2294 52.5056 63.1128 53.4027C63.1161 52.657 63.0606 52.0538 63.0087 51.8315Z" fill="#625AAF"/>
<path d="M49.8905 15.097C50.8829 17.8284 48.5092 17.4806 48.5163 18.9547C40.655 22.2853 24.1033 29.5687 23.3519 29.2679C22.2625 28.8318 19.9853 29.6337 19.2241 27.3717C18.4629 25.1097 18.6998 15.2604 29.3306 10.9483C38.8366 7.0924 48.479 11.2118 49.8905 15.097Z" fill="white"/>
<path d="M32.5783 17.185C40.0634 13.7198 49.4094 16.7097 49.2436 18.679L22.5828 29.0216C20.7152 28.3926 23.2219 21.5164 32.5783 17.185Z" fill="#6984E8"/>
<path d="M32.6894 18.3521C40.1363 14.8056 49.4635 17.1177 49.3192 19.0887L22.7726 29.7212C20.8983 29.1125 23.3807 22.7852 32.6894 18.3521Z" fill="#E5C642"/>
<path d="M33.0249 18.5059C40.4719 14.9594 49.494 17.2744 49.3496 19.2454L22.8075 29.8707C20.9331 29.2621 23.7163 22.939 33.0249 18.5059Z" fill="#1A3D9E"/>
<path d="M34.4361 21.5628C42.7429 18.0616 45.4242 18.1729 49.2732 18.5824C51.1953 19.2425 43.7442 24.1062 37.5146 26.9762C31.1787 29.8951 21.0779 31.6694 22.3347 29.7594C23.8864 27.4014 27.8057 24.3575 34.4361 21.5628Z" fill="#0F2E81"/>
<path d="M32.9743 21.3017C32.8243 21.3669 32.6537 21.3617 32.5054 21.2825L30.2606 20.1033C30.1123 20.024 30.0079 19.8862 29.9803 19.7199L29.5189 17.2317C29.4871 17.0672 29.5347 16.903 29.6432 16.7767L31.3135 14.8533C31.3657 14.791 31.4335 14.7418 31.5085 14.7093C31.5835 14.6767 31.6657 14.6608 31.7468 14.6652L34.2907 14.754C34.4571 14.761 34.6096 14.8384 34.708 14.9739L36.2109 17.01C36.3093 17.1455 36.3429 17.3141 36.2995 17.4765L35.6282 19.9218C35.583 20.0801 35.4721 20.2124 35.3221 20.2775L32.9743 21.3017Z" fill="#326DE6"/>
<path d="M31.5491 14.814C31.6075 14.7887 31.6712 14.7759 31.7362 14.7774L34.2801 14.8662C34.4119 14.8733 34.5387 14.9371 34.6143 15.043L36.1172 17.079C36.1988 17.1872 36.2239 17.3248 36.1863 17.455L35.515 19.9003C35.4816 20.0286 35.3884 20.1334 35.2676 20.1859L32.9305 21.2006C32.8096 21.253 32.6695 21.2495 32.5529 21.1862L30.308 20.007C30.1914 19.9438 30.108 19.8315 30.0806 19.6998L29.6192 17.2115C29.5959 17.0781 29.6317 16.9437 29.7183 16.8467L31.3887 14.9233C31.4338 14.879 31.4908 14.8394 31.5491 14.814ZM31.4641 14.6182C31.3767 14.6562 31.2982 14.715 31.2312 14.7887L29.5609 16.7121C29.4286 16.8636 29.3752 17.06 29.4113 17.2572L29.8726 19.7455C29.9088 19.9427 30.03 20.1079 30.21 20.2031L32.4548 21.3823C32.6288 21.4751 32.834 21.4801 33.0131 21.4023L35.3503 20.3877C35.5294 20.3099 35.6659 20.1566 35.7169 19.9661L36.3882 17.5208C36.4434 17.3286 36.4036 17.123 36.2842 16.9619L34.7813 14.9259C34.6619 14.7648 34.482 14.6697 34.281 14.6628L31.7435 14.5662C31.6481 14.5631 31.5516 14.5802 31.4641 14.6182Z" fill="#E5C642"/>
<path d="M35.1361 17.2932C35.1319 17.295 35.1319 17.295 35.1361 17.2932L35.1319 17.295C35.1278 17.2968 35.1236 17.2986 35.1218 17.2944C35.1135 17.298 35.1033 17.2975 35.095 17.3011C35.064 17.3096 35.0372 17.3163 35.0122 17.3272C34.9997 17.3326 34.9872 17.338 34.9687 17.3411L34.9646 17.3429C34.8735 17.3725 34.799 17.3949 34.7233 17.403C34.6887 17.4032 34.6732 17.3902 34.6576 17.3771C34.6558 17.373 34.6516 17.3748 34.6498 17.3706L34.5884 17.3775C34.5289 17.1704 34.4327 16.9757 34.3043 16.8027C34.1745 16.6283 34.0154 16.4779 33.834 16.3582L33.8594 16.3026L33.8558 16.2943C33.8468 16.2735 33.8419 16.2508 33.8495 16.2228C33.8796 16.1552 33.9258 16.0906 33.9809 16.0122C33.9898 15.9985 34.0005 15.9889 34.0093 15.9751C34.0289 15.9518 34.0443 15.9302 34.0621 15.9027C34.0644 15.8968 34.071 15.889 34.0757 15.877C34.078 15.871 34.0822 15.8692 34.0804 15.8651C34.117 15.7898 34.0933 15.701 34.0282 15.6649C33.9947 15.6448 33.9499 15.6444 33.9124 15.6607C33.8791 15.6752 33.8554 15.7003 33.8353 15.7338L33.8306 15.7458C33.824 15.7535 33.8235 15.7637 33.817 15.7715C33.8052 15.8014 33.7957 15.8252 33.7881 15.8533C33.7834 15.8652 33.7805 15.8814 33.7716 15.8951C33.7404 15.983 33.708 16.0565 33.6701 16.1175C33.6612 16.1312 33.6505 16.1408 33.638 16.1462C33.6297 16.1499 33.6214 16.1535 33.6112 16.1529L33.6029 16.1565L33.5673 16.2116C33.4879 16.1768 33.4079 16.1521 33.3278 16.1274C32.9915 16.0402 32.6372 16.0513 32.307 16.1596L32.2793 16.1073L32.2674 16.1026C32.2494 16.0955 32.2274 16.0902 32.2105 16.0629C32.1774 15.998 32.1532 15.9194 32.1254 15.8325L32.1236 15.8283C32.1181 15.8158 32.1151 15.7974 32.1138 15.783C32.1071 15.7563 32.1004 15.7294 32.0919 15.6985L32.0757 15.661C32.0431 15.586 31.9576 15.5488 31.8868 15.5796C31.8535 15.5941 31.8274 15.6252 31.8132 15.661C31.7991 15.6969 31.8011 15.7356 31.8174 15.7731L31.8318 15.8064C31.8445 15.8356 31.8595 15.8588 31.8787 15.8802C31.8883 15.8909 31.8937 15.9034 31.9051 15.9182L31.9069 15.9224C31.9514 16.0021 31.9965 16.0717 32.0171 16.1419C32.0256 16.1729 32.0143 16.1926 32.0073 16.2106L32.0026 16.2225L32.0219 16.2785C31.9505 16.3193 31.8791 16.3602 31.8114 16.4095C31.5214 16.6195 31.3086 16.905 31.1891 17.2342L31.1348 17.2231L31.1264 17.2267C31.1181 17.2303 31.1116 17.2381 31.1033 17.2417C31.0907 17.2472 31.0764 17.2484 31.0603 17.2455C30.9899 17.2315 30.9122 17.2009 30.8268 17.1637C30.8148 17.159 30.8011 17.1501 30.785 17.1472C30.7592 17.1336 30.7353 17.1242 30.7055 17.1124C30.6995 17.11 30.6894 17.1095 30.6774 17.1048C30.6714 17.1024 30.6673 17.1042 30.6655 17.1001C30.6304 17.09 30.5929 17.0922 30.5593 17.1065C30.5218 17.1228 30.4916 17.1557 30.4834 17.194C30.4652 17.2662 30.5139 17.3441 30.5939 17.3688C30.5981 17.367 30.5999 17.3711 30.6041 17.3693C30.6142 17.3699 30.622 17.3764 30.6321 17.3769C30.6644 17.3827 30.6906 17.3862 30.7211 17.3879C30.7354 17.3866 30.7515 17.3895 30.7676 17.3924C30.8625 17.4057 30.9413 17.416 31.0112 17.4402C31.041 17.4519 31.0501 17.4728 31.0591 17.4936L31.0627 17.5019L31.1207 17.5214C31.1178 17.5375 31.1131 17.5494 31.1143 17.5637C31.0489 17.9833 31.1379 18.4051 31.3585 18.7649L31.3116 18.805C31.3134 18.8092 31.3092 18.811 31.311 18.8151C31.3099 18.8354 31.3046 18.8575 31.2851 18.8809C31.2316 18.9288 31.1603 18.9697 31.0764 19.016L31.0722 19.0179C31.0597 19.0233 31.0431 19.0305 31.0324 19.0401C31.0074 19.051 30.9842 19.066 30.9568 19.0828C30.9485 19.0864 30.942 19.0942 30.9337 19.0978C30.9295 19.0996 30.9253 19.1014 30.923 19.1074C30.8552 19.1566 30.8401 19.2474 30.8816 19.3086C30.9194 19.3615 30.9898 19.3755 31.0565 19.3465C31.069 19.3411 31.0773 19.3375 31.088 19.3279C31.0922 19.3261 31.0963 19.3243 31.0945 19.3201C31.1028 19.3165 31.1094 19.3087 31.1177 19.3051C31.1433 19.2841 31.1605 19.2667 31.18 19.2434C31.1907 19.2338 31.1996 19.22 31.2103 19.2105L31.2145 19.2086C31.2809 19.1451 31.3409 19.0894 31.404 19.0521L31.4123 19.0485C31.4373 19.0376 31.4594 19.0429 31.4755 19.0458C31.4797 19.044 31.4815 19.0481 31.4856 19.0463L31.5404 19.0127C31.7742 19.2775 32.0852 19.4693 32.4261 19.559C32.5043 19.5795 32.5789 19.5916 32.6577 19.602L32.6562 19.667C32.6581 19.6712 32.6622 19.6694 32.664 19.6735C32.6796 19.6866 32.6969 19.7038 32.7013 19.7366C32.7034 19.8099 32.6931 19.8887 32.678 19.9794L32.6798 19.9836C32.6769 19.9997 32.6722 20.0116 32.6693 20.0277C32.6617 20.0558 32.6582 20.0821 32.6524 20.1143C32.65 20.1203 32.6495 20.1304 32.6489 20.1406C32.6507 20.1447 32.6484 20.1507 32.6484 20.1507C32.6458 20.236 32.7052 20.3043 32.7803 20.3063C32.8006 20.3074 32.8191 20.3044 32.8357 20.2971C32.8857 20.2754 32.9212 20.2204 32.9263 20.1637C32.9245 20.1595 32.9269 20.1536 32.9269 20.1536C32.9274 20.1434 32.928 20.1333 32.9303 20.1273C32.9302 20.0927 32.9253 20.0701 32.9228 20.0415L32.919 19.9985C32.912 19.9026 32.9039 19.8269 32.9161 19.7523C32.9219 19.72 32.9409 19.7068 32.9539 19.6912C32.9581 19.6894 32.9581 19.6894 32.9604 19.6835L32.9661 19.6166C33.1802 19.6079 33.3964 19.5586 33.5964 19.4718C33.7172 19.4193 33.8368 19.3525 33.9408 19.2727C34.0071 19.2245 34.0703 19.1722 34.1303 19.1162L34.1751 19.1512C34.1793 19.1494 34.1793 19.1494 34.1853 19.1517C34.2079 19.1468 34.2282 19.148 34.2557 19.1657C34.3144 19.2096 34.3701 19.2695 34.4336 19.336L34.4354 19.3402L34.4642 19.3723C34.4834 19.3936 34.4984 19.4168 34.5218 19.4364C34.5296 19.4429 34.5355 19.4453 34.5433 19.4518C34.5451 19.456 34.5511 19.4583 34.5511 19.4583C34.5978 19.4975 34.6604 19.5049 34.7104 19.4832C34.7271 19.476 34.742 19.4646 34.755 19.449C34.7769 19.4197 34.7911 19.3838 34.785 19.3469C34.7788 19.31 34.7625 19.2725 34.7314 19.2464C34.7296 19.2422 34.7254 19.244 34.7236 19.2399C34.7158 19.2333 34.7081 19.2268 34.7021 19.2244C34.6787 19.2049 34.653 19.1913 34.6273 19.1777C34.6136 19.1688 34.6016 19.1641 34.5879 19.1552L34.5861 19.151C34.5095 19.1001 34.4407 19.0557 34.3927 19.0022C34.3717 18.9767 34.3728 18.9564 34.3679 18.9338C34.3661 18.9296 34.3703 18.9278 34.3685 18.9237L34.326 18.8827C34.4907 18.6577 34.5986 18.393 34.6426 18.1065C34.6669 17.9573 34.6692 17.8029 34.6547 17.6556L34.7083 17.6422C34.7125 17.6404 34.7107 17.6363 34.7149 17.6345C34.7279 17.6189 34.735 17.601 34.76 17.5901L34.7683 17.5865C34.8386 17.5659 34.9203 17.5601 35.0121 17.5549L35.0163 17.5531C35.0306 17.5519 35.0467 17.5548 35.061 17.5535C35.0914 17.5552 35.1159 17.5545 35.1486 17.5501C35.157 17.5465 35.1671 17.5471 35.1754 17.5435C35.1796 17.5416 35.1838 17.5398 35.1897 17.5422C35.2041 17.5409 35.2124 17.5373 35.2249 17.5319C35.2874 17.5048 35.3235 17.4396 35.3166 17.3782C35.2949 17.3282 35.2201 17.2814 35.1361 17.2932M33.1186 17.9265L32.9733 18.0935L32.752 18.0856L32.6212 17.9097L32.6774 17.6972L32.8815 17.6085L33.0753 17.7126L33.1186 17.9265ZM34.0179 17.0211C34.11 17.1449 34.1815 17.2827 34.2297 17.4292L33.5127 17.5227C33.4472 17.5313 33.3885 17.4875 33.3757 17.4237C33.3726 17.4052 33.3737 17.3849 33.3808 17.367L33.6877 16.6941C33.8092 16.78 33.9212 16.8898 34.0179 17.0211ZM33.3792 16.5309L33.0017 17.1553C32.9685 17.2044 32.9024 17.2231 32.845 17.1936C32.8271 17.1865 32.8157 17.1717 32.8043 17.1568L32.472 16.494C32.7699 16.4035 33.0897 16.4165 33.3792 16.5309ZM32.0227 16.7138C32.0649 16.6856 32.103 16.6592 32.1452 16.6309L32.3971 17.3138C32.4183 17.3739 32.3941 17.4438 32.3316 17.4709C32.315 17.4781 32.2923 17.483 32.2762 17.4801L31.5503 17.3249C31.647 17.08 31.8088 16.871 32.0227 16.7138ZM31.4589 17.6617L32.1463 17.8881C32.2084 17.9057 32.2433 17.9747 32.2258 18.0368C32.2205 18.0589 32.2093 18.0786 32.1902 18.0918L31.6259 18.5596C31.4779 18.2872 31.4156 17.9726 31.4589 17.6617ZM31.8365 18.8395L32.4501 18.4395C32.5025 18.4118 32.5687 18.4276 32.6047 18.4763C32.6197 18.4995 32.6288 18.5203 32.6295 18.5448L32.6412 19.2675C32.3428 19.2188 32.0559 19.0711 31.8365 18.8395ZM33.7171 19.0084C33.6303 19.0708 33.5399 19.1249 33.4399 19.1683C33.2941 19.2316 33.1416 19.2682 32.9902 19.2844L33.0607 18.5457C33.0777 18.4938 33.1247 18.4536 33.1814 18.4587C33.206 18.4622 33.2297 18.4704 33.2512 18.4828L33.8234 18.9226C33.7914 18.9514 33.7533 18.9778 33.7171 19.0084ZM34.278 18.0767C34.2462 18.2885 34.1666 18.4815 34.0535 18.6544L33.518 18.1392C33.4838 18.0947 33.4811 18.0315 33.5202 17.9848C33.5333 17.9692 33.5523 17.956 33.5731 17.947L34.2885 17.7701C34.3033 17.8726 34.2978 17.974 34.278 18.0767Z" fill="white"/>
<g filter="url(#filter0_d_11584_31334)">
<path d="M64.2126 67.9419C64.1659 67.9422 64.1659 67.9422 64.2126 67.9419L64.1659 67.9422C64.1192 67.9425 64.0725 67.9428 64.0722 67.8955C63.9787 67.8961 63.885 67.8494 63.7913 67.8499C63.4637 67.8047 63.1828 67.7591 62.9022 67.7609C62.7617 67.7618 62.6216 67.7627 62.4341 67.7163L62.3874 67.7165C61.4049 67.6281 60.6092 67.5385 59.8594 67.3064C59.5311 67.1662 59.4365 66.9775 59.3416 66.7886C59.3413 66.7413 59.2946 66.7416 59.2943 66.6943L58.6852 66.5089C58.9584 64.2793 58.8333 62.0182 58.3159 59.8334C57.7914 57.6304 56.892 55.5368 55.6581 53.6462L56.1232 53.2172L56.1226 53.1226C56.1211 52.8858 56.1663 52.6486 56.3517 52.4106C56.9096 51.8861 57.6086 51.4556 58.4471 50.9294C58.5867 50.8339 58.7265 50.7857 58.8664 50.6899C59.1461 50.5462 59.379 50.4028 59.6585 50.2115C59.7049 50.1639 59.798 50.116 59.8911 50.0208C59.9376 49.9729 59.9843 49.9726 59.984 49.9253C60.635 49.3529 60.7695 48.405 60.2979 47.792C60.0619 47.462 59.64 47.2754 59.219 47.2781C58.8452 47.2804 58.5185 47.4244 58.1927 47.6633L58.0998 47.7585C58.0067 47.8064 57.9603 47.9016 57.8671 47.9495C57.6348 48.1878 57.4488 48.3782 57.2634 48.6162C57.1706 48.7114 57.078 48.8542 56.9382 48.9497C56.2877 49.6644 55.6834 50.2365 55.0781 50.6664C54.9386 50.7619 54.7987 50.8104 54.6583 50.8112C54.5648 50.8118 54.4711 50.8124 54.3774 50.7654L54.284 50.766L53.7249 51.1486C53.1128 50.4895 52.4546 49.9253 51.7964 49.3611C48.9635 47.1476 45.5624 45.8046 41.9978 45.4919L41.9472 44.8766L41.8532 44.7825C41.7118 44.6412 41.5241 44.5004 41.475 44.1693C41.4235 43.4118 41.5119 42.5587 41.5993 41.6111L41.599 41.5638C41.5982 41.4216 41.6437 41.232 41.6895 41.0895C41.7344 40.8054 41.7794 40.5206 41.8243 40.1889L41.8216 39.7628C41.8163 38.9104 41.1569 38.2043 40.3621 38.2093C39.9878 38.2116 39.6149 38.4032 39.3361 38.6891C39.0576 38.975 38.9195 39.3547 38.9222 39.781L38.9246 40.1598C38.9267 40.4913 38.9752 40.7751 39.0704 41.0587C39.118 41.2006 39.1189 41.3425 39.1668 41.5318L39.1671 41.5791C39.2665 42.5255 39.4123 43.3771 39.3236 44.1355C39.279 44.4672 39.0927 44.6103 38.9535 44.7534L38.8606 44.8486L38.8175 45.4645C37.9763 45.5645 37.1351 45.6644 36.2945 45.8592C32.6988 46.6869 29.5304 48.554 27.0687 51.2212L26.5989 50.8927L26.5054 50.8933C26.412 50.8939 26.3186 50.9418 26.2252 50.9424C26.0847 50.9433 25.9443 50.8968 25.8032 50.8031C25.1926 50.3809 24.5808 49.7688 23.9218 49.0627C23.8277 48.9687 23.7334 48.827 23.5924 48.7333C23.4037 48.4976 23.2154 48.3093 22.98 48.0742C22.933 48.0269 22.8392 47.9805 22.7452 47.8861C22.6982 47.8391 22.6515 47.8394 22.6512 47.7921C22.3599 47.5515 21.9957 47.42 21.6198 47.4195C21.1988 47.4222 20.7792 47.6143 20.5474 47.9473C20.0836 48.5658 20.23 49.512 20.8882 50.0762C20.9349 50.0759 20.9352 50.1235 20.9819 50.1232C21.0756 50.1699 21.1232 50.2642 21.217 50.3109C21.4988 50.4984 21.7335 50.6392 22.015 50.7796C22.1558 50.826 22.2965 50.9198 22.4375 51.0138C23.2823 51.5292 23.9866 51.9512 24.5511 52.4686C24.7865 52.7037 24.788 52.9405 24.7894 53.1774L24.79 53.272L25.2602 53.6954C25.1676 53.8379 25.0748 53.9334 25.0287 54.0756C22.714 57.8315 21.8532 62.2412 22.4885 66.5942L21.8818 66.7873C21.8821 66.8348 21.8353 66.8351 21.8356 66.8822C21.7434 67.0723 21.6041 67.2627 21.3244 67.4064C20.6246 67.6476 19.7834 67.7478 18.802 67.8486L18.755 67.8489C18.6149 67.8498 18.4277 67.851 18.2879 67.8992C18.0073 67.9009 17.727 67.95 17.3999 67.9994C17.3065 68 17.2134 68.0481 17.1196 68.0487C17.0729 68.049 17.0262 68.0493 16.9795 68.0969C16.1389 68.2914 15.6295 69.0998 15.7747 69.8565C15.9193 70.5188 16.5299 70.9413 17.278 70.9366C17.4184 70.9357 17.5118 70.9351 17.652 70.8867C17.6987 70.8864 17.7454 70.8861 17.7451 70.8388C17.8386 70.8382 17.9317 70.7903 18.0251 70.7897C18.3521 70.693 18.5854 70.5969 18.8651 70.4529C19.005 70.4047 19.1445 70.309 19.2847 70.2611L19.3314 70.2608C20.2178 69.9234 21.0111 69.6343 21.7589 69.535L21.8523 69.5344C22.1329 69.5326 22.321 69.6734 22.4617 69.7674C22.5084 69.7671 22.5087 69.8144 22.5554 69.8141L23.2098 69.7154C24.3542 73.2124 26.5249 76.3245 29.3919 78.5797C30.0498 79.0963 30.7071 79.5185 31.4114 79.9405L31.1347 80.5576C31.135 80.6051 31.1817 80.6049 31.182 80.6519C31.2766 80.8408 31.3715 81.0771 31.2802 81.4091C31.0043 82.1214 30.5878 82.8342 30.0783 83.6426L30.0786 83.6899C29.9861 83.8327 29.8932 83.9279 29.8007 84.0704C29.615 84.3084 29.4761 84.5462 29.2907 84.8315C29.2443 84.8791 29.1982 84.974 29.152 85.0692C29.1523 85.1165 29.1059 85.1641 29.1059 85.1641C28.7369 85.9716 29.0232 86.8696 29.7266 87.1966C29.9141 87.2901 30.1016 87.3365 30.2887 87.3353C30.8499 87.3318 31.4087 86.9492 31.686 86.4265C31.6857 86.3791 31.7322 86.3315 31.7322 86.3315C31.7783 86.2366 31.8244 86.1417 31.8708 86.0938C32.0092 85.7615 32.0544 85.5244 32.1461 85.2396L32.2838 84.8127C32.6052 83.8636 32.8343 83.1043 33.2509 82.4387C33.436 82.1534 33.6698 82.1046 33.8561 82.0085C33.9028 82.0082 33.9028 82.0082 33.9493 81.9606L34.273 81.343C36.3357 82.1352 38.5831 82.5471 40.8276 82.533C42.1839 82.5245 43.586 82.3737 44.8934 82.0341C45.7163 81.8423 46.5269 81.5999 47.3206 81.3083L47.6042 81.8275C47.6512 81.8272 47.6512 81.8272 47.6982 81.8742C47.9324 81.92 48.1199 82.0138 48.3088 82.2967C48.687 82.9573 48.9727 83.7607 49.3056 84.6583L49.3059 84.7057L49.4491 85.1308C49.5443 85.4144 49.5928 85.6983 49.7347 85.9815C49.7823 86.0759 49.8293 86.1232 49.8767 86.2175C49.877 86.2648 49.9243 86.3118 49.9243 86.3118C50.2081 86.8783 50.7714 87.2065 51.3326 87.203C51.5198 87.2018 51.7066 87.1531 51.8929 87.0573C52.219 86.866 52.4978 86.5798 52.5892 86.2004C52.6802 85.8211 52.6776 85.3947 52.4883 85.0171C52.488 84.9698 52.441 84.9701 52.4407 84.9228C52.3934 84.8285 52.3461 84.7341 52.2991 84.6868C52.1568 84.4036 51.9685 84.1679 51.7798 83.9323C51.6855 83.7909 51.5915 83.6969 51.4971 83.5555L51.4968 83.508C50.977 82.7061 50.5048 81.9988 50.2667 81.2897C50.1712 80.9589 50.2635 80.7691 50.3087 80.5319C50.3084 80.4846 50.3551 80.4843 50.3548 80.437L50.1174 79.8702C52.5868 78.3866 54.678 76.2894 56.2521 73.7224C57.0855 72.391 57.7309 70.9189 58.1892 69.4479L58.751 69.539C58.798 69.5387 58.7977 69.4914 58.8441 69.4911C59.0307 69.3953 59.1702 69.2525 59.4508 69.2507L59.5443 69.2501C60.2932 69.34 61.0898 69.6189 61.9806 69.945L62.0274 69.9448C62.1678 69.9912 62.3086 70.0849 62.4493 70.1313C62.7308 70.2718 62.9653 70.3649 63.2932 70.4578C63.3866 70.4572 63.4804 70.5039 63.5741 70.5033C63.6208 70.5031 63.6675 70.5028 63.7145 70.5498C63.8553 70.5962 63.9487 70.5956 64.0891 70.5947C64.7905 70.5903 65.3954 70.1131 65.5787 69.4963C65.5751 68.928 65.0559 68.1732 64.2126 67.9419ZM42.546 65.7579L40.4946 66.7654L38.4307 65.7837L37.9026 63.5614L39.2939 61.7531L41.5854 61.7387L42.9997 63.5293L42.546 65.7579ZM54.7208 60.7563C55.0934 62.32 55.2141 63.9343 55.0782 65.5368L47.91 63.4985C47.2542 63.3134 46.876 62.6525 47.012 61.9887C47.0575 61.7989 47.15 61.6088 47.2893 61.466L52.9155 56.2685C53.7186 57.5896 54.3361 59.1014 54.7208 60.7563ZM50.6529 53.4411L44.5544 57.8838C44.0421 58.2184 43.3398 58.128 42.9158 57.6099C42.7747 57.4686 42.7268 57.2793 42.6786 57.0904L42.2094 49.3738C45.3965 49.7252 48.3726 51.1587 50.6529 53.4411ZM37.0667 49.6427C37.5806 49.5448 38.0474 49.4473 38.5613 49.3494L38.1882 56.9288C38.1456 57.592 37.6347 58.1635 36.9331 58.1679C36.7462 58.1691 36.512 58.1233 36.371 58.0295L30.1232 53.5702C32.0284 51.6164 34.405 50.2751 37.0667 49.6427ZM27.8963 56.4255L33.4927 61.4102C34.0099 61.8333 34.0617 62.6379 33.6442 63.1615C33.505 63.3516 33.319 63.495 33.0854 63.5441L25.8503 65.7206C25.5494 62.5021 26.2303 59.2302 27.8963 56.4255ZM26.7141 69.267L34.142 67.9414C34.7496 67.8903 35.3135 68.3131 35.4575 68.9278C35.506 69.2114 35.5075 69.4485 35.4156 69.686L32.6067 76.665C29.9771 74.9766 27.8561 72.3852 26.7141 69.267ZM43.843 78.5835C42.7688 78.8271 41.6941 78.9758 40.5717 78.9828C38.9351 78.9931 37.3432 78.7192 35.8441 78.255L39.4957 71.4599C39.867 71.0312 40.4738 70.8381 40.99 71.119C41.2092 71.2531 41.4009 71.4287 41.5545 71.6362L45.1966 78.1962C44.7768 78.3408 44.3099 78.4386 43.843 78.5835ZM52.9203 71.9438C51.7631 73.8452 50.2292 75.3703 48.4599 76.5654L45.4689 69.4329C45.3249 68.8658 45.5549 68.2487 46.1143 67.9608C46.3005 67.865 46.5341 67.8162 46.768 67.8147L54.2584 69.0465C53.9844 70.0899 53.5226 71.0402 52.9203 71.9438Z" fill="#326DE6"/>
</g>
</g>
<defs>
<filter id="filter0_d_11584_31334" x="-14.7712" y="15.3181" width="110.872" height="110.169" filterUnits="userSpaceOnUse" color-interpolation-filters="sRGB">
<feFlood flood-opacity="0" result="BackgroundImageFix"/>
<feColorMatrix in="SourceAlpha" type="matrix" values="0 0 0 0 0 0 0 0 0 0 0 0 0 0 0 0 0 0 127 0" result="hardAlpha"/>
<feOffset dy="7.6303"/>
<feGaussianBlur stdDeviation="15.2606"/>
<feComposite in2="hardAlpha" operator="out"/>
<feColorMatrix type="matrix" values="0 0 0 0 0 0 0 0 0 0 0 0 0 0 0 0 0 0 0.25 0"/>
<feBlend mode="normal" in2="BackgroundImageFix" result="effect1_dropShadow_11584_31334"/>
<feBlend mode="normal" in="SourceGraphic" in2="effect1_dropShadow_11584_31334" result="shape"/>
</filter>
<clipPath id="clip0_11584_31334">
<rect width="80" height="80" rx="40" fill="white"/>
</clipPath>
</defs>
</svg>
