<svg width="100" height="13" viewBox="0 0 100 13" fill="none" xmlns="http://www.w3.org/2000/svg">
<path d="M20.7012 1.85484C20.1967 1.69268 19.6021 1.62061 18.9354 1.62061H15.6741H15.512L15.4759 1.78277L12.6111 12.3413H14.539L15.494 8.80979H17.5841C18.3408 8.80979 19.0615 8.7197 19.6922 8.55754C20.3408 8.37736 20.8994 8.12511 21.3678 7.78277C21.8543 7.44043 22.2327 7.00799 22.485 6.50349C22.7372 6.017 22.8813 5.42241 22.8813 4.77376C22.8813 3.90889 22.6111 3.20619 22.0525 2.64763C21.6922 2.28727 21.2237 2.01701 20.7012 1.85484ZM20.1967 6.46745C19.6201 6.86385 18.7732 7.08007 17.6561 7.08007H15.9624L16.9534 3.40439H18.8994C19.7102 3.40439 20.2868 3.58457 20.6291 3.92691C20.8633 4.16115 20.9895 4.46745 20.9895 4.86385C20.9895 5.56655 20.7372 6.08907 20.1967 6.46745Z" fill="#222532"/>
<path d="M8.0523 1.62061C7.49374 1.62061 6.97122 1.69268 6.48473 1.85484C6.01626 2.01701 5.58383 2.23322 5.24149 2.50349C4.88113 2.79178 4.59284 3.13412 4.39464 3.53052C4.19644 3.92691 4.08834 4.35935 4.08834 4.8098C4.08834 5.17016 4.16041 5.5125 4.28654 5.80079C4.41266 6.08908 4.61086 6.35934 4.88113 6.59358C5.13338 6.8098 5.42167 7.02601 5.78203 7.20619C6.12437 7.38637 6.53879 7.56655 6.98924 7.74673C7.27753 7.85484 7.47572 7.96295 7.67392 8.07106C7.72798 8.10709 7.78203 8.12511 7.83608 8.14313C8.07032 8.26926 8.2505 8.37736 8.37663 8.50349C8.48473 8.6116 8.57482 8.7197 8.62888 8.82781C8.68293 8.93592 8.70095 9.06205 8.70095 9.18817C8.70095 9.40439 8.66491 9.58457 8.57482 9.74673C8.46671 9.92691 8.34059 10.0711 8.16041 10.1972C7.98023 10.3233 7.69194 10.4675 7.49374 10.5215C7.09734 10.6296 6.52077 10.6296 6.10635 10.6296C6.03428 10.6296 2.26852 10.6116 2.26852 10.6116L1.80005 12.3053H6.61086C7.18744 12.3053 7.70996 12.2332 8.17843 12.0891C8.64689 11.9449 9.07933 11.7107 9.45771 11.4224C9.81807 11.1341 10.1244 10.7738 10.3406 10.3774C10.5568 9.96295 10.6649 9.53052 10.6649 9.04403C10.6649 8.68367 10.5928 8.34133 10.4667 8.05304C10.3406 7.76475 10.1604 7.49448 9.90816 7.26025C9.67392 7.02601 9.38563 6.82782 9.04329 6.62962C8.71897 6.44944 8.32257 6.26925 7.90816 6.10709C7.63789 5.99898 7.42167 5.89088 7.20545 5.80079C7.13338 5.76475 7.07933 5.72872 7.00725 5.7107C6.755 5.58457 6.55681 5.47646 6.39464 5.35034C6.26852 5.24223 6.16041 5.13412 6.10635 5.02601C6.0523 4.9179 6.03428 4.79178 6.03428 4.66565C6.03428 4.50349 6.07032 4.34133 6.16041 4.19719C6.2505 4.03502 6.35861 3.89087 6.52077 3.76475C6.68293 3.63862 6.89915 3.53052 7.13338 3.44043C7.38563 3.35034 7.69194 3.3143 7.99825 3.3143H11.9982L12.4667 1.62061H8.0523V1.62061Z" fill="#222532"/>
<path d="M43.26 9.18817C42.5753 10.1071 41.4942 10.6657 40.3771 10.6657C39.4402 10.6657 38.6834 10.3954 38.1969 9.87286C37.7284 9.36836 37.4942 8.64763 37.5483 7.78277C37.6744 5.20619 39.4041 3.35034 41.6564 3.35034C42.8456 3.35034 43.8906 3.98097 44.3591 4.98998L44.4672 5.22421L45.9086 4.35935L46.0708 4.25124L45.9987 4.07106C45.314 2.55754 43.7825 1.63862 41.8726 1.62061H41.8185C38.4311 1.62061 35.8366 4.2152 35.6564 7.76475C35.5843 9.08006 35.9627 10.1972 36.7555 11.026C37.5843 11.9089 38.8095 12.3774 40.251 12.3774C41.7465 12.3774 43.1699 11.7647 44.1429 10.7197L43.26 9.18817Z" fill="#222532"/>
<path d="M54.2325 9.18817C53.5478 10.1251 52.4487 10.6657 51.3136 10.6657C51.2956 10.6657 51.3316 10.6657 51.3136 10.6657C50.4127 10.6476 49.6559 10.3774 49.1875 9.87286C48.737 9.38637 48.5028 8.68367 48.5388 7.80079L56.1244 7.76475L56.1785 7.62061C56.2866 7.33232 56.4848 6.79178 56.5929 6.19718C56.8091 4.86385 56.5568 3.72871 55.8361 2.88187C55.1514 2.07106 54.0884 1.62061 52.8992 1.62061C49.5658 1.62061 46.8271 4.30529 46.6289 7.72871C46.5568 9.00799 46.9172 10.1251 47.6739 10.9359C48.4848 11.8188 49.746 12.3053 51.2235 12.3413C51.2776 12.3413 51.1694 12.3413 51.2235 12.3413C52.3766 12.3413 54.0343 11.8729 55.1334 10.7017L54.2325 9.18817ZM54.683 6.2152L48.8271 6.19718C49.4037 4.53952 50.737 3.47646 52.4307 3.33232C52.5208 3.33232 52.6109 3.3143 52.701 3.3143C53.4217 3.3143 54.0163 3.56655 54.3766 4.017C54.773 4.53953 54.8811 5.29628 54.683 6.2152Z" fill="#222532"/>
<path d="M32.8271 2.48601C32.1244 1.90943 31.1334 1.63916 29.8001 1.63916C29.4577 1.63916 28.791 1.63916 28.1424 1.63916C27.5478 1.63916 26.6469 1.63916 26.3946 1.63916H26.1064L27.1334 3.38691H29.5658C30.4127 3.38691 31.0613 3.54907 31.4577 3.85537C31.8361 4.16168 32.0343 4.61213 32.0343 5.18871C32.0343 5.31484 32.0163 5.45898 31.9982 5.62114C31.9802 5.7833 31.9442 5.92745 31.9082 6.05357V6.07159C31.4757 5.94547 30.9892 5.85537 30.4847 5.74726C29.8721 5.63916 29.2235 5.5851 28.5388 5.5851C27.8721 5.5851 27.2595 5.67519 26.7009 5.83735C26.1424 6.01753 25.6379 6.26979 25.2235 6.57609C24.8091 6.90042 24.4667 7.31483 24.2325 7.7833C23.9982 8.25177 23.8901 8.79231 23.8901 9.36889C23.8901 9.85537 23.9802 10.2878 24.1784 10.6482C24.3586 11.0085 24.6109 11.3329 24.9352 11.5671C25.2415 11.8193 25.6019 11.9995 25.9982 12.1256C26.3946 12.2518 26.8271 12.3238 27.2595 12.3238C27.9262 12.3238 28.5568 12.1977 29.1154 11.9635C29.4397 11.8374 30.2505 11.3329 30.737 11.0085L31.3856 12.1076H32.1424L33.71 6.34186C33.764 6.16168 33.8 5.96348 33.8181 5.7833C33.8181 5.72925 33.8361 5.6752 33.8361 5.62114C33.8721 5.38691 33.8901 5.13466 33.8901 4.91844C33.9262 3.89141 33.5478 3.06259 32.8271 2.48601ZM31.3676 8.10763C31.3496 8.1797 30.8091 10.0896 28.1784 10.6482C28.1784 10.6482 27.8901 10.7202 27.4757 10.7202C27.1694 10.7202 26.8991 10.6842 26.6469 10.6121C26.4487 10.5581 26.3046 10.468 26.1784 10.3779C25.8541 10.1076 25.6919 9.72925 25.6919 9.26078C25.6919 8.97249 25.764 8.66618 25.9082 8.39591C26.0343 8.14366 26.3406 7.87339 26.5748 7.71123C26.791 7.54907 27.0613 7.40492 27.4397 7.2788C27.782 7.17069 28.1604 7.11663 28.5928 7.11663C29.1874 7.11663 29.764 7.15267 30.3046 7.24276C30.755 7.31483 31.1514 7.38691 31.5298 7.49501L31.3676 8.10763Z" fill="#222532"/>
<path d="M92.1787 3.63981L91.6562 5.58575H97.3138L96.6472 8.01818H90.9895L90.4129 10.1263H96.7913L96.1066 12.6488H86.5391L89.6562 1.15332H98.503L97.8183 3.65783H92.1787V3.63981Z" fill="#222532"/>
<path d="M86.8811 1.1333L83.7639 12.6288H81.1153L77.4036 6.32249L75.6919 12.6288H72.5027L75.6198 1.1333H78.2865L81.9802 7.40357L83.6739 1.1333H86.8811Z" fill="#222532"/>
<path d="M59.025 7.81882C59.3133 3.81882 62.4664 0.899902 66.7006 0.899902C70.2502 0.899902 72.2862 2.98999 72.088 5.98099C71.7997 9.98098 68.6466 12.8999 64.4124 12.8999C60.8628 12.8819 58.8268 10.7918 59.025 7.81882ZM68.7547 6.16117C68.8628 4.62963 67.9619 3.58459 66.2502 3.58459C64.016 3.58459 62.5385 5.42243 62.3763 7.60261C62.2682 9.13414 63.1691 10.1792 64.8808 10.1792C67.1151 10.1792 68.5925 8.34135 68.7547 6.16117Z" fill="#222532"/>
</svg>
