<svg width="14" height="14" viewBox="0 0 14 14" fill="none" xmlns="http://www.w3.org/2000/svg">
<rect opacity="0.1" x="0.875" y="3.0625" width="11.8125" height="7.875" fill="#515364"/>
<path fill-rule="evenodd" clip-rule="evenodd" d="M11.8125 3.28125H2.1875C1.82506 3.28125 1.53125 3.57506 1.53125 3.9375V10.0625C1.53125 10.4249 1.82506 10.7188 2.1875 10.7188H11.8125C12.1749 10.7188 12.4688 10.4249 12.4688 10.0625V3.9375C12.4688 3.57506 12.1749 3.28125 11.8125 3.28125ZM2.1875 2.625C1.46263 2.625 0.875 3.21263 0.875 3.9375V10.0625C0.875 10.7874 1.46263 11.375 2.1875 11.375H11.8125C12.5374 11.375 13.125 10.7874 13.125 10.0625V3.9375C13.125 3.21263 12.5374 2.625 11.8125 2.625H2.1875Z" fill="#515364"/>
<path d="M11.1256 8.4371C11.0031 8.4371 10.898 8.39401 10.8105 8.30784C10.723 8.22166 10.6799 8.11664 10.6813 7.99276C10.6799 7.87158 10.723 7.7679 10.8105 7.68173C10.898 7.59555 11.0031 7.55247 11.1256 7.55247C11.2441 7.55247 11.3471 7.59555 11.4346 7.68173C11.5235 7.7679 11.5686 7.87158 11.5699 7.99276C11.5686 8.0749 11.547 8.14963 11.5053 8.21695C11.4649 8.28428 11.411 8.33813 11.3437 8.37853C11.2777 8.41758 11.205 8.4371 11.1256 8.4371Z" fill="#515364"/>
<path d="M8.69718 9.62065C8.43461 9.62065 8.20908 9.58497 8.02057 9.51361C7.83207 9.44359 7.68059 9.34934 7.56614 9.23085C7.45169 9.11236 7.37225 8.98108 7.32781 8.837L7.98624 8.67745C8.01586 8.73804 8.05895 8.79795 8.1155 8.8572C8.17205 8.91779 8.24813 8.96761 8.34373 9.00666C8.44067 9.04705 8.56253 9.06725 8.70929 9.06725C8.91665 9.06725 9.08832 9.01676 9.22432 8.91577C9.36031 8.81613 9.42831 8.65186 9.42831 8.42296V7.83523H9.39195C9.35425 7.91063 9.29905 7.98805 9.22634 8.06749C9.15498 8.14694 9.06005 8.21359 8.94156 8.26744C8.82442 8.3213 8.67698 8.34823 8.49924 8.34823C8.26092 8.34823 8.04481 8.29236 7.85092 8.1806C7.65837 8.06749 7.50487 7.89919 7.39042 7.67567C7.27732 7.45081 7.22077 7.1694 7.22077 6.83143C7.22077 6.49077 7.27732 6.2033 7.39042 5.96902C7.50487 5.73338 7.65904 5.55498 7.85294 5.43379C8.04683 5.31126 8.26294 5.25 8.50126 5.25C8.68304 5.25 8.8325 5.28097 8.94964 5.34291C9.06813 5.4035 9.16238 5.47688 9.2324 5.56305C9.30241 5.64788 9.3556 5.728 9.39195 5.8034H9.43235V5.29039H10.1534V8.44316C10.1534 8.70841 10.0901 8.92789 9.96353 9.10158C9.83696 9.27528 9.66394 9.40521 9.44447 9.49139C9.22499 9.57756 8.97589 9.62065 8.69718 9.62065ZM8.70323 7.77464C8.85808 7.77464 8.99003 7.73693 9.0991 7.66153C9.20816 7.58613 9.29097 7.47774 9.34752 7.33636C9.40407 7.19498 9.43235 7.02532 9.43235 6.82739C9.43235 6.63215 9.40407 6.46115 9.34752 6.31439C9.29232 6.16762 9.21018 6.05384 9.10112 5.97306C8.9934 5.89092 8.86077 5.84985 8.70323 5.84985C8.54031 5.84985 8.40432 5.89227 8.29525 5.9771C8.18619 6.06192 8.10405 6.17839 8.04885 6.3265C7.99364 6.47327 7.96604 6.64023 7.96604 6.82739C7.96604 7.01725 7.99364 7.18353 8.04885 7.32626C8.1054 7.46764 8.18821 7.57805 8.29727 7.65749C8.40768 7.73559 8.543 7.77464 8.70323 7.77464Z" fill="#515364"/>
<path d="M6.37631 8.4371C6.25378 8.4371 6.14875 8.39401 6.06123 8.30784C5.97371 8.22166 5.93062 8.11664 5.93197 7.99276C5.93062 7.87158 5.97371 7.7679 6.06123 7.68173C6.14875 7.59555 6.25378 7.55247 6.37631 7.55247C6.4948 7.55247 6.5978 7.59555 6.68532 7.68173C6.77419 7.7679 6.8193 7.87158 6.82064 7.99276C6.8193 8.0749 6.79775 8.14963 6.75601 8.21695C6.71562 8.28428 6.66176 8.33813 6.59444 8.37853C6.52846 8.41758 6.45575 8.4371 6.37631 8.4371Z" fill="#515364"/>
<path d="M4.15541 8.45326C3.84438 8.45326 3.57576 8.38863 3.34955 8.25937C3.12469 8.12876 2.95167 7.94429 2.83049 7.70597C2.7093 7.46629 2.64871 7.18421 2.64871 6.85971C2.64871 6.54059 2.7093 6.26053 2.83049 6.01951C2.95302 5.77714 3.12402 5.58864 3.34349 5.45399C3.56297 5.318 3.82082 5.25 4.11704 5.25C4.30824 5.25 4.48867 5.28097 4.65832 5.34291C4.82932 5.4035 4.98013 5.49775 5.11074 5.62567C5.24269 5.75358 5.34637 5.9165 5.42177 6.11444C5.49718 6.31102 5.53488 6.54531 5.53488 6.81729V7.04148H2.99206V6.54867H4.83404C4.83269 6.40864 4.8024 6.28409 4.74315 6.17503C4.68391 6.06462 4.6011 5.97777 4.49473 5.91448C4.3897 5.8512 4.26717 5.81956 4.12714 5.81956C3.97768 5.81956 3.8464 5.85591 3.7333 5.92862C3.62019 5.99998 3.532 6.09424 3.46871 6.21138C3.40678 6.32718 3.37513 6.45442 3.37379 6.59311V7.0233C3.37379 7.20373 3.40678 7.35858 3.47275 7.48784C3.53873 7.61575 3.63096 7.71404 3.74945 7.78271C3.86794 7.85004 4.00663 7.8837 4.16551 7.8837C4.27189 7.8837 4.36816 7.86889 4.45433 7.83927C4.54051 7.8083 4.61524 7.76319 4.67852 7.70395C4.7418 7.6447 4.7896 7.57132 4.82192 7.4838L5.50458 7.56055C5.46149 7.74097 5.37936 7.89851 5.25818 8.03316C5.13834 8.16646 4.98484 8.27014 4.79768 8.34419C4.61052 8.4169 4.39643 8.45326 4.15541 8.45326Z" fill="#515364"/>
</svg>
