<svg width="14" height="14" viewBox="0 0 14 14" fill="none" xmlns="http://www.w3.org/2000/svg">
<path fill-rule="evenodd" clip-rule="evenodd" d="M8.563 12.4828C7.70548 13.3403 6.29674 13.3403 5.43311 12.4828L4.23261 11.2823L2.7196 9.76344L1.5191 8.56295C0.661602 7.70545 0.661602 6.2967 1.5191 5.43917L5.43924 1.5191C6.29674 0.661602 7.70548 0.661602 8.563 1.5191L12.4829 5.43904C13.3404 6.29653 13.3404 7.70528 12.4829 8.56278L8.563 12.4828ZM11.8641 7.94406C12.3799 7.42827 12.3799 6.57354 11.8641 6.05776L7.94429 2.13783C7.94429 2.13782 7.94429 2.13783 7.94429 2.13783C7.42847 1.62203 6.57374 1.62204 6.05796 2.13782L2.13783 6.05788C2.13783 6.05788 2.13783 6.05788 2.13783 6.05788C1.62203 6.57371 1.62204 7.42845 2.13782 7.94423L3.3395 9.14591L6.05064 11.8629C6.57437 12.3818 7.43002 12.3783 7.94428 11.8641L11.8641 7.94406Z" fill="#898995"/>
</svg>
